<?xml version="1.0" ?>
<svg baseProfile="full" height="600px" version="1.1" viewBox="145.239005593 145.071 309.521988814 309.858" width="600px" xmlns="http://www.w3.org/2000/svg" xmlns:ev="http://www.w3.org/2001/xml-events" xmlns:xlink="http://www.w3.org/1999/xlink">
	<defs/>
	<path d="M 300.0,171.0 L 312.37676898,171.583107933 L 324.522100636,173.315615982 L 336.36868961,176.171828316 L 347.849422893,180.12547386 L 358.897381369,185.149750557 L 369.445832915,191.217335821 L 379.428238456,198.300366034 L 388.77828883,206.370397638 L 397.371053981,215.334861787 L 389.832193945,221.904914251 M 381.893904684,213.623345655 L 389.832193945,221.904914251 M 373.261213481,206.172329128 L 381.893904684,213.623345655 M 364.053529947,199.638919324 L 373.261213481,206.172329128 M 354.329464009,194.045487232 L 364.053529947,199.638919324 M 344.147395684,189.414983779 L 354.329464009,194.045487232 M 333.565511937,185.770900924 L 344.147395684,189.414983779 M 322.641812746,183.137251154 L 333.565511937,185.770900924 M 311.434104189,181.538577942 L 322.641812746,183.137251154 M 300.0,181.0 L 311.434104189,181.538577942 M 300.0,181.0 L 300.0,171.0" fill="none" stroke="red" stroke-width="0.258"/>
	<path d="M 411.772338207,235.462288617 L 417.366097066,246.286831138 L 421.897340556,257.581974038 L 425.338756884,269.280309785 L 427.663561646,281.314238669 L 428.845525147,293.615963152 L 428.859995339,306.078273539 L 427.706503246,318.38573616 L 425.409531364,330.427075326 L 421.995295092,342.134488675 L 412.539618742,338.880232268 M 415.687045347,328.087574171 L 412.539618742,338.880232268 M 417.805731057,316.980492387 L 415.687045347,328.087574171 M 418.870630395,305.617200872 L 417.805731057,316.980492387 M 418.857262576,294.100329561 L 418.870630395,305.617200872 M 417.766105387,282.742650237 L 418.857262576,294.100329561 M 415.621785736,271.64261199 L 417.766105387,282.742650237 M 412.449334803,260.858433602 L 415.621785736,271.64261199 M 408.273229058,250.448531678 L 412.449334803,260.858433602 M 403.117417584,240.471515005 L 408.273229058,250.448531678 M 403.117417584,240.471515005 L 411.772338207,235.462288617" fill="none" stroke="red" stroke-width="0.258"/>
	<path d="M 411.772338208,364.537711382 L 405.153026568,374.811664849 L 397.529991478,384.48242184 L 388.939992575,393.475854377 L 379.586067681,401.575790573 L 369.596631148,408.685960249 L 359.038314396,414.777770469 L 347.977981127,419.823212667 L 336.482689629,423.794823297 L 324.619686376,426.665662856 L 322.731824867,416.845480631 M 333.67060264,414.198356928 L 322.731824867,416.845480631 M 344.265876865,410.53772496 L 333.67060264,414.198356928 M 354.459360074,405.887709878 L 344.265876865,410.53772496 M 364.192576617,400.271912791 L 354.459360074,405.887709878 M 373.406856255,393.713389785 L 364.192576617,400.271912791 M 382.043296466,386.234612578 L 373.406856255,393.713389785 M 389.978943011,377.926381339 L 382.043296466,386.234612578 M 397.013724338,369.002038424 L 389.978943011,377.926381339 M 403.117417584,359.528484994 L 397.013724338,369.002038424 M 403.117417584,359.528484994 L 411.772338208,364.537711382" fill="none" stroke="red" stroke-width="0.258"/>
	<path d="M 300.0,429.0 L 287.62323102,428.416892067 L 275.477899364,426.684384018 L 263.63131039,423.828171684 L 252.150577107,419.87452614 L 241.102618631,414.850249443 L 230.554167085,408.782664179 L 220.571761544,401.699633966 L 211.22171117,393.629602362 L 202.628946019,384.665138213 L 210.167806055,378.095085749 M 218.106095316,386.376654345 L 210.167806055,378.095085749 M 226.738786519,393.827670872 L 218.106095316,386.376654345 M 235.946470053,400.361080676 L 226.738786519,393.827670872 M 245.670535991,405.954512768 L 235.946470053,400.361080676 M 255.852604316,410.585016221 L 245.670535991,405.954512768 M 266.434488063,414.229099076 L 255.852604316,410.585016221 M 277.358187254,416.862748846 L 266.434488063,414.229099076 M 288.565895811,418.461422058 L 277.358187254,416.862748846 M 300.0,419.0 L 288.565895811,418.461422058 M 300.0,419.0 L 300.0,429.0" fill="none" stroke="red" stroke-width="0.258"/>
	<path d="M 188.227661793,364.537711383 L 182.633902934,353.713168862 L 178.102659444,342.418025962 L 174.661243116,330.719690215 L 172.336438354,318.685761331 L 171.154474853,306.384036848 L 171.140004661,293.921726461 L 172.293496754,281.61426384 L 174.590468636,269.572924674 L 178.004704908,257.865511325 L 187.460381258,261.119767732 M 184.312954653,271.912425829 L 187.460381258,261.119767732 M 182.194268943,283.019507613 L 184.312954653,271.912425829 M 181.129369605,294.382799128 L 182.194268943,283.019507613 M 181.142737424,305.899670439 L 181.129369605,294.382799128 M 182.233894613,317.257349763 L 181.142737424,305.899670439 M 184.378214264,328.35738801 L 182.233894613,317.257349763 M 187.550665197,339.141566398 L 184.378214264,328.35738801 M 191.726770942,349.551468322 L 187.550665197,339.141566398 M 196.882582416,359.528484995 L 191.726770942,349.551468322 M 196.882582416,359.528484995 L 188.227661793,364.537711383" fill="none" stroke="red" stroke-width="0.258"/>
	<path d="M 188.227661792,235.462288618 L 194.846973432,225.188335151 L 202.470008522,215.51757816 L 211.060007425,206.524145623 L 220.413932319,198.424209427 L 230.403368852,191.314039751 L 240.961685604,185.222229531 L 252.022018873,180.176787333 L 263.517310371,176.205176703 L 275.380313624,173.334337144 L 277.268175133,183.154519369 M 266.32939736,185.801643072 L 277.268175133,183.154519369 M 255.734123135,189.46227504 L 266.32939736,185.801643072 M 245.540639926,194.112290122 L 255.734123135,189.46227504 M 235.807423383,199.728087209 L 245.540639926,194.112290122 M 226.593143745,206.286610215 L 235.807423383,199.728087209 M 217.956703534,213.765387422 L 226.593143745,206.286610215 M 210.021056989,222.073618661 L 217.956703534,213.765387422 M 202.986275662,230.997961576 L 210.021056989,222.073618661 M 196.882582416,240.471515006 L 202.986275662,230.997961576 M 196.882582416,240.471515006 L 188.227661792,235.462288618" fill="none" stroke="red" stroke-width="0.258"/>
</svg>
