<?xml version="1.0" ?>
<svg baseProfile="full" height="187px" version="1.1" viewBox="9.54843293458 2.74049361268 412.899821349 128.618850465" width="600px" xmlns="http://www.w3.org/2000/svg" xmlns:ev="http://www.w3.org/2001/xml-events" xmlns:xlink="http://www.w3.org/1999/xlink">
	<defs/>
	<path d="M 61.0715755371,74.2902612396 L 60.3639953796,75.7778576385 L 59.8500789624,77.4870728196 L 59.6083363478,79.4480406312 L 59.6651774613,81.7383229032 L 59.8387913576,84.0334507785 L 60.1130172519,86.2548375677 L 60.4869007826,88.3969438944 L 60.9594074064,90.4542663063 L 61.5294167311,92.4213623143 L 59.6256953654,93.03442427 M 59.0233049343,90.9557712588 L 59.6256953654,93.03442427 M 58.5263247565,88.7920915198 L 59.0233049343,90.9557712588 M 58.1347237424,86.5486994232 L 58.5263247565,88.7920915198 M 57.8485566507,84.2308483759 L 58.1347237424,86.5486994232 M 57.6679584219,81.8437558607 L 57.8485566507,84.2308483759 M 57.6097115235,79.3738866576 L 57.6679584219,81.8437558607 M 57.8943296114,77.0686896505 L 57.6097115235,79.3738866576 M 58.5014036399,75.0493303492 L 57.8943296114,77.0686896505 M 59.3284244629,73.3097387604 L 58.5014036399,75.0493303492 M 59.3284244629,73.3097387604 L 61.0715755371,74.2902612396" fill="none" stroke="red" stroke-width="0.7"/>
	<path d="M 63.0636412079,96.2876341211 L 64.0814180252,98.1978265479 L 65.2237166138,99.9564672479 L 66.488666281,101.556643817 L 67.8748459109,102.991994745 L 69.3815617978,104.256599624 L 71.0090719302,105.344708392 L 72.7586477147,106.250334407 L 74.6323939137,106.966816403 L 76.6328413383,107.486501415 L 76.2355587117,109.446645929 M 74.0230946874,108.871745392 L 76.2355587117,109.446645929 M 71.9402872457,108.075241567 L 74.0230946874,108.871745392 M 69.9913830318,107.066425356 L 71.9402872457,108.075241567 M 68.1802026427,105.855579355 L 69.9913830318,107.066425356 M 66.509733319,104.453660785 L 68.1802026427,105.855579355 M 64.9819488838,102.87186345 L 66.509733319,104.453660785 M 63.5978714657,101.121210805 L 64.9819488838,102.87186345 M 62.357795783,99.2122852046 L 63.5978714657,101.121210805 M 61.2615669773,97.155118108 L 62.357795783,99.2122852046 M 61.2615669773,97.155118108 L 63.0636412079,96.2876341211" fill="none" stroke="red" stroke-width="0.7"/>
	<path d="M 80.9145466715,107.899994881 L 83.0678486563,107.782246722 L 85.1105996635,107.43862072 L 87.0394532092,106.878313592 L 88.8513865463,106.109582625 L 90.5432763112,105.139673853 L 92.1114738409,103.974963085 L 93.551505353,102.621269727 L 94.8579679676,101.084238667 L 96.0246115736,99.3696774148 L 97.7338371875,100.408208975 M 96.4496815359,102.295208491 L 97.7338371875,100.408208975 M 95.0013881703,103.998890798 L 96.4496815359,102.295208491 M 93.395465165,105.508379623 L 95.0013881703,103.998890798 M 91.6392678252,106.812636077 L 93.395465165,105.508379623 M 89.7410805537,107.900795782 L 91.6392678252,106.812636077 M 87.7100128727,108.762550769 L 89.7410805537,107.900795782 M 85.5556996039,109.388463289 L 87.7100128727,108.762550769 M 83.2878761853,109.770106849 L 85.5556996039,109.388463289 M 80.915954318,109.899994386 L 83.2878761853,109.770106849 M 80.915954318,109.899994386 L 80.9145466715,107.899994881" fill="none" stroke="red" stroke-width="0.7"/>
	<path d="M 97.8867867665,95.4970176818 L 98.4905435025,93.6674873944 L 98.9773982792,91.7323240475 L 99.3429641032,89.6960696754 L 99.5828993526,87.5633950349 L 99.6929209249,85.3390667877 L 99.6678921648,83.0773028758 L 99.5048255394,80.915445208 L 99.2079203342,78.8632160219 L 98.7817852604,76.9230025806 L 100.71755312,76.4202075982 M 101.175786324,78.5061397738 L 100.71755312,76.4202075982 M 101.492943633,80.6977609262 L 101.175786324,78.5061397738 M 101.666071142,82.9919754215 L 101.492943633,80.6977609262 M 101.692550751,85.3775448381 L 101.666071142,82.9919754215 M 101.576431889,87.7241060329 L 101.692550751,85.3775448381 M 101.322115325,89.9840982185 L 101.576431889,87.7241060329 M 100.932747736,92.1525721881 L 101.322115325,89.9840982185 M 100.411417284,94.2244828298 L 100.932747736,92.1525721881 M 99.761166756,96.1946563097 L 100.411417284,94.2244828298 M 99.761166756,96.1946563097 L 97.8867867665,95.4970176818" fill="none" stroke="red" stroke-width="0.7"/>
	<path d="M 97.4306122905,73.0993833294 L 96.4599907078,71.2453394619 L 95.333928188,69.5600048098 L 94.0584944876,68.0452365822 L 92.6388780155,66.7028682032 L 91.079418257,65.5350758083 L 89.383820664,64.5447114041 L 87.5555041991,63.735502051 L 85.5979794919,63.112064554 L 83.5151539025,62.6797568115 L 83.8237395396,60.703706482 M 86.1042865273,61.1772123152 L 83.8237395396,60.703706482 M 88.2638851669,61.8651554509 L 86.1042865273,61.1772123152 M 90.2937543488,62.7636946469 L 88.2638851669,61.8651554509 M 92.1847162327,63.8682475673 L 90.2937543488,62.7636946469 M 93.9275013113,65.1733421323 L 92.1847162327,63.8682475673 M 95.5131265668,66.6726312077 L 93.9275013113,65.1733421323 M 96.9332430147,68.3590917883 L 95.5131265668,66.6726312077 M 98.1803505942,70.2253581576 L 96.9332430147,68.3590917883 M 99.2478305918,72.2640883843 L 98.1803505942,70.2253581576 M 99.2478305918,72.2640883843 L 97.4306122905,73.0993833294" fill="none" stroke="red" stroke-width="0.7"/>
	<path d="M 79.1446230207,62.4035201653 L 77.1153998702,62.5643538842 L 75.126048363,62.9435155715 L 73.1885184683,63.529367313 L 71.315393135,64.3102063788 L 69.5197219545,65.274099639 L 67.8148408818,66.4088060792 L 66.214211166,67.7017650369 L 64.7312895404,69.1401261659 L 63.3794290166,70.7108038426 L 61.8064636696,69.4755791596 M 63.2756215056,67.7686194863 L 61.8064636696,69.4755791596 M 64.8879942997,66.2047183364 L 63.2756215056,67.7686194863 M 66.6306679696,64.79705718 L 64.8879942997,66.2047183364 M 68.4908321547,63.559052765 L 66.6306679696,64.79705718 M 70.4556810102,62.5044115227 L 68.4908321547,63.559052765 M 72.5122833971,61.6471595326 L 70.4556810102,62.5044115227 M 74.6474218131,61.0016307588 L 72.5122833971,61.6471595326 M 76.8474121129,60.5823895652 L 74.6474218131,61.0016307588 M 79.0979371722,60.4040651316 L 76.8474121129,60.5823895652 M 79.0979371722,60.4040651316 L 79.1446230207,62.4035201653" fill="none" stroke="red" stroke-width="0.7"/>
	<path d="M 46.1,76.3 L 46.1305704094,78.3905496645 L 46.2217047353,80.4373677347 L 46.3725340606,82.4396004052 L 46.5821847597,84.396399216 L 46.8497786552,86.3069220786 L 47.1744333263,88.1703344032 L 47.5552626025,89.9858103187 L 47.99137728,91.7525339637 L 48.481886098,93.4697008207 L 46.5693001291,94.0545212305 M 46.0586056047,92.2667261955 L 46.5693001291,94.0545212305 M 45.6053554782,90.4306273672 L 46.0586056047,92.2667261955 M 45.2102472564,88.5471275601 L 45.6053554782,90.4306273672 M 44.873980503,86.6171182451 L 45.2102472564,88.5471275601 M 44.5972578149,84.6414808834 L 44.873980503,86.6171182451 M 44.3807855388,82.6210882174 L 44.5972578149,84.6414808834 M 44.2252742651,80.556805491 L 44.3807855388,82.6210882174 M 44.1314391353,78.4494915762 L 44.2252742651,80.556805491 M 44.1,76.3 L 44.1314391353,78.4494915762 M 44.1,76.3 L 46.1,76.3" fill="none" stroke="red" stroke-width="0.7"/>
	<path d="M 49.7989141807,97.1954236587 L 50.604254328,99.0568084009 L 51.4828899042,100.841147568 L 52.4332965585,102.547178651 L 53.4539772444,104.173674291 L 54.5434706375,105.719440087 L 55.7003595417,107.183310193 L 56.9232786198,108.564140491 L 58.210920675,109.860799363 L 59.5620406811,111.072156337 L 58.2710880491,112.599716909 M 56.8330794918,111.310473007 L 58.2710880491,112.599716909 M 55.46433685,109.932164216 L 56.8330794918,111.310473007 M 54.1664003459,108.466653165 L 55.46433685,109.932164216 M 52.9407480314,106.91580134 L 54.1664003459,108.466653165 M 51.7887998179,105.281457726 L 52.9407480314,106.91580134 M 50.711923758,103.565449579 L 51.7887998179,105.281457726 M 49.7114437757,101.769575602 L 50.711923758,103.565449579 M 48.7886480732,99.8956015384 L 49.7114437757,101.769575602 M 47.9447975483,97.9452579828 L 48.7886480732,99.8956015384 M 47.9447975483,97.9452579828 L 49.7989141807,97.1954236587" fill="none" stroke="red" stroke-width="0.7"/>
	<path d="M 62.7652219317,113.439572104 L 64.3098201308,114.367965694 L 65.913111951,115.206305633 L 67.5741186895,115.953269823 L 69.2918769392,116.607470899 L 71.0654237225,117.167455053 L 72.8937823634,117.631704515 L 74.7759501214,117.998643239 L 76.7108883357,118.266645011 L 78.6975154777,118.434043108 L 78.5818773975,120.430697268 M 76.4899297681,120.254401865 L 78.5818773975,120.430697268 M 74.4475308672,119.971494169 L 76.4899297681,120.254401865 M 72.4563711381,119.583286289 L 74.4475308672,119.971494169 M 70.5181838919,119.091130849 L 72.4563711381,119.583286289 M 68.6347383601,118.496430636 L 70.5181838919,119.091130849 M 66.8078298384,117.800646719 L 68.6347383601,118.496430636 M 65.0392673213,117.005304122 L 66.8078298384,117.800646719 M 63.3308593735,116.111994317 L 65.0392673213,117.005304122 M 61.6843992641,115.122374042 L 63.3308593735,116.111994317 M 61.6843992641,115.122374042 L 62.7652219317,113.439572104" fill="none" stroke="red" stroke-width="0.7"/>
	<path d="M 82.9236281707,118.450279903 L 84.9690933582,118.284373109 L 86.9509277419,118.005937895 L 88.8685528965,117.619021726 L 90.7214063709,117.127604391 L 92.5089253094,116.535596101 L 94.2305299292,115.84683988 L 95.8856082855,115.065118035 L 97.4735035881,114.194162044 L 98.9935049844,113.237664841 L 100.10870709,114.897882979 M 98.4876919524,115.917943341 L 100.10870709,114.897882979 M 96.7942089174,116.846815229 L 98.4876919524,115.917943341 M 95.0295868466,117.680281464 L 96.7942089174,116.846815229 M 93.195208664,118.414163416 L 95.0295868466,117.680281464 M 91.2925021392,119.044333277 L 93.195208664,118.414163416 M 89.3229272038,119.56672396 L 91.2925021392,119.044333277 M 87.2879607164,119.977335565 L 89.3229272038,119.56672396 M 85.1890799401,120.272237768 L 87.2879607164,119.977335565 M 83.0277461642,120.447567925 L 85.1890799401,120.272237768 M 83.0277461642,120.447567925 L 82.9236281707,118.450279903" fill="none" stroke="red" stroke-width="0.7"/>
	<path d="M 102.129959151,110.819284512 L 103.501082555,109.536760018 L 104.791713443,108.175733402 L 106.000656313,106.74060817 L 107.126670341,105.235821456 L 108.168480631,103.665847623 L 109.124788914,102.035199176 L 109.994283172,100.348425525 L 110.775645897,98.6101101871 L 111.467560884,96.8248669315 L 113.350602506,97.4987766056 M 112.620883439,99.3815364088 L 113.350602506,97.4987766056 M 111.795990209,101.216671891 L 112.620883439,99.3815364088 M 110.877037484,102.999369779 L 111.795990209,101.216671891 M 109.865138627,104.724786547 L 110.877037484,102.999369779 M 108.761412495,106.388044564 L 109.865138627,104.724786547 M 107.566991689,107.984229289 L 108.761412495,106.388044564 M 106.283032187,109.508388047 L 107.566991689,107.984229289 M 104.910724039,110.955530925 L 106.283032187,109.508388047 M 103.451302613,112.32063439 L 104.910724039,110.955530925 M 103.451302613,112.32063439 L 102.129959151,110.819284512" fill="none" stroke="red" stroke-width="0.7"/>
	<path d="M 112.638780562,92.8804564775 L 113.012399616,91.1357234476 L 113.306263616,89.3673841352 L 113.519403255,87.5790679205 L 113.65086081,85.7744056121 L 113.699689767,83.9570266198 L 113.658846083,81.8778820598 L 113.520916426,79.8298424987 L 113.288159875,77.8412049962 L 112.962891404,75.9136473766 L 114.925733931,75.5299167225 M 115.268111181,77.5587287621 L 114.925733931,75.5299167225 M 115.512504324,79.6466004624 L 115.268111181,77.5587287621 M 115.656982043,81.7915531172 L 115.512504324,79.6466004624 M 115.699674152,83.9649296591 L 115.656982043,81.7915531172 M 115.648380926,85.8739716093 L 115.699674152,83.9649296591 M 115.510257192,87.7701192244 L 115.648380926,85.8739716093 M 115.286235908,89.649713238 L 115.510257192,87.7701192244 M 114.977238821,91.5090957824 L 115.286235908,89.649713238 M 114.584176093,93.3446075613 L 114.977238821,91.5090957824 M 114.584176093,93.3446075613 L 112.638780562,92.8804564775" fill="none" stroke="red" stroke-width="0.7"/>
	<path d="M 111.949102174,71.9463011528 L 111.281729527,70.057239529 L 110.514483378,68.250068551 L 109.650288013,66.5267835299 L 108.692006443,64.8893432034 L 107.642430616,63.3396801029 L 106.504273896,61.8797139479 L 105.280166815,60.5113675155 L 103.972656927,59.236584055 L 102.584213233,58.0573450061 L 103.825760749,56.4893654894 M 105.318929287,57.7575469586 L 103.825760749,56.4893654894 M 106.724463196,59.127890749 L 105.318929287,57.7575469586 M 108.039204109,60.5975325094 L 106.724463196,59.127890749 M 109.260072206,62.1635696974 L 108.039204109,60.5975325094 M 110.384070651,63.8230792987 L 109.260072206,62.1635696974 M 111.408285436,65.5731352415 L 110.384070651,63.8230792987 M 112.329881139,67.4108242659 L 111.408285436,65.5731352415 M 113.146093401,69.333259318 L 112.329881139,67.4108242659 M 113.854219135,71.3375899178 L 113.146093401,69.333259318 M 113.854219135,71.3375899178 L 111.949102174,71.9463011528" fill="none" stroke="red" stroke-width="0.7"/>
	<path d="M 99.2807801617,55.8233592879 L 97.7414670468,55.0067899114 L 96.1384392583,54.2835359079 L 94.4736211296,53.6555943646 L 92.7489493973,53.125028243 L 90.9663846258,52.6939607274 L 89.1279204097,52.3645675165 L 87.2355900696,52.1390678124 L 85.2914708104,52.0197147445 L 83.2174310629,52.0113579805 L 83.165810086,50.0120242728 M 85.3579772561,50.0208208271 L 83.165810086,50.0120242728 M 87.4150019532,50.147131223 L 85.3579772561,50.0208208271 M 89.4224842492,50.3863784092 L 87.4150019532,50.147131223 M 91.3777487368,50.7367229881 L 89.4224842492,50.3863784092 M 93.2780761242,51.196291634 L 91.3777487368,50.7367229881 M 95.1207073937,51.7631675188 L 93.2780761242,51.196291634 M 96.9028504971,52.4353812991 L 95.1207073937,51.7631675188 M 98.6216895587,53.210903409 L 96.9028504971,52.4353812991 M 100.2743963,54.0876384087 L 98.6216895587,53.210903409 M 100.2743963,54.0876384087 L 99.2807801617,55.8233592879" fill="none" stroke="red" stroke-width="0.7"/>
	<path d="M 78.8967321769,52.4082005935 L 76.8483214359,52.8073319105 L 74.8849590742,53.3286800013 L 73.0082135495,53.9638082584 L 71.2197387796,54.7043285601 L 69.5212814285,55.5418753588 L 67.9146802248,56.4680800106 L 66.4018584985,57.4745472792 L 64.9848115362,58.5528351478 L 63.6655903537,59.6944382853 L 62.3099963802,58.2239400775 M 63.7239821282,57.0003180935 L 62.3099963802,58.2239400775 M 65.2414689591,55.8455917497 L 63.7239821282,57.0003180935 M 66.8603959786,54.7685257372 L 65.2414689591,55.8455917497 M 68.5786465634,53.7779480612 L 66.8603959786,54.7685257372 M 70.3940321333,52.8827335079 L 68.5786465634,53.7779480612 M 72.3042795071,52.0917834552 L 70.3940321333,52.8827335079 M 74.3070234384,51.4140023781 L 72.3042795071,52.0917834552 M 76.3998059352,50.8582721768 L 74.3070234384,51.4140023781 M 78.580083545,50.4334262661 L 76.3998059352,50.8582721768 M 78.580083545,50.4334262661 L 78.8967321769,52.4082005935" fill="none" stroke="red" stroke-width="0.7"/>
	<path d="M 61.0117170273,62.5164039752 L 58.1603523226,62.2034444699 L 58.4878211564,60.2427680815 L 58.8982940873,58.295314905 L 59.3922106227,56.3648786366 L 59.9700181068,54.4552679924 L 60.6321694336,52.5703090018 L 61.3791202418,50.7138471763 L 62.2113255405,48.8897494375 L 63.1292357485,47.1019056481 L 64.8865614474,48.0567911847 M 64.0113268006,49.7615266245 L 64.8865614474,48.0567911847 M 63.2172171576,51.502136291 L 64.0113268006,49.7615266245 M 62.5039325982,53.2749384476 L 63.2172171576,51.502136291 M 61.8711777929,55.076228416 L 62.5039325982,53.2749384476 M 61.3186580417,56.9022801083 L 61.8711777929,55.076228416 M 60.8460759,58.7493479542 L 61.3186580417,56.9022801083 M 60.4531283732,60.6136690704 L 60.8460759,58.7493479542 M 60.1395046299,62.4914655532 L 60.4531283732,60.6136690704 M 59.4591194522,61.2556737226 L 60.1395046299,62.4914655532 M 59.4591194522,61.2556737226 L 61.0117170273,62.5164039752" fill="none" stroke="red" stroke-width="0.7"/>
	<path d="M 65.3832569269,43.4163204018 L 66.5082454972,41.8533513801 L 67.7116710386,40.3374075138 L 68.9938317096,38.8718906419 L 70.3549975084,37.4602129525 L 71.7954075171,36.1057922844 L 73.3152681928,34.812046584 L 74.9147529648,33.5823877503 L 76.5940033249,32.4202151935 L 78.3531314933,31.3289094985 L 79.3646473404,33.0542603877 M 77.6906997302,34.092715416 L 79.3646473404,33.0542603877 M 76.0938203461,35.197875327 L 77.6906997302,34.092715416 M 74.5734834377,36.3666830037 L 76.0938203461,35.197875327 M 73.1291925267,37.5961001548 L 74.5734834377,36.3666830037 M 71.7604830717,38.8831009774 L 73.1291925267,37.5961001548 M 70.4669235595,40.2246657163 L 71.7604830717,38.8831009774 M 69.2481151017,41.6177745085 L 70.4669235595,40.2246657163 M 68.103689726,43.0594018404 L 69.2481151017,41.6177745085 M 67.0333076206,44.5465118494 L 68.103689726,43.0594018404 M 67.0333076206,44.5465118494 L 65.3832569269,43.4163204018" fill="none" stroke="red" stroke-width="0.7"/>
	<path d="M 82.2616079407,29.3036388917 L 84.0484709494,28.5385376081 L 85.8992310826,27.8404180242 L 87.813923655,27.2115768595 L 89.7925887641,26.6542887785 L 91.8352749398,26.1708077238 L 93.9420422938,25.7633688693 L 95.9754047306,25.4689781012 L 97.9170758719,25.2536065529 L 99.781032082,25.1089420935 L 99.900843635,27.105350166 M 98.105243728,27.2447350917 L 99.900843635,27.105350166 M 96.227136634,27.4530726173 L 98.105243728,27.2447350917 M 94.2817781626,27.7343025413 L 96.227136634,27.4530726173 M 92.2554586169,28.1261710347 L 94.2817781626,27.7343025413 M 90.2940390393,28.5904054128 L 92.2554586169,28.1261710347 M 88.3971252922,29.1246570592 L 90.2940390393,28.5904054128 M 86.5643116559,29.7265961258 L 88.3971252922,29.1246570592 M 84.7951839786,30.393913487 L 86.5643116559,29.7265961258 M 83.0893233252,31.1243220718 L 84.7951839786,30.393913487 M 83.0893233252,31.1243220718 L 82.2616079407,29.3036388917" fill="none" stroke="red" stroke-width="0.7"/>
	<path d="M 103.865001643,25.0523355337 L 103.7,25.1387772284 L 103.7,23.1301717903 L 103.7,21.1215663523 L 103.7,19.1129609143 L 103.7,17.1043554762 L 103.7,15.0957500382 L 103.36937325,15.8181054778 L 101.615282731,15.8910491158 L 99.6619882305,16.0290221287 L 99.4930908404,14.0361664712 M 101.503513395,13.8941746542 L 99.4930908404,14.0361664712 M 103.316516073,13.8188040701 L 101.503513395,13.8941746542 M 105.7,15.0957500382 L 103.316516073,13.8188040701 M 105.7,17.1043554762 L 105.7,15.0957500382 M 105.7,19.1129609143 L 105.7,17.1043554762 M 105.7,21.1215663523 L 105.7,19.1129609143 M 105.7,23.1301717903 L 105.7,21.1215663523 M 105.7,25.1387772284 L 105.7,23.1301717903 M 103.784616026,27.0507194189 L 105.7,25.1387772284 M 103.784616026,27.0507194189 L 103.865001643,25.0523355337" fill="none" stroke="red" stroke-width="0.7"/>
	<path d="M 95.3150973649,16.52196158 L 93.2650883663,16.805901124 L 91.3260334439,17.1251923407 L 89.4152800983,17.5001924015 L 87.5338169736,17.9306047732 L 85.6826277319,18.4161338364 L 83.8626908101,18.9564854581 L 82.0749792347,19.5513676301 L 80.3204605108,20.2004911692 L 78.6000966018,20.9035704709 L 77.8121486284,19.0653272903 M 79.5951814306,18.3366322004 L 77.8121486284,19.0653272903 M 81.4122816971,17.664350944 L 79.5951814306,18.3366322004 M 83.2623655283,17.0487093821 L 81.4122816971,17.664350944 M 85.1443545665,16.4899297975 L 83.2623655283,17.0487093821 M 87.0571759755,15.9882316476 L 85.1443545665,16.4899297975 M 88.9997623291,15.5438322651 L 87.0571759755,15.9882316476 M 90.9710514266,15.1569474964 L 88.9997623291,15.5438322651 M 92.9699860491,14.827792274 L 90.9710514266,15.1569474964 M 95.0364448867,14.541468511 L 92.9699860491,14.827792274 M 95.0364448867,14.541468511 L 95.3150973649,16.52196158" fill="none" stroke="red" stroke-width="0.7"/>
	<path d="M 74.93624299,22.6409707319 L 73.1962351813,23.5921570094 L 71.5012639109,24.6055474172 L 69.8525277458,25.6808184407 L 68.2512215479,26.8176583634 L 66.6985379574,28.0157680593 L 65.1956690729,29.2748615402 L 63.7438082879,30.5946662114 L 62.4358324925,31.8879432633 L 61.2549927507,33.1518102607 L 59.7702488008,31.8118343643 M 60.9983795297,30.4973574229 L 59.7702488008,31.8118343643 M 62.3687672729,29.1423362878 L 60.9983795297,30.4973574229 M 63.8806103951,27.7680036591 L 62.3687672729,29.1423362878 M 65.4452530622,26.4571542613 L 63.8806103951,27.7680036591 M 67.0612718962,25.2101696928 L 65.4452530622,26.4571542613 M 68.7272422242,24.027418158 L 67.0612718962,25.2101696928 M 70.4417399148,22.9092547239 L 68.7272422242,24.027418158 M 72.2033430585,21.856021867 L 70.4417399148,22.9092547239 M 74.0106334507,20.8680502654 L 72.2033430585,21.856021867 M 74.0106334507,20.8680502654 L 74.93624299,22.6409707319" fill="none" stroke="red" stroke-width="0.7"/>
	<path d="M 58.7184624315,36.1905320806 L 57.6409430922,37.6360736755 L 56.5994593392,39.1362332761 L 55.5958526875,40.6904574089 L 54.6319633391,42.2981933277 L 53.7096304828,43.9588892858 L 52.8306926167,45.6719947493 L 51.9969878863,47.4369605508 L 51.2103544311,49.2532389842 L 50.4726307319,51.1202838411 L 48.6009704659,50.4153811184 M 49.362455685,48.4882094266 L 48.6009704659,50.4153811184 M 50.1749214308,46.6122946599 L 49.362455685,48.4882094266 M 51.0365320039,44.7882596671 L 50.1749214308,46.6122946599 M 51.9454513634,43.0167257998 L 51.0365320039,44.7882596671 M 52.8998434744,41.2983129477 L 51.9454513634,43.0167257998 M 53.8978726547,39.6336396346 L 52.8998434744,41.2983129477 M 54.9377039126,38.0233231709 L 53.8978726547,39.6336396346 M 56.0175032699,36.4679798679 L 54.9377039126,38.0233231709 M 57.135438061,34.9682253096 L 56.0175032699,36.4679798679 M 57.135438061,34.9682253096 L 58.7184624315,36.1905320806" fill="none" stroke="red" stroke-width="0.7"/>
	<path d="M 49.1076021595,55.1482525475 L 48.6086389547,56.8832223828 L 48.1512534645,58.6542032237 L 47.7366211094,60.4608508824 L 47.3659184218,62.3028215505 L 47.040323134,64.1797716701 L 46.7610142474,66.0913577935 L 46.5291720843,68.037236436 L 46.3459783198,70.0170639228 L 46.2126159952,72.0304962346 L 44.2154428274,71.9241978898 M 44.3522481716,69.8588232953 L 44.2154428274,71.9241978898 M 44.5402767654,67.826771687 L 44.3522481716,69.8588232953 M 44.7783704775,65.8284439642 L 44.5402767654,67.826771687 M 45.0653698104,63.8642413708 L 44.7783704775,65.8284439642 M 45.4001139138,61.9345653404 L 45.0653698104,63.8642413708 M 45.7814406165,60.0398173441 L 45.4001139138,61.9345653404 M 46.2081864782,58.1803987423 L 45.7814406165,60.0398173441 M 46.6791868587,56.3567106454 L 46.2081864782,58.1803987423 M 47.193276006,54.569153784 L 46.6791868587,56.3567106454 M 47.193276006,54.569153784 L 49.1076021595,55.1482525475" fill="none" stroke="red" stroke-width="0.7"/>
	<path d="M 128.9,109.7 L 129.24368442,112.425238763 L 130.214830643,114.741572738 L 131.730705799,116.56862364 L 133.729350364,117.834197474 L 136.176178507,118.455087238 L 138.943894427,118.333516436 L 141.310620564,117.510070628 L 143.175084241,116.090892249 L 144.52510114,114.148440831 L 146.317770214,115.035197614 M 144.622724331,117.470869847 L 146.317770214,115.035197614 M 142.256759462,119.272120907 L 144.622724331,117.470869847 M 139.313900262,120.298992378 L 142.256759462,119.272120907 M 135.979424845,120.445385707 L 139.313900262,120.298992378 M 132.938002653,119.67097966 L 135.979424845,120.445385707 M 130.407049139,118.067934497 L 132.938002653,119.67097966 M 128.501891047,115.773967013 L 130.407049139,118.067934497 M 127.310481432,112.93780701 L 128.501891047,115.773967013 M 126.9,109.7 L 127.310481432,112.93780701 M 126.9,109.7 L 128.9,109.7" fill="none" stroke="red" stroke-width="0.7"/>
	<path d="M 145.499997548,109.692128284 L 145.154031468,106.891819787 L 144.18410424,104.568765517 L 142.674744496,102.771471859 L 140.680526026,101.541751891 L 138.228314805,100.943095363 L 135.53326709,101.06003037 L 133.199285098,101.862690425 L 131.309096184,103.265954932 L 129.914183938,105.210135036 L 128.133558693,104.299435449 M 129.882568198,101.864163967 L 128.133558693,104.299435449 M 132.268130432,100.092676022 L 129.882568198,101.864163967 M 135.165129968,99.0942035563 L 132.268130432,100.092676022 M 138.416527134,98.9519710276 L 135.165129968,99.0942035563 M 141.449799848,99.695615984 L 138.416527134,98.9519710276 M 143.983510125,101.259145001 L 141.449799848,99.695615984 M 145.894852436,103.532743987 L 143.983510125,101.259145001 M 147.08872907,106.384922174 L 145.894852436,103.532743987 M 147.49999716,109.690882104 L 147.08872907,106.384922174 M 147.49999716,109.690882104 L 145.499997548,109.692128284" fill="none" stroke="red" stroke-width="0.7"/>
	<path d="M 208.5,41.0 L 208.416748432,39.2106084776 L 208.162687835,37.4386892647 L 207.731803123,35.708886703 L 207.118528949,34.0449735146 L 206.317396761,32.4694861102 L 205.322404583,31.0034560688 L 204.126152202,29.6664906438 L 202.719030201,28.4774483805 L 201.088961145,27.4556835953 L 202.030157509,25.6909883229 M 203.899485725,26.8629748577 L 202.030157509,25.6909883229 M 205.521653223,28.2338089269 L 203.899485725,26.8629748577 M 206.900180017,29.774381344 L 205.521653223,28.2338089269 M 208.041054138,31.4550871513 L 206.900180017,29.774381344 M 208.952472825,33.2470700993 L 208.041054138,31.4550871513 M 209.644031548,35.1228982638 L 208.952472825,33.2470700993 M 210.125859207,37.0566445528 L 209.644031548,35.1228982638 M 210.407987903,39.0236181852 L 210.125859207,37.0566445528 M 210.5,41.0 L 210.407987903,39.0236181852 M 210.5,41.0 L 208.5,41.0" fill="none" stroke="red" stroke-width="0.7"/>
	<path d="M 197.186419837,26.0200126792 L 195.205683018,25.6727967413 L 193.030560214,25.5102794533 L 190.864434237,25.5424775769 L 188.880519065,25.7521794503 L 187.036243281,26.1265742319 L 185.331547077,26.6540493631 L 183.765976273,27.3234110806 L 182.33883359,28.1240229859 L 181.049394434,29.0458727492 L 179.797937328,27.4857909846 M 181.266364715,26.4358848067 L 179.797937328,27.4857909846 M 182.882509268,25.5291184482 L 181.266364715,26.4358848067 M 184.642299065,24.7765677577 L 182.882509268,25.5291184482 M 186.541689497,24.1886845151 L 184.642299065,24.7765677577 M 188.576879053,23.7753631354 L 186.541689497,24.1886845151 M 190.744460596,23.5460792385 L 188.576879053,23.7753631354 M 193.087362663,23.5110862456 L 190.744460596,23.5460792385 M 195.451894666,23.6880096433 L 193.087362663,23.5110862456 M 197.635041755,24.0709774371 L 195.451894666,23.6880096433 M 197.635041755,24.0709774371 L 197.186419837,26.0200126792" fill="none" stroke="red" stroke-width="0.7"/>
	<path d="M 178.532492504,31.6727489538 L 177.567098923,33.1850434911 L 176.798593474,34.8112098056 L 176.229938605,36.5363109084 L 175.864679462,38.3448738274 L 175.706661673,40.2208776214 L 175.761309909,42.1993303916 L 176.028798571,44.0741651326 L 176.499740023,45.8134323488 L 177.166449275,47.4279770562 L 175.370594654,48.3082646105 M 174.606327325,46.4576282449 L 175.370594654,48.3082646105 M 174.069672371,44.4764393368 L 174.606327325,46.4576282449 M 173.768259708,42.3659163897 L 174.069672371,44.4764393368 M 173.707438346,40.1651453346 L 173.768259708,42.3659163897 M 173.884588856,38.0633757066 L 173.707438346,40.1651453346 M 174.296310806,36.0253475666 L 173.884588856,38.0633757066 M 174.940826827,34.0704648522 L 174.296310806,36.0253475666 M 175.816059066,32.2186794702 L 174.940826827,34.0704648522 M 176.919346977,30.4904793104 L 175.816059066,32.2186794702 M 176.919346977,30.4904793104 L 178.532492504,31.6727489538" fill="none" stroke="red" stroke-width="0.7"/>
	<path d="M 179.304355319,50.5977246311 L 180.41607513,51.734703009 L 181.66955008,52.7990692155 L 183.061716263,53.7930899117 L 184.588713196,54.718601901 L 186.245999609,55.5773440217 L 188.02853111,56.3711585225 L 189.930931776,57.1020852485 L 191.947630467,57.7723863717 L 194.072957155,58.3845338755 L 193.55497299,60.3162927644 M 191.356705299,59.6830949958 L 193.55497299,60.3162927644 M 189.258221524,58.9855556933 L 191.356705299,59.6830949958 M 187.264483949,58.2194636744 L 189.258221524,58.9855556933 M 185.380553741,57.3803979453 L 187.264483949,58.2194636744 M 183.611687288,56.4637151851 L 185.380553741,57.3803979453 M 181.963472506,55.4645744765 L 183.611687288,56.4637151851 M 180.442000436,54.3780314919 L 181.963472506,55.4645744765 M 179.054042903,53.1992398688 L 180.442000436,54.3780314919 M 177.807168312,51.9237831022 L 179.054042903,53.1992398688 M 177.807168312,51.9237831022 L 179.304355319,50.5977246311" fill="none" stroke="red" stroke-width="0.7"/>
	<path d="M 197.32871832,56.9856218829 L 199.072482352,56.0635886727 L 200.703575906,55.033019869 L 202.210119038,53.8964921085 L 203.580715186,52.6565387775 L 204.804537567,51.315440913 L 205.871333625,49.8749386295 L 206.771280735,48.3359088279 L 207.494650394,46.6981135238 L 208.031315189,44.9601590322 L 209.97348992,45.4376077858 M 209.367697959,47.3993216363 L 209.97348992,45.4376077858 M 208.551463314,49.2474734102 L 209.367697959,47.3993216363 M 207.539675785,50.9779501607 L 208.551463314,49.2474734102 M 206.347624081,52.5877946409 L 207.539675785,50.9779501607 M 204.99050279,54.0751644895 L 206.347624081,52.5877946409 M 203.483076568,55.4390805587 L 204.99050279,54.0751644895 M 201.839535845,56.6791046234 L 203.483076568,55.4390805587 M 200.073501271,57.7950508074 L 201.839535845,56.6791046234 M 198.198110117,58.7867764855 L 200.073501271,57.7950508074 M 198.198110117,58.7867764855 L 197.32871832,56.9856218829" fill="none" stroke="red" stroke-width="0.7"/>
	<path d="M 158.9,92.0 L 158.970723855,93.8599047291 L 159.181343503,95.6900711233 L 159.529608392,97.4857991579 L 160.013370816,99.2423814618 L 160.630581884,100.955084226 L 161.379283529,102.619130058 L 162.257597339,104.22968363 L 163.263711144,105.781840644 L 164.395864324,107.270620318 L 162.849932582,108.539515527 M 161.627529228,106.932018343 L 162.849932582,108.539515527 M 160.539363883,105.253243002 L 161.627529228,106.932018343 M 159.588142904,103.508970079 L 160.539363883,105.253243002 M 158.776521099,101.705056628 L 159.588142904,103.508970079 M 158.107087031,99.8474286746 L 158.776521099,101.705056628 M 157.582349613,97.9420701808 L 158.107087031,99.8474286746 M 157.204726929,95.995008691 L 157.582349613,97.9420701808 M 156.976538249,94.0122981877 L 157.204726929,95.995008691 M 156.9,92.0 L 156.976538249,94.0122981877 M 156.9,92.0 L 158.9,92.0" fill="none" stroke="red" stroke-width="0.7"/>
	<path d="M 167.211008662,110.199448114 L 168.504105804,111.284172049 L 169.885071478,112.306995976 L 171.352823231,113.264528072 L 172.90626632,114.153341617 L 174.544290188,114.969978538 L 176.26576565,115.710953161 L 178.069542749,116.37275606 L 179.954449246,116.951857891 L 181.919289692,117.444713141 L 181.482530589,119.396440962 M 179.417463676,118.878421282 L 181.482530589,119.396440962 M 177.431360073,118.268203995 L 179.417463676,118.878421282 M 175.525849693,117.569050139 L 177.431360073,118.268203995 M 173.702585659,116.784236923 L 175.525849693,117.569050139 M 171.963243375,115.917061472 L 173.702585659,116.784236923 M 170.309519016,114.970844665 L 171.963243375,115.917061472 M 168.743127388,113.948934981 L 170.309519016,114.970844665 M 167.265799108,112.854712251 L 168.743127388,113.948934981 M 165.879277085,111.691591206 L 167.265799108,112.854712251 M 165.879277085,111.691591206 L 167.211008662,110.199448114" fill="none" stroke="red" stroke-width="0.7"/>
	<path d="M 186.138457651,118.164026336 L 188.161893441,118.361326149 L 190.248984747,118.473457482 L 192.333878313,118.4979476 L 194.2070236,118.441433046 L 196.049207535,118.308612154 L 197.857976205,118.100938632 L 199.63087845,117.819871631 L 201.365467368,117.466876136 L 203.059302066,117.043423139 L 203.587698122,118.972360051 M 201.807394082,119.417440357 L 203.587698122,118.972360051 M 199.986845266,119.787938608 L 201.807394082,119.417440357 M 198.128586459,120.082546588 L 199.986845266,119.787938608 M 196.235146431,120.299950078 L 198.128586459,120.082546588 M 194.309049697,120.43882902 L 196.235146431,120.299950078 M 192.352818021,120.497857919 L 194.309049697,120.43882902 M 190.184244733,120.47240939 L 192.352818021,120.497857919 M 188.011325121,120.355650391 L 190.184244733,120.47240939 M 185.900168259,120.149780139 L 188.011325121,120.355650391 M 185.900168259,120.149780139 L 186.138457651,118.164026336" fill="none" stroke="red" stroke-width="0.7"/>
	<path d="M 206.772941177,115.815729168 L 208.576487993,115.053124486 L 210.309214698,114.20277141 L 211.967308001,113.267069832 L 213.546995853,112.248410629 L 215.04455172,111.149165778 L 216.456297034,109.971676225 L 217.778600916,108.718237793 L 219.00787618,107.391085795 L 220.140570769,105.992379484 L 221.736347313,107.19799021 M 220.519219455,108.700987129 L 221.736347313,107.19799021 M 219.200658275,110.12456381 L 220.519219455,108.700987129 M 217.785131336,111.466400078 L 219.200658275,110.12456381 M 216.277071076,112.724251819 L 217.785131336,111.466400078 M 214.680866234,113.895935427 L 216.277071076,112.724251819 M 213.000857866,114.979312419 L 214.680866234,113.895935427 M 211.241339058,115.972275346 L 213.000857866,114.979312419 M 209.406557383,116.872735655 L 211.241339058,115.972275346 M 207.500719172,117.67861381 L 209.406557383,116.872735655 M 207.500719172,117.67861381 L 206.772941177,115.815729168" fill="none" stroke="red" stroke-width="0.7"/>
	<path d="M 222.281016948,102.662511053 L 223.067053716,101.076728574 L 223.745504058,99.4295868461 L 224.312874972,97.7226499809 L 224.765580552,95.9574169325 L 225.099927001,94.1353468232 L 225.312105288,92.257888199 L 225.398192406,90.3265091606 L 225.35275039,88.3871254928 L 225.173351026,86.5112679409 L 227.155886007,86.2475350273 M 227.349254818,88.2689304516 L 227.155886007,86.2475350273 M 227.39806949,90.3486822732 L 227.349254818,88.2689304516 M 227.305948536,92.414697331 L 227.39806949,90.3486822732 M 227.078359984,94.4282681977 L 227.305948536,92.414697331 M 226.718984874,96.3866156687 L 227.078359984,94.4282681977 M 226.231618223,98.2869409847 L 226.718984874,96.3866156687 M 225.620170277,100.126455963 L 226.231618223,98.2869409847 M 224.888659179,101.902412252 L 225.620170277,100.126455963 M 224.041195974,103.612126658 L 224.888659179,101.902412252 M 224.041195974,103.612126658 L 222.281016948,102.662511053" fill="none" stroke="red" stroke-width="0.7"/>
	<path d="M 224.323430885,82.6092595804 L 223.725801056,80.9078732054 L 223.002691128,79.2705114357 L 222.156631903,77.6966729622 L 221.189980292,76.1860596899 L 220.104994821,74.7386167109 L 218.903912665,73.3545401821 L 217.589016013,72.0342575694 L 216.162680331,70.7783891707 L 214.627402466,69.5877009241 L 215.805251891,67.9713251224 M 217.436311894,69.2363571864 L 215.805251891,67.9713251224 M 218.95851562,70.5767011122 L 217.436311894,69.2363571864 M 220.368041955,71.9920698446 L 218.95851562,70.5767011122 M 221.660948408,73.4820306881 L 220.368041955,71.9920698446 M 222.833199206,75.0459581154 L 221.660948408,73.4820306881 M 223.880713565,76.68299529 L 222.833199206,75.0459581154 M 224.79943205,78.3920343107 L 223.880713565,76.68299529 M 225.585393613,80.1717240893 L 224.79943205,78.3920343107 M 226.234811097,82.0205103232 L 225.585393613,80.1717240893 M 226.234811097,82.0205103232 L 224.323430885,82.6092595804" fill="none" stroke="red" stroke-width="0.7"/>
	<path d="M 211.107837111,67.3299965353 L 209.551154239,66.4948267122 L 207.924762417,65.7085910708 L 206.230485334,64.9718453312 L 206.276210223,62.0558803228 L 208.146967697,61.0677282178 L 209.874499026,60.0298383782 L 211.463270537,58.9462015237 L 212.917830199,57.8207185688 L 214.242790254,56.6571761964 L 215.609742722,58.1171217264 M 214.190079681,59.3638910333 L 215.609742722,58.1171217264 M 212.638981459,60.5641334841 L 214.190079681,59.3638910333 M 210.953100888,61.7140646168 L 212.638981459,60.5641334841 M 209.129026531,62.8100142006 L 210.953100888,61.7140646168 M 207.163265304,63.8484018104 L 209.129026531,62.8100142006 M 206.992399436,63.1226598614 L 207.163265304,63.8484018104 M 208.758483388,63.8906501083 L 206.992399436,63.1226598614 M 210.458881285,64.7126842909 L 208.758483388,63.8906501083 M 212.091624688,65.5886861083 L 210.458881285,64.7126842909 M 212.091624688,65.5886861083 L 211.107837111,67.3299965353" fill="none" stroke="red" stroke-width="0.7"/>
	<path d="M 216.851723811,53.8205483941 L 218.025475102,52.1867242923 L 219.019280251,50.5158312901 L 219.842380756,48.8145152528 L 220.503623752,47.0893753689 L 221.011477867,45.3471084077 L 221.37410004,43.5946209387 L 221.599431058,41.8390948587 L 221.69529637,40.088006316 L 221.663684314,38.3005094145 L 223.660558373,38.1887328827 M 223.694923392,40.126629795 L 223.660558373,38.1887328827 M 223.591238773,42.0199318708 L 223.694923392,40.126629795 M 223.346864565,43.9235588191 L 223.591238773,42.0199318708 M 222.95260555,45.828796397 L 223.346864565,43.9235588191 M 222.399381845,47.7266361106 L 222.95260555,45.828796397 M 221.678329724,49.6077941383 L 222.399381845,47.7266361106 M 220.780897147,51.4627768587 L 221.678329724,49.6077941383 M 219.698910582,53.2819930692 L 220.780897147,51.4627768587 M 218.424590858,55.0558982442 L 219.698910582,53.2819930692 M 218.424590858,55.0558982442 L 216.851723811,53.8205483941" fill="none" stroke="red" stroke-width="0.7"/>
	<path d="M 221.105168025,34.3850344272 L 220.64224659,32.6892892658 L 220.047012453,31.0285867487 L 219.319423834,29.4107684073 L 218.45937092,27.843604703 L 217.466647497,26.3348047867 L 216.340925186,24.8920370502 L 215.081734582,23.5229600772 L 213.688457537,22.2352617093 L 212.160333777,21.0367019852 L 213.330534453,19.4147801684 M 214.98553994,20.7129026061 L 213.330534453,19.4147801684 M 216.497839957,22.1106408614 L 214.98553994,20.7129026061 M 217.866810704,23.5991049612 L 216.497839957,22.1106408614 M 219.09197051,25.1693327353 L 217.866810704,23.5991049612 M 220.172986446,26.8123327558 L 219.09197051,25.1693327353 M 221.109666607,28.5191234029 L 220.172986446,26.8123327558 M 221.901941255,30.2807638157 L 221.109666607,28.5191234029 M 222.549837054,32.0883744441 L 221.901941255,30.2807638157 M 223.053448697,33.9331468075 L 222.549837054,32.0883744441 M 223.053448697,33.9331468075 L 221.105168025,34.3850344272" fill="none" stroke="red" stroke-width="0.7"/>
	<path d="M 208.598738306,18.8899364097 L 207.095115454,18.1963714152 L 205.507424458,17.5757221379 L 203.835212255,17.0319968104 L 202.078055784,16.5692584827 L 200.235571234,16.1916167914 L 198.307420424,15.9032182999 L 196.293314293,15.7082362866 L 194.193013694,15.6108607642 L 192.208651068,15.6116033324 L 192.161702072,13.6121544604 M 194.23701895,13.6113449385 L 192.161702072,13.6121544604 M 196.43574807,13.7133145791 L 194.23701895,13.6113449385 M 198.551524978,13.9181709537 L 196.43574807,13.7133145791 M 200.584175054,14.2222322741 L 198.551524978,13.9181709537 M 202.533473756,14.6218000182 L 200.584175054,14.2222322741 M 204.39914743,15.1131489484 L 202.533473756,14.6218000182 M 206.180876784,15.6925169008 L 204.39914743,15.1131489484 M 207.878303282,16.3560951243 L 206.180876784,15.6925169008 M 209.491038384,17.1000200511 L 207.878303282,16.3560951243 M 209.491038384,17.1000200511 L 208.598738306,18.8899364097" fill="none" stroke="red" stroke-width="0.7"/>
	<path d="M 188.217895472,15.9013101343 L 186.229885584,16.1994969246 L 184.297426833,16.5956072284 L 182.424238692,17.0871520224 L 180.614017564,17.6716333898 L 178.870431001,18.3465472899 L 177.197111583,19.1093880697 L 175.597650848,19.9576550701 L 174.075593837,20.8888616114 L 172.634435003,21.900546513 L 171.43337908,20.3013390002 M 172.978936807,19.21633557 L 171.43337908,20.3013390002 M 174.607091458,18.2201879206 L 172.978936807,19.21633557 M 176.313682165,17.3150769307 L 174.607091458,18.2201879206 M 178.094598641,16.5031579798 L 176.313682165,17.3150769307 M 179.945777098,15.7865724678 L 178.094598641,16.5031579798 M 181.863194792,15.167456801 L 179.945777098,15.7865724678 M 183.842863949,14.6479489976 L 181.863194792,15.167456801 M 185.880825646,14.2301932 L 183.842863949,14.6479489976 M 187.97314403,13.916342444 L 185.880825646,14.2301932 M 187.97314403,13.916342444 L 188.217895472,15.9013101343" fill="none" stroke="red" stroke-width="0.7"/>
	<path d="M 169.69525169,24.4689116013 L 168.475899971,25.8030910306 L 167.363634628,27.2163877367 L 166.36237539,28.7063495928 L 165.476063279,30.2706685416 L 164.708698012,31.9071793471 L 164.064376257,33.6138452477 L 163.547325782,35.388730239 L 163.161930501,37.2299600592 L 162.912742526,39.1356761511 L 160.9212746,38.9511348275 M 161.19013562,36.8952587796 L 160.9212746,38.9511348275 M 161.607009397,34.9037845464 L 161.19013562,36.8952587796 M 162.167349641,32.9803706856 L 161.607009397,34.9037845464 M 162.866441867,31.1286600501 L 162.167349641,32.9803706856 M 163.699415442,29.3522337505 L 162.866441867,31.1286600501 M 164.661268635,27.6545721398 L 163.699415442,29.3522337505 M 165.746902763,26.039027097 L 164.661268635,27.6545721398 M 166.95116045,24.5088076795 L 165.746902763,26.039027097 M 168.268863022,23.0669788752 L 166.95116045,24.5088076795 M 168.268863022,23.0669788752 L 169.69525169,24.4689116013" fill="none" stroke="red" stroke-width="0.7"/>
	<path d="M 162.861260264,43.2595152789 L 163.054476073,44.9646664371 L 163.382692779,46.6585030544 L 163.849003999,48.3348583695 L 164.456651439,49.9876753588 L 165.209060865,51.6109668981 L 166.109863471,53.1987608429 L 167.16289672,54.7450362352 L 168.372182067,56.2436597089 L 169.741881586,57.6883319809 L 168.345421999,59.1200793827 M 166.867112389,57.5607645894 L 168.345421999,59.1200793827 M 165.556775723,55.9368312435 L 166.867112389,57.5607645894 M 164.412036457,54.2558244317 L 165.556775723,55.9368312435 M 163.430378425,52.5254551578 L 164.412036457,54.2558244317 M 162.609101472,50.7535468338 L 163.430378425,52.5254551578 M 161.945299173,48.9479716854 L 162.609101472,50.7535468338 M 161.435859674,47.116586958 L 161.945299173,48.9479716854 M 161.077487063,45.267179998 L 161.435859674,47.116586958 M 160.866737337,43.4074284143 L 161.077487063,45.267179998 M 160.866737337,43.4074284143 L 162.861260264,43.2595152789" fill="none" stroke="red" stroke-width="0.7"/>
	<path d="M 172.996763199,60.4019443688 L 174.609855782,61.4802919724 L 176.355020498,62.4986605269 L 178.234866859,63.4523900067 L 177.341609043,66.3209302151 L 175.627430647,67.1358342188 L 173.987905351,68.0015828382 L 172.42468984,68.9177774218 L 170.939387043,69.8840188861 L 169.533538262,70.8999191997 L 168.321355985,69.3091287899 M 169.808555712,68.2344066586 L 168.321355985,69.3091287899 M 171.373972442,67.2160157023 L 169.808555712,68.2344066586 M 173.01558808,66.2538416892 L 171.373972442,67.2160157023 M 174.731446153,65.3477593359 L 173.01558808,66.2538416892 M 176.51964395,64.4976437907 L 174.731446153,65.3477593359 M 177.380904971,65.2609112515 L 176.51964395,64.4976437907 M 175.39849227,64.2550926344 L 177.380904971,65.2609112515 M 173.549895152,63.1763118614 L 175.39849227,64.2550926344 M 171.833501057,62.0288497712 L 173.549895152,63.1763118614 M 171.833501057,62.0288497712 L 172.996763199,60.4019443688" fill="none" stroke="red" stroke-width="0.7"/>
	<path d="M 166.600641137,73.4317527285 L 165.312911534,74.7816946704 L 164.136824168,76.1950018782 L 163.074190665,77.6716827639 L 162.126815901,79.2119663541 L 161.296563026,80.8163049468 L 160.585421453,82.4853502501 L 159.995566224,84.2199029221 L 159.529397637,86.0208417049 L 159.189553897,87.8890434935 L 157.210244019,87.6021072575 M 157.576084383,85.5912287051 L 157.210244019,87.6021072575 M 158.079363395,83.6470445458 L 157.576084383,85.5912287051 M 158.717407676,81.770840258 L 158.079363395,83.6470445458 M 159.48730594,79.9639031673 L 158.717407676,81.770840258 M 160.385921645,78.227442515 L 159.48730594,79.9639031673 M 161.409932619,76.5625185927 L 160.385921645,78.227442515 M 162.555890429,74.9699922818 L 161.409932619,76.5625185927 M 163.820288366,73.4505011922 L 162.555890429,74.9699922818 M 165.199626473,72.0044623194 L 163.820288366,73.4505011922 M 165.199626473,72.0044623194 L 166.600641137,73.4317527285" fill="none" stroke="red" stroke-width="0.7"/>
	<path d="M 172.898823833,90.2484865939 L 172.902116888,92.0757151502 L 173.087810165,93.8597033636 L 173.451007446,95.5901865781 L 173.986997483,97.256945951 L 174.691269838,98.8497947105 L 175.559536281,100.358558677 L 176.587754287,101.773045191 L 177.772145547,103.082996609 L 179.109200116,104.278028678 L 177.856956751,105.8374794 M 176.361900746,104.501167826 L 177.856956751,105.8374794 M 175.034809437,103.033347651 L 176.361900746,104.501167826 M 173.881461333,101.446705943 L 175.034809437,103.033347651 M 172.907366579,99.7540563785 L 173.881461333,101.446705943 M 172.117771103,97.9682776178 L 172.907366579,99.7540563785 M 171.51767513,96.1022668016 L 172.117771103,97.9682776178 M 171.111856674,94.1689084782 L 171.51767513,96.1022668016 M 170.904892942,92.1810551249 L 171.111856674,94.1689084782 M 170.901176167,90.1515134061 L 170.904892942,92.1810551249 M 170.901176167,90.1515134061 L 172.898823833,90.2484865939" fill="none" stroke="red" stroke-width="0.7"/>
	<path d="M 182.453285214,106.392421874 L 183.967751048,107.05220465 L 185.583498074,107.597562349 L 187.298711544,108.021256945 L 189.11149725,108.315888045 L 191.019847795,108.473920158 L 192.99160478,108.489017082 L 194.887754567,108.369542406 L 196.697285263,108.122917186 L 198.416918312,107.754522975 L 198.91188244,109.692307925 M 197.041514975,110.093070963 L 198.91188244,109.692307925 M 195.085282065,110.359764225 L 197.041514975,110.093070963 M 193.047408155,110.488238426 L 195.085282065,110.359764225 M 190.930755248,110.471934802 L 193.047408155,110.488238426 M 188.868698446,110.301095526 L 190.930755248,110.471934802 M 186.898426359,109.980790504 L 188.868698446,110.301095526 M 185.023612877,109.517595829 L 186.898426359,109.980790504 M 183.24804508,108.918222688 L 185.023612877,109.517595829 M 181.575589503,108.18954464 L 183.24804508,108.918222688 M 181.575589503,108.18954464 L 182.453285214,106.392421874" fill="none" stroke="red" stroke-width="0.7"/>
	<path d="M 202.02768655,106.467721803 L 203.656649646,105.599118768 L 205.144922616,104.595430115 L 206.488461467,103.464110301 L 207.683258354,102.212104472 L 208.725175643,100.845829505 L 209.609771236,99.3712247762 L 210.332149072,97.7938732107 L 210.886866235,96.1191741735 L 211.267914494,94.3525352391 L 213.24239345,94.6710204857 M 212.816562315,96.6447909891 L 213.24239345,94.6710204857 M 212.19351361,98.5255302742 L 212.816562315,96.6447909891 M 211.379262877,100.303372475 L 212.19351361,98.5255302742 M 210.380390971,101.968443516 L 211.379262877,100.303372475 M 209.204025604,103.511052882 L 210.380390971,101.968443516 M 207.857748451,104.921866506 L 209.204025604,103.511052882 M 206.349445651,106.192027828 L 207.857748451,104.921866506 M 204.68713313,107.313208552 L 206.349445651,106.192027828 M 202.878790669,108.277589693 L 204.68713313,107.313208552 M 202.878790669,108.277589693 L 202.02768655,106.467721803" fill="none" stroke="red" stroke-width="0.7"/>
	<path d="M 211.477754619,90.351855144 L 211.305941787,88.3878416211 L 210.969478737,86.5540470626 L 210.473974072,84.8423934628 L 209.824020709,83.2440555855 L 209.022937701,81.7500176256 L 208.072861812,80.3517625083 L 206.975186603,79.0418238188 L 205.731161818,77.8139989791 L 204.342411051,76.6632122167 L 205.55521997,75.0728995034 M 207.071270597,76.329374966 L 205.55521997,75.0728995034 M 208.444412886,77.6848514067 L 207.071270597,76.329374966 M 209.667551989,79.144715186 L 208.444412886,77.6848514067 M 210.733219207,80.7132258586 L 209.667551989,79.144715186 M 211.634089655,82.3933791427 L 210.733219207,80.7132258586 M 212.363581655,84.1871200965 L 211.634089655,82.3933791427 M 212.916295814,86.0958950475 L 212.363581655,84.1871200965 M 213.288106604,88.1213408928 L 212.916295814,86.0958950475 M 213.475904188,90.2658417593 L 213.288106604,88.1213408928 M 213.475904188,90.2658417593 L 211.477754619,90.351855144" fill="none" stroke="red" stroke-width="0.7"/>
	<path d="M 200.944516529,74.4668358455 L 199.475425152,73.7010819921 L 197.919259689,72.9759090836 L 196.278368775,72.2891765248 L 194.555194847,71.6386566134 L 192.752237466,71.0220342797 L 190.872026483,70.4369134905 L 189.519567346,70.4560247509 L 187.714224793,71.0907532773 L 186.01083953,71.7955924359 L 185.194262142,69.9698867173 M 187.000491435,69.2224426249 L 185.194262142,69.9698867173 M 188.905551879,68.5526107112 L 187.000491435,69.2224426249 M 191.44194276,68.5198335661 L 188.905551879,68.5526107112 M 193.372102652,69.1205172142 L 191.44194276,68.5198335661 M 195.231049321,69.7563121362 L 193.372102652,69.1205172142 M 197.016642505,70.4304264342 L 195.231049321,69.7563121362 M 198.726711652,71.1461491737 L 197.016642505,70.4304264342 M 200.359029088,71.9068567875 L 198.726711652,71.1461491737 M 201.911273333,72.7160128157 L 200.359029088,71.9068567875 M 201.911273333,72.7160128157 L 200.944516529,74.4668358455" fill="none" stroke="red" stroke-width="0.7"/>
	<path d="M 182.522586836,73.6431053572 L 180.891232538,74.7516551059 L 179.410551906,75.9440970047 L 178.080786027,77.2160633844 L 176.90200058,78.5635282962 L 175.874186704,79.9828839468 L 174.997400771,81.4709728663 L 174.27192157,83.0250557888 L 173.698392127,84.642709813 L 173.277912546,86.3216718802 L 171.317125776,85.9275713317 M 171.783580404,84.0652186309 L 171.317125776,85.9275713317 M 172.42112459,82.2670646685 L 171.783580404,84.0652186309 M 173.227760746,80.5391068981 L 172.42112459,82.2670646685 M 174.201034205,78.8871829309 L 173.227760746,80.5391068981 M 175.338126066,77.3168140131 L 174.201034205,78.8871829309 M 176.635995006,75.8331031874 L 175.338126066,77.3168140131 M 178.091534474,74.4407031725 L 176.635995006,75.8331031874 M 179.701712458,73.1438485321 L 178.091534474,74.4407031725 M 181.463672349,71.9464321093 L 179.701712458,73.1438485321 M 181.463672349,71.9464321093 L 182.522586836,73.6431053572" fill="none" stroke="red" stroke-width="0.7"/>
	<path d="M 282.485243475,30.0651279278 L 281.337099914,32.2333769614 L 280.235052334,34.2807237701 L 279.168366712,36.2286293828 L 278.12633879,38.098510693 L 277.09828942,39.9117532571 L 276.07355381,41.689732429 L 275.041465904,43.4538394031 L 273.93127953,45.2959500242 L 272.666699608,47.055143867 L 271.042738581,45.887774781 M 272.307318503,44.1285809382 L 271.042738581,45.887774781 M 273.318235321,42.4387155893 L 272.307318503,44.1285809382 M 274.344127694,40.6852000449 L 273.318235321,42.4387155893 M 275.362048648,38.9190458569 L 274.344127694,40.6852000449 M 276.382938835,37.1184308001 L 275.362048648,38.9190458569 M 277.417740176,35.2615168083 L 276.382938835,37.1184308001 M 278.47738023,33.3264760181 L 277.417740176,35.2615168083 M 279.572761451,31.291511903 L 278.47738023,33.3264760181 M 280.714756525,29.1348720722 L 279.572761451,31.291511903 M 280.714756525,29.1348720722 L 282.485243475,30.0651279278" fill="none" stroke="red" stroke-width="0.7"/>
	<path d="M 270.088829465,50.6412938651 L 268.824249543,52.4004877079 L 267.559669621,54.1596815507 L 266.295089699,55.9188753935 L 265.030509777,57.6780692363 L 263.765929856,59.4372630792 L 262.501349934,61.196456922 L 261.236770012,62.9556507648 L 259.97219009,64.7148446076 L 258.707610168,66.4740384504 L 257.083649142,65.3066693643 M 258.348229063,63.5474755215 L 257.083649142,65.3066693643 M 259.612808985,61.7882816787 L 258.348229063,63.5474755215 M 260.877388907,60.0290878359 L 259.612808985,61.7882816787 M 262.141968829,58.2698939931 L 260.877388907,60.0290878359 M 263.40654875,56.5107001503 L 262.141968829,58.2698939931 M 264.671128672,54.7515063075 L 263.40654875,56.5107001503 M 265.935708594,52.9923124647 L 264.671128672,54.7515063075 M 267.200288516,51.2331186219 L 265.935708594,52.9923124647 M 268.464868438,49.4739247791 L 267.200288516,51.2331186219 M 268.464868438,49.4739247791 L 270.088829465,50.6412938651" fill="none" stroke="red" stroke-width="0.7"/>
	<path d="M 256.129740025,70.0601884485 L 254.865160103,71.8193822913 L 253.600580181,73.5785761341 L 252.33600026,75.3377699769 L 251.071420338,77.0969638197 L 249.806840416,78.8561576625 L 249.247400642,78.4 L 251.413947515,78.4 L 253.580494389,78.4 L 255.747041262,78.4 L 255.747041262,80.4 M 253.580494389,80.4 L 255.747041262,80.4 M 251.413947515,80.4 L 253.580494389,80.4 M 249.247400642,80.4 L 251.413947515,80.4 M 248.182879389,77.6887885765 L 249.247400642,80.4 M 249.447459311,75.9295947337 L 248.182879389,77.6887885765 M 250.712039233,74.1704008909 L 249.447459311,75.9295947337 M 251.976619154,72.411207048 L 250.712039233,74.1704008909 M 253.241199076,70.6520132052 L 251.976619154,72.411207048 M 254.505778998,68.8928193624 L 253.241199076,70.6520132052 M 254.505778998,68.8928193624 L 256.129740025,70.0601884485" fill="none" stroke="red" stroke-width="0.7"/>
	<path d="M 260.163588136,78.4 L 262.330135009,78.4 L 264.496681883,78.4 L 266.663228756,78.4 L 268.82977563,78.4 L 270.996322503,78.4 L 273.162869377,78.4 L 275.32941625,78.4 L 277.495963124,78.4 L 279.662509997,78.4 L 279.662509997,80.4 M 277.495963124,80.4 L 279.662509997,80.4 M 275.32941625,80.4 L 277.495963124,80.4 M 273.162869377,80.4 L 275.32941625,80.4 M 270.996322503,80.4 L 273.162869377,80.4 M 268.82977563,80.4 L 270.996322503,80.4 M 266.663228756,80.4 L 268.82977563,80.4 M 264.496681883,80.4 L 266.663228756,80.4 M 262.330135009,80.4 L 264.496681883,80.4 M 260.163588136,80.4 L 262.330135009,80.4 M 260.163588136,80.4 L 260.163588136,78.4" fill="none" stroke="red" stroke-width="0.7"/>
	<path d="M 280.6,76.920943129 L 280.6,74.7543962555 L 280.6,72.587849382 L 280.6,70.4213025084 L 280.6,68.2547556349 L 280.6,66.0882087614 L 280.6,63.9216618879 L 280.6,61.7551150144 L 280.6,59.5885681409 L 280.6,57.4220212674 L 282.6,57.4220212674 M 282.6,59.5885681409 L 282.6,57.4220212674 M 282.6,61.7551150144 L 282.6,59.5885681409 M 282.6,63.9216618879 L 282.6,61.7551150144 M 282.6,66.0882087614 L 282.6,63.9216618879 M 282.6,68.2547556349 L 282.6,66.0882087614 M 282.6,70.4213025084 L 282.6,68.2547556349 M 282.6,72.587849382 L 282.6,70.4213025084 M 282.6,74.7543962555 L 282.6,72.587849382 M 282.6,76.920943129 L 282.6,74.7543962555 M 282.6,76.920943129 L 280.6,76.920943129" fill="none" stroke="red" stroke-width="0.7"/>
	<path d="M 280.6,53.0054743938 L 280.6,50.8388150349 L 280.6,48.672155676 L 280.6,46.5054963171 L 280.603737491,44.3337653171 L 280.62696967,42.1589480967 L 280.670132555,39.9848342589 L 280.731692191,37.8114247773 L 280.810116105,35.6387198244 L 280.903873327,33.4667189519 L 282.901717468,33.5595563725 M 282.808538111,35.7181521134 L 282.901717468,33.5595563725 M 282.730648015,37.8760437738 L 282.808538111,35.7181521134 M 282.66954691,40.0332309056 L 282.730648015,37.8760437738 M 282.626733025,42.1897136812 L 282.66954691,40.0332309056 M 282.603703106,44.3454930742 L 282.626733025,42.1897136812 M 282.6,46.5054963171 L 282.603703106,44.3454930742 M 282.6,48.672155676 L 282.6,46.5054963171 M 282.6,50.8388150349 L 282.6,48.672155676 M 282.6,53.0054743938 L 282.6,50.8388150349 M 282.6,53.0054743938 L 280.6,53.0054743938" fill="none" stroke="red" stroke-width="0.7"/>
	<path d="M 333.1,49.8 L 333.188202718,52.0782312578 L 333.448826546,54.2554033565 L 333.875849232,56.3239510743 L 334.463223157,58.2765546186 L 335.204944955,60.1061954363 L 336.095158798,61.8061962985 L 337.12829071,63.3702258039 L 338.299198833,64.7922452534 L 339.603309216,66.0663820674 L 338.286261042,67.5715013675 M 336.825754783,66.1446367024 L 338.286261042,67.5715013675 M 335.519199544,64.5580076105 L 336.825754783,66.1446367024 M 334.372193533,62.821770371 L 335.519199544,64.5580076105 M 333.389767054,60.9459151432 L 334.372193533,62.821770371 M 332.576518289,58.9401393843 L 333.389767054,60.9459151432 M 331.936763572,56.8137947239 L 332.576518289,58.9401393843 M 331.474671696,54.5758914672 L 331.936763572,56.8137947239 M 331.194367203,52.2351386804 L 331.474671696,54.5758914672 M 331.1,49.8 L 331.194367203,52.2351386804 M 331.1,49.8 L 333.1,49.8" fill="none" stroke="red" stroke-width="0.7"/>
	<path d="M 342.85211024,68.2829288818 L 344.492071428,69.025898723 L 346.244092097,69.6059913805 L 348.105882405,70.015911531 L 350.074912628,70.2478227305 L 352.181393792,70.2937578845 L 354.363684003,70.1559875886 L 356.452529774,69.8457430958 L 358.443055397,69.3736574963 L 360.330338663,68.750233646 L 361.039613614,70.6202414117 M 358.988173689,71.297935555 L 361.039613614,70.6202414117 M 356.830708579,71.8096628477 L 358.988173689,71.297935555 M 354.573891108,72.1449101545 L 356.830708579,71.8096628477 M 352.224440595,72.293294574 L 354.573891108,72.1449101545 M 349.936565212,72.2430319909 L 352.224440595,72.293294574 M 347.774129293,71.9882045803 L 349.936565212,72.2430319909 M 345.714510043,71.5346030181 L 347.774129293,71.9882045803 M 343.76431738,70.8887927205 L 345.714510043,71.5346030181 M 341.930401104,70.0578802244 L 343.76431738,70.8887927205 M 341.930401104,70.0578802244 L 342.85211024,68.2829288818" fill="none" stroke="red" stroke-width="0.7"/>
	<path d="M 363.998089943,66.9563209107 L 365.57121526,65.8933181014 L 367.012309168,64.7156706968 L 368.315600161,63.4346556985 L 369.475317822,62.0615825903 L 370.485737222,60.6077770382 L 371.257415905,59.2021024517 L 371.68698362,57.4941096662 L 371.798300341,55.2164476475 L 371.733646533,52.7216571772 L 373.73159237,52.6310347137 M 373.798250662,55.2023510962 L 373.73159237,52.6310347137 M 373.667888342,57.7698205307 L 373.798250662,55.2023510962 M 373.117106436,59.9380040277 L 373.667888342,57.7698205307 M 372.180515376,61.669721955 L 373.117106436,59.9380040277 M 371.062025394,63.2791042868 L 372.180515376,61.669721955 M 369.782036314,64.7946428349 L 371.062025394,63.2791042868 M 368.347464382,66.2047511363 L 369.782036314,64.7946428349 M 366.765180356,67.4978265459 L 368.347464382,66.2047511363 M 365.042053903,68.6622339366 L 366.765180356,67.4978265459 M 365.042053903,68.6622339366 L 363.998089943,66.9563209107" fill="none" stroke="red" stroke-width="0.7"/>
	<path d="M 371.340634241,48.100752181 L 370.990734593,45.7921609305 L 370.541372714,43.5775404275 L 369.992138951,41.4643667712 L 369.342792356,39.4600265278 L 368.593268805,37.5717448568 L 367.743663823,35.8064870272 L 366.794170199,34.1708362859 L 365.744946856,32.6708646548 L 364.595901398,31.3120347553 L 366.058984731,29.948441282 M 367.330791652,31.4522193887 L 366.058984731,29.948441282 M 368.480975939,33.096272935 L 367.330791652,31.4522193887 M 369.511762179,34.8716992423 L 368.480975939,33.096272935 M 370.425626278,36.7702050321 L 369.511762179,34.8716992423 M 371.225078012,38.7840082513 L 370.425626278,36.7702050321 M 371.912529887,40.9057088688 L 371.225078012,38.7840082513 M 372.490234765,43.128166744 L 371.912529887,40.9057088688 M 372.96026868,45.444403143 L 372.490234765,43.128166744 M 373.324538965,47.8475288646 L 372.96026868,45.444403143 M 373.324538965,47.8475288646 L 371.340634241,48.100752181" fill="none" stroke="red" stroke-width="0.7"/>
	<path d="M 361.66598437,28.8118034043 L 360.078509692,27.8860805048 L 358.365749025,27.1443153136 L 356.522014627,26.5937167481 L 354.541546164,26.2430254184 L 352.419258282,26.1023264446 L 350.331960554,26.1844277223 L 348.347491753,26.4914664312 L 346.456496178,27.0139728709 L 344.663363534,27.7432124843 L 343.80344566,25.9375155963 M 345.812045122,25.1206470046 L 343.80344566,25.9375155963 M 347.927548106,24.5360515561 L 345.812045122,25.1206470046 M 350.139557992,24.1937039207 L 347.927548106,24.5360515561 M 352.448507926,24.1025403415 L 350.139557992,24.1937039207 M 354.781165542,24.2574316648 L 352.448507926,24.1025403415 M 356.982542125,24.6474602327 L 354.781165542,24.2574316648 M 359.050385236,25.2651470779 L 356.982542125,24.6474602327 M 360.98176746,26.1016687233 L 359.050385236,25.2651470779 M 362.773833972,27.1466699989 L 360.98176746,26.1016687233 M 362.773833972,27.1466699989 L 361.66598437,28.8118034043" fill="none" stroke="red" stroke-width="0.7"/>
	<path d="M 341.243556786,29.9085105439 L 339.919422253,31.0967755639 L 338.694529607,32.4300816387 L 337.574387124,33.902931025 L 336.564787413,35.5096136518 L 335.671705345,37.2441869009 L 334.901212412,39.1004866836 L 334.259412862,41.0721563618 L 333.752401014,43.1526827545 L 333.386236169,45.3354320712 L 331.403338851,45.0744373906 M 331.793214959,42.7507001645 L 331.403338851,45.0744373906 M 332.335420314,40.5260312166 L 331.793214959,42.7507001645 M 333.025040278,38.4076821497 L 332.335420314,40.5260312166 M 333.857195231,36.4030251763 L 333.025040278,38.4076821497 M 334.82701548,34.5195890514 L 333.857195231,36.4030251763 M 335.929598578,32.7650950799 L 334.82701548,34.5195890514 M 337.159945455,31.147486037 L 335.929598578,32.7650950799 M 338.51287478,29.674937245 L 337.159945455,31.147486037 M 339.982920891,28.3558363539 L 338.51287478,29.674937245 M 339.982920891,28.3558363539 L 341.243556786,29.9085105439" fill="none" stroke="red" stroke-width="0.7"/>
	<path d="M 319.6,50.7 L 319.654138665,52.6997468973 L 319.815164413,54.6604918771 L 320.080992624,56.5785287831 L 320.44954088,58.4501689355 L 320.918731189,60.2717439954 L 321.486493206,62.039608854 L 322.150768577,63.7501442883 L 322.909516483,65.3997590455 L 323.760720339,66.9848909551 L 322.029098216,67.9856330904 M 321.119039334,66.2909333151 L 322.029098216,67.9856330904 M 320.309147528,64.5301647441 L 321.119039334,66.2909333151 M 319.601300466,62.7074773532 L 320.309147528,64.5301647441 M 318.997351577,60.8269920357 L 319.601300466,62.7074773532 M 318.499136762,58.8928017145 L 318.997351577,60.8269920357 M 318.108479928,56.9089734273 L 318.499136762,58.8928017145 M 317.827197334,54.8795509809 L 318.108479928,56.9089734273 M 317.657100814,52.8085578419 L 317.827197334,54.8795509809 M 317.6,50.7 L 317.657100814,52.8085578419 M 317.6,50.7 L 319.6,50.7" fill="none" stroke="red" stroke-width="0.7"/>
	<path d="M 325.97510743,70.2610005726 L 327.148052585,71.6554730199 L 328.410701349,72.9655315448 L 329.761126791,74.187375063 L 331.197479739,75.3171904418 L 332.71798885,76.351135733 L 334.320955818,77.2853226961 L 336.004745407,78.1158001746 L 337.767770683,78.83854 L 339.608474409,79.4494269409 L 339.043285954,81.3679060289 M 337.073092518,80.7140192047 L 339.043285954,81.3679060289 M 335.182577196,79.9389950168 L 337.073092518,80.7140192047 M 333.374454746,79.0471784569 L 335.182577196,79.9389950168 M 331.651410228,78.0430015795 L 333.374454746,79.0471784569 M 330.016080399,76.9309734512 L 331.651410228,78.0430015795 M 328.471038947,75.7156660544 L 330.016080399,76.9309734512 M 327.018786524,74.401697664 L 328.471038947,75.7156660544 M 325.66174595,72.9937153704 L 327.018786524,74.401697664 M 324.402262289,71.4963783123 L 325.66174595,72.9937153704 M 324.402262289,71.4963783123 L 325.97510743,70.2610005726" fill="none" stroke="red" stroke-width="0.7"/>
	<path d="M 343.66693296,80.3415208711 L 345.58314885,80.5686305852 L 347.560663767,80.6847092537 L 349.567268877,80.6870039503 L 351.515791008,80.5796418495 L 353.408730185,80.3661308025 L 355.245151559,80.0492777567 L 357.024160375,79.6318347248 L 358.744890295,79.1164900691 L 360.406489141,78.5058627703 L 361.153887888,80.3609625284 M 359.37699025,81.0139751538 L 361.153887888,80.3609625284 M 357.53965719,81.5642588589 L 359.37699025,81.0139751538 M 355.643666824,82.0091720353 L 357.53965719,81.5642588589 M 353.690783109,82.346142456 L 355.643666824,82.0091720353 M 351.682741583,82.5726615447 L 353.690783109,82.346142456 M 349.621237693,82.6862756595 L 351.682741583,82.5726615447 M 347.501550807,82.6838354774 L 349.621237693,82.6862756595 M 345.406966616,82.5608554271 L 347.501550807,82.6838354774 M 343.371619478,82.3195982071 L 345.406966616,82.5608554271 M 343.371619478,82.3195982071 L 343.66693296,80.3415208711" fill="none" stroke="red" stroke-width="0.7"/>
	<path d="M 363.930190603,76.7933464824 L 365.422580092,75.8706281175 L 366.849388781,74.8595695652 L 368.20952888,73.7626259103 L 369.501844456,72.5822262796 L 370.725110246,71.320788847 L 372.751669132,69.8 L 373.65496071,72.8742707886 L 373.210532373,75.01946018 L 372.701856442,77.0964162085 L 370.768351039,76.5849899108 M 371.259666869,74.5788653719 L 370.768351039,76.5849899108 M 371.689747427,72.502872416 L 371.259666869,74.5788653719 M 372.751669132,71.8 L 371.689747427,72.502872416 M 372.201906675,72.6695187341 L 372.751669132,71.8 M 370.894983616,74.0172047753 L 372.201906675,72.6695187341 M 369.512521099,75.2799298606 L 370.894983616,74.0172047753 M 368.056088575,76.4545227329 L 369.512521099,75.2799298606 M 366.527324828,77.5378230881 L 368.056088575,76.4545227329 M 364.927936783,78.52669658 L 366.527324828,77.5378230881 M 364.927936783,78.52669658 L 363.930190603,76.7933464824" fill="none" stroke="red" stroke-width="0.7"/>
	<path d="M 371.41365316,81.2842152354 L 370.653941329,83.296026286 L 369.825642223,85.2296972184 L 368.930427241,87.0855341949 L 367.969996029,88.8638235206 L 366.946080634,90.5648362428 L 365.860448675,92.1888339804 L 364.714905165,93.7360757469 L 363.511292715,95.2068254086 L 362.251489984,96.6013593199 L 360.800725872,95.2246663645 M 361.994918376,93.9027514597 L 360.800725872,95.2246663645 M 363.136839351,92.5073738764 L 361.994918376,93.9027514597 M 364.224892016,91.0377673381 L 363.136839351,92.5073738764 M 365.25744355,89.4931530803 L 364.224892016,91.0377673381 M 366.232823529,87.872747486 L 365.25744355,89.4931530803 M 367.149324134,86.1757695431 L 366.232823529,87.872747486 M 368.005201979,84.4014476683 L 367.149324134,86.1757695431 M 368.798681272,82.5490255359 L 368.005201979,84.4014476683 M 369.527957978,80.6177666774 L 368.798681272,82.5490255359 M 369.527957978,80.6177666774 L 371.41365316,81.2842152354" fill="none" stroke="red" stroke-width="0.7"/>
	<path d="M 359.247818035,99.4729321864 L 357.703038566,100.747938105 L 356.096293137,101.928624757 L 354.432177592,103.015650587 L 352.715252186,104.009725011 L 350.950036193,104.911597361 L 349.141005554,105.722045852 L 347.292593051,106.441867298 L 345.409190382,107.071868035 L 343.495151543,107.612856296 L 342.996126057,105.676113266 M 344.820176905,105.16056923 L 342.996126057,105.676113266 M 346.612668405,104.560989185 L 344.820176905,105.16056923 M 348.369431494,103.876870124 L 346.612668405,104.560989185 M 350.086334807,103.107707144 L 348.369431494,103.876870124 M 351.759288063,102.252985817 L 350.086334807,103.107707144 M 353.384244142,101.312173119 L 351.759288063,102.252985817 M 354.957199255,100.284707141 L 353.384244142,101.312173119 M 356.474190594,99.1699860585 L 354.957199255,100.284707141 M 357.931290942,97.9673570761 L 356.474190594,99.1699860585 M 357.931290942,97.9673570761 L 359.247818035,99.4729321864" fill="none" stroke="red" stroke-width="0.7"/>
	<path d="M 339.290985737,108.479167134 L 337.027762732,108.748852786 L 334.805310655,108.962123323 L 332.762446024,109.11910695 L 330.86863167,109.206430922 L 329.093969561,109.210002984 L 327.410048297,109.115007075 L 328.3,109.790025048 L 328.3,111.72703866 L 328.3,113.664052272 L 326.3,113.664052272 M 326.3,111.72703866 L 326.3,113.664052272 M 326.3,109.790025048 L 326.3,111.72703866 M 327.590587379,107.123172333 L 326.3,109.790025048 M 329.144043764,107.210629939 L 327.590587379,107.123172333 M 330.816321619,107.207115125 L 329.144043764,107.210629939 M 332.635935374,107.123112197 L 330.816321619,107.207115125 M 334.629912826,106.969829268 L 332.635935374,107.123112197 M 336.824642636,106.759193964 L 334.629912826,106.969829268 M 338.982074236,106.50316772 L 336.824642636,106.759193964 M 338.982074236,106.50316772 L 339.290985737,108.479167134" fill="none" stroke="red" stroke-width="0.7"/>
	<path d="M 328.3,117.851065884 L 327.737674534,118.322665398 L 329.319666404,118.369601654 L 331.037832647,118.356204685 L 332.884788885,118.277846212 L 334.853405233,118.130022739 L 336.936724679,117.908306646 L 339.127910953,117.608318351 L 341.157663296,117.336720579 L 343.032031015,117.043413347 L 343.37765165,119.013323593 M 341.430243513,119.318058518 L 343.37765165,119.013323593 M 339.428166285,119.585651589 L 341.430243513,119.318058518 M 337.178235812,119.893671191 L 339.428166285,119.585651589 M 335.034236281,120.121830996 L 337.178235812,119.893671191 M 333.002291553,120.274391509 L 335.034236281,120.121830996 M 331.088404746,120.355565198 L 333.002291553,120.274391509 M 329.298406106,120.369488651 L 331.088404746,120.355565198 M 327.637871384,120.320173678 L 329.298406106,120.369488651 M 326.3,117.851065884 L 327.637871384,120.320173678 M 326.3,117.851065884 L 328.3,117.851065884" fill="none" stroke="red" stroke-width="0.7"/>
	<path d="M 347.046342714,116.173451604 L 348.879656945,115.663268928 L 350.694138509,115.085611537 L 352.486273537,114.441115545 L 354.252555919,113.730427915 L 355.989488809,112.954205695 L 357.693586216,112.113115083 L 359.361374714,111.207830273 L 360.98939523,110.239031997 L 362.574204905,109.207405693 L 363.699266159,110.860958587 M 362.046321565,111.936944458 L 363.699266159,110.860958587 M 360.349807507,112.946508109 L 362.046321565,111.936944458 M 358.613231496,113.889136636 L 360.349807507,112.946508109 M 356.84008483,114.764312434 L 358.613231496,113.889136636 M 355.033844449,115.571511355 L 356.84008483,114.764312434 M 353.197974734,116.310201259 L 355.033844449,115.571511355 M 351.335929206,116.979840853 L 353.197974734,116.310201259 M 349.451152128,117.579878763 L 351.335929206,116.979840853 M 347.547079998,118.109752761 L 349.451152128,117.579878763 M 347.547079998,118.109752761 L 347.046342714,116.173451604" fill="none" stroke="red" stroke-width="0.7"/>
	<path d="M 365.844468482,106.759103752 L 367.464075527,105.357368215 L 368.958617286,103.933127236 L 370.182130026,102.683859012 L 371.377045528,101.371771265 L 372.541140895,99.996450898 L 373.672192241,98.5574785352 L 374.767973647,97.0544286715 L 375.826256136,95.4868700012 L 376.844806705,93.8543659148 L 378.560308239,94.8824974671 M 377.503710247,96.5759740849 L 378.560308239,94.8824974671 M 376.405062958,98.2033144747 L 377.503710247,96.5759740849 M 375.266669024,99.7648077316 L 376.405062958,98.2033144747 M 374.090835121,101.260748254 L 375.266669024,99.7648077316 M 372.879870983,102.691436243 L 374.090835121,101.260748254 M 371.636088378,104.057178025 L 372.879870983,102.691436243 M 370.361800062,105.358286209 L 371.636088378,104.057178025 M 368.810323495,106.836427514 L 370.361800062,105.358286209 M 367.115437027,108.303331377 L 368.810323495,106.836427514 M 367.115437027,108.303331377 L 365.844468482,106.759103752" fill="none" stroke="red" stroke-width="0.7"/>
	<path d="M 378.850955781,90.1998182393 L 379.614418379,88.6172412221 L 380.341596961,86.9849095264 L 381.031034081,85.3025327683 L 381.681268277,83.56982056 L 382.290834065,81.786483021 L 382.858262013,79.9522312717 L 383.382078867,78.0667779027 L 383.860807743,76.1298374065 L 384.29296837,74.1411265666 L 386.253104471,74.538450697 M 385.808991937,76.5821407874 L 386.253104471,74.538450697 M 385.31657993,78.5744250608 L 385.808991937,76.5821407874 M 384.777309232,80.5154876692 L 385.31657993,78.5744250608 M 384.192624014,82.4055104739 L 384.777309232,80.5154876692 M 383.563972077,84.2446734339 L 384.192624014,82.4055104739 M 382.892805039,86.0331550384 L 383.563972077,84.2446734339 M 382.180578473,87.7711327752 L 382.892805039,86.0331550384 M 381.428751971,89.4587836255 L 382.180578473,87.7711327752 M 380.638789138,91.0962845737 L 381.428751971,89.4587836255 M 380.638789138,91.0962845737 L 378.850955781,90.1998182393" fill="none" stroke="red" stroke-width="0.7"/>
	<path d="M 385.026197436,69.9071379804 L 385.264752004,68.1149485719 L 385.466727381,66.2858304791 L 385.631251861,64.4196268539 L 385.757453023,62.5161825471 L 385.844457874,60.5753441205 L 385.891392994,58.5969598412 L 385.896771322,56.593985248 L 385.853049401,54.6285493928 L 385.758670515,52.7019667172 L 387.754753871,52.5768618182 M 387.851788205,54.5575339521 L 387.754753871,52.5768618182 M 387.896687218,56.5756437495 L 387.851788205,54.5575339521 M 387.891215512,58.6236037186 L 387.896687218,56.5756437495 M 387.843285851,60.6438037308 L 387.891215512,58.6236037186 M 387.754375782,62.6270856384 L 387.843285851,60.6438037308 M 387.625318379,64.5735707482 L 387.754375782,62.6270856384 M 387.456947147,66.4833786607 L 387.625318379,64.5735707482 M 387.250096158,68.356627266 L 387.456947147,66.4833786607 M 387.0056002,70.1934327552 L 387.250096158,68.356627266 M 387.0056002,70.1934327552 L 385.026197436,69.9071379804" fill="none" stroke="red" stroke-width="0.7"/>
	<path d="M 385.376575708,48.612132833 L 385.082059379,46.5484046721 L 384.723881139,44.5408485194 L 384.302961728,42.5906977794 L 383.820230558,40.6991723561 L 383.276624696,38.8674758148 L 382.67308723,37.0967923135 L 382.010564888,35.3882834001 L 381.29000478,33.7430848214 L 380.512350163,32.1623035543 L 382.286399223,31.2388589527 M 383.10389757,32.9005927179 L 382.286399223,31.2388589527 M 383.859473331,34.6256972938 L 383.10389757,32.9005927179 M 384.552487438,36.4127931469 L 383.859473331,34.6256972938 M 385.182304676,38.2605295135 L 384.552487438,36.4127931469 M 385.748289449,40.1675814309 L 385.182304676,38.2605295135 M 386.24980252,42.1326465469 L 385.748289449,40.1675814309 M 386.686198631,44.1544419162 L 386.24980252,42.1326465469 M 387.056824869,46.2317009324 L 386.686198631,44.1544419162 M 387.361019648,48.3631704895 L 387.056824869,46.2317009324 M 387.361019648,48.3631704895 L 385.376575708,48.612132833" fill="none" stroke="red" stroke-width="0.7"/>
	<path d="M 378.521177683,28.7903110211 L 377.393288058,27.2035772058 L 376.192651138,25.7113312107 L 374.92055366,24.3150726488 L 373.578187374,23.0162658316 L 372.166637196,21.8163602691 L 370.686875596,20.7168159482 L 369.13976511,19.7191313434 L 367.526069889,18.8248712775 L 365.846475948,18.0356913667 L 366.636314065,16.1982595318 M 368.436575294,17.0441467319 L 366.636314065,16.1982595318 M 370.167100638,18.003152989 L 368.436575294,17.0441467319 M 371.826038409,19.0729460972 L 370.167100638,18.003152989 M 373.411615052,20.2511030577 L 371.826038409,19.0729460972 M 374.922155397,21.5351345231 L 373.411615052,20.2511030577 M 376.35609421,22.9225126585 L 374.922155397,21.5351345231 M 377.711978703,24.4106991521 L 376.35609421,22.9225126585 M 378.988462921,25.9971704936 L 377.711978703,24.4106991521 M 380.184295895,27.6794384742 L 378.988462921,25.9971704936 M 380.184295895,27.6794384742 L 378.521177683,28.7903110211" fill="none" stroke="red" stroke-width="0.7"/>
	<path d="M 362.026115889,16.7061823835 L 360.356743705,16.3037295544 L 358.637390326,15.9903812729 L 356.868566918,15.7676811416 L 355.05083362,15.6372192806 L 353.167884096,15.6018586102 L 351.11819741,15.6805083318 L 349.119537089,15.8684502703 L 347.1732058,16.1622211481 L 345.280498082,16.5584018532 L 344.815186194,14.6132836443 M 346.818910137,14.1938526402 L 344.815186194,14.6132836443 M 348.876580198,13.8832621307 L 346.818910137,14.1938526402 M 350.986222127,13.6848674511 L 348.876580198,13.8832621307 M 353.145869803,13.6019797711 L 350.986222127,13.6848674511 M 355.141732036,13.6392859789 L 353.145869803,13.6019797711 M 357.064839888,13.7773352115 L 355.141732036,13.6392859789 M 358.941450179,14.0136294914 L 357.064839888,13.7773352115 M 360.770343889,14.3469631176 L 358.941450179,14.0136294914 M 362.550253025,14.7760838723 L 360.770343889,14.3469631176 M 362.550253025,14.7760838723 L 362.026115889,16.7061823835" fill="none" stroke="red" stroke-width="0.7"/>
	<path d="M 341.374019186,17.7505091177 L 339.58707914,18.4807837829 L 337.864529597,19.3073248792 L 336.207946428,20.2264724505 L 334.618946684,21.2345887213 L 333.099189806,22.3280492477 L 331.650376647,23.5032346685 L 330.274246675,24.756523516 L 328.972573836,26.0842863844 L 327.747161542,27.4828815915 L 326.206855746,26.2071629492 M 327.50563144,24.7248453206 L 326.206855746,26.2071629492 M 328.886108952,23.3167062844 L 327.50563144,24.7248453206 M 330.346382194,21.9867919665 L 328.886108952,23.3167062844 M 331.88451561,20.7391607692 L 330.346382194,21.9867919665 M 333.498539165,19.577879033 L 331.88451561,20.7391607692 M 335.186444211,18.5070152049 L 333.498539165,19.577879033 M 336.946180687,17.5306326492 L 335.186444211,18.5070152049 M 338.775656142,16.6527813984 L 336.946180687,17.5306326492 M 340.672736946,15.8774893047 L 338.775656142,16.6527813984 M 340.672736946,15.8774893047 L 341.374019186,17.7505091177" fill="none" stroke="red" stroke-width="0.7"/>
	<path d="M 325.357025217,30.7471272657 L 324.398715973,32.3233409674 L 323.522028959,33.9535291968 L 322.728759946,35.6341235721 L 322.020705643,37.3615444945 L 321.399661429,39.1322036223 L 320.867419784,40.9425065559 L 320.425769407,42.7888556039 L 320.076494978,44.6676525182 L 319.821377538,46.5753010951 L 317.832939524,46.3605587701 M 318.101529351,44.3521992361 L 317.832939524,46.3605587701 M 318.469416561,42.3733035121 L 318.101529351,44.3521992361 M 318.934826384,40.4276446831 L 318.469416561,42.3733035121 M 319.495987691,38.5189937895 L 318.934826384,40.4276446831 M 320.151133369,36.6511224284 L 319.495987691,38.5189937895 M 320.898500088,34.8278054888 L 320.151133369,36.6511224284 M 321.736327416,33.0528239175 L 320.898500088,34.8278054888 M 322.662856254,31.3299674042 L 321.736327416,33.0528239175 M 323.676326558,29.6630368558 L 322.662856254,31.3299674042 M 323.676326558,29.6630368558 L 325.357025217,30.7471272657" fill="none" stroke="red" stroke-width="0.7"/>
	<path d="M 235.5,81.1 L 235.5,83.0098322511 L 235.5,84.9196645022 L 235.5,86.8294967532 L 235.5,88.7393290043 L 234.949161255,89.2 L 236.858993506,89.2 L 238.768825758,89.2 L 240.678658009,89.2 L 242.58849026,89.2 L 242.58849026,91.2 M 240.678658009,91.2 L 242.58849026,91.2 M 238.768825758,91.2 L 240.678658009,91.2 M 236.858993506,91.2 L 238.768825758,91.2 M 234.949161255,91.2 L 236.858993506,91.2 M 233.5,88.7393290043 L 234.949161255,91.2 M 233.5,86.8294967532 L 233.5,88.7393290043 M 233.5,84.9196645022 L 233.5,86.8294967532 M 233.5,83.0098322511 L 233.5,84.9196645022 M 233.5,81.1 L 233.5,83.0098322511 M 233.5,81.1 L 235.5,81.1" fill="none" stroke="red" stroke-width="0.7"/>
	<path d="M 246.748322511,89.2 L 248.658154762,89.2 L 250.567987013,89.2 L 252.477819264,89.2 L 254.387651515,89.2 L 256.297483766,89.2 L 258.207316017,89.2 L 260.117148268,89.2 L 262.026980519,89.2 L 263.936812771,89.2 L 263.936812771,91.2 M 262.026980519,91.2 L 263.936812771,91.2 M 260.117148268,91.2 L 262.026980519,91.2 M 258.207316017,91.2 L 260.117148268,91.2 M 256.297483766,91.2 L 258.207316017,91.2 M 254.387651515,91.2 L 256.297483766,91.2 M 252.477819264,91.2 L 254.387651515,91.2 M 250.567987013,91.2 L 252.477819264,91.2 M 248.658154762,91.2 L 250.567987013,91.2 M 246.748322511,91.2 L 248.658154762,91.2 M 246.748322511,91.2 L 246.748322511,89.2" fill="none" stroke="red" stroke-width="0.7"/>
	<path d="M 268.096645022,89.2 L 270.006477273,89.2 L 271.916309524,89.2 L 273.826141775,89.2 L 275.735974026,89.2 L 277.645806277,89.2 L 279.555638528,89.2 L 281.465470779,89.2 L 282.6,91.9753030303 L 282.6,93.8851352814 L 280.6,93.8851352814 M 280.6,91.9753030303 L 280.6,93.8851352814 M 281.465470779,91.2 L 280.6,91.9753030303 M 279.555638528,91.2 L 281.465470779,91.2 M 277.645806277,91.2 L 279.555638528,91.2 M 275.735974026,91.2 L 277.645806277,91.2 M 273.826141775,91.2 L 275.735974026,91.2 M 271.916309524,91.2 L 273.826141775,91.2 M 270.006477273,91.2 L 271.916309524,91.2 M 268.096645022,91.2 L 270.006477273,91.2 M 268.096645022,91.2 L 268.096645022,89.2" fill="none" stroke="red" stroke-width="0.7"/>
	<path d="M 282.6,98.0449675324 L 282.6,99.9547997835 L 282.6,101.864632035 L 282.6,103.774464286 L 282.6,105.684296537 L 282.6,107.594128788 L 282.6,109.503961039 L 282.6,111.41379329 L 282.6,113.323625541 L 282.6,115.233457792 L 280.6,115.233457792 M 280.6,113.323625541 L 280.6,115.233457792 M 280.6,111.41379329 L 280.6,113.323625541 M 280.6,109.503961039 L 280.6,111.41379329 M 280.6,107.594128788 L 280.6,109.503961039 M 280.6,105.684296537 L 280.6,107.594128788 M 280.6,103.774464286 L 280.6,105.684296537 M 280.6,101.864632035 L 280.6,103.774464286 M 280.6,99.9547997835 L 280.6,101.864632035 M 280.6,98.0449675324 L 280.6,99.9547997835 M 280.6,98.0449675324 L 282.6,98.0449675324" fill="none" stroke="red" stroke-width="0.7"/>
	<path d="M 283.193290043,116.8 L 285.103122294,116.8 L 287.012954545,116.8 L 288.922786796,116.8 L 290.832619048,116.8 L 292.742451299,116.8 L 293.5,117.64771645 L 293.5,115.737884199 L 293.5,113.828051948 L 293.5,111.918219697 L 295.5,111.918219697 M 295.5,113.828051948 L 295.5,111.918219697 M 295.5,115.737884199 L 295.5,113.828051948 M 295.5,117.64771645 L 295.5,115.737884199 M 292.742451299,118.8 L 295.5,117.64771645 M 290.832619048,118.8 L 292.742451299,118.8 M 288.922786796,118.8 L 290.832619048,118.8 M 287.012954545,118.8 L 288.922786796,118.8 M 285.103122294,118.8 L 287.012954545,118.8 M 283.193290043,118.8 L 285.103122294,118.8 M 283.193290043,118.8 L 283.193290043,116.8" fill="none" stroke="red" stroke-width="0.7"/>
	<path d="M 293.5,107.758387446 L 293.5,105.848555195 L 293.5,103.938722944 L 293.5,102.028890693 L 293.5,100.119058442 L 293.5,98.2092261905 L 293.5,96.2993939395 L 293.5,94.3895616884 L 293.5,92.4797294373 L 293.5,90.5698971862 L 295.5,90.5698971862 M 295.5,92.4797294373 L 295.5,90.5698971862 M 295.5,94.3895616884 L 295.5,92.4797294373 M 295.5,96.2993939395 L 295.5,94.3895616884 M 295.5,98.2092261905 L 295.5,96.2993939395 M 295.5,100.119058442 L 295.5,98.2092261905 M 295.5,102.028890693 L 295.5,100.119058442 M 295.5,103.938722944 L 295.5,102.028890693 M 295.5,105.848555195 L 295.5,103.938722944 M 295.5,107.758387446 L 295.5,105.848555195 M 295.5,107.758387446 L 293.5,107.758387446" fill="none" stroke="red" stroke-width="0.7"/>
	<path d="M 298.289935065,89.2 L 300.199767316,89.2 L 302.109599567,89.2 L 304.019431818,89.2 L 305.929264069,89.2 L 307.83909632,89.2 L 307.7,89.1510714286 L 307.7,87.2412391776 L 307.7,85.3314069265 L 307.7,83.4215746754 L 309.7,83.4215746754 M 309.7,85.3314069265 L 309.7,83.4215746754 M 309.7,87.2412391776 L 309.7,85.3314069265 M 309.7,89.1510714286 L 309.7,87.2412391776 M 307.83909632,91.2 L 309.7,89.1510714286 M 305.929264069,91.2 L 307.83909632,91.2 M 304.019431818,91.2 L 305.929264069,91.2 M 302.109599567,91.2 L 304.019431818,91.2 M 300.199767316,91.2 L 302.109599567,91.2 M 298.289935065,91.2 L 300.199767316,91.2 M 298.289935065,91.2 L 298.289935065,89.2" fill="none" stroke="red" stroke-width="0.7"/>
	<path d="M 308.561742424,80.4 L 306.651910173,80.4 L 304.742077922,80.4 L 302.832245671,80.4 L 300.92241342,80.4 L 299.012581169,80.4 L 297.102748918,80.4 L 295.192916667,80.4 L 293.5,78.1830844157 L 293.5,76.2732521646 L 295.5,76.2732521646 M 295.5,78.1830844157 L 295.5,76.2732521646 M 295.192916667,78.4 L 295.5,78.1830844157 M 297.102748918,78.4 L 295.192916667,78.4 M 299.012581169,78.4 L 297.102748918,78.4 M 300.92241342,78.4 L 299.012581169,78.4 M 302.832245671,78.4 L 300.92241342,78.4 M 304.742077922,78.4 L 302.832245671,78.4 M 306.651910173,78.4 L 304.742077922,78.4 M 308.561742424,78.4 L 306.651910173,78.4 M 308.561742424,78.4 L 308.561742424,80.4" fill="none" stroke="red" stroke-width="0.7"/>
	<path d="M 293.5,72.1134199135 L 293.5,70.2035876624 L 293.5,68.2937554113 L 293.5,66.3839231603 L 293.5,64.4740909092 L 293.5,62.5642586581 L 293.5,60.654426407 L 293.5,58.7445941559 L 293.5,56.8347619049 L 293.5,54.9249296538 L 295.5,54.9249296538 M 295.5,56.8347619049 L 295.5,54.9249296538 M 295.5,58.7445941559 L 295.5,56.8347619049 M 295.5,60.654426407 L 295.5,58.7445941559 M 295.5,62.5642586581 L 295.5,60.654426407 M 295.5,64.4740909092 L 295.5,62.5642586581 M 295.5,66.3839231603 L 295.5,64.4740909092 M 295.5,68.2937554113 L 295.5,66.3839231603 M 295.5,70.2035876624 L 295.5,68.2937554113 M 295.5,72.1134199135 L 295.5,70.2035876624 M 295.5,72.1134199135 L 293.5,72.1134199135" fill="none" stroke="red" stroke-width="0.7"/>
	<path d="M 293.5,50.7650974027 L 293.5,48.8552651516 L 293.5,46.9454329005 L 293.5,45.0356006495 L 293.5,43.1257683984 L 293.5,41.2159361473 L 293.5,39.3061038962 L 293.5,37.3962716451 L 293.5,35.486439394 L 293.5,33.576607143 L 295.5,33.576607143 M 295.5,35.486439394 L 295.5,33.576607143 M 295.5,37.3962716451 L 295.5,35.486439394 M 295.5,39.3061038962 L 295.5,37.3962716451 M 295.5,41.2159361473 L 295.5,39.3061038962 M 295.5,43.1257683984 L 295.5,41.2159361473 M 295.5,45.0356006495 L 295.5,43.1257683984 M 295.5,46.9454329005 L 295.5,45.0356006495 M 295.5,48.8552651516 L 295.5,46.9454329005 M 295.5,50.7650974027 L 295.5,48.8552651516 M 295.5,50.7650974027 L 293.5,50.7650974027" fill="none" stroke="red" stroke-width="0.7"/>
	<path d="M 293.5,29.4167748919 L 293.5,27.5069426408 L 293.5,25.5971103897 L 293.5,23.6872781386 L 293.5,21.7774458876 L 293.5,19.8676136365 L 293.5,17.9577813854 L 294.147949134,17.4 L 292.238116883,17.4 L 290.328284632,17.4 L 290.328284632,15.4 M 292.238116883,15.4 L 290.328284632,15.4 M 294.147949134,15.4 L 292.238116883,15.4 M 295.5,17.9577813854 L 294.147949134,15.4 M 295.5,19.8676136365 L 295.5,17.9577813854 M 295.5,21.7774458876 L 295.5,19.8676136365 M 295.5,23.6872781386 L 295.5,21.7774458876 M 295.5,25.5971103897 L 295.5,23.6872781386 M 295.5,27.5069426408 L 295.5,25.5971103897 M 295.5,29.4167748919 L 295.5,27.5069426408 M 295.5,29.4167748919 L 293.5,29.4167748919" fill="none" stroke="red" stroke-width="0.7"/>
	<path d="M 286.168452381,17.4 L 284.25862013,17.4 L 282.348787879,17.4 L 280.438955628,17.4 L 279.84921002,17.9325431272 L 278.755455249,19.4981611291 L 277.661700478,21.0637791311 L 276.567945707,22.629397133 L 275.474190936,24.195015135 L 274.380436165,25.760633137 L 272.740901592,24.6152395869 M 273.834656363,23.0496215849 L 272.740901592,24.6152395869 M 274.928411134,21.484003583 L 273.834656363,23.0496215849 M 276.022165905,19.918385581 L 274.928411134,21.484003583 M 277.115920676,18.3527675791 L 276.022165905,19.918385581 M 278.209675447,16.7871495771 L 277.115920676,18.3527675791 M 280.438955628,15.4 L 278.209675447,16.7871495771 M 282.348787879,15.4 L 280.438955628,15.4 M 284.25862013,15.4 L 282.348787879,15.4 M 286.168452381,15.4 L 284.25862013,15.4 M 286.168452381,15.4 L 286.168452381,17.4" fill="none" stroke="red" stroke-width="0.7"/>
	<path d="M 271.99811365,29.1707275333 L 270.904358879,30.7363455353 L 269.810604108,32.3019635372 L 268.716849337,33.8675815392 L 267.623094566,35.4331995411 L 266.529339795,36.9988175431 L 265.435585024,38.564435545 L 264.341830253,40.130053547 L 263.248075481,41.6956715489 L 262.15432071,43.2612895509 L 260.514786138,42.1158960008 M 261.608540909,40.5502779988 L 260.514786138,42.1158960008 M 262.70229568,38.9846599969 L 261.608540909,40.5502779988 M 263.796050451,37.4190419949 L 262.70229568,38.9846599969 M 264.889805222,35.853423993 L 263.796050451,37.4190419949 M 265.983559993,34.287805991 L 264.889805222,35.853423993 M 267.077314764,32.7221879891 L 265.983559993,34.287805991 M 268.171069535,31.1565699871 L 267.077314764,32.7221879891 M 269.264824306,29.5909519852 L 268.171069535,31.1565699871 M 270.358579077,28.0253339832 L 269.264824306,29.5909519852 M 270.358579077,28.0253339832 L 271.99811365,29.1707275333" fill="none" stroke="red" stroke-width="0.7"/>
	<path d="M 259.771998195,46.6713839472 L 258.678243424,48.2370019492 L 257.584488653,49.8026199511 L 256.490733882,51.3682379531 L 255.396979111,52.933855955 L 254.30322434,54.499473957 L 253.209469569,56.0650919589 L 252.115714798,57.6307099609 L 251.021960027,59.1963279628 L 249.928205256,60.7619459648 L 248.288670683,59.6165524147 M 249.382425454,58.0509344127 L 248.288670683,59.6165524147 M 250.476180225,56.4853164108 L 249.382425454,58.0509344127 M 251.569934996,54.9196984088 L 250.476180225,56.4853164108 M 252.663689767,53.3540804069 L 251.569934996,54.9196984088 M 253.757444538,51.7884624049 L 252.663689767,53.3540804069 M 254.851199309,50.222844403 L 253.757444538,51.7884624049 M 255.944954081,48.657226401 L 254.851199309,50.222844403 M 257.038708852,47.0916083991 L 255.944954081,48.657226401 M 258.132463623,45.5259903971 L 257.038708852,47.0916083991 M 258.132463623,45.5259903971 L 259.771998195,46.6713839472" fill="none" stroke="red" stroke-width="0.7"/>
	<path d="M 247.545882741,64.1720403611 L 246.45212797,65.7376583631 L 245.358373199,67.303276365 L 244.264618428,68.868894367 L 243.170863657,70.4345123689 L 242.077108886,72.0001303709 L 240.983354115,73.5657483728 L 239.889599343,75.1313663748 L 238.795844572,76.6969843767 L 237.702089801,78.2626023787 L 236.062555229,77.1172088286 M 237.15631,75.5515908267 L 236.062555229,77.1172088286 M 238.250064771,73.9859728247 L 237.15631,75.5515908267 M 239.343819542,72.4203548227 L 238.250064771,73.9859728247 M 240.437574313,70.8547368208 L 239.343819542,72.4203548227 M 241.531329084,69.2891188188 L 240.437574313,70.8547368208 M 242.625083855,67.7235008169 L 241.531329084,69.2891188188 M 243.718838626,66.1578828149 L 242.625083855,67.7235008169 M 244.812593397,64.592264813 L 243.718838626,66.1578828149 M 245.906348168,63.026646811 L 244.812593397,64.592264813 M 245.906348168,63.026646811 L 247.545882741,64.1720403611" fill="none" stroke="red" stroke-width="0.7"/>
</svg>
