<?xml version="1.0" ?>
<svg baseProfile="full" height="187px" version="1.1" viewBox="9.4459735493 3.06066234041 412.759123436 128.271619162" width="600px" xmlns="http://www.w3.org/2000/svg" xmlns:ev="http://www.w3.org/2001/xml-events" xmlns:xlink="http://www.w3.org/1999/xlink">
	<defs/>
	<path d="M 60.0470449021,74.8186751452 C 60.7205880654,74.947561963 61.4784507286,75.0269857227 61.5364592041,76.1634219686 M 58.9873393717,73.8618992879 C 59.0241252343,74.5825661756 59.5103953313,74.7175384246 60.0470449021,74.8186751452 M 59.9282085482,92.2943408377 C 59.9649944107,93.0150077254 60.4512645077,93.1499799744 60.9879140785,93.251116695 M 62.4773283806,94.5958635184 C 62.419319905,93.4594272725 61.6614572418,93.3800035128 60.9879140785,93.251116695 M 61.5364592041,76.1634219686 L 62.4773283806,94.5958635184 M 59.9282085482,92.2943408377 L 58.9873393717,73.8618992879" fill="none" stroke="red" stroke-width="0.343679536583"/>
	<path d="M 62.8421139201,97.4668228091 C 63.3560869469,97.0346774454 63.8845617365,96.5079129865 64.7838577875,97.1658100614 M 61.4605797749,97.6809908032 C 62.0308650756,98.0981938262 62.4337840227,97.8120975165 62.8421139201,97.4668228091 M 76.0467230414,108.351760432 C 76.6170083421,108.768963455 77.0199272893,108.482867145 77.4282571867,108.137592438 M 79.370001054,107.83657969 C 78.470705003,107.178682615 77.9422302134,107.705447074 77.4282571867,108.137592438 M 64.7838577875,97.1658100614 L 79.370001054,107.83657969 M 76.0467230414,108.351760432 L 61.4605797749,97.6809908032" fill="none" stroke="red" stroke-width="0.343679536583"/>
	<path d="M 81.8461602254,108.535959929 C 81.6288091186,107.907023214 81.3290658109,107.231079103 82.2570015696,106.632620022 M 81.5538501246,109.890169986 C 82.1422971912,109.510659349 82.020643812,109.036317116 81.8461602254,108.535959929 M 96.6045154807,100.183455612 C 97.1929625473,99.8039449749 97.0713091681,99.3296027417 96.8968255814,98.8292455554 M 97.3076669257,96.9259056476 C 96.3797311669,97.5243647293 96.6794744746,98.2003088404 96.8968255814,98.8292455554 M 82.2570015696,106.632620022 L 97.3076669257,96.9259056476 M 96.6045154807,100.183455612 L 81.5538501246,109.890169986" fill="none" stroke="red" stroke-width="0.343679536583"/>
	<path d="M 99.047554623,94.8305121108 C 98.3781217213,94.6547365856 97.6204046751,94.523011031 97.6395908617,93.3746998721 M 100.049308791,95.8663100607 C 100.061475641,95.1381127403 99.5810354719,94.9689968652 99.047554623,94.8305121108 M 100.360499377,77.2412632139 C 100.372666227,76.5130658936 99.8922260585,76.3439500184 99.3587452096,76.2054652641 M 97.9507814483,74.7496530253 C 97.9315952617,75.8979641843 98.6893123079,76.0296897388 99.3587452096,76.2054652641 M 97.6395908617,93.3746998721 L 97.9507814483,74.7496530253 M 100.360499377,77.2412632139 L 100.049308791,95.8663100607" fill="none" stroke="red" stroke-width="0.343679536583"/>
	<path d="M 97.6291114581,71.9723230893 C 97.1382927368,72.4257836434 96.6374572283,72.973973084 95.7129417506,72.3618047865 M 98.9924498074,71.6952101947 C 98.4061716996,71.3070059085 98.0189554281,71.6101260129 97.6291114581,71.9723230893 M 83.9972597428,61.766139028 C 83.410981635,61.3779347418 83.0237653636,61.6810548461 82.6339213935,62.0432519226 M 80.717751686,62.4327336198 C 81.6422671637,63.0449019173 82.1431026722,62.4967124766 82.6339213935,62.0432519226 M 95.7129417506,72.3618047865 L 80.717751686,62.4327336198 M 83.9972597428,61.766139028 L 98.9924498074,71.6952101947" fill="none" stroke="red" stroke-width="0.343679536583"/>
	<path d="M 78.1589565442,61.7347279975 C 78.3534531019,62.3836791539 78.6297720376,63.0839306848 77.6605608408,63.6534504617 M 78.5135608222,60.3695733835 C 77.8989390877,60.7307322665 78.0026281552,61.2183818241 78.1589565442,61.7347279975 M 62.7934279957,69.6069063514 C 62.1788062611,69.9680652343 62.2824953287,70.455714792 62.4388237177,70.9720609653 M 61.9404280143,72.8907834296 C 62.9096392111,72.3212636526 62.6333202754,71.6210121217 62.4388237177,70.9720609653 M 77.6605608408,63.6534504617 L 61.9404280143,72.8907834296 M 62.7934279957,69.6069063514 L 78.5135608222,60.3695733835" fill="none" stroke="red" stroke-width="0.343679536583"/>
	<path d="M 45.0562857726,77.2556240852 C 45.6907982582,77.3101643842 46.3984607512,77.3109379895 46.560898102,78.3551335093 M 43.9857669759,76.473332539 C 44.0887760276,77.1355053076 44.5508830394,77.2136048182 45.0562857726,77.2556240852 M 46.6204215682,93.4096745055 C 46.7234306199,94.0718472741 47.1855376317,94.1499467847 47.6909403649,94.1919660517 M 49.1955526943,95.2914754757 C 49.0331153435,94.247279956 48.3254528505,94.2465063507 47.6909403649,94.1919660517 M 46.560898102,78.3551335093 L 49.1955526943,95.2914754757 M 46.6204215682,93.4096745055 L 43.9857669759,76.473332539" fill="none" stroke="red" stroke-width="0.343679536583"/>
	<path d="M 49.2767614454,98.4288243448 C 49.8586095146,98.1823563655 50.4796810274,97.8547986662 51.1064907759,98.6953513148 M 47.9749246846,98.2391926865 C 48.3724137934,98.7722260734 48.8139671895,98.6263897214 49.2767614454,98.4288243448 M 58.1414730441,111.872546621 C 58.5389621529,112.405580008 58.9805155491,112.259743656 59.443309805,112.06217828 M 61.2730391355,112.328705249 C 60.646229387,111.488152601 60.0251578742,111.8157103 59.443309805,112.06217828 M 51.1064907759,98.6953513148 L 61.2730391355,112.328705249 M 58.1414730441,111.872546621 L 47.9749246846,98.2391926865" fill="none" stroke="red" stroke-width="0.343679536583"/>
	<path d="M 63.0681030438,114.714558053 C 63.3789907856,114.16515588 63.6715910495,113.527643897 64.6797500512,113.811954867 M 61.9214299897,115.356752495 C 62.5607503322,115.537047257 62.8217571247,115.152755679 63.0681030438,114.714558053 M 78.2732772122,119.968137741 C 78.9125975547,120.148432502 79.1736043472,119.764140924 79.4199502663,119.325943298 M 81.0315972737,118.423340112 C 80.023438272,118.139029142 79.7308380082,118.776541125 79.4199502663,119.325943298 M 64.6797500512,113.811954867 L 81.0315972737,118.423340112 M 78.2732772122,119.968137741 L 61.9214299897,115.356752495" fill="none" stroke="red" stroke-width="0.343679536583"/>
	<path d="M 83.9126509302,119.314096975 C 83.8479291916,118.687240185 83.7173739966,117.999259099 84.702176364,117.647621383 M 83.3509103403,120.499780098 C 83.9754191587,120.276790327 83.9655865491,119.8131377 83.9126509302,119.314096975 M 99.3239243481,114.796387871 C 99.9484331665,114.5733981 99.9386005569,114.109745473 99.885664938,113.610704748 M 100.675190372,111.944229156 C 99.6903880045,112.295866872 99.8209431994,112.983847958 99.885664938,113.610704748 M 84.702176364,117.647621383 L 100.675190372,111.944229156 M 99.3239243481,114.796387871 L 83.3509103403,120.499780098" fill="none" stroke="red" stroke-width="0.343679536583"/>
	<path d="M 103.44501596,110.883092427 C 103.005550362,110.429497188 102.476353504,109.968561015 103.034048387,109.081288226 M 103.737415871,112.165060698 C 104.09107604,111.602399905 103.795985552,111.243325386 103.44501596,110.883092427 M 112.782954829,97.7739288664 C 113.136614999,97.2112680729 112.84152451,96.852193554 112.490554919,96.4919605957 M 112.079587346,94.6901563939 C 111.521892463,95.5774291836 112.051089321,96.0383653558 112.490554919,96.4919605957 M 103.034048387,109.081288226 L 112.079587346,94.6901563939 M 112.782954829,97.7739288664 L 103.737415871,112.165060698" fill="none" stroke="red" stroke-width="0.343679536583"/>
	<path d="M 113.796150782,92.1783292972 C 113.179643408,92.0305949189 112.483160546,91.9249443134 112.478032773,90.8729994533 M 114.733980465,93.1070603109 C 114.730728707,92.4399733264 114.287423011,92.2946018906 113.796150782,92.1783292972 M 114.650810495,76.0450278231 C 114.647558737,75.3779408386 114.204253041,75.2325694028 113.712980812,75.1162968094 M 112.394862803,73.8109669655 C 112.399990576,74.8629118257 113.096473438,74.9685624311 113.712980812,75.1162968094 M 112.478032773,90.8729994533 L 112.394862803,73.8109669655 M 114.650810495,76.0450278231 L 114.733980465,93.1070603109" fill="none" stroke="red" stroke-width="0.343679536583"/>
	<path d="M 112.5111716,70.783173752 C 111.929515898,71.0200442368 111.307755669,71.3369574248 110.696490602,70.4929281947 M 113.802301601,70.9896809823 C 113.414670096,70.4544429339 112.973834038,70.5932515761 112.5111716,70.783173752 M 103.887880396,57.2999385915 C 103.500248891,56.7647005432 103.059412833,56.9035091853 102.596750395,57.0934313613 M 100.782069397,56.8031858039 C 101.393334464,57.647215034 102.015094693,57.330301846 102.596750395,57.0934313613 M 110.696490602,70.4929281947 L 100.782069397,56.8031858039 M 103.887880396,57.2999385915 L 113.802301601,70.9896809823" fill="none" stroke="red" stroke-width="0.343679536583"/>
	<path d="M 98.9058929488,54.5867889581 C 98.6374030809,55.1568131212 98.3936836337,55.8131745895 97.3690148983,55.605334766 M 99.99936853,53.8621023318 C 99.3495786002,53.7303014682 99.1184302543,54.1322638268 98.9058929488,54.5867889581 M 83.3797414794,50.4910417813 C 82.7299515496,50.3592409176 82.4988032037,50.7612032762 82.2862658982,51.2157284075 M 80.7493878476,52.2342742155 C 81.7740565831,52.4421140389 82.0177760303,51.7857525706 82.2862658982,51.2157284075 M 97.3690148983,55.605334766 L 80.7493878476,52.2342742155 M 83.3797414794,50.4910417813 L 99.99936853,53.8621023318" fill="none" stroke="red" stroke-width="0.343679536583"/>
	<path d="M 77.8299114903,51.6784008188 C 77.9770514651,52.2895920626 78.197389106,52.9524847184 77.2703533034,53.4307794812 M 78.2280323519,50.4315983965 C 77.6401559892,50.7349072704 77.7113786427,51.1920185505 77.8299114903,51.6784008188 M 63.1919638457,58.1893061341 C 62.604087483,58.492615008 62.6753101365,58.9497262881 62.7938429841,59.4361085564 M 62.2342847971,61.1884872188 C 63.1613205998,60.710192456 62.9409829588,60.0472998002 62.7938429841,59.4361085564 M 77.2703533034,53.4307794812 L 62.2342847971,61.1884872188 M 63.1919638457,58.1893061341 L 78.2280323519,50.4315983965" fill="none" stroke="red" stroke-width="0.343679536583"/>
	<path d="M 60.622104613,61.1585632435 C 60.1484937535,60.8819581013 59.5981195699,60.6201950884 59.8570784528,59.7477188937 M 61.1664141792,62.1623669252 C 61.3306320074,61.6090893383 60.9998710127,61.377777659 60.622104613,61.1585632435 M 65.3666009381,48.011228645 C 65.5308187663,47.4579510581 65.2000577716,47.2266393788 64.8222913718,47.0074249633 M 64.0572652116,45.5965806135 C 63.7983063288,46.4690568082 64.3486805124,46.7308198211 64.8222913718,47.0074249633 M 59.8570784528,59.7477188937 L 64.0572652116,45.5965806135 M 65.3666009381,48.011228645 L 61.1664141792,62.1623669252" fill="none" stroke="red" stroke-width="0.343679536583"/>
	<path d="M 67.0318615727,43.5050942984 C 66.7369578071,42.9445615523 66.3577741657,42.3516412253 67.1448617649,41.6551748071 M 66.9514629029,44.8212961857 C 67.4505916243,44.3796345547 67.2679503556,43.9508066769 67.0318615727,43.5050942984 M 79.7176398174,33.5249506229 C 80.2167685389,33.0832889919 80.0341272702,32.6544611141 79.7980384872,32.2087487355 M 79.9110386795,30.3588292443 C 79.1239510802,31.0552956625 79.5031347216,31.6482159895 79.7980384872,32.2087487355 M 67.1448617649,41.6551748071 L 79.9110386795,30.3588292443 M 79.7176398174,33.5249506229 L 66.9514629029,44.8212961857" fill="none" stroke="red" stroke-width="0.343679536583"/>
	<path d="M 83.6300396418,30.197205941 C 83.6443150826,29.5617802911 83.6004212571,28.8568897117 84.6302023316,28.6291950975 M 82.9184324469,31.3128322381 C 83.5714643478,31.1684405315 83.6200865206,30.7032462006 83.6300396418,30.197205941 M 99.6209791429,27.6197366658 C 100.274011044,27.4753449592 100.322633217,27.0101506283 100.332586338,26.5041103688 M 101.332749028,24.9360995252 C 100.302967953,25.1637941395 100.346861779,25.8686847189 100.332586338,26.5041103688 M 84.6302023316,28.6291950975 L 101.332749028,24.9360995252 M 99.6209791429,27.6197366658 L 82.9184324469,31.3128322381" fill="none" stroke="red" stroke-width="0.343679536583"/>
	<path d="M 103.620459727,25.4663986003 C 103.225789699,25.5867405357 102.800113669,25.7570644546 102.450437758,25.1684342395 M 104.452920345,25.6783976932 C 104.231174645,25.3051199958 103.934479335,25.3696879405 103.620459727,25.4663986003 M 98.7813476411,16.1311027419 C 98.5596019414,15.7578250445 98.2629066317,15.8223929891 97.9488870232,15.919103649 M 96.778865055,15.6211392882 C 97.128540966,16.2097695032 97.5542169954,16.0394455844 97.9488870232,15.919103649 M 102.450437758,25.1684342395 L 96.778865055,15.6211392882 M 98.7813476411,16.1311027419 L 104.452920345,25.6783976932" fill="none" stroke="red" stroke-width="0.343679536583"/>
	<path d="M 94.2213064449,15.6010782553 C 94.2420156836,16.2378323602 94.3247696929,16.9409069249 93.3066504575,17.2255123122 M 94.8720763528,14.4453073249 C 94.2264397645,14.62578879 94.2033972603,15.0940580043 94.2213064449,15.6010782553 M 78.3586789989,19.0614678748 C 77.7130424106,19.24194934 77.6899999064,19.7102185543 77.707909091,20.2172388053 M 76.7932531036,21.8416728622 C 77.811372339,21.5570674749 77.7286183297,20.8539929102 77.707909091,20.2172388053 M 93.3066504575,17.2255123122 L 76.7932531036,21.8416728622 M 78.3586789989,19.0614678748 L 94.8720763528,14.4453073249" fill="none" stroke="red" stroke-width="0.343679536583"/>
	<path d="M 73.6235400324,22.1897999151 C 73.890447963,22.766746605 74.2401764762,23.3804708822 73.4155880883,24.0382909629 M 73.7714960611,20.874614353 C 73.2485863516,21.2917685505 73.4097086239,21.730954286 73.6235400324,22.1897999151 M 60.3970746467,31.5441351739 C 59.8741649373,31.9612893714 60.0352872095,32.400475107 60.249118618,32.859320736 M 60.0411666739,34.7078117838 C 60.8657550619,34.0499917031 60.5160265487,33.4362674259 60.249118618,32.859320736 M 73.4155880883,24.0382909629 L 60.0411666739,34.7078117838 M 60.3970746467,31.5441351739 L 73.7714960611,20.874614353" fill="none" stroke="red" stroke-width="0.343679536583"/>
	<path d="M 57.319703871,36.3186448941 C 57.795281155,36.7422797932 58.3616463732,37.1666508114 57.8664877727,38.1003060372 M 56.9306718041,35.0510082372 C 56.6166687892,35.6430822828 56.9400441719,35.9823506586 57.319703871,36.3186448941 M 48.899440845,50.1944405576 C 48.58543783,50.7865146032 48.9088132128,51.125782979 49.2884729119,51.4620772144 M 49.8352568136,53.2437383575 C 50.3304154141,52.3100831317 49.7640501958,51.8857121135 49.2884729119,51.4620772144 M 57.8664877727,38.1003060372 L 49.8352568136,53.2437383575 M 48.899440845,50.1944405576 L 56.9306718041,35.0510082372" fill="none" stroke="red" stroke-width="0.343679536583"/>
	<path d="M 47.8163796639,55.7567851343 C 48.4048793744,56.0029287014 49.0795976583,56.2201702892 48.9150639459,57.2658004429 M 47.0346751992,54.6831336556 C 46.9303367475,55.3462161921 47.3471916574,55.5620839951 47.8163796639,55.7567851343 M 44.3660186448,71.6427446846 C 44.261680193,72.3058272211 44.6785351029,72.5216950241 45.1477231094,72.7163961634 M 46.2464073914,74.2254114719 C 46.4109411038,73.1797813183 45.7362228199,72.9625397304 45.1477231094,72.7163961634 M 48.9150639459,57.2658004429 L 46.2464073914,74.2254114719 M 44.3660186448,71.6427446846 L 47.0346751992,54.6831336556" fill="none" stroke="red" stroke-width="0.343679536583"/>
	<path d="M 128.767490574,109.988115832 C 128.982257575,109.418741264 129.16655558,108.768146424 130.168981317,108.889654583 M 127.770341903,110.76966161 C 128.406026517,110.846715565 128.59773295,110.442004051 128.767490574,109.988115832 M 144.029198381,112.74046468 C 144.664882995,112.817518634 144.856589428,112.412807121 145.026347052,111.958918901 M 146.427837795,110.860457652 C 145.425412058,110.738949493 145.241114053,111.389544334 145.026347052,111.958918901 M 130.168981317,108.889654583 L 146.427837795,110.860457652 M 144.029198381,112.74046468 L 127.770341903,110.76966161" fill="none" stroke="red" stroke-width="0.343679536583"/>
	<path d="M 145.632705034,109.403480602 C 145.418004008,109.972725723 145.23376689,110.62317104 144.231575819,110.501718143 M 146.629596481,108.62209399 C 145.99406068,108.54507508 145.802410409,108.949695612 145.632705034,109.403480602 M 130.374546182,106.652187254 C 129.739010381,106.575168344 129.54736011,106.979788876 129.377654735,107.433573866 M 127.97652552,108.531811407 C 128.978716591,108.653264303 129.16295371,108.002818987 129.377654735,107.433573866 M 144.231575819,110.501718143 L 127.97652552,108.531811407 M 130.374546182,106.652187254 L 146.629596481,108.62209399" fill="none" stroke="red" stroke-width="0.343679536583"/>
	<path d="M 209.169959773,40.1622800752 C 208.603918287,40.3595011571 207.995721113,40.631047154 207.454521553,39.7965407578 M 210.390479386,40.4225004698 C 210.047279665,39.8933012917 209.620276426,40.0039666728 209.169959773,40.1622800752 M 201.612486527,26.8872137991 C 201.269286806,26.358014621 200.842283567,26.4686800021 200.391966913,26.6269934045 M 198.676528694,26.2612540871 C 199.217728254,27.0957604833 199.825925427,26.8242144864 200.391966913,26.6269934045 M 207.454521553,39.7965407578 L 198.676528694,26.2612540871 M 201.612486527,26.8872137991 L 210.390479386,40.4225004698" fill="none" stroke="red" stroke-width="0.343679536583"/>
	<path d="M 196.48750265,25.0761149729 C 196.483272279,25.6910583814 196.536363746,26.3723270691 195.54355819,26.6081307112 M 197.159111056,23.9860988852 C 196.529527045,24.1356329022 196.489502188,24.5864077019 196.48750265,25.0761149729 M 181.056289227,27.810718934 C 180.426705216,27.960252951 180.386680359,28.4110277507 180.384680822,28.9007350217 M 179.440736361,30.43275076 C 180.433541918,30.1969471179 180.38045045,29.5156784302 180.384680822,28.9007350217 M 195.54355819,26.6081307112 L 179.440736361,30.43275076 M 181.056289227,27.810718934 L 197.159111056,23.9860988852" fill="none" stroke="red" stroke-width="0.343679536583"/>
	<path d="M 177.519623683,31.965597637 C 178.102149297,32.1263779003 178.762232922,32.2496657006 178.732926675,33.25198755 M 176.656368987,31.0503422221 C 176.637784538,31.6859609559 177.055383098,31.838860551 177.519623683,31.965597637 M 176.181035955,47.3075136826 C 176.162451506,47.9431324163 176.580050066,48.0960320114 177.044290651,48.2227690974 M 178.257593643,49.5091590104 C 178.28689989,48.506837161 177.626816266,48.3835493607 177.044290651,48.2227690974 M 178.732926675,33.25198755 L 178.257593643,49.5091590104 M 176.181035955,47.3075136826 L 176.656368987,31.0503422221" fill="none" stroke="red" stroke-width="0.343679536583"/>
	<path d="M 179.310848721,51.7925627681 C 179.684724452,51.3044516492 180.052824059,50.7288838393 180.987048564,51.1388978389 M 178.118246877,52.2576397715 C 178.710681929,52.5176486493 179.014207109,52.1820927416 179.310848721,51.7925627681 M 193.270912631,58.9078668377 C 193.863347683,59.1678757155 194.166872864,58.8323198078 194.463514475,58.4427898343 M 196.139714318,57.7891249051 C 195.205489813,57.3791109055 194.837390206,57.9546787154 194.463514475,58.4427898343 M 180.987048564,51.1388978389 L 196.139714318,57.7891249051 M 193.270912631,58.9078668377 L 178.118246877,52.2576397715" fill="none" stroke="red" stroke-width="0.343679536583"/>
	<path d="M 198.467610979,57.2920692008 C 198.091160868,56.8078103326 197.628854441,56.3070026445 198.260833853,55.509197078 M 198.614731134,58.5605674594 C 199.015498566,58.0546419782 198.768467727,57.6768608351 198.467610979,57.2920692008 M 208.865128917,45.6205503434 C 209.265896349,45.1146248622 209.01886551,44.7368437191 208.718008762,44.3520520849 M 208.511231637,42.569179962 C 207.879252224,43.3669855285 208.341558651,43.8677932166 208.718008762,44.3520520849 M 198.260833853,55.509197078 L 208.511231637,42.569179962 M 208.865128917,45.6205503434 L 198.614731134,58.5605674594" fill="none" stroke="red" stroke-width="0.343679536583"/>
	<path d="M 158.069389113,92.90903351 C 158.678587693,92.8205769774 159.3447875,92.6654014212 159.727712894,93.612378717 M 156.889505934,92.4086094142 C 157.132336672,93.0091316017 157.584462998,92.9808305385 158.069389113,92.90903351 M 163.10036903,107.768119211 C 163.343199767,108.368641398 163.795326093,108.340340335 164.280252209,108.268543307 M 165.938575989,108.971888514 C 165.555650595,108.024911218 164.889450789,108.180086774 164.280252209,108.268543307 M 159.727712894,93.612378717 L 165.938575989,108.971888514 M 163.10036903,107.768119211 L 156.889505934,92.4086094142" fill="none" stroke="red" stroke-width="0.343679536583"/>
	<path d="M 167.301621936,111.495859639 C 167.687861557,111.007316208 168.069609964,110.430108121 169.009409343,110.859879083 M 166.08654581,111.948354363 C 166.682516148,112.220892046 166.995135551,111.885761406 167.301621936,111.495859639 M 181.3296333,118.919029723 C 181.925603638,119.191567406 182.238223041,118.856436766 182.544709426,118.466534999 M 184.252496833,117.830554443 C 183.312697454,117.400783481 182.930949047,117.977991568 182.544709426,118.466534999 M 169.009409343,110.859879083 L 184.252496833,117.830554443 M 181.3296333,118.919029723 L 166.08654581,111.948354363" fill="none" stroke="red" stroke-width="0.343679536583"/>
	<path d="M 186.95388213,119.263126662 C 187.0494423,118.64428532 187.09710584,117.950120155 188.132227483,117.859979627 M 186.115499494,120.261453771 C 186.771918097,120.204291485 186.879162617,119.75614133 186.95388213,119.263126662 M 202.9046676,118.799418378 C 203.561086203,118.742256092 203.668330723,118.294105936 203.743050236,117.801091269 M 204.921395589,116.397944233 C 203.886273946,116.488084761 203.838610406,117.182249927 203.743050236,117.801091269 M 188.132227483,117.859979627 L 204.921395589,116.397944233 M 202.9046676,118.799418378 L 186.115499494,120.261453771" fill="none" stroke="red" stroke-width="0.343679536583"/>
	<path d="M 207.970232889,116.3285331 C 207.713961646,115.763002784 207.37708277,115.160919483 208.187467427,114.524747366 M 207.815672374,117.611911214 C 208.329574839,117.208484993 208.175568565,116.778311213 207.970232889,116.3285331 M 220.959716202,107.293509794 C 221.473618668,106.890083573 221.319612393,106.459909792 221.114276717,106.01013168 M 221.331511256,104.206345946 C 220.521126599,104.842518063 220.858005474,105.444601364 221.114276717,106.01013168 M 208.187467427,114.524747366 L 221.331511256,104.206345946 M 220.959716202,107.293509794 L 207.815672374,117.611911214" fill="none" stroke="red" stroke-width="0.343679536583"/>
	<path d="M 223.473413822,102.262372482 C 222.89972425,102.031314722 222.24282124,101.829384837 222.388883611,100.813576967 M 224.245047786,103.293178093 C 224.337672705,102.649007248 223.930774482,102.445093318 223.473413822,102.262372482 M 226.614108202,86.8172699469 C 226.706733121,86.1730991021 226.299834898,85.9691851712 225.842474238,85.7864643357 M 224.757944027,84.3376688203 C 224.611881656,85.353476691 225.268784666,85.5554065758 225.842474238,85.7864643357 M 222.388883611,100.813576967 L 224.757944027,84.3376688203 M 226.614108202,86.8172699469 L 224.245047786,103.293178093" fill="none" stroke="red" stroke-width="0.343679536583"/>
	<path d="M 224.855052809,81.489493554 C 224.294706915,81.7495901279 223.698723256,82.0902173579 223.058431132,81.2896979655 M 226.133333757,81.6316464055 C 225.72729485,81.1239999615 225.300693893,81.2811231962 224.855052809,81.489493554 M 215.748107854,68.6476123579 C 215.342068946,68.1399659139 214.91546799,68.2970891486 214.469826906,68.5054595064 M 212.673205229,68.3056639178 C 213.313497352,69.1061833102 213.909481012,68.7655560803 214.469826906,68.5054595064 M 223.058431132,81.2896979655 L 212.673205229,68.3056639178 M 215.748107854,68.6476123579 L 226.133333757,81.6316464055" fill="none" stroke="red" stroke-width="0.343679536583"/>
	<path d="M 211.921853414,66.0054961773 C 211.628540165,65.7791292944 211.282513225,65.5560511805 211.531635733,64.9939912651 M 212.199489956,66.7251732664 C 212.357470083,66.3687450274 212.155931568,66.1851058133 211.921853414,66.0054961773 M 216.240135513,57.6088356143 C 216.39811564,57.2524073752 216.196577125,57.0687681611 215.962498972,56.8891585252 M 215.57228129,55.877653613 C 215.323158782,56.4397135284 215.669185722,56.6627916423 215.962498972,56.8891585252 M 211.531635733,64.9939912651 L 215.57228129,55.877653613 M 216.240135513,57.6088356143 L 212.199489956,66.7251732664" fill="none" stroke="red" stroke-width="0.343679536583"/>
	<path d="M 218.049458133,53.6124009219 C 217.511083222,53.3168020003 216.887217149,53.0400936275 217.151237062,52.0557399466 M 218.688534738,54.7199518847 C 218.855962,54.0957275992 218.478840378,53.8465964489 218.049458133,53.6124009219 M 222.970808935,38.7542153518 C 223.138236197,38.1299910663 222.761114575,37.8808599159 222.33173233,37.6466643889 M 221.433511259,36.0900034136 C 221.169491346,37.0743570946 221.793357419,37.3510654673 222.33173233,37.6466643889 M 217.151237062,52.0557399466 L 221.433511259,36.0900034136 M 222.970808935,38.7542153518 L 218.688534738,54.7199518847" fill="none" stroke="red" stroke-width="0.343679536583"/>
	<path d="M 221.692257514,33.3217520246 C 221.12495069,33.5569064964 220.518916453,33.8705715876 219.916078432,33.048992154 M 222.955993732,33.5158183383 C 222.573706206,32.9948167463 222.143497332,33.1332283104 221.692257514,33.3217520246 M 213.17825509,20.1902006957 C 212.795967565,19.6691991037 212.36575869,19.8076106678 211.914518873,19.996134382 M 210.13833979,19.7233745114 C 210.741177811,20.544953945 211.347212049,20.2312888538 211.914518873,19.996134382 M 219.916078432,33.048992154 L 210.13833979,19.7233745114 M 213.17825509,20.1902006957 L 222.955993732,33.5158183383" fill="none" stroke="red" stroke-width="0.343679536583"/>
	<path d="M 208.17279607,17.6521275727 C 207.921497079,18.2231048111 207.69690108,18.8789064102 206.677478773,18.6991500542 M 209.23670153,16.907180037 C 208.590238603,16.7931882015 208.371641642,17.1968817563 208.17279607,17.6521275727 M 192.702168991,13.9916196281 C 192.055706064,13.8776277926 191.837109103,14.2813213474 191.63826353,14.7365671638 M 190.142946234,15.7835896452 C 191.162368541,15.9633460013 191.38696454,15.3075444022 191.63826353,14.7365671638 M 206.677478773,18.6991500542 L 190.142946234,15.7835896452 M 192.702168991,13.9916196281 L 209.23670153,16.907180037" fill="none" stroke="red" stroke-width="0.343679536583"/>
	<path d="M 187.179300521,15.091590806 C 187.27646286,15.7059256736 187.441760135,16.3769944958 186.489939235,16.7759779824 M 187.669775177,13.8931637441 C 187.066181436,14.1461776624 187.100559362,14.6025938957 187.179300521,15.091590806 M 172.231704492,20.3644812704 C 171.628110751,20.6174951888 171.662488678,21.073911422 171.741229837,21.5629083324 M 171.051868551,23.2472955087 C 172.00368945,22.8483120221 171.838392175,22.1772431999 171.741229837,21.5629083324 M 186.489939235,16.7759779824 L 171.051868551,23.2472955087 M 172.231704492,20.3644812704 L 187.669775177,13.8931637441" fill="none" stroke="red" stroke-width="0.343679536583"/>
	<path d="M 168.465381931,24.5347315566 C 168.961678669,24.8988522816 169.54539317,25.2553819946 169.154331407,26.198950917 M 167.975200274,23.3506537231 C 167.727209888,23.9490145031 168.069355224,24.2458763741 168.465381931,24.5347315566 M 161.632369244,38.6548813664 C 161.384378858,39.2532421465 161.726524194,39.5501040175 162.122550901,39.8389591999 M 162.811500377,41.5031785603 C 163.20256214,40.5596096379 162.618847639,40.2030799249 162.122550901,39.8389591999 M 169.154331407,26.198950917 L 162.811500377,41.5031785603 M 161.632369244,38.6548813664 L 167.975200274,23.3506537231" fill="none" stroke="red" stroke-width="0.343679536583"/>
	<path d="M 162.126209963,44.2173411962 C 162.72114261,44.0664693405 163.365682973,43.8435272586 163.843577879,44.74288584 M 160.904317387,43.8434206794 C 161.207372694,44.4137456335 161.652783212,44.3388096508 162.126209963,44.2173411962 M 168.655539646,58.4305781588 C 168.958594953,59.0009031129 169.404005471,58.9259671303 169.877432222,58.8044986756 M 171.594800138,59.3300433194 C 171.116905232,58.430684738 170.472364869,58.6536268199 169.877432222,58.8044986756 M 163.843577879,44.74288584 L 171.594800138,59.3300433194 M 168.655539646,58.4305781588 L 160.904317387,43.8434206794" fill="none" stroke="red" stroke-width="0.343679536583"/>
	<path d="M 172.082632735,61.6506032432 C 172.363270934,61.8833761638 172.6958658,62.1147379547 172.431417486,62.6588962891 M 171.834475369,60.9332113695 C 171.666776438,61.2782873864 171.85863384,61.4658640653 172.082632735,61.6506032432 M 167.54525272,69.7591941102 C 167.37755379,70.1042701271 167.569411191,70.291846806 167.793410086,70.4765859839 M 168.142194838,71.4848790298 C 168.406643151,70.9407206954 168.074048286,70.7093589045 167.793410086,70.4765859839 M 172.431417486,62.6588962891 L 168.142194838,71.4848790298 M 167.54525272,69.7591941102 L 171.834475369,60.9332113695" fill="none" stroke="red" stroke-width="0.343679536583"/>
	<path d="M 165.350418171,73.4638943786 C 165.831865825,73.8494338024 166.401151614,74.2310736103 165.969709602,75.1591600948 M 164.909797617,72.2577273287 C 164.636200244,72.8462699774 164.966168544,73.1579497819 165.350418171,73.4638943786 M 157.912018648,87.3108373829 C 157.638421275,87.8993800316 157.968389575,88.2110598362 158.352639202,88.5170044328 M 158.971930633,90.2122701491 C 159.403372645,89.2841836645 158.834086856,88.9025438566 158.352639202,88.5170044328 M 165.969709602,75.1591600948 L 158.971930633,90.2122701491 M 157.912018648,87.3108373829 L 164.909797617,72.2577273287" fill="none" stroke="red" stroke-width="0.343679536583"/>
	<path d="M 172.137494339,91.0527970412 C 172.711099256,90.9175388205 173.333492289,90.713888095 173.777807164,91.585031916 M 170.970425801,90.6741164824 C 171.252186453,91.2265491494 171.681016732,91.1617844025 172.137494339,91.0527970412 M 178.176996333,104.80364431 C 178.458756986,105.356076977 178.887587265,105.29131223 179.344064871,105.182324869 M 180.984377697,105.714559744 C 180.540062822,104.843415923 179.917669788,105.047066648 179.344064871,105.182324869 M 173.777807164,91.585031916 L 180.984377697,105.714559744 M 178.176996333,104.80364431 L 170.970425801,90.6741164824" fill="none" stroke="red" stroke-width="0.343679536583"/>
	<path d="M 182.89255394,107.515557022 C 183.06533614,106.937421055 183.202325018,106.28107008 184.20230713,106.331452384 M 181.960675754,108.35803734 C 182.594810752,108.389987094 182.756249578,107.976328723 182.89255394,107.515557022 M 198.179897816,109.175213736 C 198.814032814,109.20716349 198.97547164,108.793505119 199.111776002,108.332733418 M 200.421529192,107.14862878 C 199.42154708,107.098246476 199.284558202,107.754597451 199.111776002,108.332733418 M 184.20230713,106.331452384 L 200.421529192,107.14862878 M 198.179897816,109.175213736 L 181.960675754,108.35803734" fill="none" stroke="red" stroke-width="0.343679536583"/>
	<path d="M 203.082505193,106.754613231 C 202.688152114,106.319560479 202.210646379,105.8749163 202.756254216,105.067669537 M 203.314629972,107.954859232 C 203.660625186,107.442946651 203.397509049,107.100180698 203.082505193,106.754613231 M 212.164122939,94.8617105167 C 212.510118153,94.3497979353 212.247002017,94.0070319822 211.931998161,93.6614645148 M 211.605747183,91.9745208215 C 211.060139346,92.7817675844 211.537645081,93.226411763 211.931998161,93.6614645148 M 202.756254216,105.067669537 L 211.605747183,91.9745208215 M 212.164122939,94.8617105167 L 203.314629972,107.954859232" fill="none" stroke="red" stroke-width="0.343679536583"/>
	<path d="M 212.188499432,89.4672357715 C 211.620979835,89.6366076433 211.008529584,89.8774576001 210.511632875,89.0295811284 M 213.381575638,89.7786233048 C 213.066470408,89.2409455422 212.640055159,89.3310962378 212.188499432,89.4672357715 M 205.322153406,76.0264805321 C 205.007048176,75.4888027695 204.580632927,75.5789534651 204.1290772,75.7150929987 M 202.452210642,75.2774383557 C 202.949107352,76.1253148274 203.561557603,75.8844648706 204.1290772,75.7150929987 M 210.511632875,89.0295811284 L 202.452210642,75.2774383557 M 205.322153406,76.0264805321 L 213.381575638,89.7786233048" fill="none" stroke="red" stroke-width="0.343679536583"/>
	<path d="M 200.601715698,73.3277418129 C 200.404302342,73.8702872509 200.236697799,74.4895462065 199.284360743,74.3854225656 M 201.539002475,72.5752110084 C 200.935081414,72.5091813825 200.757713832,72.8952570724 200.601715698,73.3277418129 M 186.092559977,70.8863763463 C 185.488638917,70.8203467204 185.311271335,71.2064224103 185.1552732,71.6389071508 M 183.837918246,72.6965879036 C 184.790255302,72.8007115444 184.957859845,72.1814525888 185.1552732,71.6389071508 M 199.284360743,74.3854225656 L 183.837918246,72.6965879036 M 186.092559977,70.8863763463 L 201.539002475,72.5752110084" fill="none" stroke="red" stroke-width="0.343679536583"/>
	<path d="M 181.362357594,73.4297779919 C 181.76795677,73.8662842035 182.258050846,74.3114810696 181.714537467,75.1374272078 M 181.111784628,72.214800188 C 180.767117607,72.7385709098 181.038394898,73.0830781316 181.362357594,73.4297779919 M 172.296262739,85.61124365 C 171.951595718,86.1350143718 172.22287301,86.4795215936 172.546835705,86.826221454 M 172.899015578,88.5338706699 C 173.442528957,87.7079245316 172.952434881,87.2627276655 172.546835705,86.826221454 M 181.714537467,75.1374272078 L 172.899015578,88.5338706699 M 172.296262739,85.61124365 L 181.111784628,72.214800188" fill="none" stroke="red" stroke-width="0.343679536583"/>
	<path d="M 280.885202984,30.3926807779 C 281.393445832,30.8892811064 282.00283395,31.3913711408 281.402961134,32.406463207 M 280.51682249,28.9598918124 C 280.136415339,29.6036087324 280.479368252,29.9983547191 280.885202984,30.3926807779 M 270.787178038,45.4241899598 C 270.406770887,46.0679068798 270.7497238,46.4626528665 271.155558532,46.8569789253 M 271.673316683,48.8707613544 C 272.273189498,47.8556692882 271.663801381,47.3535792538 271.155558532,46.8569789253 M 281.402961134,32.406463207 L 271.673316683,48.8707613544 M 270.787178038,45.4241899598 L 280.51682249,28.9598918124" fill="none" stroke="red" stroke-width="0.343679536583"/>
	<path d="M 268.493152616,50.7840465196 C 268.955494744,51.3247133893 269.5182013,51.8799068008 268.829194299,52.8384044427 M 268.254061833,49.3223884374 C 267.817130564,49.9302162103 268.123771883,50.3545267518 268.493152616,50.7840465196 M 257.078704385,64.8687526296 C 256.641773116,65.4765804025 256.948414435,65.900890944 257.317795167,66.3304107118 M 257.653836851,68.3847686349 C 258.342843852,67.426270993 257.780137296,66.8710775816 257.317795167,66.3304107118 M 268.829194299,52.8384044427 L 257.653836851,68.3847686349 M 257.078704385,64.8687526296 L 268.254061833,49.3223884374" fill="none" stroke="red" stroke-width="0.343679536583"/>
	<path d="M 255.34598208,69.9816353427 C 255.682745401,69.9763205953 256.055113645,69.9387963521 256.196547497,70.4794785313 M 254.740812064,69.6274241743 C 254.830501824,69.9702958002 255.077819196,69.986617473 255.34598208,69.9816353427 M 257.034800151,78.3970253741 C 257.124489911,78.739897 257.371807282,78.7562186728 257.639970166,78.7512365426 M 258.490535583,79.2490797311 C 258.349101731,78.7083975519 257.976733488,78.7459217951 257.639970166,78.7512365426 M 256.196547497,70.4794785313 L 258.490535583,79.2490797311 M 257.034800151,78.3970253741 L 254.740812064,69.6274241743" fill="none" stroke="red" stroke-width="0.343679536583"/>
	<path d="M 261.202044981,79.5990187293 C 261.362100203,78.913544186 261.474912938,78.1395426398 262.642876907,78.1270624648 M 260.176905396,80.6463030154 C 260.917565473,80.638388758 261.076114493,80.1452390149 261.202044981,79.5990187293 M 279.120711229,80.4438806642 C 279.861371307,80.4359664069 280.019920326,79.9428166638 280.145850814,79.3965963782 M 281.58668274,77.9246401136 C 280.418718771,77.9371202887 280.305906037,78.7111218349 280.145850814,79.3965963782 M 262.642876907,78.1270624648 L 281.58668274,77.9246401136 M 279.120711229,80.4438806642 L 260.176905396,80.6463030154" fill="none" stroke="red" stroke-width="0.343679536583"/>
	<path d="M 281.812335989,75.873658843 C 281.121344295,75.7045098346 280.340379725,75.5821467221 280.340379725,74.4017025784 M 282.859620275,76.920943129 C 282.859620275,76.172368794 282.362969995,76.0068187006 281.812335989,75.873658843 M 282.859620275,57.7747149444 C 282.859620275,57.0261406094 282.362969995,56.8605905161 281.812335989,56.7274306584 M 280.340379725,55.2554743938 C 280.340379725,56.4359185376 281.121344295,56.55828165 281.812335989,56.7274306584 M 280.340379725,74.4017025784 L 280.340379725,55.2554743938 M 282.859620275,57.7747149444 L 282.859620275,76.920943129" fill="none" stroke="red" stroke-width="0.343679536583"/>
	<path d="M 281.832081033,51.9625876366 C 281.144540646,51.7804214748 280.366174405,51.6433213869 280.388516523,50.4633040626 M 282.859164828,53.0293150695 C 282.873333001,52.2810114004 282.379995643,52.106121128 281.832081033,51.9625876366 M 283.221543097,33.8900096867 C 283.23571127,33.1417060176 282.742373913,32.9668157453 282.194459302,32.8232822539 M 280.750894793,31.3239986798 C 280.728552674,32.5040160042 281.506918916,32.6411160921 282.194459302,32.8232822539 M 280.388516523,50.4633040626 L 280.750894793,31.3239986798 M 283.221543097,33.8900096867 L 282.859164828,53.0293150695" fill="none" stroke="red" stroke-width="0.343679536583"/>
	<path d="M 332.325936259,50.7621233165 C 332.97195661,50.6374663865 333.675524722,50.4387499119 334.131323984,51.4307921502 M 331.041418343,50.2863711634 C 331.330461777,50.9154711194 331.811768469,50.8628297927 332.325936259,50.7621233165 M 338.434260026,66.3768123466 C 338.72330346,67.0059123026 339.204610152,66.953270976 339.718777942,66.8525644997 M 341.524165666,67.5212333335 C 341.068366405,66.5291910951 340.364798293,66.7279075697 339.718777942,66.8525644997 M 334.131323984,51.4307921502 L 341.524165666,67.5212333335 M 338.434260026,66.3768123466 L 331.041418343,50.2863711634" fill="none" stroke="red" stroke-width="0.343679536583"/>
	<path d="M 343.368194167,69.3541919382 C 343.516478459,68.7092333225 343.620064873,67.9811973063 344.718083055,67.9657306038 M 342.407759776,70.3420702959 C 343.104063988,70.3322621431 343.251547011,69.8681219681 343.368194167,69.3541919382 M 360.217079066,70.0912079264 C 360.913383279,70.0813997736 361.060866302,69.6172595985 361.177513458,69.1033295686 M 362.527402345,67.7148682342 C 361.429384164,67.7303349367 361.32579775,68.458370953 361.177513458,69.1033295686 M 344.718083055,67.9657306038 L 362.527402345,67.7148682342 M 360.217079066,70.0912079264 L 342.407759776,70.3420702959" fill="none" stroke="red" stroke-width="0.343679536583"/>
	<path d="M 365.081727375,67.0374790491 C 364.583295091,66.643304253 363.994392444,66.2536990241 364.433051361,65.2948304916 M 365.543254808,68.2773585851 C 365.821428756,67.6692956133 365.479521599,67.3502624333 365.081727375,67.0374790491 M 372.658088463,52.7249787292 C 372.936262411,52.1169157574 372.594355254,51.7978825774 372.19656103,51.4850991932 M 371.547885016,49.7424506357 C 371.109226099,50.7013191681 371.698128746,51.0909243971 372.19656103,51.4850991932 M 364.433051361,65.2948304916 L 371.547885016,49.7424506357 M 372.658088463,52.7249787292 L 365.543254808,68.2773585851" fill="none" stroke="red" stroke-width="0.343679536583"/>
	<path d="M 372.112607114,46.9921025944 C 371.453498358,47.1122664974 370.735016509,47.3072379359 370.281294948,46.2923277351 M 373.415570049,47.4899864185 C 373.127844181,46.8463848277 372.637207597,46.8949449073 372.112607114,46.9921025944 M 366.056427663,31.028638039 C 365.768701796,30.3850364482 365.278065212,30.4335965278 364.753464729,30.5307542149 M 362.922152563,29.8309793555 C 363.375874123,30.8458895564 364.094355973,30.6509181179 364.753464729,30.5307542149 M 370.281294948,46.2923277351 L 362.922152563,29.8309793555 M 366.056427663,31.028638039 L 373.415570049,47.4899864185" fill="none" stroke="red" stroke-width="0.343679536583"/>
	<path d="M 361.265408275,27.7778782242 C 361.106033595,28.4074432745 360.988721536,29.1194773558 359.911138328,29.1109956673 M 362.228959753,26.8293765714 C 361.545614304,26.8239979397 361.390921315,27.2761818574 361.265408275,27.7778782242 M 344.751085775,26.691807722 C 344.067740326,26.6864290903 343.913047337,27.1386130079 343.787534297,27.6403093747 M 342.43326435,28.9734268179 C 343.510847558,28.9819085063 343.628159617,28.2698744251 343.787534297,27.6403093747 M 359.911138328,29.1109956673 L 342.43326435,28.9734268179 M 344.751085775,26.691807722 L 362.228959753,26.8293765714" fill="none" stroke="red" stroke-width="0.343679536583"/>
	<path d="M 340.024520868,29.9398006024 C 340.546065251,30.3529319012 341.162338844,30.7613545157 340.702245469,31.7649531945 M 339.542325614,28.6412201518 C 339.250559083,29.2776485823 339.608279578,29.6119730489 340.024520868,29.9398006024 M 332.079835499,44.9191011611 C 331.788068968,45.5555295915 332.145789463,45.8898540581 332.562030753,46.2176816117 M 333.239755354,48.0428342038 C 333.699848729,47.039235525 333.083575136,46.6308129105 332.562030753,46.2176816117 M 340.702245469,31.7649531945 L 333.239755354,48.0428342038 M 332.079835499,44.9191011611 L 339.542325614,28.6412201518" fill="none" stroke="red" stroke-width="0.343679536583"/>
	<path d="M 318.674839809,51.6389590987 C 319.301425584,51.6141937157 319.992860592,51.5279040431 320.27999163,52.5280341226 M 317.532788025,51.0063898275 C 317.714871122,51.6406186583 318.175925936,51.6600756717 318.674839809,51.6389590987 M 322.189913403,67.228011848 C 322.3719965,67.8622406789 322.833051313,67.8816976922 323.331965187,67.8605811192 M 324.937117008,68.7496561431 C 324.649985969,67.7495260636 323.958550961,67.8358157362 323.331965187,67.8605811192 M 320.27999163,52.5280341226 L 324.937117008,68.7496561431 M 322.189913403,67.228011848 L 317.532788025,51.0063898275" fill="none" stroke="red" stroke-width="0.343679536583"/>
	<path d="M 325.869453381,71.522069649 C 326.315565736,71.0863675345 326.768570375,70.5620406761 327.646825038,71.1091598605 M 324.604868657,71.8158514302 C 325.161810638,72.1628050593 325.515170888,71.8700256051 325.869453381,71.522069649 M 338.84973087,80.6898577138 C 339.406672851,81.036811343 339.760033101,80.7440318888 340.114315594,80.3960759327 M 341.891687251,79.9831661441 C 341.013432588,79.4360469597 340.56042795,79.9603738181 340.114315594,80.3960759327 M 327.646825038,71.1091598605 L 341.891687251,79.9831661441 M 338.84973087,80.6898577138 L 324.604868657,71.8158514302" fill="none" stroke="red" stroke-width="0.343679536583"/>
	<path d="M 344.459532412,81.3890728357 C 344.523507527,80.7651773173 344.53572494,80.0683836089 345.566530983,79.9253417007 M 343.671912402,82.4305050125 C 344.325594283,82.3397955097 344.409976279,81.8860419677 344.459532412,81.3890728357 M 360.391083597,80.1104350386 C 361.044765478,80.0197255358 361.129147474,79.5659719938 361.178703607,79.0690028618 M 362.285702178,77.6052717269 C 361.254896135,77.748313635 361.242678722,78.4451073434 361.178703607,79.0690028618 M 345.566530983,79.9253417007 L 362.285702178,77.6052717269 M 360.391083597,80.1104350386 L 343.671912402,82.4305050125" fill="none" stroke="red" stroke-width="0.343679536583"/>
	<path d="M 364.743788141,77.7818868966 C 364.833238041,77.5757804845 364.912913646,77.3391734622 365.280398023,77.4020265948 M 364.361994801,78.0521542506 C 364.595033675,78.0920123348 364.673015424,77.946214774 364.743788141,77.7818868966 M 370.322412137,79.0716014019 C 370.55545101,79.111459486 370.633432759,78.9656619252 370.704205476,78.8013340478 M 371.240815359,78.4214737461 C 370.873330982,78.3586206134 370.793655376,78.5952276358 370.704205476,78.8013340478 M 365.280398023,77.4020265948 L 371.240815359,78.4214737461 M 370.322412137,79.0716014019 L 364.361994801,78.0521542506" fill="none" stroke="red" stroke-width="0.343679536583"/>
	<path d="M 369.817358956,81.6360969439 C 370.255678124,82.0890209997 370.783542585,82.5493217404 370.226477168,83.4344819585 M 369.526274849,80.3565613955 C 369.173013853,80.9178825095 369.467303794,81.2763959168 369.817358956,81.6360969439 M 360.490945523,94.7134283489 C 360.137684527,95.2747494629 360.431974469,95.6332628702 360.78202963,95.9929638973 M 361.191147843,97.791348912 C 361.74821326,96.9061886938 361.220348799,96.4458879532 360.78202963,95.9929638973 M 370.226477168,83.4344819585 L 361.191147843,97.791348912 M 360.490945523,94.7134283489 L 369.526274849,80.3565613955" fill="none" stroke="red" stroke-width="0.343679536583"/>
	<path d="M 357.674202598,98.9556218166 C 357.806452297,99.5707842166 358.010676381,100.239472751 357.071365196,100.69533487 M 358.103116251,97.7178308663 C 357.5074555,98.0069141615 357.567518481,98.4660440428 357.674202598,98.9556218166 M 342.867947024,105.111692069 C 342.272286272,105.400775365 342.332349254,105.859905246 342.439033371,106.34948302 M 341.836195968,108.089196073 C 342.775507154,107.633333954 342.571283069,106.96464542 342.439033371,106.34948302 M 357.071365196,100.69533487 L 341.836195968,108.089196073 M 342.867947024,105.111692069 L 358.103116251,97.7178308663" fill="none" stroke="red" stroke-width="0.343679536583"/>
	<path d="M 338.484883103,107.767184899 C 338.651126225,108.208011973 338.876608941,108.680481002 338.231695014,109.122349224 M 338.665024262,106.802997079 C 338.256054455,107.083206195 338.351517181,107.416511256 338.484883103,107.767184899 M 328.204834972,113.969884088 C 327.795865165,114.250093204 327.891327891,114.583398265 328.024693813,114.934071908 M 327.771505724,116.289236232 C 328.41641965,115.847368011 328.190936935,115.374898982 328.024693813,114.934071908 M 338.231695014,109.122349224 L 327.771505724,116.289236232 M 328.204834972,113.969884088 L 338.665024262,106.802997079" fill="none" stroke="red" stroke-width="0.343679536583"/>
	<path d="M 328.162689639,118.016273264 C 328.295570525,117.446817469 328.389195809,116.803826087 329.359444826,116.793322061 M 327.311208564,118.886392579 C 327.926488429,118.87973149 328.058140561,118.470043839 328.162689639,118.016273264 M 343.048174329,118.716022401 C 343.663454194,118.709361311 343.795106325,118.29967366 343.899655404,117.845903085 M 345.096410591,116.622951882 C 344.126161574,116.633455908 344.03253629,117.276447291 343.899655404,117.845903085 M 329.359444826,116.793322061 L 345.096410591,116.622951882 M 343.048174329,118.716022401 L 327.311208564,118.886392579" fill="none" stroke="red" stroke-width="0.343679536583"/>
	<path d="M 348.219002442,116.91465231 C 348.092609965,116.295101188 347.894458723,115.621003119 348.843154371,115.172849849 M 347.774923686,118.153929856 C 348.37653556,117.869735099 348.32103205,117.407737996 348.219002442,116.91465231 M 363.162304314,110.885102432 C 363.763916188,110.600907675 363.708412678,110.138910572 363.60638307,109.645824886 M 364.230534999,107.904022425 C 363.281839351,108.352175694 363.479990593,109.026273764 363.60638307,109.645824886 M 348.843154371,115.172849849 L 364.230534999,107.904022425 M 363.162304314,110.885102432 L 347.774923686,118.153929856" fill="none" stroke="red" stroke-width="0.343679536583"/>
	<path d="M 367.216458086,106.931105498 C 366.836889552,106.425195714 366.369096224,105.900708906 367.034741198,105.089334985 M 367.345748098,108.241509457 C 367.767864423,107.726979654 367.519846336,107.333131462 367.216458086,106.931105498 M 378.142184875,95.0814202438 C 378.5643012,94.5668904399 378.316283113,94.1730422484 378.012894863,93.7710162845 M 377.831177975,91.9292457713 C 377.165533001,92.7406196927 377.63332633,93.2651064999 378.012894863,93.7710162845 M 367.034741198,105.089334985 L 377.831177975,91.9292457713 M 378.142184875,95.0814202438 L 367.345748098,108.241509457" fill="none" stroke="red" stroke-width="0.343679536583"/>
	<path d="M 380.211012992,89.8177570588 C 379.671124515,89.4855598201 379.04214411,89.1684716431 379.364554279,88.1672388389 M 380.813261123,90.992086648 C 381.017716352,90.3571585283 380.641682025,90.0810935516 380.211012992,89.8177570588 M 386.042596794,74.7525789696 C 386.247052023,74.1176508499 385.871017696,73.8415858732 385.440348663,73.5782493804 M 384.593889951,71.9277311605 C 384.271479781,72.9289639647 384.900460186,73.2460521417 385.440348663,73.5782493804 M 379.364554279,88.1672388389 L 384.593889951,71.9277311605 M 386.042596794,74.7525789696 L 380.813261123,90.992086648" fill="none" stroke="red" stroke-width="0.343679536583"/>
	<path d="M 386.234026331,69.1219345993 C 385.622303034,68.9521019737 384.929040965,68.8215345019 384.961417621,67.7685816677 M 387.139476537,70.084833629 C 387.160008076,69.4171074414 386.72153806,69.255815341 386.234026331,69.1219345993 M 387.664610107,53.0064522925 C 387.685141645,52.3387261049 387.24667163,52.1774340046 386.7591599,52.0435532629 M 385.486551191,50.6902003312 C 385.454174534,51.7431531655 386.147436604,51.8737206373 386.7591599,52.0435532629 M 384.961417621,67.7685816677 L 385.486551191,50.6902003312 M 387.664610107,53.0064522925 L 387.139476537,70.084833629" fill="none" stroke="red" stroke-width="0.343679536583"/>
	<path d="M 386.266964562,47.5438666511 C 385.636449398,47.5864592885 384.942338645,47.6928566434 384.624924172,46.693426989 M 387.435262248,48.1489471931 C 387.233975022,47.5151625343 386.768967832,47.5085449525 386.266964562,47.5438666511 M 382.286954333,31.938685726 C 382.085667106,31.3049010671 381.620659917,31.2982834853 381.118656647,31.333605184 M 379.476616256,30.4831655219 C 379.794030729,31.4825951762 380.488141482,31.3761978214 381.118656647,31.333605184 M 384.624924172,46.693426989 L 379.476616256,30.4831655219 M 382.286954333,31.938685726 L 387.435262248,48.1489471931" fill="none" stroke="red" stroke-width="0.343679536583"/>
	<path d="M 378.747512709,27.5170950137 C 378.25392291,27.9005629659 377.743443268,28.3715162763 376.930645221,27.7272665583 M 380.040198378,27.3675597582 C 379.52476547,26.9590111566 379.139719217,27.2106289721 378.747512709,27.5170950137 M 366.85701054,16.9181436 C 366.341577632,16.5095949983 365.956531378,16.7612128138 365.56432487,17.0676788555 M 363.747457382,17.2778504001 C 364.560255429,17.9221001181 365.070735071,17.4511468077 365.56432487,17.0676788555 M 376.930645221,27.7272665583 L 363.747457382,17.2778504001 M 366.85701054,16.9181436 L 380.040198378,27.3675597582" fill="none" stroke="red" stroke-width="0.343679536583"/>
	<path d="M 361.359833315,15.5707640328 C 361.221769383,16.1837600596 361.126496088,16.8754465644 360.084026061,16.8947753218 M 362.267559259,14.6287413308 C 361.606480705,14.6409985916 361.468412861,15.0823095262 361.359833315,15.5707640328 M 345.359203943,14.9422443467 C 344.698125389,14.9545016075 344.560057546,15.3958125421 344.451478,15.8842670487 M 343.175670746,17.2082783377 C 344.218140773,17.1889495803 344.313414067,16.4972630754 344.451478,15.8842670487 M 360.084026061,16.8947753218 L 343.175670746,17.2082783377 M 345.359203943,14.9422443467 L 362.267559259,14.6287413308" fill="none" stroke="red" stroke-width="0.343679536583"/>
	<path d="M 340.174190704,17.2225957263 C 340.423361566,17.7983583684 340.753340182,18.4124380958 339.92366214,19.0412032553 M 340.352439634,15.928672032 C 339.826302338,16.3274011576 339.974486491,16.7646534965 340.174190704,17.2225957263 M 326.89546651,26.1269362055 C 326.369329215,26.5256653311 326.517513367,26.96291767 326.71721758,27.4208598998 M 326.466689016,29.2394674288 C 327.296367058,28.6107022693 326.966388442,27.9966225419 326.71721758,27.4208598998 M 339.92366214,19.0412032553 L 326.466689016,29.2394674288 M 326.89546651,26.1269362055 L 340.352439634,15.928672032" fill="none" stroke="red" stroke-width="0.343679536583"/>
	<path d="M 324.054928852,31.0297268269 C 324.591176312,31.3588510011 325.215836625,31.6728787338 324.896942935,32.6670306617 M 323.455843038,29.8647991596 C 323.253617771,30.4952369676 323.627166113,30.7688294003 324.054928852,31.0297268269 M 318.283542941,45.9894584792 C 318.081317674,46.6198962871 318.454866017,46.8934887198 318.882628756,47.1543861464 M 319.724642839,48.7916899812 C 320.043536529,47.7975380533 319.418876215,47.4835103206 318.882628756,47.1543861464 M 324.896942935,32.6670306617 L 319.724642839,48.7916899812 M 318.283542941,45.9894584792 L 323.455843038,29.8647991596" fill="none" stroke="red" stroke-width="0.343679536583"/>
	<path d="M 234.89412157,81.6378739249 C 235.262414121,81.3900370608 235.646906308,81.081027761 236.191665408,81.5768417145 M 233.970930233,81.6812978204 C 234.316387223,81.995716425 234.601391016,81.8360538824 234.89412157,81.6378739249 M 242.806657103,89.7231582855 C 243.152114093,90.0375768902 243.437117886,89.8779143476 243.72984844,89.6797343901 M 245.027392278,89.6187021796 C 244.482633178,89.1228882261 244.098140991,89.4318975259 243.72984844,89.6797343901 M 236.191665408,81.5768417145 L 245.027392278,89.6187021796 M 242.806657103,89.7231582855 L 233.970930233,81.6812978204" fill="none" stroke="red" stroke-width="0.343679536583"/>
	<path d="M 247.671513848,90.3871762505 C 247.820620353,89.7780603166 247.928484633,89.0896324122 248.969057686,89.0896324122 M 246.748322511,91.3103675878 C 247.408198106,91.3103675878 247.554132132,90.8725655103 247.671513848,90.3871762505 M 263.625909846,91.3103675878 C 264.285785441,91.3103675878 264.431719467,90.8725655103 264.549101183,90.3871762505 M 265.846645022,89.0896324122 C 264.806071968,89.0896324122 264.698207688,89.7780603166 264.549101183,90.3871762505 M 248.969057686,89.0896324122 L 265.846645022,89.0896324122 M 263.625909846,91.3103675878 L 246.748322511,91.3103675878" fill="none" stroke="red" stroke-width="0.343679536583"/>
	<path d="M 268.694547549,90.6027962617 C 268.978416561,90.2158061153 269.256360418,89.7606567574 269.992091387,90.0654988422 M 267.771356212,90.9850787778 C 268.237917314,91.1783932706 268.469355827,90.9116001676 268.694547549,90.6027962617 M 279.704553634,95.9294686902 C 280.171114737,96.122783183 280.40255325,95.8559900799 280.627744972,95.5471861741 M 281.92528881,95.0098887546 C 281.189557841,94.7050466698 280.911613983,95.1601960276 280.627744972,95.5471861741 M 269.992091387,90.0654988422 L 281.92528881,95.0098887546 M 279.704553634,95.9294686902 L 267.771356212,90.9850787778" fill="none" stroke="red" stroke-width="0.343679536583"/>
	<path d="M 281.412823749,98.9681588698 C 282.021939683,99.1172653744 282.710367588,99.2251296544 282.710367588,100.265702708 M 280.489632412,98.0449675324 C 280.489632412,98.7048431275 280.92743449,98.8507771533 281.412823749,98.9681588698 M 280.489632412,114.922554868 C 280.489632412,115.582430463 280.92743449,115.728364488 281.412823749,115.845746205 M 282.710367588,117.143290043 C 282.710367588,116.10271699 282.021939683,115.99485271 281.412823749,115.845746205 M 282.710367588,100.265702708 L 282.710367588,117.143290043 M 280.489632412,114.922554868 L 280.489632412,98.0449675324" fill="none" stroke="red" stroke-width="0.343679536583"/>
	<path d="M 283.816206611,117.534175521 C 283.655978332,117.112731318 283.438976374,116.661158081 284.055023029,116.236631682 M 283.646290773,118.457366858 C 284.036954506,118.188154996 283.944739577,117.869427396 283.816206611,117.534175521 M 293.638267014,111.571755764 C 294.028930747,111.302543901 293.936715817,110.983816301 293.808182852,110.648564426 M 294.04699927,109.351020588 C 293.430952615,109.775546986 293.647954572,110.227120223 293.808182852,110.648564426 M 284.055023029,116.236631682 L 294.04699927,109.351020588 M 293.638267014,111.571755764 L 283.646290773,118.457366858" fill="none" stroke="red" stroke-width="0.343679536583"/>
	<path d="M 294.746522585,106.924727217 C 294.198543608,106.738529253 293.574322299,106.583852994 293.658225737,105.627183379 M 295.520836479,107.847918554 C 295.574043538,107.241250018 295.183309243,107.071782101 294.746522585,106.924727217 M 296.881709327,92.3312040673 C 296.934916386,91.7245355309 296.544182091,91.5550676137 296.107395433,91.4080127299 M 295.019098585,90.1104688916 C 294.935195147,91.0671385066 295.559416456,91.2218147661 296.107395433,91.4080127299 M 293.658225737,105.627183379 L 295.019098585,90.1104688916 M 296.881709327,92.3312040673 L 295.520836479,107.847918554" fill="none" stroke="red" stroke-width="0.343679536583"/>
	<path d="M 298.878296542,89.8820449961 C 298.682470562,89.4821977248 298.428083571,89.0578813047 298.995276477,88.5845011578 M 298.795066319,90.8052363334 C 299.154749626,90.5050440451 299.035128935,90.2000193259 298.878296542,89.8820449961 M 307.994658588,83.1272412666 C 308.354341894,82.8270489782 308.234721203,82.522024259 308.07788881,82.2040499292 M 308.194868746,80.9065060909 C 307.627675839,81.3798862379 307.88206283,81.8042026579 308.07788881,82.2040499292 M 298.995276477,88.5845011578 L 308.194868746,80.9065060909 M 307.994658588,83.1272412666 L 298.795066319,90.8052363334" fill="none" stroke="red" stroke-width="0.343679536583"/>
	<path d="M 307.931375511,79.0187229887 C 307.66095603,79.4278816733 307.399986409,79.9063126339 306.633831672,79.6318943169 M 308.854566848,78.5824568358 C 308.368712625,78.408435464 308.145807607,78.6922955588 307.931375511,79.0187229887 M 296.427910752,74.1315255966 C 295.942056529,73.9575042248 295.719151512,74.2413643196 295.504719415,74.5677917494 M 294.207175576,75.1809630777 C 294.973330313,75.4553813947 295.234299935,74.9769504341 295.504719415,74.5677917494 M 306.633831672,79.6318943169 L 294.207175576,75.1809630777 M 296.427910752,74.1315255966 L 308.854566848,78.5824568358" fill="none" stroke="red" stroke-width="0.343679536583"/>
	<path d="M 294.687176251,71.1902285762 C 294.078060317,71.0411220715 293.389632412,70.9332577916 293.389632412,69.8926847378 M 295.610367588,72.1134199135 C 295.610367588,71.4535443185 295.17256551,71.3076102926 294.687176251,71.1902285762 M 295.610367588,55.2358325784 C 295.610367588,54.5759569833 295.17256551,54.4300229575 294.687176251,54.3126412411 M 293.389632412,53.0150974027 C 293.389632412,54.0556704564 294.078060317,54.1635347364 294.687176251,54.3126412411 M 293.389632412,69.8926847378 L 293.389632412,53.0150974027 M 295.610367588,55.2358325784 L 295.610367588,72.1134199135" fill="none" stroke="red" stroke-width="0.343679536583"/>
	<path d="M 294.687176251,49.8419060654 C 294.078060317,49.6927995607 293.389632412,49.5849352808 293.389632412,48.544362227 M 295.610367588,50.7650974027 C 295.610367588,50.1052218076 295.17256551,49.9592877818 294.687176251,49.8419060654 M 295.610367588,33.8875100676 C 295.610367588,33.2276344725 295.17256551,33.0817004467 294.687176251,32.9643187302 M 293.389632412,31.6667748919 C 293.389632412,32.7073479456 294.078060317,32.8152122256 294.687176251,32.9643187302 M 293.389632412,48.544362227 L 293.389632412,31.6667748919 M 295.610367588,33.8875100676 L 295.610367588,50.7650974027" fill="none" stroke="red" stroke-width="0.343679536583"/>
	<path d="M 294.333597901,28.7279554894 C 293.870964426,28.8202924865 293.367407487,28.9659943947 293.036054062,28.256774766 M 295.256789238,29.0631965419 C 295.046662676,28.6134475091 294.701801193,28.653394673 294.333597901,28.7279554894 M 289.882398319,17.5600001259 C 289.672271757,17.1102510931 289.327410274,17.1501982569 288.959206982,17.2247590733 M 287.661663143,16.7535783499 C 287.993016568,17.4627979786 288.496573507,17.3170960705 288.959206982,17.2247590733 M 293.036054062,28.256774766 L 287.661663143,16.7535783499 M 289.882398319,17.5600001259 L 295.256789238,29.0631965419" fill="none" stroke="red" stroke-width="0.343679536583"/>
	<path d="M 285.404663786,16.7661949438 C 285.627904672,17.2840209245 285.923730087,17.8363888072 285.177201091,18.4005027326 M 285.566501546,15.6033989376 C 285.093092915,15.9611297196 285.22573739,16.3543316768 285.404663786,16.7661949438 M 273.458165397,24.7530516312 C 272.984756766,25.1107824132 273.117401241,25.5039843705 273.296327637,25.9158476375 M 273.068864943,27.5501554263 C 273.815393938,26.9860415008 273.519568524,26.4336736181 273.296327637,25.9158476375 M 285.177201091,18.4005027326 L 273.068864943,27.5501554263 M 273.458165397,24.7530516312 L 285.566501546,15.6033989376" fill="none" stroke="red" stroke-width="0.343679536583"/>
	<path d="M 270.496196695,29.2476375806 C 270.910137197,29.7187089463 271.412714347,30.2013929951 270.816781515,31.0544207437 M 270.268103339,27.9621268216 C 269.890194714,28.5030712475 270.165514589,28.8734310258 270.496196695,29.2476375806 M 260.602363502,41.7978207923 C 260.224454877,42.3387652182 260.499774752,42.7091249965 260.830456858,43.0833315514 M 261.151041677,44.8901147144 C 261.746974509,44.0370869659 261.24439736,43.554402917 260.830456858,43.0833315514 M 270.816781515,31.0544207437 L 261.151041677,44.8901147144 M 260.602363502,41.7978207923 L 270.268103339,27.9621268216" fill="none" stroke="red" stroke-width="0.343679536583"/>
	<path d="M 258.27008124,46.7482939946 C 258.684021742,47.2193653602 259.186598892,47.7020494091 258.59066606,48.5550771576 M 258.041987885,45.4627832355 C 257.664079259,46.0037276614 257.939399135,46.3740874397 258.27008124,46.7482939946 M 248.376248047,59.2984772062 C 247.998339422,59.8394216322 248.273659297,60.2097814104 248.604341403,60.5839879653 M 248.924926223,62.3907711284 C 249.520859055,61.5377433798 249.018281905,61.055059331 248.604341403,60.5839879653 M 258.59066606,48.5550771576 L 248.924926223,62.3907711284 M 248.376248047,59.2984772062 L 258.041987885,45.4627832355" fill="none" stroke="red" stroke-width="0.343679536583"/>
	<path d="M 246.043965786,64.2489504085 C 246.457906288,64.7200217741 246.960483438,65.202705823 246.364550606,66.0557335715 M 245.81587243,62.9634396494 C 245.437963805,63.5043840753 245.71328368,63.8747438536 246.043965786,64.2489504085 M 236.150132593,76.7991336201 C 235.772223968,77.3400780461 236.047543843,77.7104378243 236.378225949,78.0846443792 M 236.698810768,79.8914275423 C 237.2947436,79.0383997937 236.79216645,78.5557157449 236.378225949,78.0846443792 M 246.364550606,66.0557335715 L 236.698810768,79.8914275423 M 236.150132593,76.7991336201 L 245.81587243,62.9634396494" fill="none" stroke="red" stroke-width="0.343679536583"/>
</svg>
