<?xml version="1.0" encoding="utf-8"?>
<!-- Generator: Adobe Illustrator 20.1.0, SVG Export Plug-In . SVG Version: 6.00 Build 0)  -->
<svg version="1.1" id="Layer_1" xmlns="http://www.w3.org/2000/svg" xmlns:xlink="http://www.w3.org/1999/xlink" x="0px" y="0px"
	 viewBox="0 0 432 144" style="enable-background:new 0 0 432 144;" xml:space="preserve">
<style type="text/css">
	.st0{fill:none;stroke:#000000;stroke-width:1;stroke-linecap:round;stroke-linejoin:round;}
</style>
<g>
	<path class="st0" d="M60.2,73.8c-0.9,1.6-1.6,3.6-1.6,6.1c0.3,16.7,8,29,22.3,29c11.9,0,19.8-9.8,19.8-24.3
		c0-14.5-8.3-23.2-20.9-23.2C71.6,61.3,64,66.5,60.2,73.8z"/>
	<path class="st0" d="M45.1,76.3c0,26.4,14.2,43.2,35.9,43.2c21.1,0,33.7-17.2,33.7-35.7C114.7,64,102.1,51,84.1,51
		c-11.2,0-19.7,5.3-24.5,11.7h-0.5c2.3-16.7,13.7-32.4,35.3-36c3.9-0.6,7.5-0.8,10.3-0.6V14.8c-2.5,0-5.9,0.2-10,0.8
		c-12.8,1.6-24,6.7-32.4,15C52.3,40.6,45.1,56.3,45.1,76.3z"/>
	<path class="st0" d="M127.9,109.7c0,5.6,3.7,9.8,9.2,9.8c5.8,0,9.4-4.2,9.4-9.8c0-5.8-3.7-9.8-9.2-9.8S127.9,103.9,127.9,109.7z"/>
	<path class="st0" d="M209.5,41c0-8.1-4.8-16.5-17.2-16.5c-11.4,0-17.6,7.5-17.6,16.2c0,10.1,7.6,15.6,19.3,18.7
		C202.8,56.5,209.5,50.2,209.5,41z"/>
	<path class="st0" d="M157.9,92c0,14.8,12.8,27.5,34,27.5c19.3,0,34.5-11.9,34.5-29.5c0-12.3-7.8-21.2-20.4-26.2v-0.5
		c12.5-5.9,16.7-15.1,16.7-23.7c0-12.6-9.8-25-29.5-25c-17.8,0-31.4,10.9-31.4,27c0,8.7,4.8,17.5,16.1,22.8l0.2,0.5
		C165.5,70.2,157.9,79.3,157.9,92z"/>
	<path class="st0" d="M171.9,90.2c-0.5,10.3,7.3,19.3,20.3,19.3c12.3,0,20.3-7.6,20.3-18.1c0-12.3-8.6-18.3-22.3-22.2
		C178.3,72.7,171.9,80.5,171.9,90.2z"/>
	<path class="st0" d="M281.6,29.6c-3.1,5.9-5.6,10.3-8.4,15l-24.8,34.5v0.3h33.2V45.6c0-5.3,0.2-10.6,0.5-15.9H281.6z"/>
	<polygon class="st0" points="234.5,81.1 234.5,90.2 281.6,90.2 281.6,117.8 294.5,117.8 294.5,90.2 308.7,90.2 308.7,79.4 
		294.5,79.4 294.5,16.4 279.7,16.4 	"/>
	<path class="st0" d="M332.1,49.8c0,12.6,7.6,21.5,19.5,21.5c9.2,0,16.4-4.5,20-10.6c0.8-1.2,1.2-2.8,1.2-5
		c0-17.3-6.4-30.6-20.7-30.6C340.4,25.1,332.1,35.4,332.1,49.8z"/>
	<path class="st0" d="M318.6,50.7c0,17.3,11.7,31,30,31c10.1,0,18.3-4.1,23.9-10.9h0.5c-1.9,12-6.7,20.9-13.4,27
		c-5.8,5.5-13.3,8.7-21.2,9.8c-4.7,0.5-8.1,0.8-11.1,0.5v11.2c3.3,0.2,7.6,0,12.6-0.8c10.9-1.2,21.7-5.9,29.5-13.6
		c10-9.7,17.5-25.3,17.5-47.6c0-25.9-12.8-42.7-33.5-42.7C332.5,14.7,318.6,31.5,318.6,50.7z"/>
</g>
</svg>
