<?xml version="1.0" ?>
<svg baseProfile="full" height="479px" version="1.1" viewBox="-5.22882546888 133.86509691 438.684837273 350.061523763" width="600px" xmlns="http://www.w3.org/2000/svg" xmlns:ev="http://www.w3.org/2001/xml-events" xmlns:xlink="http://www.w3.org/1999/xlink">
	<defs/>
	<path d="M 177.594516482,166.207276765 L 173.943047109,171.029952971 L 170.296938951,175.846568727 L 166.658194588,180.656067107 L 163.028816873,185.457390563 L 159.410808944,190.249480908 L 155.806174222,195.0312793 L 152.216916419,199.801726224 L 148.645039546,204.559761459 L 145.092547915,209.304324057 L 141.08810004,206.310263734 M 144.644599684,201.560348031 L 141.08810004,206.310263734 M 148.219974017,196.797653749 L 144.644599684,201.560348031 M 151.81222537,192.023228009 L 148.219974017,196.797653749 M 155.419355619,187.238119031 L 151.81222537,192.023228009 M 159.039366195,182.443376083 L 155.419355619,187.238119031 M 162.670258094,177.640049448 L 159.039366195,182.443376083 M 166.31003188,172.829190395 L 162.670258094,177.640049448 M 169.956687698,168.011851143 L 166.31003188,172.829190395 M 173.608225277,163.189084852 L 169.956687698,168.011851143 M 173.608225277,163.189084852 L 177.594516482,166.207276765" fill="none" stroke="red" stroke-width="0.365266309136"/>
	<path d="M 137.386518989,219.647479732 L 133.71566387,224.603920411 L 130.075917154,229.540305844 L 126.46964055,234.455381625 L 122.899196208,239.347892059 L 119.366946731,244.216580062 L 115.875255186,249.060187053 L 112.426485114,253.877452835 L 109.02300054,258.667115456 L 105.667165982,263.427911056 L 101.5746813,260.555356596 M 104.941850654,255.778479859 L 101.5746813,260.555356596 M 108.355944987,250.973885534 L 104.941850654,255.778479859 M 111.814619702,246.142784191 L 108.355944987,250.973885534 M 115.315529464,241.286389261 L 111.814619702,246.142784191 M 118.856328214,236.405916807 L 115.315529464,241.286389261 M 122.434669177,231.50258532 L 118.856328214,236.405916807 M 126.048204884,226.577615534 L 122.434669177,231.50258532 M 129.694587189,221.632230266 L 126.048204884,226.577615534 M 133.371467284,216.667654267 L 129.694587189,221.632230266 M 133.371467284,216.667654267 L 137.386518989,219.647479732" fill="none" stroke="red" stroke-width="0.365266309136"/>
	<path d="M 98.3859947805,273.906855769 L 94.7973335131,279.158184441 L 91.2823541525,284.365778754 L 87.8444509248,289.527806546 L 84.4870187665,294.642430043 L 81.2134532423,299.707805201 L 78.0271504268,304.722080943 L 74.9315067362,309.683398298 L 71.9299186957,314.589889416 L 69.0257826248,319.439676442 L 64.7233482981,316.892313322 M 67.6526825196,312.000439533 L 64.7233482981,316.892313322 M 70.6781249208,307.054949491 L 67.6526825196,312.000439533 M 73.7963225425,302.05748052 L 70.6781249208,307.054949491 M 77.0039227346,297.009684947 L 73.7963225425,302.05748052 M 80.2975726826,291.913228418 L 77.0039227346,297.009684947 M 83.6739190602,286.769788423 L 80.2975726826,291.913228418 M 87.1296077764,281.581052998 L 83.6739190602,286.769788423 M 90.6612837972,276.34871959 L 87.1296077764,281.581052998 M 94.2655910237,271.074494055 L 90.6612837972,276.34871959 M 94.2655910237,271.074494055 L 98.3859947805,273.906855769" fill="none" stroke="red" stroke-width="0.365266309136"/>
	<path d="M 62.7774345482,330.291932622 L 59.5008208982,336.268758142 L 56.4115544101,342.137020573 L 53.516857471,347.892521861 L 50.8239313612,353.531001202 L 48.3399464399,359.048125255 L 46.0720286152,364.439477683 L 44.027240837,369.700548662 L 42.2125580489,374.82672568 L 40.6348337728,379.813287903 L 35.8410178518,378.392256969 M 37.4724168438,373.235794709 L 35.8410178518,378.392256969 M 39.3405680791,367.958395265 L 37.4724168438,373.235794709 M 41.4377086893,362.562491049 L 39.3405680791,367.958395265 M 43.7562579388,357.050676952 L 41.4377086893,362.562491049 M 46.2887671015,351.425701903 L 43.7562579388,357.050676952 M 49.0278818882,345.690455056 L 46.2887671015,351.425701903 M 51.966314687,339.847950062 L 49.0278818882,345.690455056 M 55.0968242672,333.901309373 L 51.966314687,339.847950062 M 58.4122010582,327.853749574 L 55.0968242672,333.901309373 M 58.4122010582,327.853749574 L 62.7774345482,330.291932622" fill="none" stroke="red" stroke-width="0.365266309136"/>
	<path d="M 37.820912757,391.363193977 L 36.8488065158,398.019223415 L 36.4801864742,404.3052781 L 36.7314304606,410.206668112 L 37.6169452378,415.712548734 L 39.1511384016,420.818280442 L 41.3523178204,425.526395495 L 44.2470161821,429.844031319 L 47.8713516981,433.776763841 L 52.2673948897,437.322498329 L 49.4047998763,441.421955585 M 44.4576754179,437.430093043 L 49.4047998763,441.421955585 M 40.3209498484,432.940158439 L 44.4576754179,437.430093043 M 36.996471303,427.981309163 L 40.3209498484,432.940158439 M 34.4771594527,422.594208589 L 36.996471303,427.981309163 M 32.7415556827,416.821862344 L 34.4771594527,422.594208589 M 31.7558641491,410.700368304 L 32.7415556827,416.821862344 M 31.4804385993,404.255066667 L 31.7558641491,410.700368304 M 31.8756315307,397.501989844 L 31.4804385993,404.255066667 M 32.9047520396,390.451402444 L 31.8756315307,397.501989844 M 32.9047520396,390.451402444 L 37.820912757,391.363193977" fill="none" stroke="red" stroke-width="0.365266309136"/>
	<path d="M 63.6501659504,443.243290875 L 67.4018497845,444.56663062 L 71.4300507312,445.750946616 L 75.7390531075,446.79265093 L 80.3329044437,447.688313947 L 85.2154970773,448.43467707 L 90.5160795153,449.040754215 L 99.006827733,449.596545938 L 107.020659656,449.60530995 L 114.565108306,449.097416398 L 115.079366673,454.070899919 M 107.184259864,454.602632731 L 115.079366673,454.070899919 M 98.8389325851,454.593726265 L 107.184259864,454.602632731 M 90.037609586,454.017808215 L 98.8389325851,454.593726265 M 84.5544482814,453.390785876 L 90.037609586,454.017808215 M 79.478606418,452.614790871 L 84.5544482814,453.390785876 M 74.675141045,451.678148972 L 79.478606418,452.614790871 M 70.1394079857,450.581499514 L 74.675141045,451.678148972 M 65.8669958527,449.325225308 L 70.1394079857,450.581499514 M 61.8538484382,447.909471689 L 65.8669958527,449.325225308 M 61.8538484382,447.909471689 L 63.6501659504,443.243290875" fill="none" stroke="red" stroke-width="0.365266309136"/>
	<path d="M 128.330490084,446.639246877 L 134.726899351,444.684231618 L 140.657512157,442.304640478 L 146.133012524,439.53239383 L 151.164076975,436.398663332 L 155.761098174,432.933928359 L 159.933948931,429.168136838 L 163.691833382,425.130936119 L 167.043246176,420.851923122 L 169.996030854,416.360865091 L 174.281970485,418.935883824 M 171.105289629,423.767365282 L 174.281970485,418.935883824 M 167.49489518,428.376967689 L 171.105289629,423.767365282 M 163.44357321,432.729391872 L 167.49489518,428.376967689 M 158.945086457,436.78908317 L 163.44357321,432.729391872 M 153.994261888,440.520562574 L 158.945086457,436.78908317 M 148.58692948,443.888801935 L 153.994261888,440.520562574 M 142.719698989,446.859570276 L 148.58692948,443.888801935 M 136.389605964,449.399675046 L 142.719698989,446.859570276 M 129.5936972,451.477046768 L 136.389605964,449.399675046 M 129.5936972,451.477046768 L 128.330490084,446.639246877" fill="none" stroke="red" stroke-width="0.365266309136"/>
	<path d="M 175.288089082,405.458716674 L 177.231213667,399.632125778 L 178.671033837,393.70339944 L 179.618440471,387.723635117 L 180.084647909,381.744441654 L 180.081305116,375.817808141 L 179.620582986,369.995982405 L 178.715255963,364.331351125 L 177.378788675,358.876302403 L 175.625426166,353.683041083 L 180.287045187,351.874918273 M 182.180732461,357.482984109 L 180.287045187,351.874918273 M 183.616546336,363.342739638 L 182.180732461,357.482984109 M 184.585478704,369.404534594 L 183.616546336,363.342739638 M 185.077350831,375.6189936 L 184.585478704,369.404534594 M 185.080948709,381.936739139 L 185.077350831,375.6189936 M 184.584153002,388.308185424 L 185.080948709,381.936739139 M 183.574061486,394.683358556 L 184.584153002,388.308185424 M 182.037119991,401.011714272 L 183.574061486,394.683358556 M 179.959289164,407.241941225 L 182.037119991,401.011714272 M 179.959289164,407.241941225 L 175.288089082,405.458716674" fill="none" stroke="red" stroke-width="0.365266309136"/>
	<path d="M 170.07946275,342.990230145 L 167.117102095,339.091752426 L 163.819254149,335.65085405 L 160.200283442,332.709134621 L 156.271550057,330.305793232 L 152.039740124,328.478941375 L 147.506223247,327.268117851 L 142.668393902,326.717121513 L 137.522851069,326.875594691 L 132.068882813,327.798374082 L 130.919816759,322.932200308 M 137.024257573,321.900516347 L 130.919816759,322.932200308 M 142.873607993,321.72133457 L 137.024257573,321.900516347 M 148.438028908,322.355711291 L 142.873607993,321.72133457 M 153.683647576,323.756911272 L 148.438028908,322.355711291 M 158.577784496,325.86943406 L 153.683647576,323.756911272 M 163.093722862,328.631389126 L 158.577784496,325.86943406 M 167.212720658,331.978744976 L 163.093722862,328.631389126 M 170.923046795,335.849101514 L 167.212720658,331.978744976 M 174.217476856,340.183659415 L 170.923046795,335.849101514 M 174.217476856,340.183659415 L 170.07946275,342.990230145" fill="none" stroke="red" stroke-width="0.365266309136"/>
	<path d="M 112.232939945,333.177850458 L 103.066609374,336.025216549 L 94.8755855965,338.816474934 L 87.6085003024,341.532183316 L 81.2139609875,344.152842421 L 75.6405373423,346.658892312 L 70.8367438297,349.030710949 L 66.7510180629,351.24861647 L 63.3316949633,353.292875103 L 60.5269773364,355.143717074 L 57.6736696252,351.037790247 M 60.6706863486,349.059787205 L 57.6736696252,351.037790247 M 64.2746966434,346.904904667 L 60.6706863486,349.059787205 M 68.5368011754,344.591086665 L 64.2746966434,346.904904667 M 73.5082987837,342.136331231 L 68.5368011754,344.591086665 M 79.2406423455,339.558714263 L 73.5082987837,342.136331231 M 85.7854000124,336.876401391 L 79.2406423455,339.558714263 M 93.1942227775,334.1076514 L 85.7854000124,336.876401391 M 101.518818342,331.270814071 L 93.1942227775,334.1076514 M 110.810930697,328.384324647 L 101.518818342,331.270814071 M 110.810930697,328.384324647 L 112.232939945,333.177850458" fill="none" stroke="red" stroke-width="0.365266309136"/>
	<path d="M 332.784572191,176.839686516 L 326.856660718,179.394853629 L 321.097945404,181.938164569 L 315.517795697,184.474787133 L 310.12561345,187.009832183 L 304.930834203,189.548340338 L 299.942926823,192.095265433 L 295.171390299,194.655454151 L 290.625745849,197.233621396 L 286.315521553,199.834321304 L 283.669096358,195.592100931 M 288.102899992,192.916765043 L 283.669096358,195.592100931 M 292.757969368,190.276481737 L 288.102899992,192.916765043 M 297.625824055,187.664573075 L 292.757969368,190.276481737 M 302.697973324,185.074602271 L 297.625824055,187.664573075 M 307.965893108,182.50033021 L 302.697973324,185.074602271 M 313.421014156,179.935678502 L 307.965893108,182.50033021 M 319.054717222,177.374698934 L 313.421014156,179.935678502 M 324.858332535,174.811548657 L 319.054717222,177.374698934 M 330.823141714,172.240470226 L 324.858332535,174.811548657 M 330.823141714,172.240470226 L 332.784572191,176.839686516" fill="none" stroke="red" stroke-width="0.365266309136"/>
	<path d="M 276.643517508,206.454072789 L 271.655853731,210.512530262 L 267.29358499,214.6639435 L 263.583134103,218.918935836 L 260.546796767,223.289013727 L 258.202080187,227.789679259 L 256.563380609,232.444339443 L 255.64692777,237.286315343 L 255.476854505,242.35578858 L 256.087712621,247.692301187 L 251.171279059,248.602620379 M 250.481082142,242.561357279 L 251.171279059,248.602620379 M 250.677322332,236.73584119 L 250.481082142,242.561357279 M 251.736344084,231.140606962 L 250.677322332,236.73584119 M 253.6188634,225.791148826 L 251.736344084,231.140606962 M 256.273741633,220.692670177 L 253.6188634,225.791148826 M 259.647089897,215.835503331 L 256.273741633,220.692670177 M 263.689685749,211.198123214 L 259.647089897,215.835503331 M 268.359489482,206.753011312 L 263.689685749,211.198123214 M 273.620652067,202.471324426 L 268.359489482,206.753011312 M 273.620652067,202.471324426 L 276.643517508,206.454072789" fill="none" stroke="red" stroke-width="0.365266309136"/>
	<path d="M 259.977244512,259.630879718 L 262.085369562,263.874660246 L 264.623433917,268.278387881 L 267.60248268,272.845786579 L 271.032962734,277.580559583 L 274.924873255,282.486532507 L 279.144367125,287.402181165 L 282.999704782,291.444848414 L 287.058028658,295.24031245 L 291.298442561,298.804007731 L 288.178630949,302.711279862 M 283.743473756,298.983803575 L 288.178630949,302.711279862 M 279.483895428,294.999997438 L 283.743473756,298.983803575 M 275.424616846,290.743357285 L 279.483895428,294.999997438 M 271.07056099,285.671540665 L 275.424616846,290.743357285 M 267.050787391,280.604179853 L 271.07056099,285.671540665 M 263.484702281,275.681960866 L 267.050787391,280.604179853 M 260.363786799,270.896670989 L 263.484702281,275.681960866 M 257.680193639,266.239913952 L 260.363786799,270.896670989 M 255.426972828,261.703324554 L 257.680193639,266.239913952 M 255.426972828,261.703324554 L 259.977244512,259.630879718" fill="none" stroke="red" stroke-width="0.365266309136"/>
	<path d="M 301.387872881,306.048806564 L 306.360230098,309.13559973 L 311.432735098,312.034649499 L 316.578990956,314.763986459 L 321.772490571,317.341758803 L 326.986674527,319.786250423 L 332.19498153,322.115891347 L 337.370892497,324.349266036 L 342.487970111,326.505124382 L 347.51989576,328.602399994 L 345.597536432,333.218083541 M 340.559325208,331.118185062 L 345.597536432,333.218083541 M 335.413413034,328.950165313 L 340.559325208,331.118185062 M 330.18725038,326.695085122 L 335.413413034,328.950165313 M 324.908109655,324.333729733 L 330.18725038,326.695085122 M 319.603140621,321.846636248 L 324.908109655,324.333729733 M 314.299429725,319.21411012 L 319.603140621,321.846636248 M 309.024066226,316.416237597 L 314.299429725,319.21411012 M 303.80421786,313.432901377 L 309.024066226,316.416237597 M 298.667217626,310.243807754 L 303.80421786,313.432901377 M 298.667217626,310.243807754 L 301.387872881,306.048806564" fill="none" stroke="red" stroke-width="0.365266309136"/>
	<path d="M 358.902429198,333.428452731 L 365.468401822,336.408623331 L 371.591394741,339.46695205 L 377.193926493,342.670454133 L 382.197751135,346.091564498 L 386.519587735,349.809492191 L 390.062461684,353.907278939 L 392.706394308,358.456960722 L 394.315967019,363.493621991 L 394.776531552,369.010464059 L 389.778013686,368.888730174 M 389.41206277,364.469184966 L 389.778013686,368.888730174 M 388.144276356,360.503196239 L 389.41206277,364.469184966 M 386.008996558,356.834636189 L 388.144276356,360.503196239 M 383.009410003,353.370201712 L 386.008996558,356.834636189 M 379.171863193,350.072017006 L 383.009410003,353.370201712 M 374.557208725,346.918714884 L 379.171863193,350.072017006 M 369.24683971,343.88317914 L 374.557208725,346.918714884 M 363.329701745,340.928132373 L 369.24683971,343.88317914 M 356.895887148,338.008167678 L 363.329701745,340.928132373 M 356.895887148,338.008167678 L 358.902429198,333.428452731" fill="none" stroke="red" stroke-width="0.365266309136"/>
	<path d="M 391.806289161,381.984885809 L 389.975342979,386.048392221 L 387.68628633,390.320920639 L 384.925017569,394.817727877 L 381.676352285,399.553748458 L 377.924413862,404.543421924 L 373.652914233,409.800676938 L 369.204834016,414.892024071 L 364.85005284,419.347882442 L 360.390409157,423.3945731 L 357.145802435,419.59029561 M 361.380136091,415.747927199 L 357.145802435,419.59029561 M 365.528474082,411.503163255 L 361.380136091,415.747927199 M 369.825960086,406.582848174 L 365.528474082,411.503163255 M 373.987298609,401.461357116 L 369.825960086,406.582848174 M 377.617914718,396.633288817 L 373.987298609,401.461357116 M 380.734165905,392.090685097 L 377.617914718,396.633288817 M 383.353026849,387.826354089 L 380.734165905,392.090685097 M 385.492510525,383.8338464 L 383.353026849,387.826354089 M 387.172254066,380.107196073 L 385.492510525,383.8338464 M 387.172254066,380.107196073 L 391.806289161,381.984885809" fill="none" stroke="red" stroke-width="0.365266309136"/>
	<path d="M 349.94205054,431.107996434 L 344.491903283,434.274808429 L 338.963754238,436.95903123 L 333.374158325,439.176767133 L 327.739743179,440.944530139 L 322.077075313,442.279243862 L 316.402544448,443.198196307 L 310.732280016,443.718963826 L 305.082105489,443.859320059 L 299.467528258,443.63714469 L 299.822046606,438.649728852 M 305.121052473,438.859471749 L 299.822046606,438.649728852 M 310.443518857,438.727309091 L 305.121052473,438.859471749 M 315.775892001,438.237621067 L 310.443518857,438.727309091 M 321.105092264,437.374628796 L 315.775892001,438.237621067 M 326.418498949,436.122257471 L 321.105092264,437.374628796 M 331.703881788,434.463999762 L 326.418498949,436.122257471 M 336.949275704,432.382801752 L 331.703881788,434.463999762 M 342.142807303,429.860995103 L 336.949275704,432.382801752 M 347.272494117,426.880293925 L 342.142807303,429.860995103 M 347.272494117,426.880293925 L 349.94205054,431.107996434" fill="none" stroke="red" stroke-width="0.365266309136"/>
	<path d="M 286.85753542,441.865734951 L 281.005010003,440.453980997 L 275.270950076,438.706193446 L 269.673805689,436.644778655 L 264.231925577,434.291950484 L 258.96359962,431.669730326 L 253.887091619,428.799949192 L 249.02066464,425.704248199 L 244.382601778,422.40407487 L 239.991225604,418.920673329 L 243.200843596,415.086830304 M 247.38655105,418.407039872 L 243.200843596,415.086830304 M 251.813036338,421.556639213 L 247.38655105,418.407039872 M 256.460599737,424.513102335 L 251.813036338,421.556639213 M 261.309482318,427.254208345 L 256.460599737,424.513102335 M 266.339895105,429.758026745 L 261.309482318,427.254208345 M 271.532050221,432.002911869 L 266.339895105,429.758026745 M 276.866198912,433.967503632 L 271.532050221,432.002911869 M 282.322680706,435.630730649 L 276.866198912,433.967503632 M 287.881987103,436.971810274 L 282.322680706,435.630730649 M 287.881987103,436.971810274 L 286.85753542,441.865734951" fill="none" stroke="red" stroke-width="0.365266309136"/>
	<path d="M 230.819511008,410.21085764 L 226.315362232,404.939275614 L 222.402407759,399.512417888 L 219.126564657,393.976362957 L 216.535764771,388.376152814 L 214.681092077,382.756464473 L 213.618005811,377.163470972 L 213.406649877,371.64853355 L 214.109204039,366.273281629 L 215.782586067,361.112690728 L 220.371440039,363.098243351 M 218.989010249,367.363002398 L 220.371440039,363.098243351 M 218.402005192,371.863998799 L 218.989010249,367.363002398 M 218.584471833,376.585357445 L 218.402005192,371.863998799 M 219.518350136,381.491184081 L 218.584471833,376.585357445 M 221.182526267,386.530182174 L 219.518350136,381.491184081 M 223.548859396,391.643272894 L 221.182526267,386.530182174 M 226.582645799,396.769133374 L 223.548859396,391.643272894 M 230.244453556,401.846988214 L 226.582645799,396.769133374 M 234.491828585,406.817616768 L 230.244453556,401.846988214 M 234.491828585,406.817616768 L 230.819511008,410.21085764" fill="none" stroke="red" stroke-width="0.365266309136"/>
	<path d="M 223.364891846,350.644399966 L 227.148359131,347.522852203 L 231.336577359,344.470801993 L 235.829637028,341.513451776 L 240.6028881,338.642028183 L 245.631811678,335.848370188 L 250.891895454,333.124804564 L 256.358570079,330.464036558 L 262.007180661,327.859061681 L 267.812977382,325.3030976 L 269.792694764,329.894472022 M 264.059171634,332.418593789 L 269.792694764,329.894472022 M 258.497147796,334.9836035 L 264.059171634,332.418593789 M 253.132783677,337.594527147 L 258.497147796,334.9836035 M 247.992382089,340.256057488 L 253.132783677,337.594527147 M 243.102374164,342.972451882 L 247.992382089,340.256057488 M 238.489276591,345.747399981 L 243.102374164,342.972451882 M 234.179596177,348.583859737 L 238.489276591,345.747399981 M 230.199643018,351.483870586 L 234.179596177,348.583859737 M 226.742045647,354.331517025 L 230.199643018,351.483870586 M 226.742045647,354.331517025 L 223.364891846,350.644399966" fill="none" stroke="red" stroke-width="0.365266309136"/>
	<path d="M 280.247665682,320.12977394 L 285.559168496,318.008331939 L 290.914824292,315.904638116 L 296.298254146,313.814641219 L 301.693039025,311.734326527 L 307.082720677,309.659713273 L 312.450801745,307.586853738 L 317.780745068,305.511833971 L 323.055972155,303.430776204 L 328.259860812,301.339843151 L 330.141595795,305.972237073 M 324.904080275,308.076687995 L 330.141595795,305.972237073 M 319.60379841,310.16763428 L 324.904080275,308.076687995 M 314.257012199,312.249214063 L 319.60379841,310.16763428 M 308.880049197,314.325504759 L 314.257012199,312.249214063 M 303.489298955,316.400529508 L 308.880049197,314.325504759 M 298.101210729,318.478260796 L 303.489298955,316.400529508 M 292.732292433,320.562621538 L 298.101210729,318.478260796 M 287.399110811,322.657483719 L 292.732292433,320.562621538 M 282.118292765,324.766664527 L 287.399110811,322.657483719 M 282.118292765,324.766664527 L 280.247665682,320.12977394" fill="none" stroke="red" stroke-width="0.365266309136"/>
	<path d="M 339.788220235,296.507098585 L 345.956018578,293.759247992 L 351.883090261,290.968078784 L 357.534207374,288.126576627 L 362.873965445,285.228183695 L 367.866814555,282.266970664 L 372.477158072,279.237865838 L 376.66958532,276.136935696 L 380.409348555,272.96166432 L 383.663236778,269.711064124 L 387.356674137,273.081304543 M 383.789438602,276.646089821 L 387.356674137,273.081304543 M 379.769134617,280.060300853 L 383.789438602,276.646089821 M 375.331574322,283.343022092 L 379.769134617,280.060300853 M 370.510264739,286.511045489 L 375.331574322,283.343022092 M 365.337718489,289.579036593 L 370.510264739,286.511045489 M 359.846169265,292.559953693 L 365.337718489,289.579036593 M 354.067920824,295.465468629 L 359.846169265,292.559953693 M 348.035495097,298.306310495 L 354.067920824,295.465468629 M 341.781678855,301.092523617 L 348.035495097,298.306310495 M 341.781678855,301.092523617 L 339.788220235,296.507098585" fill="none" stroke="red" stroke-width="0.365266309136"/>
	<path d="M 389.722165527,260.734241163 L 390.927264086,257.396961977 L 391.609721942,253.962931006 L 391.750411431,250.405006179 L 391.320052352,246.693003615 L 389.820323529,240.279680734 L 388.072799486,232.87767528 L 386.373508276,225.780259189 L 384.684092,219.021696061 L 382.966745031,212.636757903 L 387.779228036,211.280289208 M 389.525532892,217.772516293 L 387.779228036,211.280289208 M 391.231618643,224.597565796 L 389.525532892,217.772516293 M 392.938411637,231.726233404 L 391.231618643,224.597565796 M 394.686009819,239.128552189 L 392.938411637,231.726233404 M 396.230610094,245.751503396 L 394.686009819,239.128552189 M 396.746747736,250.213633431 L 396.230610094,245.751503396 M 396.574673359,254.55391106 L 396.746747736,250.213633431 M 395.742307232,258.74431475 L 396.574673359,254.55391106 M 394.292798427,262.76138568 L 395.742307232,258.74431475 M 394.292798427,262.76138568 L 389.722165527,260.734241163" fill="none" stroke="red" stroke-width="0.365266309136"/>
	<path d="M 378.935981989,200.148809473 L 376.539560239,194.430539642 L 373.905835297,189.429912652 L 370.993880816,185.197472505 L 367.765246994,181.769138581 L 364.168762466,179.15863266 L 360.118707461,177.36774201 L 355.495771478,176.419034424 L 350.183011697,176.374446246 L 344.094444406,177.316939104 L 342.995800267,172.439134161 M 349.801938258,171.388989092 L 342.995800267,172.439134161 M 356.007894506,171.445330572 L 349.801938258,171.388989092 M 361.63859828,172.604347013 L 356.007894506,171.445330572 M 366.672540179,174.830688903 L 361.63859828,172.604347013 M 371.084659286,178.029953905 L 366.672540179,174.830688903 M 374.900280776,182.076568894 L 371.084659286,178.029953905 M 378.196552437,186.86286251 L 374.900280776,182.076568894 M 381.069704398,192.3144598 L 378.196552437,186.86286251 M 383.61225197,198.378922736 L 381.069704398,192.3144598 M 383.61225197,198.378922736 L 378.935981989,200.148809473" fill="none" stroke="red" stroke-width="0.365266309136"/>
</svg>
