<?xml version="1.0" ?>
<svg baseProfile="full" height="600px" version="1.1" viewBox="-18.8552254896 -18.8655 637.710450979 637.731" width="600px" xmlns="http://www.w3.org/2000/svg" xmlns:ev="http://www.w3.org/2001/xml-events" xmlns:xlink="http://www.w3.org/1999/xlink">
	<defs/>
	<path d="M 452.0,300.0 L 451.890321426,305.82284246 L 451.563885535,311.591043533 L 451.024601143,317.300556293 L 450.276388044,322.947342403 L 449.323175533,328.527373091 L 448.168900841,334.03662983 L 446.817507556,339.471104741 L 445.27294407,344.826800717 L 443.539162081,350.099731302 L 438.818885069,348.450796821 M 440.495175841,343.352714303 L 438.818885069,348.450796821 M 441.988516609,338.174630123 L 440.495175841,343.352714303 M 443.295117033,332.920282487 L 441.988516609,338.174630123 M 444.411181808,327.593393624 L 443.295117033,332.920282487 M 445.33290843,322.197669604 L 444.411181808,327.593393624 M 446.056484856,316.736800528 L 445.33290843,322.197669604 M 446.578087135,311.214461126 L 446.056484856,316.736800528 M 446.893877072,305.634311783 L 446.578087135,311.214461126 M 447.0,300.0 L 446.893877072,305.634311783 M 447.0,300.0 L 452.0,300.0" fill="none" stroke="red" stroke-width="1"/>
	<path d="M 438.883082808,361.828609924 L 436.46217627,366.990671827 L 433.855666457,372.045006478 L 431.067975722,376.987202325 L 428.103522906,381.812854681 L 424.966722879,386.517564451 L 421.661986291,391.096936856 L 418.193719518,395.546580174 L 414.566324801,399.862104523 L 410.784200559,404.039120711 L 407.140222077,400.61546465 M 410.798769961,396.574927843 L 407.140222077,400.61546465 M 414.307567117,392.400500151 L 410.798769961,396.574927843 M 417.662329023,388.096479934 L 414.307567117,392.400500151 M 420.858776891,383.66716452 L 417.662329023,388.096479934 M 423.892638137,379.116848475 L 420.858776891,383.66716452 M 426.759646583,374.44982178 L 423.892638137,379.116848475 M 429.455542387,369.670367943 L 426.759646583,374.44982178 M 431.976071661,364.782762083 L 429.455542387,369.670367943 M 434.316985782,359.791269022 L 431.976071661,364.782762083 M 434.316985782,359.791269022 L 438.883082808,361.828609924" fill="none" stroke="red" stroke-width="1"/>
	<path d="M 401.694900051,412.941195202 L 397.449564077,416.627577508 L 393.068852117,420.157519121 L 388.557121639,423.52665158 L 383.918731424,426.730602442 L 379.158042739,429.76499507 L 374.279420571,432.625448603 L 369.287234874,435.307578108 L 364.185861843,437.806994946 L 358.979685141,440.119307342 L 357.036591683,435.512313983 M 362.070596878,433.276470238 L 357.036591683,435.512313983 M 367.003531776,430.85957854 L 362.070596878,433.276470238 M 371.831168992,428.265854102 L 367.003531776,430.85957854 M 376.549269935,425.49951685 L 371.831168992,428.265854102 M 381.153586657,422.564792266 L 376.549269935,425.49951685 M 385.639863756,419.465911938 L 381.153586657,422.564792266 M 390.003840251,416.207113792 L 385.639863756,419.465911938 M 394.241251435,412.792642047 L 390.003840251,416.207113792 M 398.347830626,409.226746889 L 394.241251435,412.792642047 M 398.347830626,409.226746889 L 401.694900051,412.941195202" fill="none" stroke="red" stroke-width="1"/>
	<path d="M 346.979482446,444.591079756 L 341.697426028,446.20146981 L 336.336149421,447.623206034 L 330.899555504,448.852427268 L 325.391557585,449.885276387 L 319.816079388,450.717901786 L 314.177054778,451.346458889 L 308.47842723,451.767111668 L 302.724149011,451.97603411 L 296.932162357,451.969600008 L 297.031314091,446.970583211 M 302.636125533,446.976808983 L 297.031314091,446.970583211 M 308.203465738,446.774677775 L 302.636125533,446.976808983 M 313.715810128,446.367779007 L 308.203465738,446.774677775 M 319.169587666,445.7598731 L 313.715810128,446.367779007 M 324.561214123,444.954705453 L 319.169587666,445.7598731 M 329.887090858,443.956008644 L 324.561214123,444.954705453 M 335.143604015,442.7675047 L 329.887090858,443.956008644 M 340.327124116,441.392907378 L 335.143604015,442.7675047 M 345.43400604,439.835924377 L 340.327124116,441.392907378 M 345.43400604,439.835924377 L 346.979482446,444.591079756" fill="none" stroke="red" stroke-width="1"/>
	<path d="M 284.112874381,451.178307268 L 278.368803886,450.470077644 L 272.692461344,449.549936683 L 267.088044404,448.421992951 L 261.559739506,447.090362113 L 256.11172169,445.559165254 L 250.748154673,443.832527259 L 245.473191181,441.914575292 L 240.290973502,439.809437414 L 235.205634214,437.521241349 L 237.341005513,433.000158579 M 242.258201759,435.212698028 L 237.341005513,433.000158579 M 247.268841657,437.248137747 L 242.258201759,435.212698028 M 252.368979001,439.102524246 L 247.268841657,437.248137747 M 257.554682146,440.771904542 L 252.368979001,439.102524246 M 262.822035107,442.252324306 L 257.554682146,440.771904542 M 268.167138384,443.53982579 L 262.822035107,442.252324306 M 273.586109461,444.630445546 L 268.167138384,443.53982579 M 279.075082925,445.520211997 L 273.586109461,444.630445546 M 284.630210172,446.205142915 L 279.075082925,445.520211997 M 284.630210172,446.205142915 L 284.112874381,451.178307268" fill="none" stroke="red" stroke-width="1"/>
	<path d="M 224.001052586,431.645005283 L 219.139107158,428.708053704 L 214.397851465,425.596976426 L 209.781715308,422.316219338 L 205.295125154,418.870224007 L 200.942505377,415.26342778 L 196.728279434,411.500264068 L 192.656870971,407.585162798 L 188.732704815,403.522551024 L 184.96020787,399.316853677 L 188.743237523,396.047497984 M 192.392464851,400.115770068 L 188.743237523,396.047497984 M 196.188449921,404.045678355 L 192.392464851,400.115770068 M 200.126866095,407.83289325 L 196.188449921,404.045678355 M 204.203383625,411.473088343 L 200.126866095,407.83289325 M 208.413670986,414.961941534 L 204.203383625,411.473088343 M 212.753396375,418.295135947 L 208.413670986,414.961941534 M 217.218229361,421.468360614 L 212.753396375,418.295135947 M 221.803842653,424.477310891 L 217.218229361,421.468360614 M 226.505913963,427.317688622 L 221.803842653,424.477310891 M 226.505913963,427.317688622 L 224.001052586,431.645005283" fill="none" stroke="red" stroke-width="1"/>
	<path d="M 177.037629072,389.337376811 L 173.825093975,384.749979537 L 170.779208444,380.041065473 L 167.904269834,375.21491639 L 165.204579511,370.275818676 L 162.684442538,365.22806457 L 160.348167161,360.075953359 L 158.200064096,354.823792542 L 156.244445605,349.475898899 L 154.485624371,344.036599455 L 159.271399636,342.58871993 M 160.971896627,347.847646206 L 159.271399636,342.58871993 M 162.862703993,353.018303913 L 160.971896627,347.847646206 M 164.939691971,358.096584795 L 162.862703993,353.018303913 M 167.198730164,363.078365237 L 164.939691971,358.096584795 M 169.635685856,367.959507696 L 167.198730164,363.078365237 M 172.24642263,372.735862316 L 169.635685856,367.959507696 M 175.026799289,377.403268663 L 172.24642263,372.735862316 M 177.972669092,381.957557533 L 175.026799289,377.403268663 M 181.079879285,386.39455279 L 177.972669092,381.957557533 M 181.079879285,386.39455279 L 177.037629072,389.337376811" fill="none" stroke="red" stroke-width="1"/>
	<path d="M 151.295643791,331.607105349 L 150.243582306,326.145095537 L 149.388561268,320.615976729 L 148.73434976,315.023603108 L 148.284708751,309.371838301 L 148.043389671,303.664554635 L 148.014073798,297.912098858 L 148.197524052,292.190246308 L 148.590324676,286.522847726 L 149.188727102,280.913777661 L 154.149828726,281.536249092 M 153.571075953,286.961158936 L 154.149828726,281.536249092 M 153.191110233,292.443420265 L 153.571075953,286.961158936 M 153.01361902,297.979534597 L 153.191110233,292.443420265 M 153.041985616,303.546070113 L 153.01361902,297.979534597 M 153.275452731,309.067742041 L 153.041985616,303.546070113 M 153.71038003,314.534601318 L 153.275452731,309.067742041 M 154.343084351,319.943146127 L 153.71038003,314.534601318 M 155.169896843,325.289861602 L 154.343084351,319.943146127 M 156.187160823,330.571218714 L 155.169896843,325.289861602 M 156.187160823,330.571218714 L 151.295643791,331.607105349" fill="none" stroke="red" stroke-width="1"/>
	<path d="M 151.295261102,268.394701785 L 152.59455734,262.788488561 L 154.098711169,257.263360016 L 155.803462826,251.823619274 L 157.704549839,246.473557891 L 159.797708522,241.217456394 L 162.078675308,236.059585013 L 164.543187895,231.004204591 L 167.186986203,226.055567607 L 170.005813126,221.2179193 L 174.278826329,223.814331857 M 171.552757959,228.492786714 L 174.278826329,223.814331857 M 168.99611095,233.278292599 L 171.552757959,228.492786714 M 166.612978228,238.166738787 L 168.99611095,233.278292599 M 164.407448257,243.154025415 L 166.612978228,238.166738787 M 162.383606166,248.236065163 L 164.407448257,243.154025415 M 160.545535186,253.408784796 L 162.383606166,248.236065163 M 158.897318371,258.668126518 L 160.545535186,253.408784796 M 157.443040598,264.010049082 L 158.897318371,258.668126518 M 156.186790804,269.430528592 L 157.443040598,264.010049082 M 156.186790804,269.430528592 L 151.295261102,268.394701785" fill="none" stroke="red" stroke-width="1"/>
	<path d="M 177.034477388,210.666952489 L 180.450427716,206.152790358 L 184.028190019,201.771868705 L 187.763323862,197.528617357 L 191.651392399,193.427466119 L 195.687961794,189.4728458 L 199.868600491,185.669189126 L 204.188878359,182.020931524 L 208.644365712,178.532511772 L 213.230632236,175.208372493 L 216.089288764,179.310577126 M 211.65329362,182.525800247 L 216.089288764,179.310577126 M 207.343611089,185.90006305 L 211.65329362,182.525800247 M 203.164578257,189.429046911 L 207.343611089,185.90006305 M 199.120533156,193.108427438 L 203.164578257,189.429046911 M 195.215813145,196.933875214 L 199.120533156,193.108427438 M 191.454753451,200.901056769 L 195.215813145,196.933875214 M 187.841685876,205.005635758 L 191.454753451,200.901056769 M 184.380937709,209.243274331 L 187.841685876,205.005635758 M 181.076830858,213.60963467 L 184.380937709,209.243274331 M 181.076830858,213.60963467 L 177.034477388,210.666952489" fill="none" stroke="red" stroke-width="1"/>
	<path d="M 223.99794966,168.356790891 L 228.872920535,165.65301109 L 233.855260425,163.124745782 L 238.940789914,160.776183883 L 244.125321874,158.611516832 L 249.404660417,156.634937739 L 254.774599966,154.85064035 L 260.230924452,153.262817833 L 265.769406705,151.875661389 L 271.38580805,150.693358729 L 272.322658764,155.604805637 M 266.892179872,156.747968893 L 272.322658764,155.604805637 M 261.537279371,158.0891453 L 266.892179872,156.747968893 M 256.261905704,159.62430997 L 261.537279371,158.0891453 M 251.070024563,161.349443255 L 256.261905704,159.62430997 M 245.965618299,163.260528455 L 251.070024563,161.349443255 M 240.952684993,165.353549741 L 245.965618299,163.260528455 M 236.035237268,167.624490326 L 240.952684993,165.353549741 M 231.21730088,170.069330915 L 236.035237268,167.624490326 M 226.502913158,172.684048437 L 231.21730088,170.069330915 M 226.502913158,172.684048437 L 223.99794966,168.356790891" fill="none" stroke="red" stroke-width="1"/>
	<path d="M 284.111005199,148.821887186 L 289.768415443,148.339521476 L 295.482219686,148.065976822 L 301.246208191,148.005011766 L 306.990326729,148.158173466 L 312.680272292,148.522301266 L 318.312139323,149.093619225 L 323.882030659,149.868341188 L 329.386058402,150.842672197 L 334.820344513,152.012809973 L 333.678031711,156.88057347 M 328.423676545,155.749180239 L 333.678031711,156.88057347 M 323.101521081,154.807045957 L 328.423676545,155.749180239 M 317.715130364,154.057849307 L 323.101521081,154.807045957 M 312.268054646,153.505279954 L 317.715130364,154.057849307 M 306.763830287,153.153040768 L 312.268054646,153.505279954 M 301.205981054,153.004849941 L 306.763830287,153.153040768 M 295.628372958,153.063840288 L 301.205981054,153.004849941 M 290.100574425,153.328476317 L 295.628372958,153.063840288 M 284.628402343,153.795045156 L 290.100574425,153.328476317 M 284.628402343,153.795045156 L 284.111005199,148.821887186" fill="none" stroke="red" stroke-width="1"/>
	<path d="M 346.977748914,155.408356839 L 352.388799285,157.281239735 L 357.705376161,159.35007138 L 362.923108402,161.610489469 L 368.037634755,164.058132776 L 373.044602805,166.688642184 L 377.93966783,169.497661512 L 382.718491588,172.480838128 L 387.376741078,175.633823354 L 391.910087289,178.952272679 L 388.883005979,182.931817721 M 384.498171586,179.722079422 L 388.883005979,182.931817721 M 379.99274604,176.672533633 L 384.498171586,179.722079422 M 375.370956761,173.787384516 L 379.99274604,176.672533633 M 370.637025177,171.07082999 L 375.370956761,173.787384516 M 365.79516486,168.52706204 L 370.637025177,171.07082999 M 360.849579658,166.160267326 L 365.79516486,168.52706204 M 355.804461883,163.974628105 L 360.849579658,166.160267326 M 350.663990587,161.974323471 L 355.804461883,163.974628105 M 345.432329994,160.163530901 L 350.663990587,161.974323471 M 345.432329994,160.163530901 L 346.977748914,155.408356839" fill="none" stroke="red" stroke-width="1"/>
	<path d="M 401.690929968,187.055227504 L 405.812263183,190.908671123 L 409.788376049,194.910960259 L 413.614858021,199.057684742 L 417.287296009,203.344435985 L 420.801273705,207.766806041 L 424.152371063,212.320386548 L 427.336163942,217.000767594 L 430.348223922,221.803536504 L 433.184118305,226.724276583 L 428.806122425,229.139468517 M 426.063569279,224.380692803 L 428.806122425,229.139468517 M 423.150476496,219.735730227 L 426.063569279,224.380692803 M 420.071123685,215.208884399 L 423.150476496,219.735730227 M 416.829796868,210.804464964 L 420.071123685,215.208884399 M 413.430788488,206.526785706 L 416.829796868,210.804464964 M 409.878397133,202.380162738 L 413.430788488,206.526785706 M 406.176926996,198.368912795 L 409.878397133,202.380162738 M 402.330687093,194.49735165 L 406.176926996,198.368912795 M 398.343990264,190.769792702 L 402.330687093,194.49735165 M 398.343990264,190.769792702 L 401.690929968,187.055227504" fill="none" stroke="red" stroke-width="1"/>
	<path d="M 438.881611849,238.168093462 L 441.047747779,243.272140167 L 443.031179959,248.46928465 L 444.827871417,253.755480171 L 446.433785517,259.12667014 L 447.844887233,264.578787513 L 449.057144554,270.107754366 L 450.066530011,275.70948171 L 450.869022269,281.379869557 L 451.46060777,287.114807259 L 446.478188568,287.533733144 M 445.906020845,281.987007814 L 446.478188568,287.533733144 M 445.129974722,276.503472823 L 445.906020845,281.987007814 M 444.153951074,271.086883415 L 445.129974722,276.503472823 M 442.981839117,265.741010822 L 444.153951074,271.086883415 M 441.617518862,260.469642777 L 442.981839117,265.741010822 M 440.06486351,255.276583612 L 441.617518862,260.469642777 M 438.327741735,250.165653972 L 440.06486351,255.276583612 M 436.410019801,245.140690192 L 438.327741735,250.165653972 M 434.315563465,240.205543378 L 436.410019801,245.140690192 M 434.315563465,240.205543378 L 438.881611849,238.168093462" fill="none" stroke="red" stroke-width="1"/>
	<path d="M 300.0,114.5 L 294.42027175,114.582178492 L 288.881965209,114.82716684 L 283.387327577,115.232647834 L 277.938608965,115.796308605 L 272.538062736,116.515840225 L 267.187945768,117.388937269 L 261.89051866,118.413297374 L 256.648045876,119.58662078 L 251.462795816,120.906609884 L 250.159057737,116.079574871 M 255.485042547,114.723759148 L 250.159057737,116.079574871 M 260.869643775,113.518625325 L 255.485042547,114.723759148 M 266.310452013,112.466539001 L 260.869643775,113.518625325 M 271.805051947,111.569862548 L 266.310452013,112.466539001 M 277.351022469,110.830954428 L 271.805051947,111.569862548 M 282.945936888,110.252168513 L 277.351022469,110.830954428 M 288.587363237,109.835853418 L 282.945936888,110.252168513 M 294.272864678,109.584351849 L 288.587363237,109.835853418 M 300.0,109.5 L 294.272864678,109.584351849 M 300.0,109.5 L 300.0,114.5" fill="none" stroke="red" stroke-width="1"/>
	<path d="M 239.745914455,124.493666917 L 234.573384612,126.354325431 L 229.473301682,128.36253611 L 224.44823202,130.515727459 L 219.500745733,132.811327655 L 214.633416376,135.246764238 L 209.848820627,137.819463835 L 205.149537938,140.526851943 L 200.538150174,143.366352757 L 196.017241244,146.33538905 L 193.211971511,142.196492854 M 197.85463201,139.147498616 L 193.211971511,142.196492854 M 202.590358028,136.231435992 L 197.85463201,139.147498616 M 207.416507888,133.450956683 L 202.590358028,136.231435992 M 212.330436848,130.808714521 L 207.416507888,133.450956683 M 217.329496545,128.307365293 L 212.330436848,130.808714521 M 222.411034454,125.949566481 L 217.329496545,128.307365293 M 227.572393368,123.737976933 L 222.411034454,125.949566481 M 232.810910908,121.675256459 L 227.572393368,123.737976933 M 238.123919062,119.764065354 L 232.810910908,121.675256459 M 238.123919062,119.764065354 L 239.745914455,124.493666917" fill="none" stroke="red" stroke-width="1"/>
	<path d="M 186.047957399,153.586085905 L 181.802162026,156.995472036 L 177.65992457,160.525612424 L 173.623909527,164.173846476 L 169.696781264,167.937512377 L 165.881203721,171.813947281 L 162.179840142,175.800487535 L 158.595352839,179.894468933 L 155.130402986,184.093226999 L 151.787650447,188.394097299 L 147.795366122,185.3838372 M 151.227890511,180.967463671 L 147.795366122,185.3838372 M 154.785824105,176.656029367 L 151.227890511,180.967463671 M 158.466448453,172.452245882 L 154.785824105,176.656029367 M 162.267047067,168.358824754 L 158.466448453,172.452245882 M 166.184905164,164.378477921 L 162.267047067,168.358824754 M 170.217309363,160.513918154 L 166.184905164,164.378477921 M 174.361547324,156.767859433 L 170.217309363,160.513918154 M 178.614907347,153.143017285 L 174.361547324,156.767859433 M 182.974677927,149.642109068 L 178.614907347,153.143017285 M 182.974677927,149.642109068 L 186.047957399,153.586085905" fill="none" stroke="red" stroke-width="1"/>
	<path d="M 144.669713976,198.518101384 L 141.781365367,203.074897427 L 139.023143079,207.72017788 L 136.397598992,212.451384524 L 133.907283644,217.265961359 L 131.55474637,222.161354967 L 129.342535505,227.135014852 L 127.273198619,232.184393781 L 125.349282812,237.306948091 L 123.573335053,242.500137968 L 118.818733027,240.952960029 M 120.642920981,235.618706902 L 118.818733027,240.952960029 M 122.619075682,230.357062479 L 120.642920981,235.618706902 M 124.744562143,225.170672478 L 122.619075682,230.357062479 M 127.016745579,220.062176838 L 124.744562143,225.170672478 M 129.432991909,215.034210147 L 127.016745579,220.062176838 M 131.990668197,210.089402101 L 129.432991909,215.034210147 M 134.687143011,205.230378006 L 131.990668197,210.089402101 M 137.519786718,200.459759301 L 134.687143011,205.230378006 M 140.485971704,195.780164094 L 137.519786718,200.459759301 M 140.485971704,195.780164094 L 144.669713976,198.518101384" fill="none" stroke="red" stroke-width="1"/>
	<path d="M 120.128501198,254.442453719 L 118.900313508,259.626644578 L 117.818171407,264.86603702 L 116.884328878,270.158409033 L 116.101042247,275.501542406 L 115.470570623,280.893222622 L 114.995176339,286.331238688 L 114.677125371,291.813382903 L 114.518687751,297.337450565 L 114.522030752,302.890760734 L 109.522612197,302.967011089 M 109.519180878,297.267229283 L 109.522612197,302.967011089 M 109.681818679,291.59679331 L 109.519180878,297.267229283 M 110.008345743,285.968580981 L 109.681818679,291.59679331 M 110.49646834,280.384984014 L 110.008345743,285.968580981 M 111.143886666,274.848389628 L 110.49646834,280.384984014 M 111.948295447,269.361180106 L 111.143886666,274.848389628 M 112.907384576,263.925732446 L 111.948295447,269.361180106 M 114.01883977,258.544418102 L 112.907384576,263.925732446 M 115.280343229,253.219602828 L 114.01883977,258.544418102 M 115.280343229,253.219602828 L 120.128501198,254.442453719" fill="none" stroke="red" stroke-width="1"/>
	<path d="M 115.122981605,315.324566997 L 115.657552824,320.855129193 L 116.352610067,326.336769218 L 117.205755847,331.767141609 L 118.214595999,337.143897025 L 119.376739198,342.464682082 L 120.68979647,347.727139255 L 122.151380723,352.928906855 L 123.759106279,358.067619052 L 125.510588446,363.14090597 L 120.808607469,364.841310303 M 119.0095508,359.630220329 L 120.808607469,364.841310303 M 117.358151523,354.351915583 L 119.0095508,359.630220329 M 115.856874808,349.008883461 L 117.358151523,354.351915583 M 114.508184354,343.603617432 L 115.856874808,349.008883461 M 113.314541731,338.138617172 L 114.508184354,343.603617432 M 112.278405693,332.616388607 L 113.314541731,338.138617172 M 111.402231462,327.039443873 L 112.278405693,332.616388607 M 110.688470004,321.410301168 L 111.402231462,327.039443873 M 110.1395673,315.731484514 L 110.688470004,321.410301168 M 110.1395673,315.731484514 L 115.122981605,315.324566997" fill="none" stroke="red" stroke-width="1"/>
	<path d="M 130.066935517,374.537665556 L 132.344719905,379.524050801 L 134.764161752,384.430046117 L 137.322651753,389.253039243 L 140.017579491,393.990415019 L 142.846333252,398.639555757 L 145.806299892,403.197841617 L 148.894864748,407.662650984 L 152.109411607,412.031360843 L 155.447322708,416.301347149 L 151.553317607,419.437702402 M 148.125771761,415.053051359 L 151.553317607,419.437702402 M 144.824825681,410.566920598 L 148.125771761,415.053051359 M 141.653161778,405.981983102 L 144.824825681,410.566920598 M 138.613464783,401.300913403 L 141.653161778,405.981983102 M 135.708421758,396.526388132 L 138.613464783,401.300913403 M 132.940722038,391.661086579 L 135.708421758,396.526388132 M 130.313057106,386.707691268 L 132.940722038,391.661086579 M 127.828120389,381.668888512 L 130.313057106,386.707691268 M 125.488606981,376.54736897 L 127.828120389,381.668888512 M 125.488606981,376.54736897 L 130.066935517,374.537665556" fill="none" stroke="red" stroke-width="1"/>
	<path d="M 163.501700046,425.650108845 L 167.240852118,429.593428546 L 171.093038556,433.425901859 L 175.055603651,437.144873207 L 179.125891092,440.747687899 L 183.301244246,444.231692343 L 187.579006462,447.594234222 L 191.956521394,450.832662631 L 196.431133352,453.944328178 L 201.00018766,456.926583036 L 198.329120637,461.153331309 M 193.637004164,458.090753394 L 198.329120637,461.153331309 M 189.0420114,454.895374964 L 193.637004164,458.090753394 M 184.546848905,451.56991285 L 189.0420114,454.895374964 M 180.154221713,448.117081535 L 184.546848905,451.56991285 M 175.866833877,444.539593234 L 180.154221713,448.117081535 M 171.687388993,440.840158043 L 175.866833877,444.539593234 M 167.618590683,437.021484145 L 171.687388993,440.840158043 M 163.663143053,433.086278077 L 167.618590683,437.021484145 M 159.823751111,429.037245044 L 163.663143053,433.086278077 M 159.823751111,429.037245044 L 163.501700046,425.650108845" fill="none" stroke="red" stroke-width="1"/>
	<path d="M 211.685302022,463.18948102 L 216.450797743,465.683601518 L 221.296340576,468.042399004 L 226.21943575,470.263381181 L 231.217591604,472.34405654 L 236.288319889,474.281934082 L 241.429136041,476.074523003 L 246.637559429,477.719332336 L 251.91111355,479.213870545 L 257.247326185,480.555645095 L 256.100579346,485.42236593 M 250.619547924,484.044176771 L 256.100579346,485.42236593 M 245.202774572,482.509049699 L 250.619547924,484.044176771 M 239.852864055,480.819559002 L 245.202774572,482.509049699 M 234.572414713,478.978280473 L 239.852864055,480.819559002 M 229.364018691,476.987790754 L 234.572414713,478.978280473 M 224.230262241,474.850666735 L 229.364018691,476.987790754 M 219.173726082,472.569485011 L 224.230262241,474.850666735 M 214.196985817,470.14682141 L 219.173726082,472.569485011 M 209.302612381,467.585250585 L 214.196985817,470.14682141 M 209.302612381,467.585250585 L 211.685302022,463.18948102" fill="none" stroke="red" stroke-width="1"/>
	<path d="M 269.453601655,483.000441017 L 274.758698263,483.79955529 L 280.11207698,484.447950572 L 285.511564999,484.943404562 L 290.954992762,485.28369146 L 296.44019369,485.466581565 L 301.960191331,485.489874267 L 307.457111785,485.353087348 L 312.912887424,485.058255673 L 318.325352469,484.607610144 L 318.812633434,489.583809222 M 313.255361504,490.046513034 L 318.812633434,489.583809222 M 307.654322605,490.349196623 L 313.255361504,490.046513034 M 302.011867193,490.48960722 L 307.654322605,490.349196623 M 296.346258819,490.465699111 L 302.011867193,490.48960722 M 290.715582384,490.277956438 L 296.346258819,490.465699111 M 285.127005107,489.928593995 L 290.715582384,490.277956438 M 279.582876239,489.419866357 L 285.127005107,489.928593995 M 274.085540568,488.754033943 L 279.582876239,489.419866357 M 268.637338006,487.933362428 L 274.085540568,488.754033943 M 268.637338006,487.933362428 L 269.453601655,483.000441017" fill="none" stroke="red" stroke-width="1"/>
	<path d="M 330.544158012,483.000811716 L 335.990014745,482.015818573 L 341.379227679,480.873732387 L 346.709364505,479.577019301 L 351.977988563,478.1281434 L 357.182658871,476.529567195 L 362.320930202,474.783752095 L 367.390353217,472.893158838 L 372.388474659,470.860247897 L 377.312837568,468.687479846 L 379.397767524,473.23204441 M 374.339892114,475.463721577 L 379.397767524,473.23204441 M 369.206140924,477.551797588 L 374.339892114,475.463721577 M 363.999064722,479.493727098 L 369.206140924,477.551797588 M 358.721219819,481.286964615 L 363.999064722,479.493727098 M 353.375168415,482.928965044 L 358.721219819,481.286964615 M 347.96347887,484.417184294 L 353.375168415,482.928965044 M 342.488725913,485.74907993 L 347.96347887,484.417184294 M 336.95349076,486.922111875 L 342.488725913,485.74907993 M 331.360361147,487.933743141 L 336.95349076,486.922111875 M 331.360361147,487.933743141 L 330.544158012,483.000811716" fill="none" stroke="red" stroke-width="1"/>
	<path d="M 388.310845975,463.191568906 L 393.079551971,460.514984235 L 397.759997549,457.703251941 L 402.349539363,454.759008717 L 406.845532194,451.684892779 L 411.24532934,448.48354391 L 415.546282984,445.157603465 L 419.745744564,441.709714322 L 423.841065119,438.1425208 L 427.829595623,434.458668525 L 431.275162426,438.081936304 M 427.179695036,441.86455657 L 431.275162426,438.081936304 M 422.974531861,445.527427328 L 427.179695036,441.86455657 M 418.662368692,449.067847685 L 422.974531861,445.527427328 M 414.245901423,452.483114784 L 418.662368692,449.067847685 M 409.727826542,455.77052361 L 414.245901423,452.483114784 M 405.11084166,458.927366862 L 409.727826542,455.77052361 M 400.397646055,461.950934882 L 405.11084166,458.927366862 M 395.590941233,464.838515659 L 400.397646055,461.950934882 M 390.693431507,467.587394902 L 395.590941233,464.838515659 M 390.693431507,467.587394902 L 388.310845975,463.191568906" fill="none" stroke="red" stroke-width="1"/>
	<path d="M 436.493883185,425.654904661 L 440.108933095,421.61337056 L 443.606216663,417.466799169 L 446.983100376,413.217828083 L 450.236952097,408.869094655 L 453.365141174,404.423235656 L 456.365038498,399.882886917 L 459.234016527,395.250682964 L 461.969449261,390.529256641 L 464.568712166,385.721238724 L 469.001771131,388.033810498 M 466.332254365,392.971782306 L 469.001771131,388.033810498 M 463.522981049,397.820660266 L 466.332254365,392.971782306 M 460.576654929,402.577750001 L 463.522981049,397.820660266 M 457.495977546,407.24036023 L 460.576654929,402.577750001 M 454.283648134,411.805802197 L 457.495977546,407.24036023 M 450.942363574,416.271389106 L 454.283648134,411.805802197 M 447.474818432,420.634435566 L 450.942363574,416.271389106 M 443.883705049,424.892257062 L 447.474818432,420.634435566 M 440.171713701,429.042169442 L 443.883705049,424.892257062 M 440.171713701,429.042169442 L 436.493883185,425.654904661" fill="none" stroke="red" stroke-width="1"/>
	<path d="M 469.931293084,374.541700869 L 472.014420259,369.602522792 L 473.957842152,364.59174354 L 475.759138107,359.511778316 L 477.41588737,354.36503858 L 478.925668713,349.153931847 L 480.28606003,343.880861532 L 481.494637889,338.54822685 L 482.548977071,333.158422761 L 483.446650081,327.713839991 L 488.391616065,328.453644976 M 487.469696503,334.045282544 L 488.391616065,328.453644976 M 486.386815631,339.580988653 L 487.469696503,334.045282544 M 485.145467496,345.058214102 L 486.386815631,339.580988653 M 483.748149556,350.474416046 L 485.145467496,345.058214102 M 482.19736195,355.827058019 L 483.748149556,350.474416046 M 480.495606804,361.113609857 L 482.19736195,355.827058019 M 478.645387568,366.331547546 L 480.495606804,361.113609857 M 476.649208396,371.478352987 L 478.645387568,366.331547546 M 474.50957359,376.551513698 L 476.649208396,371.478352987 M 474.50957359,376.551513698 L 469.931293084,374.541700869" fill="none" stroke="red" stroke-width="1"/>
	<path d="M 484.877018395,315.324566997 L 485.242013934,309.875967378 L 485.449271758,304.385082725 L 485.496550661,298.855729695 L 485.382898093,293.341046898 L 485.11018934,287.867370566 L 484.680670434,282.436880175 L 484.096583306,277.051758062 L 483.36016618,271.714189732 L 482.473653983,266.426364101 L 487.39233631,265.528274924 M 488.302799054,270.958954491 L 487.39233631,265.528274924 M 489.059057284,276.440323667 L 488.302799054,270.958954491 M 489.658827842,281.97003028 L 489.059057284,276.440323667 M 490.099832515,287.545717036 L 489.658827842,281.97003028 M 490.379798652,293.165021894 L 490.099832515,287.545717036 M 490.496459751,298.825578521 L 490.379798652,293.165021894 M 490.447931369,304.500850171 L 490.496459751,298.825578521 M 490.23516996,310.137487743 L 490.447931369,304.500850171 M 489.8604327,315.731484514 L 490.23516996,310.137487743 M 489.8604327,315.731484514 L 484.877018395,315.324566997" fill="none" stroke="red" stroke-width="1"/>
	<path d="M 479.872047321,254.444628453 L 478.443532004,249.118361692 L 476.862270151,243.85660714 L 475.130785847,238.661871215 L 473.251602398,233.536664614 L 471.227242758,228.483502132 L 469.060229917,223.504902433 L 466.753087246,218.603387781 L 464.308338791,213.781483748 L 461.728509532,209.041718888 L 466.08480688,206.587605318 M 468.734356285,211.455463727 L 466.08480688,206.587605318 M 471.245255201,216.407840683 L 468.734356285,211.455463727 M 473.614896588,221.442134506 L 471.245255201,216.407840683 M 475.840672012,226.555739046 L 473.614896588,221.442134506 M 477.919972019,231.746043193 L 475.840672012,226.555739046 M 479.850186588,237.010430437 L 477.919972019,231.746043193 M 481.628705641,242.346278461 L 479.850186588,237.010430437 M 483.252919631,247.750958804 L 481.628705641,242.346278461 M 484.720220177,253.221836584 L 483.252919631,247.750958804 M 484.720220177,253.221836584 L 479.872047321,254.444628453" fill="none" stroke="red" stroke-width="1"/>
	<path d="M 455.332675366,198.521752543 L 452.278103134,194.000319482 L 449.095377341,189.5748941 L 445.787152072,185.248137088 L 442.356082956,181.022709955 L 438.804827089,176.901274676 L 435.136042916,172.886493354 L 431.352390064,168.981027901 L 427.456529156,165.187539755 L 423.451121573,161.508689612 L 426.77929481,157.777300741 M 430.892094811,161.554787543 L 426.77929481,157.777300741 M 434.892389882,165.449965555 L 430.892094811,161.554787543 M 438.777469875,169.460123598 L 434.892389882,165.449965555 M 442.5446235,173.582551607 L 438.777469875,169.460123598 M 446.191137979,177.814540232 L 442.5446235,173.582551607 M 449.714298755,182.153380404 L 446.191137979,177.814540232 M 453.111389253,186.596362863 L 449.714298755,182.153380404 M 456.379690696,191.140777653 L 453.111389253,186.596362863 M 459.516481988,195.783913587 L 456.379690696,191.140777653 M 459.516481988,195.783913587 L 455.332675366,198.521752543" fill="none" stroke="red" stroke-width="1"/>
	<path d="M 413.956333658,153.589429742 L 409.641616137,150.326708091 L 405.230066413,147.188214504 L 400.724289885,144.176547814 L 396.12689073,141.294305316 L 391.440471539,138.544082779 L 386.667632938,135.928474508 L 381.810973221,133.450073457 L 376.873087977,131.111471389 L 371.856569738,128.915259081 L 373.793558474,124.305695693 M 378.946100506,126.561458306 L 373.793558474,124.305695693 M 384.017738306,128.963405667 L 378.946100506,126.561458306 M 389.005797282,131.508860554 L 384.017738306,128.963405667 M 393.90760743,134.19514722 L 389.005797282,131.508860554 M 398.720502801,137.019591709 L 393.90760743,134.19514722 M 403.441820949,139.979522091 L 398.720502801,137.019591709 M 408.068902368,143.072268631 L 403.441820949,139.979522091 M 412.599089937,146.29516388 L 408.068902368,143.072268631 M 417.029728365,149.645542702 L 412.599089937,146.29516388 M 417.029728365,149.645542702 L 413.956333658,153.589429742" fill="none" stroke="red" stroke-width="1"/>
	<path d="M 360.256186091,124.494387304 L 355.179979295,122.835360857 L 350.040544413,121.319484556 L 344.8402015,119.949095672 L 339.581266615,118.726532662 L 334.266051767,117.654135608 L 328.896864916,116.734246671 L 323.476010036,115.969210554 L 318.005787242,115.361374975 L 312.488492979,114.913091124 L 312.819640631,109.924069052 M 318.484501062,110.384344426 L 312.819640631,109.924069052 M 324.101642851,111.008506614 L 318.484501062,110.384344426 M 329.668589854,111.794161589 L 324.101642851,111.008506614 M 335.182871427,112.738910109 L 329.668589854,111.794161589 M 340.642022715,113.840348415 L 335.182871427,112.738910109 M 346.043584843,115.096068933 L 340.642022715,113.840348415 M 351.385105009,116.503660971 L 346.043584843,115.096068933 M 356.664136486,118.0607114 L 351.385105009,116.503660971 M 361.878238542,119.764805309 L 356.664136486,118.0607114 M 361.878238542,119.764805309 L 360.256186091,124.494387304" fill="none" stroke="red" stroke-width="1"/>
	<path d="M 300.0,77.0 L 294.197073028,77.0739527794 L 288.431004459,77.2946086837 L 282.703549779,77.6601660381 L 277.016466061,78.1688256598 L 271.37151214,78.8187906644 L 265.770448753,79.6082662621 L 260.215038663,80.5354595438 L 254.707046744,81.5985792621 L 249.248240046,82.7958356108 L 248.115591992,77.925814216 M 253.697505345,76.701557089 L 248.115591992,77.925814216 M 259.32953582,75.6144957444 L 253.697505345,76.701557089 M 265.009818743,74.666460723 L 259.32953582,75.6144957444 M 270.736486175,73.8592804039 L 265.009818743,74.666460723 M 276.507667009,73.1947806736 L 270.736486175,73.8592804039 M 282.321487101,72.6747845973 L 276.507667009,73.1947806736 M 288.176069454,72.3011120988 L 282.321487101,72.6747845973 M 294.069534427,72.0755796536 L 288.176069454,72.3011120988 M 300.0,72.0 L 294.069534427,72.0755796536 M 300.0,72.0 L 300.0,77.0" fill="none" stroke="red" stroke-width="1"/>
	<path d="M 237.152029441,85.9716854514 L 231.669058778,87.6555816889 L 226.247194454,89.4755706136 L 220.888421847,91.4296589587 L 215.594728677,93.5158536477 L 210.368104896,95.7321616006 L 205.21054256,98.0765895589 L 200.124035679,100.54714393 L 195.110580065,103.14183065 L 190.17217317,105.858655072 L 187.706815361,101.508711293 M 192.756203279,98.7308319031 L 187.706815361,101.508711293 M 197.882450083,96.0777710413 L 192.756203279,98.7308319031 M 203.083511891,93.5515767928 L 197.882450083,96.0777710413 M 208.357342366,91.1542981198 L 203.083511891,93.5515767928 M 213.701892469,88.8879846899 L 208.357342366,91.1542981198 M 219.115110222,86.754686672 L 213.701892469,88.8879846899 M 224.594940499,84.7564545029 L 219.115110222,86.754686672 M 230.139324824,82.8953386249 L 224.594940499,84.7564545029 M 235.746201204,81.1733891946 L 230.139324824,82.8953386249 M 235.746201204,81.1733891946 L 237.152029441,85.9716854514" fill="none" stroke="red" stroke-width="1"/>
	<path d="M 179.419817142,112.359880735 L 174.674222344,115.501331265 L 170.014481985,118.759575499 L 165.442682756,122.132531288 L 160.960911917,125.618115591 L 156.571257116,129.21424449 L 152.275806219,132.918833244 L 148.076647144,136.729796349 L 143.975867705,140.645047615 L 139.975555471,144.662500262 L 136.388166896,141.179592969 M 140.477653841,137.072583512 L 136.388166896,141.179592969 M 144.669853751,133.07004789 L 140.477653841,137.072583512 M 148.962647784,129.174106126 L 144.669853751,133.07004789 M 153.353917472,125.386879128 L 148.962647784,129.174106126 M 157.841544498,121.710488829 L 153.353917472,125.386879128 M 162.42341047,118.14705831 L 157.841544498,121.710488829 M 167.097396669,114.698711889 L 162.42341047,118.14705831 M 171.861383793,111.367575191 L 167.097396669,114.698711889 M 176.713251686,108.15577519 L 171.861383793,111.367575191 M 176.713251686,108.15577519 L 179.419817142,112.359880735" fill="none" stroke="red" stroke-width="1"/>
	<path d="M 131.452057784,153.950321736 L 127.800927613,158.269474429 L 124.258395545,162.68144228 L 120.826526763,167.184156765 L 117.507385614,171.775549637 L 114.303035574,176.4535531 L 111.215539222,181.216099992 L 108.246958247,186.061123961 L 105.399353462,190.986559659 L 102.674784843,195.990342926 L 98.2532833469,193.655749917 M 101.039092578,188.539495086 L 98.2532833469,193.655749917 M 103.950631634,183.503473157 L 101.039092578,188.539495086 M 106.985788763,178.549789609 L 103.950631634,183.503473157 M 110.142453467,173.680548136 L 106.985788763,178.549789609 M 113.418516559,168.89785093 L 110.142453467,173.680548136 M 116.811870194,164.203798962 L 113.418516559,168.89785093 M 120.320407865,159.600492258 L 116.811870194,164.203798962 M 123.942024376,155.090030167 L 120.320407865,159.600492258 M 127.674615784,150.674511617 L 123.942024376,155.090030167 M 127.674615784,150.674511617 L 131.452057784,153.950321736" fill="none" stroke="red" stroke-width="1"/>
	<path d="M 97.0924019778,207.333290051 L 94.8250817715,212.46245245 L 92.6838747237,217.658387572 L 90.6707092225,222.919168894 L 88.7875135487,228.242871958 L 87.0362160479,233.627574483 L 85.418745321,239.071356467 L 83.9370304284,244.57230027 L 82.5930011103,250.128490669 L 81.3885880168,255.738014899 L 76.4868338217,254.751705713 M 77.7184031475,249.015703762 L 76.4868338217,254.751705713 M 79.0927703605,243.334098188 L 77.7184031475,249.015703762 M 80.6079551845,237.708896096 L 79.0927703605,243.334098188 M 82.2619759777,232.142100905 L 80.6079551845,237.708896096 M 84.0528500794,226.635712404 L 82.2619759777,232.142100905 M 85.9785941389,221.191726842 L 84.0528500794,226.635712404 M 88.0372244231,215.812137052 L 85.9785941389,221.191726842 M 90.2267571013,210.498932594 L 88.0372244231,215.812137052 M 92.5452085042,205.25409994 L 90.2267571013,210.498932594 M 92.5452085042,205.25409994 L 97.0924019778,207.333290051" fill="none" stroke="red" stroke-width="1"/>
	<path d="M 79.240622877,268.251867635 L 78.5202267612,273.809621433 L 77.9370018512,279.409545445 L 77.4926843121,285.049938073 L 77.1890123951,290.729099482 L 77.0277266265,296.445331457 L 77.0105377312,302.191947777 L 77.1377544005,307.916733706 L 77.4077709028,313.604852132 L 77.8188461452,319.2546052 L 72.8369966112,319.680252027 M 72.4167826449,313.904912475 L 72.8369966112,319.680252027 M 72.1407887745,308.090901822 L 72.4167826449,313.904912475 M 72.0107690126,302.240038938 L 72.1407887745,308.090901822 M 72.0283357095,296.367290069 L 72.0107690126,302.240038938 M 72.1931792257,290.525013856 L 72.0283357095,296.367290069 M 72.503580646,284.72002201 L 72.1931792257,290.525013856 M 72.9577851077,278.954132861 L 72.503580646,284.72002201 M 73.5540343357,273.229162311 L 72.9577851077,278.954132861 M 74.2905669256,267.546923611 L 73.5540343357,273.229162311 M 74.2905669256,267.546923611 L 79.240622877,268.251867635" fill="none" stroke="red" stroke-width="1"/>
	<path d="M 79.2404297254,331.746776041 L 80.1272831095,337.444956742 L 81.156905245,343.094386484 L 82.3273848552,348.693179851 L 83.636812091,354.239449023 L 85.0832782873,359.731303753 L 86.6648757255,365.166851374 L 88.3796974048,370.544196824 L 90.225836824,375.861442702 L 92.2013877777,381.116689346 L 87.5438434424,382.935282419 M 85.5236717659,377.561337924 L 87.5438434424,382.935282419 M 83.6358182912,372.123947106 L 85.5236717659,377.561337924 M 81.8822438737,366.625080632 L 83.6358182912,372.123947106 M 80.2649089257,361.066712565 L 81.8822438737,366.625080632 M 78.7857731096,355.450820478 L 80.2649089257,361.066712565 M 77.4467950116,349.779385531 L 78.7857731096,355.450820478 M 76.2499317978,344.05439252 L 77.4467950116,349.779385531 M 75.1971388583,338.277829879 L 76.2499317978,344.05439252 M 74.2903694418,332.451689644 L 75.1971388583,338.277829879 M 74.2903694418,332.451689644 L 79.2404297254,331.746776041" fill="none" stroke="red" stroke-width="1"/>
	<path d="M 97.0902015761,392.661897514 L 99.5315407734,397.82470059 L 102.100123912,402.913928675 L 104.79390117,407.927529467 L 107.610822057,412.863449074 L 110.548835327,417.719632194 L 113.605888915,422.494022302 L 116.779929894,427.184561836 L 120.068904449,431.789192384 L 123.470757877,436.305854866 L 119.515179348,439.364187501 M 116.037313983,434.746603129 L 119.515179348,439.364187501 M 112.674786561,430.038996668 L 116.037313983,434.746603129 M 109.429695135,425.243459608 L 112.674786561,430.038996668 M 106.304139093,420.362084441 L 109.429695135,425.243459608 M 103.300219154,415.396964934 L 106.304139093,420.362084441 M 100.420037331,410.35019641 L 103.300219154,415.396964934 M 97.6656968647,405.223876025 L 100.420037331,410.35019641 M 95.0393021295,400.020103051 L 97.6656968647,405.223876025 M 92.5429585022,394.740979145 L 95.0393021295,400.020103051 M 92.5429585022,394.740979145 L 97.0902015761,392.661897514" fill="none" stroke="red" stroke-width="1"/>
	<path d="M 131.446920975,446.043754635 L 135.217997347,450.283018776 L 139.09427955,454.424634686 L 143.073678139,458.466511795 L 147.154103143,462.406559865 L 151.333464181,466.242689114 L 155.609670593,469.972810328 L 159.980631585,473.594834956 L 164.444256378,477.1066752 L 168.998454373,480.506244075 L 166.058651624,484.550692096 M 161.402678947,481.075151827 L 166.058651624,484.550692096 M 156.839380181,477.484891462 L 161.402678947,481.075151827 M 152.370876879,473.782037976 L 156.839380181,477.484891462 M 147.999290326,469.968717121 L 152.370876879,473.782037976 M 143.726741783,466.047053527 L 147.999290326,469.968717121 M 139.555352712,462.019170825 L 143.726741783,466.047053527 M 135.487244995,457.887191792 L 139.555352712,462.019170825 M 131.524541127,453.653238525 L 135.487244995,457.887191792 M 127.669364394,449.319432622 L 131.524541127,453.653238525 M 127.669364394,449.319432622 L 131.446920975,446.043754635" fill="none" stroke="red" stroke-width="1"/>
	<path d="M 179.415405044,487.637278723 L 184.190725334,490.627128071 L 189.045953288,493.498712407 L 193.979073536,496.250020603 L 198.988071965,498.879042308 L 204.070935907,501.383767876 L 209.225654304,503.762188276 L 214.450217885,506.012294977 L 219.742619319,508.132079821 L 225.100853368,510.119534865 L 223.422698858,514.829502746 M 217.943430832,512.797154396 L 223.422698858,514.829502746 M 212.531550676,510.629514502 L 217.943430832,512.797154396 M 207.189128113,508.328648729 L 212.531550676,510.629514502 M 201.918229729,505.896622418 L 207.189128113,508.328648729 M 196.720919195,503.335500354 L 201.918229729,505.896622418 M 191.599257508,500.647346572 L 196.720919195,503.335500354 M 186.55530324,497.834224181 L 191.599257508,500.647346572 M 181.591112808,494.898195235 L 186.55530324,497.834224181 M 176.708740732,491.841320624 L 181.591112808,494.898195235 M 176.708740732,491.841320624 L 179.415405044,487.637278723" fill="none" stroke="red" stroke-width="1"/>
	<path d="M 237.149454487,514.027560109 L 242.520460197,515.528034822 L 247.945210939,516.896959139 L 253.421905418,518.132516172 L 258.948744613,519.232888058 L 264.523931772,520.196255737 L 270.145672374,521.020798732 L 275.81217408,521.704694913 L 281.521646637,522.246120281 L 287.272301768,522.64324874 L 286.991692598,527.635368379 M 281.113284387,527.229416407 L 286.991692598,527.635368379 M 275.276479475,526.675915215 L 281.113284387,527.229416407 M 269.483185267,525.976715482 L 275.276479475,526.675915215 M 263.735306206,525.133671024 L 269.483185267,525.976715482 M 258.034743601,524.148638473 L 263.735306206,525.133671024 M 252.383395496,523.023476931 L 258.034743601,524.148638473 M 246.78315658,521.76004763 L 252.383395496,523.023476931 M 241.235918144,520.360213597 L 246.78315658,521.76004763 M 235.743568065,518.825839318 L 241.235918144,520.360213597 M 235.743568065,518.825839318 L 237.149454487,514.027560109" fill="none" stroke="red" stroke-width="1"/>
	<path d="M 300.000705069,522.999999999 L 305.803557611,522.926031128 L 311.569552452,522.705362883 L 317.29693417,522.339796873 L 322.983945755,521.831132215 L 328.628828435,521.181165727 L 334.229821537,520.391692135 L 339.785162364,519.464504282 L 345.293086104,518.401393351 L 350.751825771,517.204149082 L 351.884475311,522.074170131 M 346.302630497,523.298414907 L 351.884475311,522.074170131 M 340.67066973,524.385467268 L 346.302630497,523.298414907 M 334.990457617,525.33349674 L 340.67066973,524.385467268 M 329.263862027,526.140675011 L 334.990457617,525.33349674 M 323.492754001,526.805176261 L 329.263862027,526.140675011 M 317.679007612,527.325177489 L 323.492754001,526.805176261 M 311.824499792,527.698858839 L 317.679007612,527.325177489 M 305.931110111,527.924403899 L 311.824499792,527.698858839 M 300.000720521,527.999999999 L 305.931110111,527.924403899 M 300.000720521,527.999999999 L 300.000705069,522.999999999" fill="none" stroke="red" stroke-width="1"/>
	<path d="M 362.847970559,514.028314549 L 368.330941222,512.344418311 L 373.752805546,510.524429386 L 379.111578153,508.570341041 L 384.405271323,506.484146352 L 389.631895104,504.267838399 L 394.78945744,501.923410441 L 399.875964321,499.45285607 L 404.889419935,496.85816935 L 409.82782683,494.141344928 L 412.293184639,498.491288707 M 407.243796721,501.269168097 L 412.293184639,498.491288707 M 402.117549917,503.922228959 L 407.243796721,501.269168097 M 396.916488109,506.448423207 L 402.117549917,503.922228959 M 391.642657634,508.84570188 L 396.916488109,506.448423207 M 386.298107531,511.11201531 L 391.642657634,508.84570188 M 380.884889778,513.245313328 L 386.298107531,511.11201531 M 375.405059501,515.243545497 L 380.884889778,513.245313328 M 369.860675176,517.104661375 L 375.405059501,515.243545497 M 364.253798796,518.826610805 L 369.860675176,517.104661375 M 364.253798796,518.826610805 L 362.847970559,514.028314549" fill="none" stroke="red" stroke-width="1"/>
	<path d="M 420.580182858,487.640119265 L 425.325777656,484.498668735 L 429.985518015,481.240424501 L 434.557317244,477.867468712 L 439.039088083,474.381884409 L 443.428742884,470.78575551 L 447.724193781,467.081166756 L 451.923352856,463.270203651 L 456.024132295,459.354952385 L 460.024444529,455.337499738 L 463.611833104,458.820407031 M 459.522346159,462.927416488 L 463.611833104,458.820407031 M 455.330146249,466.92995211 L 459.522346159,462.927416488 M 451.037352216,470.825893874 L 455.330146249,466.92995211 M 446.646082528,474.613120872 L 451.037352216,470.825893874 M 442.158455502,478.289511171 L 446.646082528,474.613120872 M 437.57658953,481.85294169 L 442.158455502,478.289511171 M 432.902603331,485.301288111 L 437.57658953,481.85294169 M 428.138616207,488.632424809 L 432.902603331,485.301288111 M 423.286748314,491.84422481 L 428.138616207,488.632424809 M 423.286748314,491.84422481 L 420.580182858,487.640119265" fill="none" stroke="red" stroke-width="1"/>
	<path d="M 468.547942216,446.049678264 L 472.199072387,441.730525571 L 475.741604455,437.31855772 L 479.173473237,432.815843235 L 482.492614386,428.224450363 L 485.696964426,423.5464469 L 488.784460778,418.783900008 L 491.753041753,413.938876039 L 494.600646538,409.013440341 L 497.325215157,404.009657074 L 501.746716653,406.344250083 M 498.960907422,411.460504914 L 501.746716653,406.344250083 M 496.049368366,416.496526843 L 498.960907422,411.460504914 M 493.014211237,421.450210391 L 496.049368366,416.496526843 M 489.857546533,426.319451864 L 493.014211237,421.450210391 M 486.581483441,431.10214907 L 489.857546533,426.319451864 M 483.188129806,435.796201038 L 486.581483441,431.10214907 M 479.679592135,440.399507742 L 483.188129806,435.796201038 M 476.057975624,444.909969833 L 479.679592135,440.399507742 M 472.325384216,449.325488383 L 476.057975624,444.909969833 M 472.325384216,449.325488383 L 468.547942216,446.049678264" fill="none" stroke="red" stroke-width="1"/>
	<path d="M 502.907598022,392.666709949 L 505.174918228,387.53754755 L 507.316125276,382.341612428 L 509.329290777,377.080831106 L 511.212486451,371.757128042 L 512.963783952,366.372425517 L 514.581254679,360.928643533 L 516.062969572,355.42769973 L 517.40699889,349.871509331 L 518.611411983,344.261985101 L 523.513166178,345.248294287 M 522.281596853,350.984296238 L 523.513166178,345.248294287 M 520.907229639,356.665901812 L 522.281596853,350.984296238 M 519.392044815,362.291103904 L 520.907229639,356.665901812 M 517.738024022,367.857899095 L 519.392044815,362.291103904 M 515.947149921,373.364287596 L 517.738024022,367.857899095 M 514.021405861,378.808273158 L 515.947149921,373.364287596 M 511.962775577,384.187862948 L 514.021405861,378.808273158 M 509.773242899,389.501067406 L 511.962775577,384.187862948 M 507.454791496,394.74590006 L 509.773242899,389.501067406 M 507.454791496,394.74590006 L 502.907598022,392.666709949" fill="none" stroke="red" stroke-width="1"/>
	<path d="M 520.759377123,331.748132365 L 521.479773239,326.190378567 L 522.062998149,320.590454555 L 522.507315688,314.950061927 L 522.810987605,309.270900518 L 522.972273373,303.554668543 L 522.989462269,297.808052223 L 522.8622456,292.083266294 L 522.592229097,286.395147868 L 522.181153855,280.7453948 L 527.163003389,280.319747973 M 527.583217355,286.095087525 L 527.163003389,280.319747973 M 527.859211225,291.909098178 L 527.583217355,286.095087525 M 527.989230987,297.759961062 L 527.859211225,291.909098178 M 527.971664291,303.632709931 L 527.989230987,297.759961062 M 527.806820774,309.474986144 L 527.971664291,303.632709931 M 527.496419354,315.27997799 L 527.806820774,309.474986144 M 527.042214892,321.045867139 L 527.496419354,315.27997799 M 526.445965664,326.770837689 L 527.042214892,321.045867139 M 525.709433074,332.453076389 L 526.445965664,326.770837689 M 525.709433074,332.453076389 L 520.759377123,331.748132365" fill="none" stroke="red" stroke-width="1"/>
	<path d="M 520.759570275,268.253223959 L 519.872716891,262.555043258 L 518.843094755,256.905613516 L 517.672615145,251.306820149 L 516.363187909,245.760550977 L 514.916721713,240.268696247 L 513.335124275,234.833148626 L 511.620302595,229.455803176 L 509.774163176,224.138557298 L 507.798612222,218.883310654 L 512.456156558,217.064717581 M 514.476328234,222.438662076 L 512.456156558,217.064717581 M 516.364181709,227.876052894 L 514.476328234,222.438662076 M 518.117756126,233.374919368 L 516.364181709,227.876052894 M 519.735091074,238.933287435 L 518.117756126,233.374919368 M 521.21422689,244.549179522 L 519.735091074,238.933287435 M 522.553204988,250.220614469 L 521.21422689,244.549179522 M 523.750068202,255.94560748 L 522.553204988,250.220614469 M 524.802861142,261.722170121 L 523.750068202,255.94560748 M 525.709630558,267.548310356 L 524.802861142,261.722170121 M 525.709630558,267.548310356 L 520.759570275,268.253223959" fill="none" stroke="red" stroke-width="1"/>
	<path d="M 502.909798424,207.338102486 L 500.468459227,202.17529941 L 497.899876088,197.086071325 L 495.20609883,192.072470533 L 492.389177943,187.136550926 L 489.451164673,182.280367806 L 486.394111085,177.505977698 L 483.220070106,172.815438164 L 479.931095551,168.210807616 L 476.529242123,163.694145134 L 480.484820652,160.635812499 M 483.962686017,165.253396871 L 480.484820652,160.635812499 M 487.325213439,169.961003332 L 483.962686017,165.253396871 M 490.570304865,174.756540392 L 487.325213439,169.961003332 M 493.695860907,179.637915559 L 490.570304865,174.756540392 M 496.699780846,184.603035066 L 493.695860907,179.637915559 M 499.579962669,189.64980359 L 496.699780846,184.603035066 M 502.334303135,194.776123975 L 499.579962669,189.64980359 M 504.96069787,199.979896949 L 502.334303135,194.776123975 M 507.457041498,205.259020855 L 504.96069787,199.979896949 M 507.457041498,205.259020855 L 502.909798424,207.338102486" fill="none" stroke="red" stroke-width="1"/>
	<path d="M 468.553079025,153.956245365 L 464.782002653,149.716981224 L 460.90572045,145.575365314 L 456.926321861,141.533488205 L 452.845896857,137.593440135 L 448.666535819,133.757310886 L 444.390329407,130.027189672 L 440.019368415,126.405165044 L 435.555743622,122.8933248 L 431.001545627,119.493755925 L 433.941348376,115.449307904 M 438.597321053,118.924848173 L 433.941348376,115.449307904 M 443.160619819,122.515108538 L 438.597321053,118.924848173 M 447.629123121,126.217962024 L 443.160619819,122.515108538 M 452.000709674,130.031282879 L 447.629123121,126.217962024 M 456.273258217,133.952946473 L 452.000709674,130.031282879 M 460.444647288,137.980829175 L 456.273258217,133.952946473 M 464.512755005,142.112808208 L 460.444647288,137.980829175 M 468.475458873,146.346761475 L 464.512755005,142.112808208 M 472.330635606,150.680567378 L 468.475458873,146.346761475 M 472.330635606,150.680567378 L 468.553079025,153.956245365" fill="none" stroke="red" stroke-width="1"/>
	<path d="M 420.584594956,112.362721277 L 415.809274666,109.372871929 L 410.954046712,106.501287593 L 406.020926464,103.749979397 L 401.011928035,101.120957692 L 395.929064093,98.6162321237 L 390.774345696,96.2378117244 L 385.549782115,93.9877050228 L 380.257380681,91.8679201787 L 374.899146632,89.8804651351 L 376.577301142,85.170497254 M 382.056569168,87.2028456037 L 376.577301142,85.170497254 M 387.468449324,89.3704854977 L 382.056569168,87.2028456037 M 392.810871887,91.6713512708 L 387.468449324,89.3704854977 M 398.081770271,94.1033775821 L 392.810871887,91.6713512708 M 403.279080805,96.6644996455 L 398.081770271,94.1033775821 M 408.400742492,99.3526534282 L 403.279080805,96.6644996455 M 413.44469676,102.165775819 L 408.400742492,99.3526534282 M 418.408887192,105.101804765 L 413.44469676,102.165775819 M 423.291259268,108.158679376 L 418.408887192,105.101804765 M 423.291259268,108.158679376 L 420.584594956,112.362721277" fill="none" stroke="red" stroke-width="1"/>
	<path d="M 362.850545513,85.9724398911 L 357.479539803,84.4719651785 L 352.054789061,83.1030408609 L 346.578094582,81.8674838279 L 341.051255387,80.7671119424 L 335.476068228,79.8037442629 L 329.854327626,78.9792012685 L 324.18782592,78.2953050866 L 318.478353363,77.7538797186 L 312.727698232,77.3567512604 L 313.008307402,72.364631621 M 318.886715613,72.7705835932 L 313.008307402,72.364631621 M 324.723520525,73.3240847847 L 318.886715613,72.7705835932 M 330.516814733,74.0232845185 L 324.723520525,73.3240847847 M 336.264693794,74.8663289757 L 330.516814733,74.0232845185 M 341.965256399,75.8513615267 L 336.264693794,74.8663289757 M 347.616604504,76.9765230694 L 341.965256399,75.8513615267 M 353.21684342,78.2399523703 L 347.616604504,76.9765230694 M 358.764081856,79.6397864034 L 353.21684342,78.2399523703 M 364.256431935,81.174160682 L 358.764081856,79.6397864034 M 364.256431935,81.174160682 L 362.850545513,85.9724398911" fill="none" stroke="red" stroke-width="1"/>
	<path d="M 300.0,39.5 L 294.289801078,39.5613031072 L 288.609835128,39.7443740686 L 282.96133055,40.0479563518 L 277.345516514,40.4707947073 L 271.763623044,41.0116350895 L 266.216881081,41.6692245718 L 260.706522543,42.4423112589 L 255.233780371,43.3296441947 L 249.799888571,44.3299732702 L 248.84232834,39.4225219556 M 254.380932551,38.402916011 L 248.84232834,39.4225219556 M 259.958961793,37.4985118166 L 254.380932551,38.402916011 M 265.575119936,36.7105813469 L 259.958961793,37.4985118166 M 271.228109256,36.0403953062 L 265.575119936,36.7105813469 M 276.91663049,35.4892229896 L 271.228109256,36.0403953062 M 282.639382912,35.0583321456 L 276.91663049,35.4892229896 M 288.395064418,34.748988844 L 282.639382912,35.0583321456 M 294.182371628,34.5624573491 L 288.395064418,34.748988844 M 300.0,34.5 L 294.182371628,34.5624573491 M 300.0,34.5 L 300.0,39.5" fill="none" stroke="red" stroke-width="1"/>
	<path d="M 237.639231279,47.0077146539 L 232.156704685,48.4177764958 L 226.72148451,49.943108753 L 221.334945066,51.5823290794 L 215.998461918,53.3340554408 L 210.71341186,55.1969060198 L 205.481172872,57.1694991251 L 200.303124076,59.2504531071 L 195.180645689,61.4383862803 L 190.115118963,63.7319168516 L 188.004047279,59.1994366979 M 193.167329175,56.8616454515 L 188.004047279,59.1994366979 M 198.388735178,54.6314580706 L 193.167329175,56.8616454515 M 203.666848916,52.5102901167 L 198.388735178,54.6314580706 M 209.000252463,50.4995573126 L 203.666848916,52.5102901167 M 214.387526251,48.6006754354 L 209.000252463,50.4995573126 M 219.827249,46.8150601993 L 214.387526251,48.6006754354 M 225.317997647,45.1441271292 L 219.827249,46.8150601993 M 230.85834729,43.5892914254 L 225.317997647,45.1441271292 M 236.446871147,42.1519678199 L 230.85834729,43.5892914254 M 236.446871147,42.1519678199 L 237.639231279,47.0077146539" fill="none" stroke="red" stroke-width="1"/>
	<path d="M 178.916041171,69.2802475887 L 173.965468891,71.9520017904 L 169.079849482,74.7267702294 L 164.260638352,77.6030999853 L 159.509291552,80.5795377181 L 154.827265693,83.6546296475 L 150.216017868,86.826921539 L 145.67700557,90.0949586981 L 141.211686609,93.4572859716 L 136.821519042,96.9124477553 L 133.687461194,93.0165933682 M 138.161534453,89.4953960408 L 133.687461194,93.0165933682 M 142.712250479,86.0687660484 L 138.161534453,89.4953960408 M 147.338132432,82.7381839079 L 142.712250479,86.0687660484 M 152.037703107,79.5051308127 L 147.338132432,82.7381839079 M 156.809484819,76.3710886444 L 152.037703107,79.5051308127 M 161.651999283,73.3375399745 L 156.809484819,76.3710886444 M 166.563767493,70.4059680557 L 161.651999283,73.3375399745 M 171.543309604,67.5778568013 L 166.563767493,70.4059680557 M 176.589144804,64.854690754 L 171.543309604,67.5778568013 M 176.589144804,64.854690754 L 178.916041171,69.2802475887" fill="none" stroke="red" stroke-width="1"/>
	<path d="M 127.249666539,104.997433508 L 123.099129543,108.756917192 L 119.030504515,112.603650629 L 115.045264865,116.536160994 L 111.144883821,120.552975196 L 107.330834382,124.65261993 L 103.604589262,128.833621736 L 99.9676208513,133.094507054 L 96.4214011732,137.433802293 L 92.9674018554,141.850033897 L 88.996145857,138.812086269 M 92.5161641979,134.311443543 L 88.996145857,138.812086269 M 96.1301271003,129.889254847 L 92.5161641979,134.311443543 M 99.8365397723,125.547012078 L 96.1301271003,129.889254847 M 103.633908019,121.286207083 L 99.8365397723,125.547012078 M 107.52073819,117.108331754 L 103.633908019,121.286207083 M 111.495537129,113.014878132 L 107.52073819,117.108331754 M 115.556812096,109.007338494 L 111.495537129,113.014878132 M 119.703070706,105.087205435 L 115.556812096,109.007338494 M 123.93282084,101.255971948 L 119.703070706,105.087205435 M 123.93282084,101.255971948 L 127.249666539,104.997433508" fill="none" stroke="red" stroke-width="1"/>
	<path d="M 85.5812826698,152.00151892 L 82.4607286402,156.619128915 L 79.4370428462,161.306316749 L 76.5116595158,166.061645374 L 73.6860124358,170.883678243 L 70.961534967,175.770979393 L 68.339660068,180.722113517 L 65.8218203258,185.73564605 L 63.4094479948,190.810143242 L 61.1039750426,195.944172234 L 56.5207778592,193.945596846 M 58.8707469352,188.712479615 L 56.5207778592,193.945596846 M 61.3296403159,183.540123616 L 58.8707469352,188.712479615 M 63.8959920013,178.429993513 L 61.3296403159,183.540123616 M 66.5683364206,173.383552633 L 63.8959920013,178.429993513 M 69.3452085029,168.402263079 L 66.5683364206,173.383552633 M 72.225143734,163.487585846 L 69.3452085029,168.402263079 M 75.2066782035,158.640980937 L 72.225143734,163.487585846 M 78.2883486396,153.863907485 L 75.2066782035,158.640980937 M 81.4686924326,149.157823869 L 78.2883486396,153.863907485 M 81.4686924326,149.157823869 L 85.5812826698,152.00151892" fill="none" stroke="red" stroke-width="1"/>
	<path d="M 56.3561781966,207.59716989 L 54.4481999478,212.793901144 L 52.6481373502,218.041774939 L 50.9573277905,223.339457961 L 49.3771088093,228.685618048 L 47.9088181875,234.078924222 L 46.5537940395,239.518046714 L 45.3133749093,245.001656981 L 44.1888998709,250.528427714 L 43.1817086309,256.097032834 L 38.2521322602,255.260805111 M 39.2787283311,249.58491542 L 38.2521322602,255.260805111 M 40.4248981829,243.951516374 L 39.2787283311,249.58491542 M 41.6892750703,238.361995158 L 40.4248981829,243.951516374 M 43.0704912992,232.817737113 L 41.6892750703,238.361995158 M 44.5671783805,227.32012573 L 43.0704912992,232.817737113 M 46.1779671806,221.870542661 L 44.5671783805,227.32012573 M 47.901488066,216.470367743 L 46.1779671806,221.870542661 M 49.7363710423,211.12097904 L 47.901488066,216.470367743 M 51.6812458846,205.823752884 L 49.7363710423,211.12097904 M 51.6812458846,205.823752884 L 56.3561781966,207.59716989" fill="none" stroke="red" stroke-width="1"/>
	<path d="M 41.3728538635,268.592430113 L 40.770629709,274.09934887 L 40.2833766585,279.640222819 L 39.9123113515,285.213857475 L 39.6586515369,290.819059215 L 39.5236161516,296.454635203 L 39.5084041679,302.115425483 L 39.6132454988,307.75849439 L 39.8370197321,313.371490609 L 40.1785076186,318.95322149 L 35.1913666748,319.311586118 M 34.8433902573,313.623809194 L 35.1913666748,319.311586118 M 34.6153800586,307.904580127 L 34.8433902573,313.623809194 M 34.508562092,302.155164833 L 34.6153800586,307.904580127 M 34.5240602813,296.387993626 L 34.508562092,302.155164833 M 34.6616441655,290.646092945 L 34.5240602813,296.387993626 M 34.9201103933,284.934698752 L 34.6616441655,290.646092945 M 35.2982324829,279.25507668 L 34.9201103933,284.934698752 M 35.7947821704,273.60849118 L 35.2982324829,279.25507668 M 36.4085295278,267.996205415 L 35.7947821704,273.60849118 M 36.4085295278,267.996205415 L 41.3728538635,268.592430113" fill="none" stroke="red" stroke-width="1"/>
	<path d="M 41.3730454375,331.409164941 L 42.1123625054,337.04507756 L 42.9710586875,342.642383432 L 43.9478072557,348.199773718 L 45.0412823361,353.715938404 L 46.2501588051,359.189566285 L 47.5731121866,364.619344942 L 49.0088185501,370.003960741 L 50.5559544121,375.342098839 L 52.2131966402,380.632443196 L 47.4581329232,382.178201601 M 45.7688286729,376.785507013 L 47.4581329232,382.178201601 M 44.1917644453,371.344106163 L 45.7688286729,376.785507013 M 42.728294694,365.855364142 L 44.1917644453,371.344106163 M 41.3797733461,360.320647839 L 42.728294694,365.855364142 M 40.1475536581,354.741325954 L 41.3797733461,360.320647839 M 39.0329880681,349.118769013 L 40.1475536581,354.741325954 M 38.0374280431,343.454349358 L 39.0329880681,349.118769013 M 37.1622239243,337.749441122 L 38.0374280431,343.454349358 M 36.4087247721,332.005420198 L 37.1622239243,337.749441122 M 36.4087247721,332.005420198 L 41.3730454375,331.409164941" fill="none" stroke="red" stroke-width="1"/>
	<path d="M 56.3550757261,392.399923817 L 58.4133449784,397.652493523 L 60.5813278236,402.848920429 L 62.8576001471,407.987781337 L 65.2407376804,413.06765201 L 67.7293159382,418.087107235 L 70.3219101624,423.044720899 L 73.0170952749,427.939066058 L 75.8134458371,432.768715018 L 78.7095360175,437.53223941 L 74.4652121633,440.175289735 M 71.5135203322,435.320310725 L 74.4652121633,440.175289735 M 68.663431991,430.397849499 L 71.5135203322,435.320310725 M 65.9164036113,425.409358721 L 68.663431991,430.397849499 M 63.2738922543,420.356292066 L 65.9164036113,425.409358721 M 60.7373555217,415.240104342 L 63.2738922543,420.356292066 M 58.3082514958,410.062251595 L 60.7373555217,415.240104342 M 55.9880386672,404.824191227 L 58.3082514958,410.062251595 M 53.7781758525,399.527382099 L 55.9880386672,404.824191227 M 51.6801220988,394.173284633 L 53.7781758525,399.527382099 M 51.6801220988,394.173284633 L 56.3550757261,392.399923817" fill="none" stroke="red" stroke-width="1"/>
	<path d="M 85.5786712211,447.994704297 L 88.8198646945,452.576302172 L 92.1565086434,457.084309806 L 95.5871338608,461.517255431 L 99.1102706912,465.873667077 L 102.72444905,470.152072652 L 106.428198449,474.351000011 L 110.220048028,478.468977028 L 114.098526589,482.504531658 L 118.062162644,486.456191998 L 114.569994681,490.034566337 M 110.530735898,486.007511758 L 114.569994681,490.034566337 M 106.578255665,481.894958404 L 110.530735898,486.007511758 M 102.714045348,477.698397021 L 106.578255665,481.894958404 M 98.9395967555,473.419318144 L 102.714045348,477.698397021 M 95.2564021961,469.059212183 L 98.9395967555,473.419318144 M 91.6659545387,464.619569523 L 95.2564021961,469.059212183 M 88.1697472576,460.101880626 L 91.6659545387,464.619569523 M 84.7692744711,455.507636141 L 88.1697472576,460.101880626 M 81.4660309696,450.838327015 L 84.7692744711,455.507636141 M 81.4660309696,450.838327015 L 85.5786712211,447.994704297" fill="none" stroke="red" stroke-width="1"/>
	<path d="M 127.246240025,494.999528797 L 131.466442812,498.661271674 L 135.765219847,502.233276703 L 140.141108608,505.714083145 L 144.592646651,509.102230672 L 149.118371683,512.396259389 L 153.716821635,515.594709849 L 158.386534742,518.696123066 L 163.126049621,521.699040517 L 167.933905351,524.602004134 L 165.395806508,528.909910153 M 160.49563263,525.951205431 L 165.395806508,528.909910153 M 155.665197128,522.890681636 L 160.49563263,525.951205431 M 150.905983077,519.729826123 L 155.665197128,522.890681636 M 146.219472854,516.47012556 L 150.905983077,519.729826123 M 141.607148268,513.113065922 L 146.219472854,516.47012556 M 137.070490669,509.660132495 L 141.607148268,513.113065922 M 132.610981072,506.11280989 L 137.070490669,509.660132495 M 128.230100266,502.472582068 L 132.610981072,506.11280989 M 123.929328922,498.740932375 L 128.230100266,502.472582068 M 123.929328922,498.740932375 L 127.246240025,494.999528797" fill="none" stroke="red" stroke-width="1"/>
	<path d="M 178.913315936,530.7183195 L 183.858506859,533.251338596 L 188.864080325,535.681329932 L 193.928641991,538.006900269 L 199.050798417,540.22665661 L 204.229157131,542.339206151 L 209.462326694,544.343156209 L 214.748916759,546.237114158 L 220.087538122,548.019687347 L 225.476802771,549.689483021 L 224.049237046,554.481356987 M 218.555708844,552.779256557 L 224.049237046,554.481356987 M 213.113809759,550.962198824 L 218.555708844,552.779256557 M 207.724973734,549.031610612 L 213.113809759,550.962198824 M 202.390632924,546.98891891 L 207.724973734,549.031610612 M 197.11221777,544.835550737 L 202.390632924,546.98891891 M 191.891157073,542.572933033 L 197.11221777,544.835550737 M 186.728878089,540.202492549 L 191.891157073,542.572933033 M 181.626806617,537.725655754 L 186.728878089,540.202492549 M 176.586367103,535.143848749 L 181.626806617,537.725655754 M 176.586367103,535.143848749 L 178.913315936,530.7183195" fill="none" stroke="red" stroke-width="1"/>
	<path d="M 237.637700723,552.991909503 L 243.005218117,554.249502673 L 248.414788332,555.395843229 L 253.865156641,556.42966422 L 259.355069449,557.349698047 L 264.883274284,558.154676369 L 270.448519765,558.843330001 L 276.049555566,559.414388828 L 281.685132369,559.866581701 L 287.354001808,560.198636353 L 287.115437949,565.192941839 M 281.338914779,564.854580636 L 287.115437949,565.192941839 M 275.595941821,564.39376977 L 281.338914779,564.854580636 M 269.887840066,563.811794379 L 275.595941821,564.39376977 M 264.215929078,563.109941283 L 269.887840066,563.811794379 M 258.58152691,562.289498847 L 264.215929078,563.109941283 M 252.98595003,561.351756838 L 258.58152691,562.289498847 M 247.43051327,560.298006282 L 252.98595003,561.351756838 M 241.91652978,559.129539323 L 247.43051327,560.298006282 M 236.445311009,557.847649073 L 241.91652978,559.129539323 M 236.445311009,557.847649073 L 237.637700723,552.991909503" fill="none" stroke="red" stroke-width="1"/>
	<path d="M 300.0,560.5 L 305.710198922,560.438696893 L 311.390164872,560.255625931 L 317.03866945,559.952043648 L 322.654483486,559.529205293 L 328.236376956,558.988364911 L 333.783118919,558.330775428 L 339.293477457,557.557688741 L 344.766219629,556.670355805 L 350.200111429,555.67002673 L 351.15767166,560.577478044 M 345.619067449,561.597083989 L 351.15767166,560.577478044 M 340.041038207,562.501488183 L 345.619067449,561.597083989 M 334.424880064,563.289418653 L 340.041038207,562.501488183 M 328.771890744,563.959604694 L 334.424880064,563.289418653 M 323.08336951,564.51077701 L 328.771890744,563.959604694 M 317.360617088,564.941667854 L 323.08336951,564.51077701 M 311.604935582,565.251011156 L 317.360617088,564.941667854 M 305.817628372,565.437542651 L 311.604935582,565.251011156 M 300.0,565.5 L 305.817628372,565.437542651 M 300.0,565.5 L 300.0,560.5" fill="none" stroke="red" stroke-width="1"/>
	<path d="M 362.360768721,552.992285346 L 367.843295315,551.582223504 L 373.27851549,550.056891247 L 378.665054934,548.417670921 L 384.001538082,546.665944559 L 389.28658814,544.80309398 L 394.518827128,542.830500875 L 399.696875924,540.749546893 L 404.819354311,538.56161372 L 409.884881037,536.268083148 L 411.995952721,540.800563302 M 406.832670825,543.138354548 L 411.995952721,540.800563302 M 401.611264822,545.368541929 L 406.832670825,543.138354548 M 396.333151084,547.489709883 L 401.611264822,545.368541929 M 390.999747537,549.500442687 L 396.333151084,547.489709883 M 385.612473749,551.399324565 L 390.999747537,549.500442687 M 380.172751,553.184939801 L 385.612473749,551.399324565 M 374.682002353,554.855872871 L 380.172751,553.184939801 M 369.14165271,556.410708575 L 374.682002353,554.855872871 M 363.553128853,557.84803218 L 369.14165271,556.410708575 M 363.553128853,557.84803218 L 362.360768721,552.992285346" fill="none" stroke="red" stroke-width="1"/>
	<path d="M 421.083958829,530.719752411 L 426.034531109,528.04799821 L 430.920150518,525.273229771 L 435.739361648,522.396900015 L 440.490708448,519.420462282 L 445.172734307,516.345370352 L 449.783982132,513.173078461 L 454.32299443,509.905041302 L 458.788313391,506.542714028 L 463.178480958,503.087552245 L 466.312538806,506.983406632 M 461.838465547,510.504603959 L 466.312538806,506.983406632 M 457.287749521,513.931233952 L 461.838465547,510.504603959 M 452.661867568,517.261816092 L 457.287749521,513.931233952 M 447.962296893,520.494869187 L 452.661867568,517.261816092 M 443.190515181,523.628911356 L 447.962296893,520.494869187 M 438.348000717,526.662460025 L 443.190515181,523.628911356 M 433.436232507,529.594031944 L 438.348000717,526.662460025 M 428.456690396,532.422143199 L 433.436232507,529.594031944 M 423.410855196,535.145309246 L 428.456690396,532.422143199 M 423.410855196,535.145309246 L 421.083958829,530.719752411" fill="none" stroke="red" stroke-width="1"/>
	<path d="M 472.750333461,495.002566492 L 476.900870457,491.243082808 L 480.969495485,487.396349371 L 484.954735135,483.463839006 L 488.855116179,479.447024804 L 492.669165618,475.34738007 L 496.395410738,471.166378264 L 500.032379149,466.905492946 L 503.578598827,462.566197707 L 507.032598145,458.149966103 L 511.003854143,461.187913731 M 507.483835802,465.688556457 L 511.003854143,461.187913731 M 503.8698729,470.110745153 L 507.483835802,465.688556457 M 500.163460228,474.452987922 L 503.8698729,470.110745153 M 496.366091981,478.713792917 L 500.163460228,474.452987922 M 492.47926181,482.891668246 L 496.366091981,478.713792917 M 488.504462871,486.985121868 L 492.47926181,482.891668246 M 484.443187904,490.992661506 L 488.504462871,486.985121868 M 480.296929294,494.912794565 L 484.443187904,490.992661506 M 476.06717916,498.744028052 L 480.296929294,494.912794565 M 476.06717916,498.744028052 L 472.750333461,495.002566492" fill="none" stroke="red" stroke-width="1"/>
	<path d="M 514.41871733,447.99848108 L 517.53927136,443.380871085 L 520.562957154,438.693683251 L 523.488340484,433.938354626 L 526.313987564,429.116321757 L 529.038465033,424.229020607 L 531.660339932,419.277886483 L 534.178179674,414.26435395 L 536.590552005,409.189856758 L 538.896024957,404.055827766 L 543.479222141,406.054403154 M 541.129253065,411.287520385 L 543.479222141,406.054403154 M 538.670359684,416.459876384 L 541.129253065,411.287520385 M 536.104007999,421.570006487 L 538.670359684,416.459876384 M 533.431663579,426.616447367 L 536.104007999,421.570006487 M 530.654791497,431.597736921 L 533.431663579,426.616447367 M 527.774856266,436.512414154 L 530.654791497,431.597736921 M 524.793321796,441.359019063 L 527.774856266,436.512414154 M 521.71165136,446.136092515 L 524.793321796,441.359019063 M 518.531307567,450.842176131 L 521.71165136,446.136092515 M 518.531307567,450.842176131 L 514.41871733,447.99848108" fill="none" stroke="red" stroke-width="1"/>
	<path d="M 543.643821803,392.40283011 L 545.551800052,387.206098856 L 547.35186265,381.958225061 L 549.042672209,376.660542039 L 550.622891191,371.314381952 L 552.091181813,365.921075778 L 553.446205961,360.481953286 L 554.686625091,354.998343019 L 555.811100129,349.471572286 L 556.818291369,343.902967166 L 561.74786774,344.739194889 M 560.721271669,350.41508458 L 561.74786774,344.739194889 M 559.575101817,356.048483626 L 560.721271669,350.41508458 M 558.31072493,361.638004842 L 559.575101817,356.048483626 M 556.929508701,367.182262887 L 558.31072493,361.638004842 M 555.43282162,372.67987427 L 556.929508701,367.182262887 M 553.822032819,378.129457339 L 555.43282162,372.67987427 M 552.098511934,383.529632257 L 553.822032819,378.129457339 M 550.263628958,388.87902096 L 552.098511934,383.529632257 M 548.318754115,394.176247116 L 550.263628958,388.87902096 M 548.318754115,394.176247116 L 543.643821803,392.40283011" fill="none" stroke="red" stroke-width="1"/>
	<path d="M 558.627146136,331.407569887 L 559.229370291,325.90065113 L 559.716623341,320.359777181 L 560.087688648,314.786142525 L 560.341348463,309.180940785 L 560.476383848,303.545364797 L 560.491595832,297.884574517 L 560.386754501,292.24150561 L 560.162980268,286.628509391 L 559.821492381,281.04677851 L 564.808633325,280.688413882 M 565.156609743,286.376190806 L 564.808633325,280.688413882 M 565.384619941,292.095419873 L 565.156609743,286.376190806 M 565.491437908,297.844835167 L 565.384619941,292.095419873 M 565.475939719,303.612006374 L 565.491437908,297.844835167 M 565.338355834,309.353907055 L 565.475939719,303.612006374 M 565.079889607,315.065301248 L 565.338355834,309.353907055 M 564.701767517,320.74492332 L 565.079889607,315.065301248 M 564.20521783,326.39150882 L 564.701767517,320.74492332 M 563.591470472,332.003794585 L 564.20521783,326.39150882 M 563.591470472,332.003794585 L 558.627146136,331.407569887" fill="none" stroke="red" stroke-width="1"/>
	<path d="M 558.626954563,268.590835059 L 557.887637495,262.95492244 L 557.028941313,257.357616568 L 556.052192744,251.800226282 L 554.958717664,246.284061596 L 553.749841195,240.810433715 L 552.426887813,235.380655058 L 550.99118145,229.996039259 L 549.444045588,224.657901161 L 547.78680336,219.367556804 L 552.541867077,217.821798399 M 554.231171327,223.214492987 L 552.541867077,217.821798399 M 555.808235555,228.655893837 L 554.231171327,223.214492987 M 557.271705306,234.144635858 L 555.808235555,228.655893837 M 558.620226654,239.679352161 L 557.271705306,234.144635858 M 559.852446342,245.258674046 L 558.620226654,239.679352161 M 560.967011932,250.881230987 L 559.852446342,245.258674046 M 561.962571957,256.545650642 L 560.967011932,250.881230987 M 562.837776076,262.250558878 L 561.962571957,256.545650642 M 563.591275228,267.994579802 L 562.837776076,262.250558878 M 563.591275228,267.994579802 L 558.626954563,268.590835059" fill="none" stroke="red" stroke-width="1"/>
	<path d="M 543.644924274,207.600076183 L 541.586655022,202.347506477 L 539.418672176,197.151079571 L 537.142399853,192.012218663 L 534.75926232,186.93234799 L 532.270684062,181.912892765 L 529.678089838,176.955279101 L 526.982904725,172.060933942 L 524.186554163,167.231284982 L 521.290463983,162.46776059 L 525.534787837,159.824710265 M 528.486479668,164.679689275 L 525.534787837,159.824710265 M 531.336568009,169.602150501 L 528.486479668,164.679689275 M 534.083596389,174.590641279 L 531.336568009,169.602150501 M 536.726107746,179.643707934 L 534.083596389,174.590641279 M 539.262644478,184.759895658 L 536.726107746,179.643707934 M 541.691748504,189.937748405 L 539.262644478,184.759895658 M 544.011961333,195.175808773 L 541.691748504,189.937748405 M 546.221824147,200.472617901 L 544.011961333,195.175808773 M 548.319877901,205.826715367 L 546.221824147,200.472617901 M 548.319877901,205.826715367 L 543.644924274,207.600076183" fill="none" stroke="red" stroke-width="1"/>
	<path d="M 514.421328779,152.005295703 L 511.180135305,147.423697828 L 507.843491357,142.915690194 L 504.412866139,138.482744569 L 500.889729309,134.126332923 L 497.27555095,129.847927348 L 493.571801551,125.648999989 L 489.779951972,121.531022972 L 485.901473411,117.495468342 L 481.937837356,113.543808002 L 485.430005319,109.965433663 M 489.469264102,113.992488242 L 485.430005319,109.965433663 M 493.421744335,118.105041596 L 489.469264102,113.992488242 M 497.285954652,122.301602979 L 493.421744335,118.105041596 M 501.060403245,126.580681856 L 497.285954652,122.301602979 M 504.743597804,130.940787817 L 501.060403245,126.580681856 M 508.334045461,135.380430477 L 504.743597804,130.940787817 M 511.830252742,139.898119374 L 508.334045461,135.380430477 M 515.230725529,144.492363859 L 511.830252742,139.898119374 M 518.53396903,149.161672985 L 515.230725529,144.492363859 M 518.53396903,149.161672985 L 514.421328779,152.005295703" fill="none" stroke="red" stroke-width="1"/>
	<path d="M 472.753759975,105.000471203 L 468.533557188,101.338728326 L 464.234780153,97.7667232973 L 459.858891392,94.2859168548 L 455.407353349,90.8977693277 L 450.881628317,87.6037406111 L 446.283178365,84.405290151 L 441.613465258,81.3038769335 L 436.873950379,78.300959483 L 432.066094649,75.3979958659 L 434.604193492,71.0900898469 M 439.50436737,74.0487945693 L 434.604193492,71.0900898469 M 444.334802872,77.1093183642 L 439.50436737,74.0487945693 M 449.094016923,80.2701738771 L 444.334802872,77.1093183642 M 453.780527146,83.5298744399 L 449.094016923,80.2701738771 M 458.392851732,86.8869340778 L 453.780527146,83.5298744399 M 462.929509331,90.339867505 L 458.392851732,86.8869340778 M 467.389018928,93.8871901102 L 462.929509331,90.339867505 M 471.769899734,97.527417932 L 467.389018928,93.8871901102 M 476.070671078,101.259067625 L 471.769899734,97.527417932 M 476.070671078,101.259067625 L 472.753759975,105.000471203" fill="none" stroke="red" stroke-width="1"/>
	<path d="M 421.086684064,69.2816804998 L 416.141493141,66.7486614039 L 411.135919675,64.3186700678 L 406.071358009,61.9930997314 L 400.949201583,59.7733433897 L 395.770842869,57.6607938491 L 390.537673306,55.6568437911 L 385.251083241,53.7628858424 L 379.912461878,51.9803126528 L 374.523197229,50.3105169791 L 375.950762954,45.5186430135 M 381.444291156,47.2207434431 L 375.950762954,45.5186430135 M 386.886190241,49.0378011765 L 381.444291156,47.2207434431 M 392.275026266,50.9683893876 L 386.886190241,49.0378011765 M 397.609367076,53.0110810899 L 392.275026266,50.9683893876 M 402.88778223,55.1644492627 L 397.609367076,53.0110810899 M 408.108842927,57.4270669668 L 402.88778223,55.1644492627 M 413.271121911,59.7975074507 L 408.108842927,57.4270669668 M 418.373193383,62.2743442461 L 413.271121911,59.7975074507 M 423.413632897,64.8561512515 L 418.373193383,62.2743442461 M 423.413632897,64.8561512515 L 421.086684064,69.2816804998" fill="none" stroke="red" stroke-width="1"/>
	<path d="M 362.362299277,47.0080904967 L 356.994781883,45.7504973273 L 351.585211668,44.6041567712 L 346.134843359,43.57033578 L 340.644930551,42.6503019526 L 335.116725716,41.8453236314 L 329.551480235,41.1566699988 L 323.950444434,40.5856111723 L 318.314867631,40.1334182991 L 312.645998192,39.801363647 L 312.884562051,34.8070581612 M 318.661085221,35.1454193636 L 312.884562051,34.8070581612 M 324.404058179,35.6062302298 L 318.661085221,35.1454193636 M 330.112159934,36.1882056209 L 324.404058179,35.6062302298 M 335.784070922,36.8900587166 L 330.112159934,36.1882056209 M 341.41847309,37.7105011529 L 335.784070922,36.8900587166 M 347.01404997,38.6482431624 L 341.41847309,37.7105011529 M 352.56948673,39.7019937179 L 347.01404997,38.6482431624 M 358.08347022,40.8704606773 L 352.56948673,39.7019937179 M 363.554688991,42.1523509269 L 358.08347022,40.8704606773 M 363.554688991,42.1523509269 L 362.362299277,47.0080904967" fill="none" stroke="red" stroke-width="1"/>
</svg>
