<?xml version="1.0" ?>
<svg baseProfile="full" height="600px" version="1.1" viewBox="57.398 57.398 485.204 485.204" width="600px" xmlns="http://www.w3.org/2000/svg" xmlns:ev="http://www.w3.org/2001/xml-events" xmlns:xlink="http://www.w3.org/1999/xlink">
	<defs/>
	<path d="M 502.0,300.0 L 501.91914942,305.773942251 L 501.678020264,311.507941303 L 501.27874927,317.199799852 L 500.723476752,322.847322954 L 500.014346291,328.448318286 L 499.153504403,334.000596365 L 498.14310019,339.501970718 L 496.985284991,344.950258004 L 495.682212028,350.343278086 L 490.838768845,349.101884461 M 492.109378598,343.843218326 L 490.838768845,349.101884461 M 493.238384288,338.530496624 L 492.109378598,343.843218326 M 494.223689625,333.165775273 L 493.238384288,338.530496624 M 495.063195499,327.75110538 L 494.223689625,333.165775273 M 495.754799444,322.288533356 L 495.063195499,327.75110538 M 496.296395112,316.780101097 L 495.754799444,322.288533356 M 496.685871753,311.227846238 L 496.296395112,316.780101097 M 496.921113721,305.633802484 L 496.685871753,311.227846238 M 497.0,300.0 L 496.921113721,305.633802484 M 497.0,300.0 L 502.0,300.0" fill="none" stroke="red" stroke-width="1"/>
	<path d="M 492.173238664,362.440571274 L 490.337685571,367.835517971 L 488.355530306,373.160739101 L 486.229189402,378.413811671 L 483.961079313,383.592315892 L 481.553616143,388.69383497 L 479.00921541,393.715954858 L 476.330291847,398.656264004 L 473.519259237,403.512353073 L 470.578530285,408.281814671 L 466.359307033,405.598876887 M 469.22722878,400.947499362 L 466.359307033,405.598876887 M 471.968583445,396.211780456 L 469.22722878,400.947499362 M 474.581025065,391.394074097 L 471.968583445,396.211780456 M 477.062209293,386.496731306 L 474.581025065,391.394074097 M 479.409793206,381.522099775 L 477.062209293,386.496731306 M 481.621435061,376.472523456 L 479.409793206,381.522099775 M 483.694793993,371.350342177 L 481.621435061,376.472523456 M 485.627529662,366.157891279 L 483.694793993,371.350342177 M 487.417301844,360.897501291 L 485.627529662,366.157891279 M 487.417301844,360.897501291 L 492.173238664,362.440571274" fill="none" stroke="red" stroke-width="1"/>
	<path d="M 463.452227417,418.749844226 L 460.066389299,423.269687233 L 456.558446079,427.690423335 L 452.930886488,432.009568395 L 449.186198103,436.22463849 L 445.326867458,440.333149655 L 441.355380186,444.332617648 L 437.274221181,448.220557732 L 433.085874791,451.994484477 L 428.792825029,455.651911592 L 425.603493151,451.801176316 M 429.790782054,448.233851039 L 425.603493151,451.801176316 M 433.875992296,444.552855393 L 429.790782054,448.233851039 M 437.856680517,440.760629318 L 433.875992296,444.552855393 M 441.730403862,436.859614049 L 437.856680517,440.760629318 M 445.494720295,432.852251858 L 441.730403862,436.859614049 M 449.147188884,428.74098576 L 445.494720295,432.852251858 M 452.685370054,424.528259187 L 449.147188884,428.74098576 M 456.106825791,420.216515633 L 452.685370054,424.528259187 M 459.409119815,415.808198271 L 456.106825791,420.216515633 M 459.409119815,415.808198271 L 463.452227417,418.749844226" fill="none" stroke="red" stroke-width="1"/>
	<path d="M 418.755597289,463.448041503 L 414.180360158,466.681245247 L 409.512613841,469.789617986 L 404.754779588,472.770732508 L 399.909279954,475.622160356 L 394.978539086,478.341471872 L 389.964983015,480.926236285 L 384.871039944,483.374021828 L 379.699140521,485.682395895 L 374.451718108,487.848925237 L 372.609145187,483.200815403 M 377.725841095,481.088259483 L 372.609145187,483.200815403 M 382.769006511,478.837342927 L 377.725841095,481.088259483 M 387.736283815,476.450423524 L 382.769006511,478.837342927 M 392.625311317,473.929860027 L 387.736283815,476.450423524 M 397.433723657,471.278012451 L 392.625311317,473.929860027 M 402.159152221,468.497242299 L 397.433723657,471.278012451 M 406.799225566,465.58991275 L 402.159152221,468.497242299 M 411.35156986,462.558388779 L 406.799225566,465.58991275 M 415.813809316,459.405037234 L 411.35156986,462.558388779 M 415.813809316,459.405037234 L 418.755597289,463.448041503" fill="none" stroke="red" stroke-width="1"/>
	<path d="M 362.445180496,492.171743134 L 357.155108676,493.80785023 L 351.804095002,495.301935743 L 346.39435129,496.651804722 L 340.92809265,497.855263348 L 335.407537505,498.910119283 L 329.834907573,499.814182019 L 324.212427806,500.565263249 L 318.542326271,501.161177224 L 312.826833989,501.599741117 L 312.514447131,496.609509214 M 318.089611401,496.181714477 L 312.514447131,496.609509214 M 323.619941608,495.60049134 L 318.089611401,496.181714477 M 329.103362506,494.867987339 L 323.619941608,495.60049134 M 334.537794416,493.986345632 L 329.103362506,494.867987339 M 339.921152983,492.957705538 L 334.537794416,493.986345632 M 345.251349007,491.784203076 L 339.921152983,492.957705538 M 350.526288342,490.467971517 L 345.251349007,491.784203076 M 355.743871872,489.011141913 L 350.526288342,490.467971517 M 360.901995544,487.415843618 L 355.743871872,489.011141913 M 360.901995544,487.415843618 L 362.445180496,492.171743134" fill="none" stroke="red" stroke-width="1"/>
	<path d="M 300.0,502.0 L 294.226057749,501.91914942 L 288.492058697,501.678020264 L 282.800200148,501.27874927 L 277.152677046,500.723476752 L 271.551681714,500.014346291 L 265.999403635,499.153504403 L 260.498029282,498.14310019 L 255.049741996,496.985284991 L 249.656721914,495.682212028 L 250.898115539,490.838768845 M 256.156781674,492.109378598 L 250.898115539,490.838768845 M 261.469503376,493.238384288 L 256.156781674,492.109378598 M 266.834224727,494.223689625 L 261.469503376,493.238384288 M 272.24889462,495.063195499 L 266.834224727,494.223689625 M 277.711466644,495.754799444 L 272.24889462,495.063195499 M 283.219898903,496.296395112 L 277.711466644,495.754799444 M 288.772153762,496.685871753 L 283.219898903,496.296395112 M 294.366197516,496.921113721 L 288.772153762,496.685871753 M 300.0,497.0 L 294.366197516,496.921113721 M 300.0,497.0 L 300.0,502.0" fill="none" stroke="red" stroke-width="1"/>
	<path d="M 237.559428726,492.173238664 L 232.164482029,490.337685571 L 226.839260899,488.355530306 L 221.586188329,486.229189402 L 216.407684108,483.961079313 L 211.30616503,481.553616143 L 206.284045142,479.00921541 L 201.343735996,476.330291847 L 196.487646927,473.519259237 L 191.718185329,470.578530285 L 194.401123113,466.359307033 M 199.052500638,469.22722878 L 194.401123113,466.359307033 M 203.788219544,471.968583445 L 199.052500638,469.22722878 M 208.605925903,474.581025065 L 203.788219544,471.968583445 M 213.503268694,477.062209293 L 208.605925903,474.581025065 M 218.477900225,479.409793206 L 213.503268694,477.062209293 M 223.527476544,481.621435061 L 218.477900225,479.409793206 M 228.649657823,483.694793993 L 223.527476544,481.621435061 M 233.842108721,485.627529662 L 228.649657823,483.694793993 M 239.102498709,487.417301844 L 233.842108721,485.627529662 M 239.102498709,487.417301844 L 237.559428726,492.173238664" fill="none" stroke="red" stroke-width="1"/>
	<path d="M 181.250155774,463.452227417 L 176.730312767,460.066389299 L 172.309576665,456.558446079 L 167.990431605,452.930886488 L 163.77536151,449.186198103 L 159.666850345,445.326867458 L 155.667382352,441.355380186 L 151.779442268,437.274221181 L 148.005515523,433.085874791 L 144.348088408,428.792825029 L 148.198823684,425.603493151 M 151.766148961,429.790782054 L 148.198823684,425.603493151 M 155.447144607,433.875992296 L 151.766148961,429.790782054 M 159.239370682,437.856680517 L 155.447144607,433.875992296 M 163.140385951,441.730403862 L 159.239370682,437.856680517 M 167.147748142,445.494720295 L 163.140385951,441.730403862 M 171.25901424,449.147188884 L 167.147748142,445.494720295 M 175.471740813,452.685370054 L 171.25901424,449.147188884 M 179.783484367,456.106825791 L 175.471740813,452.685370054 M 184.191801729,459.409119815 L 179.783484367,456.106825791 M 184.191801729,459.409119815 L 181.250155774,463.452227417" fill="none" stroke="red" stroke-width="1"/>
	<path d="M 136.551958497,418.755597289 L 133.318754753,414.180360158 L 130.210382014,409.512613841 L 127.229267492,404.754779588 L 124.377839644,399.909279954 L 121.658528128,394.978539086 L 119.073763715,389.964983015 L 116.625978172,384.871039944 L 114.317604105,379.699140521 L 112.151074763,374.451718108 L 116.799184597,372.609145187 M 118.911740517,377.725841095 L 116.799184597,372.609145187 M 121.162657073,382.769006511 L 118.911740517,377.725841095 M 123.549576476,387.736283815 L 121.162657073,382.769006511 M 126.070139973,392.625311317 L 123.549576476,387.736283815 M 128.721987549,397.433723657 L 126.070139973,392.625311317 M 131.502757701,402.159152221 L 128.721987549,397.433723657 M 134.41008725,406.799225566 L 131.502757701,402.159152221 M 137.441611221,411.35156986 L 134.41008725,406.799225566 M 140.594962766,415.813809316 L 137.441611221,411.35156986 M 140.594962766,415.813809316 L 136.551958497,418.755597289" fill="none" stroke="red" stroke-width="1"/>
	<path d="M 107.828256866,362.445180496 L 106.19214977,357.155108676 L 104.698064257,351.804095002 L 103.348195278,346.39435129 L 102.144736652,340.92809265 L 101.089880717,335.407537505 L 100.185817981,329.834907573 L 99.4347367514,324.212427806 L 98.8388227758,318.542326271 L 98.4002588826,312.826833989 L 103.390490786,312.514447131 M 103.818285523,318.089611401 L 103.390490786,312.514447131 M 104.39950866,323.619941608 L 103.818285523,318.089611401 M 105.132012661,329.103362506 L 104.39950866,323.619941608 M 106.013654368,334.537794416 L 105.132012661,329.103362506 M 107.042294462,339.921152983 L 106.013654368,334.537794416 M 108.215796924,345.251349007 L 107.042294462,339.921152983 M 109.532028483,350.526288342 L 108.215796924,345.251349007 M 110.988858087,355.743871872 L 109.532028483,350.526288342 M 112.584156382,360.901995544 L 110.988858087,355.743871872 M 112.584156382,360.901995544 L 107.828256866,362.445180496" fill="none" stroke="red" stroke-width="1"/>
	<path d="M 98.0,300.0 L 98.0808505803,294.226057749 L 98.3219797359,288.492058697 L 98.7212507303,282.800200148 L 99.2765232482,277.152677046 L 99.9856537086,271.551681714 L 100.846495597,265.999403635 L 101.85689981,260.498029282 L 103.014715009,255.049741996 L 104.317787972,249.656721914 L 109.161231155,250.898115539 M 107.890621402,256.156781674 L 109.161231155,250.898115539 M 106.761615712,261.469503376 L 107.890621402,256.156781674 M 105.776310375,266.834224727 L 106.761615712,261.469503376 M 104.936804501,272.24889462 L 105.776310375,266.834224727 M 104.245200556,277.711466644 L 104.936804501,272.24889462 M 103.703604888,283.219898903 L 104.245200556,277.711466644 M 103.314128247,288.772153762 L 103.703604888,283.219898903 M 103.078886279,294.366197516 L 103.314128247,288.772153762 M 103.0,300.0 L 103.078886279,294.366197516 M 103.0,300.0 L 98.0,300.0" fill="none" stroke="red" stroke-width="1"/>
	<path d="M 107.826761336,237.559428726 L 109.662314429,232.164482029 L 111.644469694,226.839260899 L 113.770810598,221.586188329 L 116.038920687,216.407684108 L 118.446383857,211.30616503 L 120.99078459,206.284045142 L 123.669708153,201.343735996 L 126.480740763,196.487646927 L 129.421469715,191.718185329 L 133.640692967,194.401123113 M 130.77277122,199.052500638 L 133.640692967,194.401123113 M 128.031416555,203.788219544 L 130.77277122,199.052500638 M 125.418974935,208.605925903 L 128.031416555,203.788219544 M 122.937790707,213.503268694 L 125.418974935,208.605925903 M 120.590206794,218.477900225 L 122.937790707,213.503268694 M 118.378564939,223.527476544 L 120.590206794,218.477900225 M 116.305206007,228.649657823 L 118.378564939,223.527476544 M 114.372470338,233.842108721 L 116.305206007,228.649657823 M 112.582698156,239.102498709 L 114.372470338,233.842108721 M 112.582698156,239.102498709 L 107.826761336,237.559428726" fill="none" stroke="red" stroke-width="1"/>
	<path d="M 136.547772583,181.250155774 L 139.933610701,176.730312767 L 143.441553921,172.309576665 L 147.069113512,167.990431605 L 150.813801897,163.77536151 L 154.673132542,159.666850345 L 158.644619814,155.667382352 L 162.725778819,151.779442268 L 166.914125209,148.005515523 L 171.207174971,144.348088408 L 174.396506849,148.198823684 M 170.209217946,151.766148961 L 174.396506849,148.198823684 M 166.124007704,155.447144607 L 170.209217946,151.766148961 M 162.143319483,159.239370682 L 166.124007704,155.447144607 M 158.269596138,163.140385951 L 162.143319483,159.239370682 M 154.505279705,167.147748142 L 158.269596138,163.140385951 M 150.852811116,171.25901424 L 154.505279705,167.147748142 M 147.314629946,175.471740813 L 150.852811116,171.25901424 M 143.893174209,179.783484367 L 147.314629946,175.471740813 M 140.590880185,184.191801729 L 143.893174209,179.783484367 M 140.590880185,184.191801729 L 136.547772583,181.250155774" fill="none" stroke="red" stroke-width="1"/>
	<path d="M 181.244402711,136.551958497 L 185.819639842,133.318754753 L 190.487386159,130.210382014 L 195.245220412,127.229267492 L 200.090720046,124.377839644 L 205.021460914,121.658528128 L 210.035016985,119.073763715 L 215.128960056,116.625978172 L 220.300859479,114.317604105 L 225.548281892,112.151074763 L 227.390854813,116.799184597 M 222.274158905,118.911740517 L 227.390854813,116.799184597 M 217.230993489,121.162657073 L 222.274158905,118.911740517 M 212.263716185,123.549576476 L 217.230993489,121.162657073 M 207.374688683,126.070139973 L 212.263716185,123.549576476 M 202.566276343,128.721987549 L 207.374688683,126.070139973 M 197.840847779,131.502757701 L 202.566276343,128.721987549 M 193.200774434,134.41008725 L 197.840847779,131.502757701 M 188.64843014,137.441611221 L 193.200774434,134.41008725 M 184.186190684,140.594962766 L 188.64843014,137.441611221 M 184.186190684,140.594962766 L 181.244402711,136.551958497" fill="none" stroke="red" stroke-width="1"/>
	<path d="M 237.554819504,107.828256866 L 242.844891324,106.19214977 L 248.195904998,104.698064257 L 253.60564871,103.348195278 L 259.07190735,102.144736652 L 264.592462495,101.089880717 L 270.165092427,100.185817981 L 275.787572194,99.4347367514 L 281.457673729,98.8388227758 L 287.173166011,98.4002588826 L 287.485552869,103.390490786 M 281.910388599,103.818285523 L 287.485552869,103.390490786 M 276.380058392,104.39950866 L 281.910388599,103.818285523 M 270.896637494,105.132012661 L 276.380058392,104.39950866 M 265.462205584,106.013654368 L 270.896637494,105.132012661 M 260.078847017,107.042294462 L 265.462205584,106.013654368 M 254.748650993,108.215796924 L 260.078847017,107.042294462 M 249.473711658,109.532028483 L 254.748650993,108.215796924 M 244.256128128,110.988858087 L 249.473711658,109.532028483 M 239.098004456,112.584156382 L 244.256128128,110.988858087 M 239.098004456,112.584156382 L 237.554819504,107.828256866" fill="none" stroke="red" stroke-width="1"/>
	<path d="M 300.0,98.0 L 305.773942251,98.0808505803 L 311.507941303,98.3219797359 L 317.199799852,98.7212507303 L 322.847322954,99.2765232482 L 328.448318286,99.9856537086 L 334.000596365,100.846495597 L 339.501970718,101.85689981 L 344.950258004,103.014715009 L 350.343278086,104.317787972 L 349.101884461,109.161231155 M 343.843218326,107.890621402 L 349.101884461,109.161231155 M 338.530496624,106.761615712 L 343.843218326,107.890621402 M 333.165775273,105.776310375 L 338.530496624,106.761615712 M 327.75110538,104.936804501 L 333.165775273,105.776310375 M 322.288533356,104.245200556 L 327.75110538,104.936804501 M 316.780101097,103.703604888 L 322.288533356,104.245200556 M 311.227846238,103.314128247 L 316.780101097,103.703604888 M 305.633802484,103.078886279 L 311.227846238,103.314128247 M 300.0,103.0 L 305.633802484,103.078886279 M 300.0,103.0 L 300.0,98.0" fill="none" stroke="red" stroke-width="1"/>
	<path d="M 362.440571274,107.826761336 L 367.835517971,109.662314429 L 373.160739101,111.644469694 L 378.413811671,113.770810598 L 383.592315892,116.038920687 L 388.69383497,118.446383857 L 393.715954858,120.99078459 L 398.656264004,123.669708153 L 403.512353073,126.480740763 L 408.281814671,129.421469715 L 405.598876887,133.640692967 M 400.947499362,130.77277122 L 405.598876887,133.640692967 M 396.211780456,128.031416555 L 400.947499362,130.77277122 M 391.394074097,125.418974935 L 396.211780456,128.031416555 M 386.496731306,122.937790707 L 391.394074097,125.418974935 M 381.522099775,120.590206794 L 386.496731306,122.937790707 M 376.472523456,118.378564939 L 381.522099775,120.590206794 M 371.350342177,116.305206007 L 376.472523456,118.378564939 M 366.157891279,114.372470338 L 371.350342177,116.305206007 M 360.897501291,112.582698156 L 366.157891279,114.372470338 M 360.897501291,112.582698156 L 362.440571274,107.826761336" fill="none" stroke="red" stroke-width="1"/>
	<path d="M 418.749844226,136.547772583 L 423.269687233,139.933610701 L 427.690423335,143.441553921 L 432.009568395,147.069113512 L 436.22463849,150.813801897 L 440.333149655,154.673132542 L 444.332617648,158.644619814 L 448.220557732,162.725778819 L 451.994484477,166.914125209 L 455.651911592,171.207174971 L 451.801176316,174.396506849 M 448.233851039,170.209217946 L 451.801176316,174.396506849 M 444.552855393,166.124007704 L 448.233851039,170.209217946 M 440.760629318,162.143319483 L 444.552855393,166.124007704 M 436.859614049,158.269596138 L 440.760629318,162.143319483 M 432.852251858,154.505279705 L 436.859614049,158.269596138 M 428.74098576,150.852811116 L 432.852251858,154.505279705 M 424.528259187,147.314629946 L 428.74098576,150.852811116 M 420.216515633,143.893174209 L 424.528259187,147.314629946 M 415.808198271,140.590880185 L 420.216515633,143.893174209 M 415.808198271,140.590880185 L 418.749844226,136.547772583" fill="none" stroke="red" stroke-width="1"/>
	<path d="M 463.448041503,181.244402711 L 466.681245247,185.819639842 L 469.789617986,190.487386159 L 472.770732508,195.245220412 L 475.622160356,200.090720046 L 478.341471872,205.021460914 L 480.926236285,210.035016985 L 483.374021828,215.128960056 L 485.682395895,220.300859479 L 487.848925237,225.548281892 L 483.200815403,227.390854813 M 481.088259483,222.274158905 L 483.200815403,227.390854813 M 478.837342927,217.230993489 L 481.088259483,222.274158905 M 476.450423524,212.263716185 L 478.837342927,217.230993489 M 473.929860027,207.374688683 L 476.450423524,212.263716185 M 471.278012451,202.566276343 L 473.929860027,207.374688683 M 468.497242299,197.840847779 L 471.278012451,202.566276343 M 465.58991275,193.200774434 L 468.497242299,197.840847779 M 462.558388779,188.64843014 L 465.58991275,193.200774434 M 459.405037234,184.186190684 L 462.558388779,188.64843014 M 459.405037234,184.186190684 L 463.448041503,181.244402711" fill="none" stroke="red" stroke-width="1"/>
	<path d="M 492.171743134,237.554819504 L 493.80785023,242.844891324 L 495.301935743,248.195904998 L 496.651804722,253.60564871 L 497.855263348,259.07190735 L 498.910119283,264.592462495 L 499.814182019,270.165092427 L 500.565263249,275.787572194 L 501.161177224,281.457673729 L 501.599741117,287.173166011 L 496.609509214,287.485552869 M 496.181714477,281.910388599 L 496.609509214,287.485552869 M 495.60049134,276.380058392 L 496.181714477,281.910388599 M 494.867987339,270.896637494 L 495.60049134,276.380058392 M 493.986345632,265.462205584 L 494.867987339,270.896637494 M 492.957705538,260.078847017 L 493.986345632,265.462205584 M 491.784203076,254.748650993 L 492.957705538,260.078847017 M 490.467971517,249.473711658 L 491.784203076,254.748650993 M 489.011141913,244.256128128 L 490.467971517,249.473711658 M 487.415843618,239.098004456 L 489.011141913,244.256128128 M 487.415843618,239.098004456 L 492.171743134,237.554819504" fill="none" stroke="red" stroke-width="1"/>
</svg>
