<?xml version="1.0" ?>
<svg baseProfile="full" height="596px" version="1.1" viewBox="-489.117199124 -533.280209208 487.969035243 483.90719997" width="600px" xmlns="http://www.w3.org/2000/svg" xmlns:ev="http://www.w3.org/2001/xml-events" xmlns:xlink="http://www.w3.org/1999/xlink">
	<defs/>
	<path d="M -438.538703588,-343.21232294 C -436.860805653,-342.548317164 -434.940636082,-341.970766052 -435.348845158,-339.0044309 M -440.808260563,-346.206202118 C -441.067124856,-344.325111534 -439.876342436,-343.737354615 -438.538703588,-343.21232294 M -447.429212649,-298.093692948 C -447.688076941,-296.212602364 -446.497294522,-295.624845445 -445.159655673,-295.09981377 M -441.969797243,-290.89192173 C -441.561588167,-293.858256882 -443.481757738,-294.435807993 -445.159655673,-295.09981377 M -435.348845158,-339.0044309 L -441.969797243,-290.89192173 M -447.429212649,-298.093692948 L -440.808260563,-346.206202118" fill="none" stroke="red" stroke-width="1"/>
	<path d="M -416.085588584,-395.588027334 C -414.664250896,-394.476414907 -412.986093595,-393.379164986 -414.216957936,-390.649741103 M -417.415103299,-399.101575728 C -418.195651418,-397.370721558 -417.219917466,-396.470072846 -416.085588584,-395.588027334 M -437.379122493,-354.831651772 C -438.159670612,-353.100797602 -437.183936661,-352.20014889 -436.049607778,-351.318103378 M -434.18097713,-346.379817147 C -432.950112789,-349.10924103 -434.628270091,-350.206490951 -436.049607778,-351.318103378 M -414.216957936,-390.649741103 L -434.18097713,-346.379817147 M -437.379122493,-354.831651772 L -417.415103299,-399.101575728" fill="none" stroke="red" stroke-width="1"/>
	<path d="M -379.767364125,-439.512207177 C -378.716785844,-438.044987255 -377.415726752,-436.519171592 -379.366023044,-434.247017416 M -380.05291487,-443.258344635 C -381.289688128,-441.817466377 -380.607237985,-440.67825912 -379.767364125,-439.512207177 M -411.685769366,-406.405112262 C -412.922542624,-404.964234004 -412.240092481,-403.825026747 -411.400218621,-402.658974804 M -410.99887754,-397.393785043 C -409.048581247,-399.665939219 -410.34964034,-401.191754882 -411.400218621,-402.658974804 M -379.366023044,-434.247017416 L -410.99887754,-397.393785043 M -411.685769366,-406.405112262 L -380.05291487,-443.258344635" fill="none" stroke="red" stroke-width="1"/>
	<path d="M -332.581690272,-471.471245398 C -331.98536528,-469.768098528 -331.165093892,-467.938384127 -333.674868703,-466.305290307 M -331.803903174,-475.146778238 C -333.395467688,-474.111157767 -333.06035395,-472.826184475 -332.581690272,-471.471245398 M -372.511226323,-448.65879311 C -374.102790838,-447.623172639 -373.7676771,-446.338199348 -373.289013422,-444.98326027 M -374.382191853,-439.817305179 C -371.872417042,-441.450398999 -372.69268843,-443.280113401 -373.289013422,-444.98326027 M -333.674868703,-466.305290307 L -374.382191853,-439.817305179 M -372.511226323,-448.65879311 L -331.803903174,-475.146778238" fill="none" stroke="red" stroke-width="1"/>
	<path d="M -278.285126453,-488.782945221 C -278.19498573,-486.980671669 -277.925853229,-484.993646056 -280.79510744,-484.137286133 M -276.49929646,-492.088291906 C -278.318823521,-491.545234394 -278.360921156,-490.217948914 -278.285126453,-488.782945221 M -323.037200123,-478.198551691 C -324.856727183,-477.655494179 -324.898824818,-476.328208699 -324.823030116,-474.893205006 M -327.333011103,-470.247545918 C -324.463756892,-471.103905841 -324.732889392,-473.090931454 -324.823030116,-474.893205006 M -280.79510744,-484.137286133 L -327.333011103,-470.247545918 M -323.037200123,-478.198551691 L -276.49929646,-492.088291906" fill="none" stroke="red" stroke-width="1"/>
	<path d="M -221.300010975,-490.115389817 C -221.720425543,-488.360347448 -222.021022234,-486.377648786 -225.01558777,-486.362812317 M -218.656409881,-492.785316595 C -220.55540266,-492.775908103 -220.969130044,-491.513918708 -221.300010975,-490.115389817 M -267.226802112,-492.544676315 C -269.125794891,-492.535267823 -269.539522275,-491.273278428 -269.870403206,-489.874749537 M -273.58598,-486.122172038 C -270.591414464,-486.137008506 -270.290817773,-488.119707168 -269.870403206,-489.874749537 M -225.01558777,-486.362812317 L -273.58598,-486.122172038 M -267.226802112,-492.544676315 L -218.656409881,-492.785316595" fill="none" stroke="red" stroke-width="1"/>
	<path d="M -166.259517636,-475.386457969 C -167.156129733,-473.820620813 -168.001753165,-472.002672099 -170.879247416,-472.829997818 M -162.972619431,-477.20535749 C -164.797371883,-477.730003068 -165.549005068,-476.635377386 -166.259517636,-475.386457969 M -209.644172525,-490.624177079 C -211.468924977,-491.148822657 -212.220558162,-490.054196975 -212.93107073,-488.805277558 M -217.55080051,-486.248817407 C -214.673306259,-485.421491688 -213.827682827,-487.239440402 -212.93107073,-488.805277558 M -170.879247416,-472.829997818 L -217.55080051,-486.248817407 M -209.644172525,-490.624177079 L -162.972619431,-477.20535749" fill="none" stroke="red" stroke-width="1"/>
	<path d="M -117.618483504,-445.68256686 C -118.921607785,-444.434340727 -120.247165702,-442.929861211 -122.773136394,-444.537695282 M -113.950992083,-446.49713319 C -115.552827156,-447.516735284 -116.583545917,-446.679468247 -117.618483504,-445.68256686 M -154.921004512,-472.575417519 C -156.522839585,-473.595019613 -157.553558346,-472.757752576 -158.588495933,-471.760851189 M -163.743148823,-470.615979611 C -161.217178132,-469.00814554 -159.891620214,-470.512625057 -158.588495933,-471.760851189 M -122.773136394,-444.537695282 L -163.743148823,-470.615979611 M -154.921004512,-472.575417519 L -113.950992083,-446.49713319" fill="none" stroke="red" stroke-width="1"/>
	<path d="M -79.2835859432,-403.510145439 C -80.8848443055,-402.678061709 -82.5795966894,-401.60632865 -84.5524757598,-403.85886733 M -75.5348159269,-403.262032798 C -76.7859099715,-404.690471961 -78.010308676,-404.176323996 -79.2835859432,-403.510145439 M -107.533952069,-439.797111386 C -108.785046113,-441.225550549 -110.009444818,-440.711402584 -111.282722085,-440.045224028 M -116.551611902,-440.393945919 C -114.578732831,-438.141407239 -112.883980447,-439.213140297 -111.282722085,-440.045224028 M -84.5524757598,-403.85886733 L -116.551611902,-440.393945919 M -107.533952069,-439.797111386 L -75.5348159269,-403.262032798" fill="none" stroke="red" stroke-width="1"/>
	<path d="M -54.3805358976,-352.249583028 C -56.1513064531,-351.902311963 -58.0792936486,-351.351442065 -59.3376547027,-354.068472131 M -50.853588288,-350.955458996 C -51.6515733467,-352.678453672 -52.9711915101,-352.530068177 -54.3805358976,-352.249583028 M -71.2635907511,-395.024361285 C -72.0615758098,-396.747355961 -73.3811939732,-396.598970466 -74.7905383607,-396.318485317 M -79.7476571659,-398.13737442 C -78.4892961117,-395.420344354 -76.5613089162,-395.971214252 -74.7905383607,-396.318485317 M -59.3376547027,-354.068472131 L -79.7476571659,-398.13737442 M -71.2635907511,-395.024361285 L -50.853588288,-350.955458996" fill="none" stroke="red" stroke-width="1"/>
	<path d="M -44.9980740675,-296.034738446 C -46.7948070456,-296.202911319 -48.7999672512,-296.220306657 -49.237803628,-299.182546798 M -41.9815427665,-293.79509974 C -42.2591951031,-295.673593489 -43.5669073373,-295.904817959 -44.9980740675,-296.034738446 M -49.0830352207,-341.841189834 C -49.3606875572,-343.719683582 -50.6683997914,-343.950908053 -52.0995665217,-344.080828539 M -56.3392960822,-347.228636892 C -55.9014597053,-344.26639675 -53.8962994997,-344.249001412 -52.0995665217,-344.080828539 M -49.237803628,-299.182546798 L -56.3392960822,-347.228636892 M -49.0830352207,-341.841189834 L -41.9815427665,-293.79509974" fill="none" stroke="red" stroke-width="1"/>
	<path d="M -51.7314842105,-239.442698426 C -53.4093821452,-240.106704202 -55.3295517165,-240.684255314 -54.9213426405,-243.650590466 M -49.4619272347,-236.448819248 C -49.2030629426,-238.329909832 -50.3938453617,-238.917666751 -51.7314842105,-239.442698426 M -42.8409751491,-284.561328418 C -42.5821108571,-286.442419002 -43.7728932761,-287.030175921 -45.110532125,-287.555207596 M -48.300390555,-291.763099636 C -48.7085996309,-288.796764484 -46.7884300597,-288.219213372 -45.110532125,-287.555207596 M -54.9213426405,-243.650590466 L -48.300390555,-291.763099636 M -42.8409751491,-284.561328418 L -49.4619272347,-236.448819248" fill="none" stroke="red" stroke-width="1"/>
	<path d="M -74.1907011469,-187.067958564 C -75.6120388344,-188.179570991 -77.2901961362,-189.276820912 -76.059331795,-192.006244795 M -72.8611864315,-183.55441017 C -72.0806383127,-185.285264339 -73.0563722644,-186.185913052 -74.1907011469,-187.067958564 M -52.8971672374,-227.824334126 C -52.1166191186,-229.555188295 -53.0923530703,-230.455837008 -54.2266819528,-231.33788252 M -56.0953126009,-236.276168751 C -57.3261769422,-233.546744868 -55.6480196403,-232.449494947 -54.2266819528,-231.33788252 M -76.059331795,-192.006244795 L -56.0953126009,-236.276168751 M -52.8971672374,-227.824334126 L -72.8611864315,-183.55441017" fill="none" stroke="red" stroke-width="1"/>
	<path d="M -110.499388644,-143.142271214 C -111.549966925,-144.609491136 -112.851026018,-146.135306799 -110.900729725,-148.407460976 M -110.213837899,-139.396133756 C -108.977064641,-140.837012014 -109.659514784,-141.976219272 -110.499388644,-143.142271214 M -78.5809834037,-176.249366129 C -77.3442101452,-177.690244387 -78.0266602882,-178.829451645 -78.8665341484,-179.995503587 M -79.2678752296,-185.260693348 C -81.2181715218,-182.988539172 -79.9171124293,-181.462723509 -78.8665341484,-179.995503587 M -110.900729725,-148.407460976 L -79.2678752296,-185.260693348 M -78.5809834037,-176.249366129 L -110.213837899,-139.396133756" fill="none" stroke="red" stroke-width="1"/>
	<path d="M -157.687358458,-111.183595915 C -158.283683449,-112.886742785 -159.103954838,-114.716457187 -156.594180027,-116.349551007 M -158.465145556,-107.508063075 C -156.873581042,-108.543683547 -157.208694779,-109.828656838 -157.687358458,-111.183595915 M -117.757822406,-133.996048203 C -116.166257892,-135.031668674 -116.501371629,-136.316641966 -116.980035308,-137.671581043 M -115.886856877,-142.837536134 C -118.396631688,-141.204442314 -117.576360299,-139.374727912 -116.980035308,-137.671581043 M -156.594180027,-116.349551007 L -115.886856877,-142.837536134 M -117.757822406,-133.996048203 L -158.465145556,-107.508063075" fill="none" stroke="red" stroke-width="1"/>
	<path d="M -211.983879327,-93.8718893036 C -212.074020051,-95.674162855 -212.343152551,-97.6611884682 -209.47389834,-98.5175483912 M -213.76970932,-90.5665426178 C -211.95018226,-91.10960013 -211.908084624,-92.4368856103 -211.983879327,-93.8718893036 M -167.231805657,-104.456282833 C -165.412278597,-104.999340345 -165.370180962,-106.326625825 -165.445975664,-107.761629519 M -162.935994677,-112.407288606 C -165.805248888,-111.550928683 -165.536116388,-109.56390307 -165.445975664,-107.761629519 M -209.47389834,-98.5175483912 L -162.935994677,-112.407288606 M -167.231805657,-104.456282833 L -213.76970932,-90.5665426178" fill="none" stroke="red" stroke-width="1"/>
	<path d="M -268.958770989,-92.5378286299 C -268.538356421,-94.2928709986 -268.23775973,-96.2755696609 -265.243194194,-96.2904061293 M -271.602372082,-89.8679018516 C -269.703379303,-89.8773103438 -269.289651919,-91.1392997386 -268.958770989,-92.5378286299 M -223.031979852,-90.1085421314 C -221.132987073,-90.1179506235 -220.719259688,-91.3799400184 -220.388378758,-92.7784689097 M -216.672801963,-96.5310464091 C -219.667367499,-96.5162099407 -219.96796419,-94.5335112784 -220.388378758,-92.7784689097 M -265.243194194,-96.2904061293 L -216.672801963,-96.5310464091 M -223.031979852,-90.1085421314 L -271.602372082,-89.8679018516" fill="none" stroke="red" stroke-width="1"/>
	<path d="M -324.018857408,-107.269857554 C -323.122245311,-108.83569471 -322.276621879,-110.653643424 -319.399127628,-109.826317705 M -327.305755613,-105.450958033 C -325.481003161,-104.926312455 -324.729369976,-106.020938137 -324.018857408,-107.269857554 M -280.634202519,-92.0321384439 C -278.809450067,-91.507492866 -278.057816882,-92.6021185476 -277.347304314,-93.8510379646 M -272.727574534,-96.4074981156 C -275.605068785,-97.2348238347 -276.450692217,-95.4168751213 -277.347304314,-93.8510379646 M -319.399127628,-109.826317705 L -272.727574534,-96.4074981156 M -280.634202519,-92.0321384439 L -327.305755613,-105.450958033" fill="none" stroke="red" stroke-width="1"/>
	<path d="M -372.652441981,-136.972571112 C -371.3493177,-138.220797244 -370.023759783,-139.725276761 -367.497789092,-138.11744269 M -376.319933402,-136.158004782 C -374.718098329,-135.138402688 -373.687379568,-135.975669725 -372.652441981,-136.972571112 M -335.349920973,-110.079720453 C -333.7480859,-109.060118359 -332.717367139,-109.897385396 -331.682429552,-110.894286783 M -326.527776662,-112.039158361 C -329.053747353,-113.646992432 -330.379305271,-112.142512915 -331.682429552,-110.894286783 M -367.497789092,-138.11744269 L -326.527776662,-112.039158361 M -335.349920973,-110.079720453 L -376.319933402,-136.158004782" fill="none" stroke="red" stroke-width="1"/>
	<path d="M -410.984133035,-179.144485681 C -409.382874673,-179.976569411 -407.688122289,-181.048302469 -405.715243218,-178.795763789 M -414.732903051,-179.392598322 C -413.481809007,-177.964159159 -412.257410302,-178.478307124 -410.984133035,-179.144485681 M -382.733766909,-142.857519733 C -381.482672865,-141.42908057 -380.25827416,-141.943228535 -378.984996893,-142.609407092 M -373.716107076,-142.260685201 C -375.688986147,-144.513223881 -377.383738531,-143.441490822 -378.984996893,-142.609407092 M -405.715243218,-178.795763789 L -373.716107076,-142.260685201 M -382.733766909,-142.857519733 L -414.732903051,-179.392598322" fill="none" stroke="red" stroke-width="1"/>
	<path d="M -435.889982109,-230.405490534 C -434.119211553,-230.752761599 -432.191224358,-231.303631496 -430.932863303,-228.586601431 M -439.416929718,-231.699614566 C -438.61894466,-229.97661989 -437.299326496,-230.125005385 -435.889982109,-230.405490534 M -419.006927255,-187.630712277 C -418.208942196,-185.907717601 -416.889324033,-186.056103096 -415.479979646,-186.336588245 M -410.52286084,-184.517699142 C -411.781221894,-187.234729208 -413.70920909,-186.68385931 -415.479979646,-186.336588245 M -430.932863303,-228.586601431 L -410.52286084,-184.517699142 M -419.006927255,-187.630712277 L -439.416929718,-231.699614566" fill="none" stroke="red" stroke-width="1"/>
	<path d="M -445.267288937,-286.619520265 C -443.470555959,-286.451347392 -441.465395753,-286.433952054 -441.027559376,-283.471711913 M -448.283820238,-288.859158971 C -448.006167901,-286.980665223 -446.698455667,-286.749440752 -445.267288937,-286.619520265 M -441.182327784,-240.813068877 C -440.904675447,-238.934575129 -439.596963213,-238.703350658 -438.165796483,-238.573430172 M -433.926066922,-235.42562182 C -434.363903299,-238.387861961 -436.369063505,-238.405257299 -438.165796483,-238.573430172 M -441.027559376,-283.471711913 L -433.926066922,-235.42562182 M -441.182327784,-240.813068877 L -448.283820238,-288.859158971" fill="none" stroke="red" stroke-width="1"/>
</svg>
