<?xml version="1.0" encoding="utf-8"?>
<!-- Generator: Adobe Illustrator 21.0.2, SVG Export Plug-In . SVG Version: 6.00 Build 0)  -->
<svg version="1.1" id="Layer_1" xmlns="http://www.w3.org/2000/svg" xmlns:xlink="http://www.w3.org/1999/xlink" x="0px" y="0px"
	 viewBox="0 0 600 600" style="enable-background:new 0 0 600 600;" xml:space="preserve">
<style type="text/css">
	.st0{fill:none;stroke:black;stroke-width:1}
</style>
<path class="st0" d="M450,300c0,82.8-67.2,150-150,150s-150-67.2-150-150s67.2-150,150-150S450,217.2,450,300z"/>
<path class="st0" d="M300,112.5c-103.6,0-187.5,83.9-187.5,187.5S196.4,487.5,300,487.5S487.5,403.6,487.5,300
	S403.6,112.5,300,112.5z"/>
<path class="st0" d="M300,75C175.7,75,75,175.7,75,300s100.7,225,225,225s225-100.7,225-225S424.3,75,300,75z"/>
<path class="st0" d="M300,37.5C155,37.5,37.5,155,37.5,300S155,562.5,300,562.5S562.5,445,562.5,300S445,37.5,300,37.5z"/>
</svg>
