<?xml version="1.0" ?>
<svg baseProfile="full" height="600px" version="1.1" viewBox="-563.897507197 -608.972924724 637.215250446 636.55337936" width="600px" xmlns="http://www.w3.org/2000/svg" xmlns:ev="http://www.w3.org/2001/xml-events" xmlns:xlink="http://www.w3.org/1999/xlink">
	<defs/>
	<path d="M -383.951692332,-344.047617701 C -382.262880082,-343.274637587 -380.320387681,-342.57745447 -380.89993023,-339.550533023 M -386.122994952,-347.247254965 C -386.490509739,-345.327743804 -385.298265219,-344.659404602 -383.951692332,-344.047617701 M -395.522892392,-298.152065644 C -395.89040718,-296.232554482 -394.69816266,-295.56421528 -393.351589773,-294.952428379 M -390.299827671,-290.455343701 C -389.720285122,-293.482265148 -391.662777523,-294.179448265 -393.351589773,-294.952428379 M -380.89993023,-339.550533023 L -390.299827671,-290.455343701 M -395.522892392,-298.152065644 L -386.122994952,-347.247254965" fill="none" stroke="red" stroke-width="1"/>
	<path d="M -352.950387851,-393.721048224 C -351.68767046,-392.35882784 -350.161593865,-390.969199638 -351.858958788,-388.396556639 M -353.72693029,-397.509378423 C -354.803308046,-395.877946278 -353.958960646,-394.803013542 -352.950387851,-393.721048224 M -381.257361361,-355.782363935 C -382.333739117,-354.15093179 -381.489391717,-353.075999054 -380.480818922,-351.994033736 M -379.389389859,-346.669542151 C -377.692024935,-349.24218515 -379.218101531,-350.631813352 -380.480818922,-351.994033736 M -351.858958788,-388.396556639 L -379.389389859,-346.669542151 M -381.257361361,-355.782363935 L -353.72693029,-397.509378423" fill="none" stroke="red" stroke-width="1"/>
	<path d="M -305.351259544,-427.824194799 C -304.703047859,-426.083502519 -303.821799548,-424.217092356 -306.371616703,-422.485556737 M -304.625284156,-431.622590096 C -306.242241377,-430.524543118 -305.871325748,-429.208916881 -305.351259544,-427.824194799 M -345.9820746,-403.537927009 C -347.59903182,-402.439880031 -347.228116191,-401.124253794 -346.708049987,-399.739531713 M -347.728407147,-394.40089365 C -345.178589992,-396.132429269 -346.059838303,-397.998839433 -346.708049987,-399.739531713 M -306.371616703,-422.485556737 L -347.728407147,-394.40089365 M -345.9820746,-403.537927009 L -304.625284156,-431.622590096" fill="none" stroke="red" stroke-width="1"/>
	<path d="M -248.316852081,-441.053196838 C -248.386535269,-439.197098603 -248.28930438,-437.135461953 -251.308368145,-436.515462416 M -246.188414,-444.281756048 C -248.102942241,-443.88858561 -248.265494062,-442.531418603 -248.316852081,-441.053196838 M -295.156155552,-434.225665996 C -297.070683793,-433.832495558 -297.233235614,-432.475328551 -297.284593632,-430.997106786 M -300.276109697,-426.459372364 C -297.257045932,-427.079371901 -297.354276821,-429.141008551 -297.284593632,-430.997106786 M -251.308368145,-436.515462416 L -300.276109697,-426.459372364 M -295.156155552,-434.225665996 L -246.188414,-444.281756048" fill="none" stroke="red" stroke-width="1"/>
	<path d="M -190.555031328,-431.495538422 C -191.32801884,-429.806695951 -192.025207309,-427.864169394 -195.052180384,-428.443711943 M -187.355348259,-433.666886847 C -189.274892161,-434.034401634 -189.943238603,-432.842135392 -190.555031328,-431.495538422 M -236.451374968,-443.066784285 C -238.37091887,-443.434299072 -239.039265313,-442.242032831 -239.651058037,-440.89543586 M -244.148207093,-437.843609381 C -241.121234018,-437.264066832 -240.424045549,-439.206593389 -239.651058037,-440.89543586 M -195.052180384,-428.443711943 L -244.148207093,-437.843609381 M -236.451374968,-443.066784285 L -187.355348259,-433.666886847" fill="none" stroke="red" stroke-width="1"/>
	<path d="M -140.87760728,-400.49791704 C -142.239827664,-399.235199648 -143.629455867,-397.709123053 -146.202098865,-399.406487976 M -137.089277081,-401.274459478 C -138.720709226,-402.350837235 -139.795641962,-401.506489834 -140.87760728,-400.49791704 M -178.816291569,-428.804890549 C -180.447723714,-429.881268305 -181.52265645,-429.036920905 -182.604621768,-428.02834811 M -187.929113353,-426.936919047 C -185.356470354,-425.239554123 -183.966842152,-426.765630719 -182.604621768,-428.02834811 M -146.202098865,-399.406487976 L -187.929113353,-426.936919047 M -178.816291569,-428.804890549 L -137.089277081,-401.274459478" fill="none" stroke="red" stroke-width="1"/>
	<path d="M -106.773622691,-352.899397977 C -108.514314972,-352.251186292 -110.380725135,-351.369937981 -112.112260754,-353.919755136 M -102.975227395,-352.17342259 C -104.073274373,-353.79037981 -105.38890061,-353.419464181 -106.773622691,-352.899397977 M -131.059890482,-393.530213033 C -132.15793746,-395.147170254 -133.473563697,-394.776254625 -134.858285778,-394.256188421 M -140.196923841,-395.27654558 C -138.465388222,-392.726728425 -136.598978058,-393.607976736 -134.858285778,-394.256188421 M -112.112260754,-353.919755136 L -140.196923841,-395.27654558 M -131.059890482,-393.530213033 L -102.975227395,-352.17342259" fill="none" stroke="red" stroke-width="1"/>
	<path d="M -93.5468157822,-295.86339463 C -95.4029140172,-295.933077818 -97.4645506673,-295.835846929 -98.0845502043,-298.854910694 M -90.3182565723,-293.73495655 C -90.7114270104,-295.649484791 -92.0685940173,-295.812036611 -93.5468157822,-295.86339463 M -100.374346624,-342.702698101 C -100.767517062,-344.617226343 -102.124684069,-344.779778163 -103.602905834,-344.831136182 M -108.140640256,-347.822652246 C -107.520640719,-344.803588481 -105.459004069,-344.90081937 -103.602905834,-344.831136182 M -98.0845502043,-298.854910694 L -108.140640256,-347.822652246 M -100.374346624,-342.702698101 L -90.3182565723,-293.73495655" fill="none" stroke="red" stroke-width="1"/>
	<path d="M -103.106917937,-238.099797251 C -104.795760408,-238.872784763 -106.738286965,-239.569973232 -106.158744416,-242.596946307 M -100.935569512,-234.900114182 C -100.568054725,-236.819658084 -101.760320966,-237.488004527 -103.106917937,-238.099797251 M -91.5356720739,-283.996140892 C -91.1681572868,-285.915684793 -92.3604235281,-286.584031236 -93.7070204983,-287.19582396 M -96.7588469779,-291.692973016 C -97.3383895268,-288.665999941 -95.3958629698,-287.968811472 -93.7070204983,-287.19582396 M -106.158744416,-242.596946307 L -96.7588469779,-291.692973016 M -91.5356720739,-283.996140892 L -100.935569512,-234.900114182" fill="none" stroke="red" stroke-width="1"/>
	<path d="M -134.100738464,-188.425136468 C -135.363455856,-189.787356853 -136.889532451,-191.176985055 -135.192167528,-193.749628053 M -133.324196026,-184.636806269 C -132.24781827,-186.268238415 -133.09216567,-187.34317115 -134.100738464,-188.425136468 M -105.793764955,-226.363820757 C -104.717387199,-227.995252902 -105.561734599,-229.070185638 -106.570307394,-230.152150956 M -107.661736457,-235.476642541 C -109.359101381,-232.903999542 -107.833024785,-231.51437134 -106.570307394,-230.152150956 M -135.192167528,-193.749628053 L -107.661736457,-235.476642541 M -105.793764955,-226.363820757 L -133.324196026,-184.636806269" fill="none" stroke="red" stroke-width="1"/>
	<path d="M -181.698419514,-154.321761125 C -182.346631199,-156.062453405 -183.22787951,-157.928863569 -180.678062354,-159.660399188 M -182.424394901,-150.523365828 C -180.807437681,-151.621412806 -181.17835331,-152.937039044 -181.698419514,-154.321761125 M -141.067604458,-178.608028915 C -139.450647237,-179.706075893 -139.821562866,-181.02170213 -140.34162907,-182.406424212 M -139.321271911,-187.745062274 C -141.871089066,-186.013526655 -140.989840755,-184.147116492 -140.34162907,-182.406424212 M -180.678062354,-159.660399188 L -139.321271911,-187.745062274 M -141.067604458,-178.608028915 L -182.424394901,-150.523365828" fill="none" stroke="red" stroke-width="1"/>
	<path d="M -238.73661799,-141.093358331 C -238.666934802,-142.949456566 -238.764165691,-145.011093217 -235.745101926,-145.631092754 M -240.865056071,-137.864799121 C -238.950527829,-138.25796956 -238.787976009,-139.615136566 -238.73661799,-141.093358331 M -191.897314519,-147.920889173 C -189.982786278,-148.314059611 -189.820234457,-149.671226618 -189.768876438,-151.149448383 M -186.777360374,-155.687182805 C -189.796424139,-155.067183268 -189.69919325,-153.005546618 -189.768876438,-151.149448383 M -235.745101926,-145.631092754 L -186.777360374,-155.687182805 M -191.897314519,-147.920889173 L -240.865056071,-137.864799121" fill="none" stroke="red" stroke-width="1"/>
	<path d="M -296.502659107,-150.65168386 C -295.729671595,-152.340526331 -295.032483127,-154.283052888 -292.005510052,-153.703510339 M -299.702342176,-148.480335435 C -297.782798275,-148.112820648 -297.114451832,-149.305086889 -296.502659107,-150.65168386 M -250.606315467,-139.080437997 C -248.686771566,-138.71292321 -248.018425123,-139.905189451 -247.406632398,-141.251786421 M -242.909483343,-144.303612901 C -245.936456418,-144.88315545 -246.633644886,-142.940628893 -247.406632398,-141.251786421 M -292.005510052,-153.703510339 L -242.909483343,-144.303612901 M -250.606315467,-139.080437997 L -299.702342176,-148.480335435" fill="none" stroke="red" stroke-width="1"/>
	<path d="M -346.173519036,-181.648267653 C -344.811298651,-182.910985044 -343.421670449,-184.437061639 -340.849027451,-182.739696716 M -349.961849235,-180.871725214 C -348.330417089,-179.795347458 -347.255484354,-180.639694858 -346.173519036,-181.648267653 M -308.234834747,-153.341294143 C -306.603402602,-152.264916387 -305.528469866,-153.109263788 -304.446504548,-154.117836582 M -299.122012963,-155.209265646 C -301.694655962,-156.906630569 -303.084284164,-155.380553973 -304.446504548,-154.117836582 M -340.849027451,-182.739696716 L -299.122012963,-155.209265646 M -308.234834747,-153.341294143 L -349.961849235,-180.871725214" fill="none" stroke="red" stroke-width="1"/>
	<path d="M -380.276056366,-229.246557947 C -378.535364086,-229.894769632 -376.668953922,-230.776017943 -374.937418303,-228.226200788 M -384.074451663,-229.972533335 C -382.976404685,-228.355576114 -381.660778447,-228.726491743 -380.276056366,-229.246557947 M -355.989788576,-188.615742891 C -354.891741598,-186.998785671 -353.576115361,-187.3697013 -352.191393279,-187.889767504 M -346.852755217,-186.869410344 C -348.584290835,-189.419227499 -350.450700999,-188.537979188 -352.191393279,-187.889767504 M -374.937418303,-228.226200788 L -346.852755217,-186.869410344 M -355.989788576,-188.615742891 L -384.074451663,-229.972533335" fill="none" stroke="red" stroke-width="1"/>
	<path d="M -393.506654289,-286.28316054 C -391.650556054,-286.213477351 -389.588919404,-286.31070824 -388.968919867,-283.291644475 M -396.735213499,-288.41159862 C -396.342043061,-286.497070379 -394.984876054,-286.334518558 -393.506654289,-286.28316054 M -386.679123447,-239.443857068 C -386.285953009,-237.529328827 -384.928786002,-237.366777006 -383.450564237,-237.315418988 M -378.912829815,-234.323902923 C -379.532829352,-237.342966688 -381.594466002,-237.245735799 -383.450564237,-237.315418988 M -388.968919867,-283.291644475 L -378.912829815,-234.323902923 M -386.679123447,-239.443857068 L -396.735213499,-288.41159862" fill="none" stroke="red" stroke-width="1"/>
	<path d="M -190.133112855,-112.20383651 C -190.299232631,-110.349546994 -190.308947188,-108.280852532 -193.363144179,-107.81699851 M -187.834973209,-115.325034207 C -189.771781057,-115.030882876 -190.004955467,-113.680832664 -190.133112855,-112.20383651 M -237.372558542,-107.801548242 C -239.30936639,-107.507396911 -239.5425408,-106.157346698 -239.670698188,-104.680350545 M -242.900729512,-100.293512544 C -239.846532521,-100.757366566 -239.836817963,-102.826061029 -239.670698188,-104.680350545 M -193.363144179,-107.81699851 L -242.900729512,-100.293512544 M -237.372558542,-107.801548242 L -187.834973209,-115.325034207" fill="none" stroke="red" stroke-width="1"/>
	<path d="M -137.49010698,-137.427325499 C -137.072523073,-135.613089128 -136.439718407,-133.643582222 -139.199063126,-132.254745121 M -136.274199307,-141.107572174 C -138.024027665,-140.226846208 -137.826681132,-138.871126458 -137.49010698,-137.427325499 M -181.029424619,-118.581311885 C -182.779252977,-117.700585919 -182.581906444,-116.34486617 -182.245332292,-114.901065211 M -183.954288438,-109.728484833 C -181.19494372,-111.117321933 -181.827748385,-113.08682884 -182.245332292,-114.901065211 M -139.199063126,-132.254745121 L -183.954288438,-109.728484833 M -181.029424619,-118.581311885 L -136.274199307,-141.107572174" fill="none" stroke="red" stroke-width="1"/>
	<path d="M -95.1989457289,-177.676877091 C -94.2417267401,-176.080011392 -93.0318554254,-174.401879357 -95.2279429118,-172.229046335 M -95.1783144814,-181.552962055 C -96.5709553265,-180.175067943 -95.9647634587,-178.946377723 -95.1989457289,-177.676877091 M -130.79778225,-146.310670357 C -132.190423095,-144.932776246 -131.584231227,-143.704086026 -130.818413497,-142.434585394 M -130.84741068,-136.986754638 C -128.651323194,-139.15958766 -129.861194508,-140.837719695 -130.818413497,-142.434585394 M -95.2279429118,-172.229046335 L -130.84741068,-136.986754638 M -130.79778225,-146.310670357 L -95.1783144814,-181.552962055" fill="none" stroke="red" stroke-width="1"/>
	<path d="M -67.3975472267,-229.009966988 C -65.9943661551,-227.786478287 -64.325800994,-226.563652027 -65.7441457594,-223.819352051 M -68.5739282218,-232.703045097 C -69.4733663657,-230.962757307 -68.5176665562,-229.981143355 -67.3975472267,-229.009966988 M -91.5787884408,-188.191838164 C -92.4782265847,-186.451550374 -91.5225267751,-185.469936421 -90.4024074457,-184.498760054 M -88.7490059783,-179.308145117 C -87.330661213,-182.052445094 -88.9992263741,-183.275271354 -90.4024074457,-184.498760054 M -65.7441457594,-223.819352051 L -88.7490059783,-179.308145117 M -91.5787884408,-188.191838164 L -68.5739282218,-232.703045097" fill="none" stroke="red" stroke-width="1"/>
	<path d="M -56.8928798479,-286.436266698 C -55.1791160064,-285.708763965 -53.2132696717,-285.064278102 -53.7096694542,-282.015083676 M -59.1577068028,-289.581900584 C -59.4724969088,-287.648265094 -58.2592211747,-287.011783041 -56.8928798479,-286.436266698 M -67.2090691285,-240.125454409 C -67.5238592345,-238.191818919 -66.3105835004,-237.555336865 -64.9442421736,-236.979820522 M -61.7610317799,-232.558637501 C -61.2646319974,-235.607831926 -63.2304783322,-236.25231779 -64.9442421736,-236.979820522 M -53.7096694542,-282.015083676 L -61.7610317799,-232.558637501 M -67.2090691285,-240.125454409 L -59.1577068028,-289.581900584" fill="none" stroke="red" stroke-width="1"/>
	<path d="M -64.546388693,-344.315025906 C -62.6920802705,-344.148901502 -60.6233644396,-344.139183596 -60.1595104177,-341.084954307 M -67.6676150454,-346.613194207 C -67.3734637144,-344.676365877 -66.0233999128,-344.443186937 -64.546388693,-344.315025906 M -60.1441290807,-297.075085001 C -59.8499777498,-295.138256671 -58.4999139481,-294.905077731 -57.0229027284,-294.7769167 M -52.636024453,-291.546845101 C -53.0998784749,-294.60107439 -55.1685943058,-294.610792296 -57.0229027284,-294.7769167 M -60.1595104177,-341.084954307 L -52.636024453,-291.546845101 M -60.1441290807,-297.075085001 L -67.6676150454,-346.613194207" fill="none" stroke="red" stroke-width="1"/>
	<path d="M -89.7715257656,-396.959623031 C -87.9572893946,-397.377206938 -85.9877824881,-398.010011604 -84.5989453876,-395.250666885 M -93.4517724404,-398.175530704 C -92.5710464742,-396.425702346 -91.2153267249,-396.623048879 -89.7715257656,-396.959623031 M -70.9255121519,-353.420305392 C -70.0447861857,-351.670477034 -68.6890664364,-351.867823567 -67.2452654771,-352.204397718 M -62.0726850992,-350.495441573 C -63.4615221997,-353.254786291 -65.4310291062,-352.621981625 -67.2452654771,-352.204397718 M -84.5989453876,-395.250666885 L -62.0726850992,-350.495441573 M -70.9255121519,-353.420305392 L -93.4517724404,-398.175530704" fill="none" stroke="red" stroke-width="1"/>
	<path d="M -130.018201417,-439.246828443 C -128.421335718,-440.204047431 -126.743203683,-441.413918746 -124.570370661,-439.21783126 M -133.89428638,-439.26745969 C -132.516392269,-437.874818845 -131.287702049,-438.481010713 -130.018201417,-439.246828443 M -98.6519946833,-403.647991922 C -97.2741005718,-402.255351077 -96.0454103519,-402.861542945 -94.77590972,-403.627360674 M -89.3280789641,-403.598363491 C -91.5009119861,-405.794450978 -93.1790440205,-404.584579663 -94.77590972,-403.627360674 M -124.570370661,-439.21783126 L -89.3280789641,-403.598363491 M -98.6519946833,-403.647991922 L -133.89428638,-439.26745969" fill="none" stroke="red" stroke-width="1"/>
	<path d="M -181.354086188,-467.052071277 C -180.130597487,-468.455252349 -178.907771227,-470.12381751 -176.163471251,-468.705472745 M -185.047164297,-465.875690282 C -183.306876507,-464.976252138 -182.325262554,-465.931951948 -181.354086188,-467.052071277 M -140.535957363,-442.870830063 C -138.795669574,-441.971391919 -137.814055621,-442.927091729 -136.842879254,-444.047211058 M -131.652264317,-445.700612526 C -134.396564293,-447.118957291 -135.619390553,-445.45039213 -136.842879254,-444.047211058 M -176.163471251,-468.705472745 L -131.652264317,-445.700612526 M -140.535957363,-442.870830063 L -185.047164297,-465.875690282" fill="none" stroke="red" stroke-width="1"/>
	<path d="M -238.777601507,-477.552908743 C -238.050098774,-479.266672585 -237.405612911,-481.232518919 -234.356418485,-480.736119137 M -241.923235393,-475.288081788 C -239.989599903,-474.973291682 -239.35311785,-476.186567416 -238.777601507,-477.552908743 M -192.466789218,-467.236719463 C -190.533153728,-466.921929357 -189.896671674,-468.135205091 -189.321155332,-469.501546418 M -184.89997231,-472.684756811 C -187.949166735,-473.181156594 -188.593652599,-471.215310259 -189.321155332,-469.501546418 M -234.356418485,-480.736119137 L -184.89997231,-472.684756811 M -192.466789218,-467.236719463 L -241.923235393,-475.288081788" fill="none" stroke="red" stroke-width="1"/>
	<path d="M -296.658278532,-469.901291912 C -296.492158756,-471.755581428 -296.482444199,-473.82427589 -293.428247208,-474.288129912 M -298.956418178,-466.780094215 C -297.01961033,-467.074245546 -296.78643592,-468.424295759 -296.658278532,-469.901291912 M -249.418832845,-474.303580181 C -247.482024997,-474.597731512 -247.248850587,-475.947781724 -247.120693199,-477.424777878 M -243.890661875,-481.811615878 C -246.944858866,-481.347761856 -246.954573424,-479.279067393 -247.120693199,-477.424777878 M -293.428247208,-474.288129912 L -243.890661875,-481.811615878 M -249.418832845,-474.303580181 L -298.956418178,-466.780094215" fill="none" stroke="red" stroke-width="1"/>
	<path d="M -349.303823297,-444.678204245 C -349.721407204,-446.492440616 -350.35421187,-448.461947523 -347.594867151,-449.850784623 M -350.51973097,-440.99795757 C -348.769902612,-441.878683537 -348.967249145,-443.234403286 -349.303823297,-444.678204245 M -305.764505658,-463.524217859 C -304.0146773,-464.404943825 -304.212023833,-465.760663574 -304.548597985,-467.204464534 M -302.839641839,-472.377044912 C -305.598986558,-470.988207811 -304.966181892,-469.018700905 -304.548597985,-467.204464534 M -347.594867151,-449.850784623 L -302.839641839,-472.377044912 M -305.764505658,-463.524217859 L -350.51973097,-440.99795757" fill="none" stroke="red" stroke-width="1"/>
	<path d="M -391.588152768,-404.427572754 C -392.545371757,-406.024438454 -393.755243072,-407.702570488 -391.559155586,-409.87540351 M -391.608784016,-400.551487791 C -390.216143171,-401.929381903 -390.822335039,-403.158072123 -391.588152768,-404.427572754 M -355.989316248,-435.793779488 C -354.596675403,-437.1716736 -355.20286727,-438.40036382 -355.968685,-439.669864451 M -355.939687817,-445.117695207 C -358.135775304,-442.944862185 -356.925903989,-441.266730151 -355.968685,-439.669864451 M -391.559155586,-409.87540351 L -355.939687817,-445.117695207 M -355.989316248,-435.793779488 L -391.608784016,-400.551487791" fill="none" stroke="red" stroke-width="1"/>
	<path d="M -419.396190477,-353.095532316 C -420.799371549,-354.319021017 -422.46793671,-355.541847277 -421.049591944,-358.286147253 M -418.219809482,-349.402454207 C -417.320371338,-351.142741997 -418.276071147,-352.12435595 -419.396190477,-353.095532316 M -395.214949263,-393.913661141 C -394.315511119,-395.65394893 -395.271210928,-396.635562883 -396.391330258,-397.60673925 M -398.044731725,-402.797354187 C -399.463076491,-400.053054211 -397.79451133,-398.830227951 -396.391330258,-397.60673925 M -421.049591944,-358.286147253 L -398.044731725,-402.797354187 M -395.214949263,-393.913661141 L -418.219809482,-349.402454207" fill="none" stroke="red" stroke-width="1"/>
	<path d="M -429.894243552,-295.668187084 C -431.608007394,-296.395689817 -433.573853729,-297.04017568 -433.077453946,-300.089370106 M -427.629416597,-292.522553198 C -427.314626491,-294.456188688 -428.527902225,-295.092670741 -429.894243552,-295.668187084 M -419.578054272,-341.978999374 C -419.263264166,-343.912634863 -420.4765399,-344.549116917 -421.842881227,-345.12463326 M -425.02609162,-349.545816282 C -425.522491403,-346.496621856 -423.556645068,-345.852135992 -421.842881227,-345.12463326 M -433.077453946,-300.089370106 L -425.02609162,-349.545816282 M -419.578054272,-341.978999374 L -427.629416597,-292.522553198" fill="none" stroke="red" stroke-width="1"/>
	<path d="M -422.244423394,-237.789981373 C -424.09871291,-237.956101148 -426.167407373,-237.965815706 -426.631261395,-241.020012696 M -419.123225697,-235.491841727 C -419.417377028,-237.428649575 -420.767427241,-237.661823985 -422.244423394,-237.789981373 M -426.646711663,-285.02942706 C -426.940862994,-286.966234907 -428.290913206,-287.199409318 -429.76790936,-287.327566706 M -434.15474736,-290.557598029 C -433.690893338,-287.503401039 -431.622198876,-287.493686481 -429.76790936,-287.327566706 M -426.631261395,-241.020012696 L -434.15474736,-290.557598029 M -426.646711663,-285.02942706 L -419.123225697,-235.491841727" fill="none" stroke="red" stroke-width="1"/>
	<path d="M -397.022404512,-185.145906714 C -398.836640883,-184.728322807 -400.806147789,-184.095518141 -402.19498489,-186.854862859 M -393.342157837,-183.92999904 C -394.222883803,-185.679827398 -395.578603552,-185.482480865 -397.022404512,-185.145906714 M -415.868418125,-228.685224353 C -416.749144092,-230.435052711 -418.104863841,-230.237706178 -419.5486648,-229.901132026 M -424.721245178,-231.610088172 C -423.332408078,-228.850743453 -421.362901171,-229.483548119 -419.5486648,-229.901132026 M -402.19498489,-186.854862859 L -424.721245178,-231.610088172 M -415.868418125,-228.685224353 L -393.342157837,-183.92999904" fill="none" stroke="red" stroke-width="1"/>
	<path d="M -356.76889708,-142.857621403 C -358.36576278,-141.900402414 -360.043894814,-140.6905311 -362.216727836,-142.886618586 M -352.892812117,-142.836990156 C -354.270706228,-144.229631001 -355.499396448,-143.623439133 -356.76889708,-142.857621403 M -388.135103814,-178.456457924 C -389.512997926,-179.849098769 -390.741688146,-179.242906901 -392.011188777,-178.477089171 M -397.459019533,-178.506086354 C -395.286186511,-176.309998868 -393.608054477,-177.519870182 -392.011188777,-178.477089171 M -362.216727836,-142.886618586 L -397.459019533,-178.506086354 M -388.135103814,-178.456457924 L -352.892812117,-142.836990156" fill="none" stroke="red" stroke-width="1"/>
	<path d="M -305.439651516,-115.053428027 C -306.663140217,-113.650246955 -307.885966477,-111.981681794 -310.630266453,-113.40002656 M -301.746573407,-116.229809022 C -303.486861197,-117.129247166 -304.468475149,-116.173547356 -305.439651516,-115.053428027 M -346.25778034,-139.234669241 C -347.99806813,-140.134107385 -348.979682083,-139.178407575 -349.95085845,-138.058288246 M -355.141473387,-136.404886779 C -352.39717341,-134.986542013 -351.17434715,-136.655107174 -349.95085845,-138.058288246 M -310.630266453,-113.40002656 L -355.141473387,-136.404886779 M -346.25778034,-139.234669241 L -301.746573407,-116.229809022" fill="none" stroke="red" stroke-width="1"/>
	<path d="M -248.009521893,-104.551545039 C -248.737024626,-102.837781197 -249.381510489,-100.871934863 -252.430704915,-101.368334645 M -244.863888007,-106.816371994 C -246.797523497,-107.1311621 -247.43400555,-105.917886366 -248.009521893,-104.551545039 M -294.320334183,-114.867734319 C -296.253969672,-115.182524425 -296.890451726,-113.969248691 -297.465968069,-112.602907365 M -301.887151091,-109.419696971 C -298.837956665,-108.923297188 -298.193470801,-110.889143523 -297.465968069,-112.602907365 M -252.430704915,-101.368334645 L -301.887151091,-109.419696971 M -294.320334183,-114.867734319 L -244.863888007,-106.816371994" fill="none" stroke="red" stroke-width="1"/>
	<path d="M -194.30948597,-73.1503358594 C -194.523231588,-71.3761121294 -194.593200305,-69.3915927126 -197.537141545,-69.0360891955 M -192.013036648,-76.0775871533 C -193.879926215,-75.8521458985 -194.143224422,-74.5636792737 -194.30948597,-73.1503358594 M -239.762327496,-70.3114935212 C -241.629217063,-70.0860522664 -241.892515269,-68.7975856416 -242.058776817,-67.3842422273 M -245.286432393,-63.2699955634 C -242.342491152,-63.6254990805 -242.272522436,-65.6100184973 -242.058776817,-67.3842422273 M -197.537141545,-69.0360891955 L -245.286432393,-63.2699955634 M -239.762327496,-70.3114935212 L -192.013036648,-76.0775871533" fill="none" stroke="red" stroke-width="1"/>
	<path d="M -141.650168146,-92.7734881939 C -141.414072799,-91.002140896 -140.986243534,-89.0630699062 -143.748066828,-87.9836690276 M -140.157531186,-96.1814035421 C -141.908931324,-95.496905424 -141.842122026,-94.1835394027 -141.650168146,-92.7734881939 M -184.952957782,-78.6740478273 C -186.704357919,-77.9895497092 -186.637548621,-76.6761836879 -186.445594742,-75.2661324791 M -188.543493424,-70.4763133128 C -185.78167013,-71.5557141914 -186.209499394,-73.4947851812 -186.445594742,-75.2661324791 M -143.748066828,-87.9836690276 L -188.543493424,-70.4763133128 M -184.952957782,-78.6740478273 L -140.157531186,-96.1814035421" fill="none" stroke="red" stroke-width="1"/>
	<path d="M -95.5406331723,-124.908451539 C -94.8704036994,-123.251817267 -93.9726745292,-121.480545557 -96.3783240165,-119.74668726 M -94.9446233051,-128.581002653 C -96.4701571264,-127.481482757 -96.0780456369,-126.226186687 -95.5406331723,-124.908451539 M -133.963084502,-100.458666862 C -135.488618323,-99.3591469667 -135.096506834,-98.1038508969 -134.559094369,-96.7861157489 M -135.396785213,-91.6243514692 C -132.991135726,-93.3582097661 -133.888864896,-95.129481476 -134.559094369,-96.7861157489 M -96.3783240165,-119.74668726 L -135.396785213,-91.6243514692 M -133.963084502,-100.458666862 L -94.9446233051,-128.581002653" fill="none" stroke="red" stroke-width="1"/>
	<path d="M -58.8284006865,-167.466451322 C -57.7687415789,-166.027360855 -56.4602709363,-164.53354356 -58.361646731,-162.257851635 M -59.1604921316,-171.172325427 C -60.3662426355,-169.729203719 -59.675443248,-168.610082718 -58.8284006865,-167.466451322 M -89.9998800212,-134.261712493 C -91.2056305251,-132.818590784 -90.5148311375,-131.699469784 -89.667788576,-130.555838388 M -89.2010346206,-125.347238701 C -87.2996588259,-127.622930626 -88.6081294684,-129.116747921 -89.667788576,-130.555838388 M -58.361646731,-162.257851635 L -89.2010346206,-125.347238701 M -89.9998800212,-134.261712493 L -59.1604921316,-171.172325427" fill="none" stroke="red" stroke-width="1"/>
	<path d="M -33.8543947154,-217.810982194 C -32.4702360371,-216.68064942 -30.8314848699,-215.559179097 -32.1071905122,-212.882292578 M -35.0975155544,-221.317702678 C -35.9064996202,-219.620164886 -34.9591585223,-218.708018061 -33.8543947154,-217.810982194 M -55.7888387766,-177.899909136 C -56.5978228424,-176.202371343 -55.6504817445,-175.290224518 -54.5457179376,-174.393188651 M -52.7985137344,-169.464499035 C -51.5228080921,-172.141385554 -53.1615592593,-173.262855877 -54.5457179376,-174.393188651 M -32.1071905122,-212.882292578 L -52.7985137344,-169.464499035 M -55.7888387766,-177.899909136 L -35.0975155544,-221.317702678" fill="none" stroke="red" stroke-width="1"/>
	<path d="M -22.2576459457,-272.803597254 C -20.634684262,-272.055402103 -18.7674308449,-271.379474318 -19.3330070885,-268.468466424 M -24.3385014652,-275.888005743 C -24.6971595708,-274.042000736 -23.551724869,-273.395793771 -22.2576459457,-272.803597254 M -33.5118722443,-228.672877701 C -33.87053035,-226.826872694 -32.7250956481,-226.180665729 -31.4310167249,-225.588469212 M -28.5063778676,-221.253338382 C -27.9408016241,-224.164346276 -29.8080550411,-224.840274061 -31.4310167249,-225.588469212 M -19.3330070885,-268.468466424 L -28.5063778676,-221.253338382 M -33.5118722443,-228.672877701 L -24.3385014652,-275.888005743" fill="none" stroke="red" stroke-width="1"/>
	<path d="M -24.621656135,-328.959323706 C -22.8640900118,-328.635331571 -20.8876561381,-328.441731835 -20.7164148546,-325.48114148 M -27.4002018871,-331.434020595 C -27.2916098537,-329.556573053 -26.0219800733,-329.213414946 -24.621656135,-328.959323706 M -24.6227518011,-283.414689234 C -24.5141597677,-281.537241692 -23.2445299872,-281.194083585 -21.844206049,-280.939992345 M -17.9389647685,-277.461810119 C -18.110206052,-280.422400473 -20.0866399258,-280.61600021 -21.844206049,-280.939992345 M -20.7164148546,-325.48114148 L -17.9389647685,-277.461810119 M -24.6227518011,-283.414689234 L -27.4002018871,-331.434020595" fill="none" stroke="red" stroke-width="1"/>
	<path d="M -40.8831976653,-382.755945384 C -39.1004495264,-382.879588973 -37.1381903099,-383.183981709 -36.2355356896,-380.359415967 M -44.1899693888,-384.461055556 C -43.6175542638,-382.669867524 -42.3025780904,-382.653514822 -40.8831976653,-382.755945384 M -29.5493517677,-338.647977063 C -28.9769366427,-336.856789032 -27.6619604693,-336.840436329 -26.2425800442,-336.942866891 M -21.5949180685,-334.546337475 C -22.4975726888,-337.370903216 -24.4598319053,-337.06651048 -26.2425800442,-336.942866891 M -36.2355356896,-380.359415967 L -21.5949180685,-334.546337475 M -29.5493517677,-338.647977063 L -44.1899693888,-384.461055556" fill="none" stroke="red" stroke-width="1"/>
	<path d="M -70.0588677802,-430.786519902 C -68.3634622659,-431.351509386 -66.5393751223,-432.136358481 -64.9598406826,-429.626697596 M -73.6867819254,-431.611723547 C -72.6851259392,-430.020231278 -71.4077119562,-430.332826864 -70.0588677802,-430.786519902 M -48.0675038181,-390.90624821 C -47.065847832,-389.314755941 -45.788433849,-389.627351526 -44.4395896729,-390.081044564 M -39.3405625754,-388.921222258 C -40.9200970151,-391.430883144 -42.7441841587,-390.646034048 -44.4395896729,-390.081044564 M -64.9598406826,-429.626697596 L -39.3405625754,-388.921222258 M -48.0675038181,-390.90624821 L -73.6867819254,-431.611723547" fill="none" stroke="red" stroke-width="1"/>
	<path d="M -110.238271397,-470.085376464 C -108.735817883,-471.052968879 -107.163194533,-472.265455504 -105.010891836,-470.225629849 M -113.957507221,-469.985587381 C -112.59263234,-468.692039405 -111.43256568,-469.311508283 -110.238271397,-470.085376464 M -79.0482073836,-436.900610299 C -77.6833325027,-435.607062323 -76.523265843,-436.226531201 -75.3289715596,-437.000399382 M -70.1015919995,-437.140652767 C -72.2538946962,-439.180478422 -73.8265180461,-437.967991797 -75.3289715596,-437.000399382 M -105.010891836,-470.225629849 L -70.1015919995,-437.140652767 M -79.0482073836,-436.900610299 L -113.957507221,-469.985587381" fill="none" stroke="red" stroke-width="1"/>
	<path d="M -158.91229294,-498.18427321 C -157.696996137,-499.494469394 -156.474503877,-501.059311148 -153.883304574,-499.617483105 M -162.490375127,-497.164556635 C -160.847175569,-496.250226657 -159.877152893,-497.138218772 -158.91229294,-498.18427321 M -120.462386437,-473.778809121 C -118.819186879,-472.864479143 -117.849164203,-473.752471258 -116.88430425,-474.798525697 M -111.855315884,-476.231735592 C -114.446515187,-477.673563634 -115.669007447,-476.10872188 -116.88430425,-474.798525697 M -153.883304574,-499.617483105 L -111.855315884,-476.231735592 M -120.462386437,-473.778809121 L -162.490375127,-497.164556635" fill="none" stroke="red" stroke-width="1"/>
	<path d="M -213.061750941,-513.224825082 C -212.212663522,-514.797336432 -211.420286925,-516.618209821 -208.550786083,-515.870115374 M -216.271263834,-511.342723677 C -214.451580373,-510.86832232 -213.734403323,-511.970696624 -213.061750941,-513.224825082 M -169.72935993,-499.208996675 C -167.909676469,-498.734595319 -167.192499419,-499.836969622 -166.519847036,-501.091098081 M -162.008882179,-503.736388373 C -164.878383021,-504.484482819 -165.670759617,-502.663609431 -166.519847036,-501.091098081 M -208.550786083,-515.870115374 L -162.008882179,-503.736388373 M -169.72935993,-499.208996675 L -216.271263834,-511.342723677" fill="none" stroke="red" stroke-width="1"/>
	<path d="M -269.252496138,-514.355273309 C -268.819910497,-516.089359613 -268.503869006,-518.049999019 -265.53827744,-518.036950651 M -271.895130958,-511.735791387 C -270.014511916,-511.727516812 -269.59311592,-512.973405261 -269.252496138,-514.355273309 M -223.794682383,-511.524153223 C -221.91406334,-511.515878648 -221.492667344,-512.761767097 -221.152047563,-514.143635145 M -217.437828864,-517.825312487 C -220.40342043,-517.838360855 -220.719461922,-515.877721449 -221.152047563,-514.143635145 M -265.53827744,-518.036950651 L -217.437828864,-517.825312487 M -223.794682383,-511.524153223 L -271.895130958,-511.735791387" fill="none" stroke="red" stroke-width="1"/>
	<path d="M -323.976925412,-501.528675446 C -323.987657298,-503.315599329 -324.167425436,-505.293090288 -321.291580846,-506.015406718 M -325.887525091,-498.336404541 C -324.063818765,-498.794458863 -323.964400522,-500.105718342 -323.976925412,-501.528675446 M -279.242728688,-510.052024683 C -277.419022362,-510.510079004 -277.319604119,-511.821338483 -277.332129009,-513.244295588 M -274.646784443,-517.73102686 C -277.522629033,-517.00871043 -277.342860895,-515.03121947 -277.332129009,-513.244295588 M -321.291580846,-506.015406718 L -274.646784443,-517.73102686 M -279.242728688,-510.052024683 L -325.887525091,-498.336404541" fill="none" stroke="red" stroke-width="1"/>
	<path d="M -373.745097968,-475.430482604 C -374.202368927,-477.158020707 -374.870969972,-479.027805769 -372.267019662,-480.446402328 M -374.796738034,-471.861698643 C -373.145452471,-472.761296461 -373.37711287,-474.055810439 -373.745097968,-475.430482604 M -332.561934219,-494.870642829 C -330.910648657,-495.770240647 -331.142309056,-497.064754624 -331.510294153,-498.439426789 M -330.032215847,-503.455346514 C -332.636166158,-502.036749955 -331.967565113,-500.166964893 -331.510294153,-498.439426789 M -372.267019662,-480.446402328 L -330.032215847,-503.455346514 M -332.561934219,-494.870642829 L -374.796738034,-471.861698643" fill="none" stroke="red" stroke-width="1"/>
	<path d="M -415.475804907,-437.785365964 C -416.347656432,-439.345384561 -417.459546201,-440.990739604 -415.289165936,-443.011443628 M -415.608596937,-434.067056428 C -414.232258232,-435.348478492 -414.778049888,-436.545017704 -415.475804907,-437.785365964 M -380.406087775,-466.841889988 C -379.029749071,-468.123312052 -379.575540727,-469.319851264 -380.273295745,-470.560199524 M -380.086656775,-475.786277189 C -382.257037039,-473.765573165 -381.14514727,-472.120218121 -380.273295745,-470.560199524 M -415.289165936,-443.011443628 L -380.086656775,-475.786277189 M -380.406087775,-466.841889988 L -415.608596937,-434.067056428" fill="none" stroke="red" stroke-width="1"/>
	<path d="M -446.578105382,-390.971538968 C -447.809370548,-392.266810671 -449.294332953,-393.585267662 -447.692463453,-396.080803293 M -445.78524915,-387.336341123 C -444.769429467,-388.918875913 -445.594728004,-389.942816859 -446.578105382,-390.971538968 M -419.803707257,-427.81271172 C -418.787887574,-429.395246511 -419.613186111,-430.419187456 -420.596563489,-431.447909565 M -421.71092156,-436.55717389 C -423.312791061,-434.061638259 -421.827828655,-432.743181268 -420.596563489,-431.447909565 M -447.692463453,-396.080803293 L -421.71092156,-436.55717389 M -419.803707257,-427.81271172 L -445.78524915,-387.336341123" fill="none" stroke="red" stroke-width="1"/>
	<path d="M -465.012725235,-337.882665717 C -466.528339791,-338.829408095 -468.295391417,-339.735254786 -467.367453096,-342.55158122 M -463.337356513,-334.56077229 C -462.748907821,-336.346735395 -463.803687959,-337.132121079 -465.012725235,-337.882665717 M -448.286649596,-380.240213238 C -447.698200904,-382.026176343 -448.752981042,-382.811562027 -449.962018318,-383.562106665 M -452.316746179,-388.231022168 C -453.2446845,-385.414695733 -451.477632874,-384.508849043 -449.962018318,-383.562106665 M -467.367453096,-342.55158122 L -452.316746179,-388.231022168 M -448.286649596,-380.240213238 L -463.337356513,-334.56077229" fill="none" stroke="red" stroke-width="1"/>
	<path d="M -469.633305695,-281.866946141 C -471.337107846,-282.406453847 -473.274261929,-282.84372574 -473.076933254,-285.802692163 M -467.183194155,-279.066696526 C -467.058058898,-280.943114258 -468.27531575,-281.441113687 -469.633305695,-281.866946141 M -463.982619307,-327.059688521 C -463.85748405,-328.936106253 -465.074740902,-329.434105682 -466.432730846,-329.859938136 M -469.876358405,-333.795684158 C -470.07368708,-330.836717734 -468.136532998,-330.399445842 -466.432730846,-329.859938136 M -473.076933254,-285.802692163 L -469.876358405,-333.795684158 M -463.982619307,-327.059688521 L -467.183194155,-279.066696526" fill="none" stroke="red" stroke-width="1"/>
	<path d="M -460.281235882,-226.449369693 C -462.065365346,-226.551340612 -464.050350992,-226.496620643 -464.589915889,-229.412427488 M -457.215646928,-224.341179427 C -457.557810033,-226.190227671 -458.860253112,-226.372139741 -460.281235882,-226.449369693 M -465.967126351,-271.634144109 C -466.309289456,-273.483192352 -467.611732535,-273.665104422 -469.032715304,-273.742334374 M -473.341395312,-276.705392169 C -472.801830415,-273.789585324 -470.816844769,-273.844305293 -469.032715304,-273.742334374 M -464.589915889,-229.412427488 L -473.341395312,-276.705392169 M -465.967126351,-271.634144109 L -457.215646928,-224.341179427" fill="none" stroke="red" stroke-width="1"/>
	<path d="M -437.375389235,-175.134980108 C -439.128258238,-174.787505896 -441.036405578,-174.238092965 -442.288031112,-176.926190013 M -433.880086579,-173.860549588 C -434.673800332,-175.565196496 -435.980300841,-175.415587168 -437.375389235,-175.134980108 M -454.180842192,-217.460172429 C -454.974555945,-219.164819337 -456.281056454,-219.015210009 -457.676144848,-218.734602949 M -462.588786725,-220.525812854 C -461.337161191,-217.837715807 -459.429013851,-218.387128737 -457.676144848,-218.734602949 M -442.288031112,-176.926190013 L -462.588786725,-220.525812854 M -454.180842192,-217.460172429 L -433.880086579,-173.860549588" fill="none" stroke="red" stroke-width="1"/>
	<path d="M -402.412202553,-131.129308752 C -404.023638247,-130.356703209 -405.735247184,-129.349868785 -407.616277546,-131.642277538 M -398.70954773,-130.764335851 C -399.902396252,-132.218058475 -401.130688338,-131.748145708 -402.412202553,-131.129308752 M -429.218942625,-167.946087562 C -430.411791147,-169.399810185 -431.640083234,-168.929897418 -432.921597449,-168.311060463 M -438.125672442,-168.824029248 C -436.24464208,-166.531620496 -434.533033142,-167.538454919 -432.921597449,-168.311060463 M -407.616277546,-131.642277538 L -438.125672442,-168.824029248 M -429.218942625,-167.946087562 L -398.70954773,-130.764335851" fill="none" stroke="red" stroke-width="1"/>
	<path d="M -357.638891149,-97.1533980937 C -359.008827541,-96.0057751006 -360.41781237,-94.6064071887 -362.807996002,-96.3616181576 M -353.961117281,-97.7167427426 C -355.476843486,-98.8298033571 -356.550525074,-98.0703349528 -357.638891149,-97.1533980937 M -392.728729843,-126.185408459 C -394.244456048,-127.298469073 -395.318137636,-126.539000669 -396.406503711,-125.62206381 M -401.575608564,-124.830283874 C -399.185424932,-123.075072905 -397.776440103,-124.474440817 -396.406503711,-125.62206381 M -362.807996002,-96.3616181576 L -401.575608564,-124.830283874 M -392.728729843,-126.185408459 L -353.961117281,-97.7167427426" fill="none" stroke="red" stroke-width="1"/>
	<path d="M -305.819458921,-75.4032267375 C -306.860155642,-73.9504449814 -307.875932771,-72.2441352024 -310.628057372,-73.3482949336 M -302.398182272,-76.865293131 C -304.143432019,-77.565491985 -304.993955722,-76.5624375725 -305.819458921,-75.4032267375 M -347.036300799,-94.7742253577 C -348.781550546,-95.4744242117 -349.632074249,-94.4713697992 -350.457577448,-93.3121589642 M -355.266175899,-91.2572271603 C -352.514051298,-90.1530674291 -351.498274169,-91.8593772081 -350.457577448,-93.3121589642 M -310.628057372,-73.3482949336 L -355.266175899,-91.2572271603 M -347.036300799,-94.7742253577 L -302.398182272,-76.865293131" fill="none" stroke="red" stroke-width="1"/>
	<path d="M -250.204281789,-67.2872221908 C -250.849066579,-65.6204485197 -251.406381181,-63.7144016964 -254.347203259,-64.0960203082 M -247.256628617,-69.5577350218 C -249.121540178,-69.7997370683 -249.694531593,-68.615959658 -250.204281789,-67.2872221908 M -294.955328168,-75.7474027494 C -296.820239729,-75.9894047959 -297.393231144,-74.8056273857 -297.90298134,-73.4768899185 M -302.04590281,-70.2856880359 C -299.105080732,-69.9040694241 -298.54776613,-71.8101162473 -297.90298134,-73.4768899185 M -254.347203259,-64.0960203082 L -302.04590281,-70.2856880359 M -294.955328168,-75.7474027494 L -247.256628617,-69.5577350218" fill="none" stroke="red" stroke-width="1"/>
	<path d="M -193.506759385,-34.7755594108 C -193.751651729,-32.9934720243 -193.855367589,-30.9973195837 -196.824271836,-30.6889143197 M -191.146377666,-37.6831724218 C -193.029097432,-37.487598352 -193.315712276,-36.1952342416 -193.506759385,-34.7755594108 M -239.300556302,-32.6809894819 C -241.183276068,-32.4854154121 -241.469890912,-31.1930513018 -241.660938021,-29.7733764709 M -244.978450472,-25.6867313798 C -242.009546226,-25.9951366438 -241.905830365,-27.9912890844 -241.660938021,-29.7733764709 M -196.824271836,-30.6889143197 L -244.978450472,-25.6867313798 M -239.300556302,-32.6809894819 L -191.146377666,-37.6831724218" fill="none" stroke="red" stroke-width="1"/>
	<path d="M -139.562744057,-51.8905523191 C -139.417461235,-50.0976728028 -139.088157467,-48.1262290847 -141.92051486,-47.18470011 M -137.885210308,-55.2387258957 C -139.681339387,-54.641658741 -139.682429148,-53.3179524815 -139.562744057,-51.8905523191 M -183.824665592,-39.9675852083 C -185.620794671,-39.3705180536 -185.621884432,-38.046811794 -185.502199342,-36.6194116317 M -187.859970144,-31.9135594226 C -185.027612751,-32.8550883973 -185.356916519,-34.8265321153 -185.502199342,-36.6194116317 M -141.92051486,-47.18470011 L -187.859970144,-31.9135594226 M -183.824665592,-39.9675852083 L -137.885210308,-55.2387258957" fill="none" stroke="red" stroke-width="1"/>
	<path d="M -90.5833636452,-80.2527002589 C -90.0542874092,-78.5334554589 -89.3069620495,-76.6795990957 -91.8692153005,-75.1485422822 M -89.6684911961,-83.8842649808 C -91.2933347211,-82.913350904 -91.0085109689,-81.6206083367 -90.5833636452,-80.2527002589 M -131.226989048,-59.0512703229 C -132.851832573,-58.0803562461 -132.567008821,-56.7876136788 -132.141861497,-55.4197056011 M -133.427713152,-50.3155476243 C -130.865459901,-51.8466044378 -131.612785261,-53.700460801 -132.141861497,-55.4197056011 M -91.8692153005,-75.1485422822 L -133.427713152,-50.3155476243 M -131.226989048,-59.0512703229 L -89.6684911961,-83.8842649808" fill="none" stroke="red" stroke-width="1"/>
	<path d="M -48.8223493863,-118.462690465 C -47.9369761179,-116.896779718 -46.8095613638,-115.24617123 -48.9841033981,-113.201348794 M -48.7072627912,-122.206090041 C -50.0862406666,-120.909373374 -49.530885293,-119.707700713 -48.8223493863,-118.462690465 M -83.9772738355,-89.0400676087 C -85.3562517109,-87.7433509422 -84.8008963373,-86.5416782813 -84.0923604307,-85.2966680332 M -84.2541144424,-80.0353263618 C -82.0795724081,-82.0801487975 -83.2069871623,-83.7307572861 -84.0923604307,-85.2966680332 M -48.9841033981,-113.201348794 L -84.2541144424,-80.0353263618 M -83.9772738355,-89.0400676087 L -48.7072627912,-122.206090041" fill="none" stroke="red" stroke-width="1"/>
	<path d="M -16.2140649709,-164.725798397 C -15.0140175437,-163.385761125 -13.5594138885,-162.014806288 -15.2457511573,-159.551923956 M -16.903011963,-168.406965787 C -17.9723965725,-166.845137967 -17.1726824034,-165.790238179 -16.2140649709,-164.725798397 M -44.25457986,-128.460215767 C -45.3239644695,-126.898387947 -44.5242503004,-125.843488159 -43.5656328679,-124.779048378 M -42.5973190543,-119.605173936 C -40.9109817855,-122.068056268 -42.3655854407,-123.439011105 -43.5656328679,-124.779048378 M -15.2457511573,-159.551923956 L -42.5973190543,-119.605173936 M -44.25457986,-128.460215767 L -16.903011963,-168.406965787" fill="none" stroke="red" stroke-width="1"/>
	<path d="M 5.66306118887,-216.926658212 C 7.12373738365,-215.876756524 8.83965278909,-214.851529269 7.72377163047,-212.083049027 M 4.19688334412,-220.372844698 C 3.48925138987,-218.617223082 4.49754328015,-217.759474024 5.66306118887,-216.926658212 M -13.9021647165,-175.469445661 C -14.6097966707,-173.713824045 -13.6015047804,-172.856074987 -12.4359868717,-172.023259175 M -10.3752764301,-167.179649991 C -9.2593952715,-169.948130232 -10.9753106769,-170.973357487 -12.4359868717,-172.023259175 M 7.72377163047,-212.083049027 L -10.3752764301,-167.179649991 M -13.9021647165,-175.469445661 L 4.19688334412,-220.372844698" fill="none" stroke="red" stroke-width="1"/>
	<path d="M 15.7368721975,-272.621566531 C 17.3900450679,-271.912335854 19.2870877965,-271.282388321 18.7962322654,-268.338060657 M 13.5601636896,-275.669244305 C 13.2488894503,-273.802109689 14.41882196,-273.182667202 15.7368721975,-272.621566531 M 5.59872641706,-227.913685856 C 5.28745217784,-226.04655124 6.4573846875,-225.427108753 7.77543492502,-224.866008083 M 10.8347949929,-220.582502208 C 11.325650524,-223.526829872 9.42860779539,-224.156777405 7.77543492502,-224.866008083 M 18.7962322654,-268.338060657 L 10.8347949929,-220.582502208 M 5.59872641706,-227.913685856 L 13.5601636896,-275.669244305" fill="none" stroke="red" stroke-width="1"/>
	<path d="M 13.6835355662,-329.186991601 C 15.4498946978,-328.846763074 17.4375897217,-328.636012374 17.5861311879,-325.654843904 M 10.9068721777,-331.700084461 C 11.001069205,-329.809587382 12.2761733401,-329.453992787 13.6835355662,-329.186991601 M 13.3161422998,-283.346986105 C 13.4103393271,-281.456489027 14.6854434622,-281.100894431 16.0928056883,-280.833893245 M 19.9954013099,-277.301745548 C 19.8468598438,-280.282914018 17.8591648199,-280.493664719 16.0928056883,-280.833893245 M 17.5861311879,-325.654843904 L 19.9954013099,-277.301745548 M 13.3161422998,-283.346986105 L 10.9068721777,-331.700084461" fill="none" stroke="red" stroke-width="1"/>
	<path d="M -0.468601268494,-383.986472705 C 1.32954280895,-384.033784673 3.31602009106,-384.255108791 4.10172140892,-381.375612461 M -3.72034674313,-385.844077427 C -3.22209712693,-384.018055364 -1.9004119006,-383.944793018 -0.468601268494,-383.986472705 M 9.02334536362,-339.140051578 C 9.52159497982,-337.314029515 10.8432802061,-337.240767169 12.2750908383,-337.282446856 M 16.8454135157,-334.671586612 C 16.0597121978,-337.551082943 14.0732349157,-337.329758824 12.2750908383,-337.282446856 M 4.10172140892,-381.375612461 L 16.8454135157,-334.671586612 M 9.02334536362,-339.140051578 L -3.72034674313,-385.844077427" fill="none" stroke="red" stroke-width="1"/>
	<path d="M -26.1303976569,-434.429678121 C -24.3850166588,-434.864708602 -22.4933862275,-435.510361158 -21.1035960135,-432.868877682 M -29.7069240096,-435.540174277 C -28.8255936299,-433.865087195 -27.5193281742,-434.079364053 -26.1303976569,-434.429678121 M -7.16520468466,-392.696600832 C -6.28387430504,-391.02151375 -4.97760884933,-391.235790608 -3.58867833202,-391.586104676 M 1.43812331138,-390.025304237 C 0.0483330973629,-392.666787713 -1.84329733395,-392.021135157 -3.58867833202,-391.586104676 M -21.1035960135,-432.868877682 L 1.43812331138,-390.025304237 M -7.16520468466,-392.696600832 L -29.7069240096,-435.540174277" fill="none" stroke="red" stroke-width="1"/>
	<path d="M -62.0319964196,-478.186006983 C -60.4207042924,-478.985707013 -58.7117999033,-480.022527223 -56.7871565823,-477.741039818 M -65.7636550813,-478.502597313 C -64.5431495607,-477.055800423 -63.3133359797,-477.545594196 -62.0319964196,-478.186006983 M -34.5468792659,-441.497984536 C -33.3263737453,-440.051187646 -32.0965601643,-440.540981419 -30.8152206042,-441.181394206 M -25.5703807669,-440.736427042 C -27.4950240879,-443.017914446 -29.203928477,-441.981094236 -30.8152206042,-441.181394206 M -56.7871565823,-477.741039818 L -25.5703807669,-440.736427042 M -34.5468792659,-441.497984536 L -65.7636550813,-478.502597313" fill="none" stroke="red" stroke-width="1"/>
	<path d="M -106.466628256,-513.24676897 C -105.063704052,-514.372726553 -103.616159285,-515.751205598 -101.247879801,-513.934278497 M -110.179723123,-512.757611826 C -108.677887353,-511.605414152 -107.581311754,-512.347011476 -106.466628256,-513.24676897 M -71.7673851497,-483.287940554 C -70.2655493794,-482.135742881 -69.1689737812,-482.877340204 -68.0542902832,-483.777097699 M -62.8355418281,-484.464607226 C -65.2038213122,-486.281534327 -66.6513660785,-484.903055282 -68.0542902832,-483.777097699 M -101.247879801,-513.934278497 L -62.8355418281,-484.464607226 M -71.7673851497,-483.287940554 L -110.179723123,-512.757611826" fill="none" stroke="red" stroke-width="1"/>
	<path d="M -157.399965917,-537.931752919 C -156.272083369,-539.333101295 -155.154940973,-540.990654855 -152.451315639,-539.725680455 M -160.920888241,-536.655388829 C -159.206394127,-535.853209941 -158.29501232,-536.813305897 -157.399965917,-537.931752919 M -117.069404175,-516.138121125 C -115.354910061,-515.335942238 -114.443528254,-516.296038194 -113.54848185,-517.414485216 M -108.599831573,-519.208412752 C -111.303456907,-520.473387152 -112.420599303,-518.815833592 -113.54848185,-517.414485216 M -152.451315639,-539.725680455 L -108.599831573,-519.208412752 M -117.069404175,-516.138121125 L -160.920888241,-536.655388829" fill="none" stroke="red" stroke-width="1"/>
	<path d="M -212.464502265,-551.01626151 C -211.666501304,-552.628459799 -210.934416805,-554.488475254 -208.021106277,-553.838377753 M -215.625940486,-549.008349953 C -213.778475274,-548.596093001 -213.096384604,-549.730642903 -212.464502265,-551.01626151 M -168.373464853,-538.464085594 C -166.52599964,-538.051828642 -165.843908971,-539.186378543 -165.212026631,-540.471997151 M -160.768630643,-543.294113393 C -163.681941171,-543.944210895 -164.414025671,-542.08419544 -165.212026631,-540.471997151 M -208.021106277,-553.838377753 L -160.768630643,-543.294113393 M -168.373464853,-538.464085594 L -215.625940486,-549.008349953" fill="none" stroke="red" stroke-width="1"/>
	<path d="M -269.057579457,-551.997665899 C -268.623287095,-553.743319361 -268.306442668,-555.716926389 -265.32153433,-555.705690958 M -271.715743594,-549.3594378 C -269.822874891,-549.352312893 -269.399532595,-550.606582774 -269.057579457,-551.997665899 M -223.301986391,-549.177204596 C -221.409117688,-549.170079689 -220.985775393,-550.42434957 -220.643822254,-551.815432695 M -216.907777127,-555.523457754 C -219.892685466,-555.534693184 -220.209529893,-553.561086157 -220.643822254,-551.815432695 M -265.32153433,-555.705690958 L -216.907777127,-555.523457754 M -223.301986391,-549.177204596 L -271.715743594,-549.3594378" fill="none" stroke="red" stroke-width="1"/>
	<path d="M -324.550853982,-540.849524194 C -324.500173459,-542.647598387 -324.612992785,-544.643204917 -321.694946786,-545.270939032 M -326.582807513,-537.703725372 C -324.732339318,-538.101800665 -324.587208806,-539.417551022 -324.550853982,-540.849524194 M -279.253524842,-547.885266519 C -277.403056647,-548.283341812 -277.257926135,-549.59909217 -277.221571311,-551.031065341 M -274.365664115,-555.45248018 C -277.283710114,-554.824746064 -277.170890788,-552.829139534 -277.221571311,-551.031065341 M -321.694946786,-545.270939032 L -274.365664115,-555.45248018 M -279.253524842,-547.885266519 L -326.582807513,-537.703725372" fill="none" stroke="red" stroke-width="1"/>
	<path d="M -376.314805256,-517.967882341 C -376.654318496,-519.734335592 -377.196193235,-521.658271491 -374.483060796,-522.902425488 M -377.618075765,-514.45699712 C -375.897552755,-515.245972825 -376.040507509,-516.56195868 -376.314805256,-517.967882341 M -333.612391086,-534.636568035 C -331.891868076,-535.42554374 -332.03482283,-536.741529595 -332.309120577,-538.147453256 M -330.477376117,-543.081996402 C -333.190508556,-541.837842406 -332.648633817,-539.913906507 -332.309120577,-538.147453256 M -374.483060796,-522.902425488 L -330.477376117,-543.081996402 M -333.612391086,-534.636568035 L -377.618075765,-514.45699712" fill="none" stroke="red" stroke-width="1"/>
	<path d="M -421.941825479,-484.478743095 C -422.653465088,-486.130824313 -423.596616186,-487.893164257 -421.214643198,-489.691969059 M -422.45920945,-480.769577433 C -420.948689994,-481.910282918 -421.371447022,-483.164725885 -421.941825479,-484.478743095 M -383.824769515,-509.945313853 C -382.314250059,-511.086019338 -382.737007087,-512.340462305 -383.307385544,-513.654479515 M -382.580203263,-518.867705479 C -384.962176251,-517.068900677 -384.019025152,-515.306560733 -383.307385544,-513.654479515 M -421.214643198,-489.691969059 L -382.580203263,-518.867705479 M -383.824769515,-509.945313853 L -422.45920945,-480.769577433" fill="none" stroke="red" stroke-width="1"/>
	<path d="M -459.34652312,-441.99757323 C -460.395188225,-443.45915988 -461.693599771,-444.978918076 -459.751628088,-447.245766115 M -459.058294402,-438.263528904 C -457.826800164,-439.701042295 -458.508185322,-440.836002972 -459.34652312,-441.99757323 M -427.560461011,-475.030698313 C -426.328966773,-476.468211704 -427.010351932,-477.60317238 -427.84868973,-478.764742639 M -428.253794698,-484.012935524 C -430.195766381,-481.746087485 -428.897354834,-480.226329288 -427.84868973,-478.764742639 M -459.751628088,-447.245766115 L -428.253794698,-484.012935524 M -427.560461011,-475.030698313 L -459.058294402,-438.263528904" fill="none" stroke="red" stroke-width="1"/>
	<path d="M -486.76260649,-392.481154642 C -488.100570532,-393.683518539 -489.694942049,-394.889082506 -488.284914279,-397.519934127 M -485.679497524,-388.896106158 C -484.785333573,-390.564451089 -485.69446847,-391.526655378 -486.76260649,-392.481154642 M -462.809534914,-431.567236107 C -461.915370963,-433.235581038 -462.82450586,-434.197785327 -463.89264388,-435.152284591 M -465.41495167,-440.191064076 C -466.824979439,-437.560212455 -465.230607922,-436.354648488 -463.89264388,-435.152284591 M -488.284914279,-397.519934127 L -465.41495167,-440.191064076 M -462.809534914,-431.567236107 L -485.679497524,-388.896106158" fill="none" stroke="red" stroke-width="1"/>
	<path d="M -502.827384966,-338.209392612 C -504.393689407,-339.094012341 -506.211028792,-339.926313805 -505.403216165,-342.799829692 M -500.99470311,-334.943335912 C -500.482431688,-336.765565499 -501.578120138,-337.508430966 -502.827384966,-338.209392612 M -487.892376354,-381.550361881 C -487.380104932,-383.372591467 -488.475793382,-384.115456935 -489.72505821,-384.81641858 M -492.300889409,-389.40685566 C -493.108702036,-386.533339773 -491.291362651,-385.701038309 -489.72505821,-384.81641858 M -505.403216165,-342.799829692 L -492.300889409,-389.40685566 M -487.892376354,-381.550361881 L -500.99470311,-334.943335912" fill="none" stroke="red" stroke-width="1"/>
	<path d="M -506.839427396,-281.751025882 C -508.559341584,-282.278142882 -510.513170932,-282.700181903 -510.342169907,-285.680228267 M -504.347256073,-278.95543201 C -504.238816399,-280.845217509 -505.468634543,-281.335096394 -506.839427396,-281.751025882 M -501.573702864,-327.290330354 C -501.465263189,-329.180115853 -502.695081333,-329.669994738 -504.065874186,-330.085924226 M -507.568616697,-334.015126611 C -507.739617722,-331.035080247 -505.785788374,-330.613041226 -504.065874186,-330.085924226 M -510.342169907,-285.680228267 L -507.568616697,-334.015126611 M -501.573702864,-327.290330354 L -504.347256073,-278.95543201" fill="none" stroke="red" stroke-width="1"/>
	<path d="M -498.718470604,-225.736408239 C -500.511185769,-225.884651876 -502.510025015,-225.880358857 -502.978397182,-228.828260327 M -495.687569298,-223.536581936 C -495.984585794,-225.405982869 -497.290547753,-225.622349053 -498.718470604,-225.736408239 M -503.284337372,-271.350105785 C -503.581353868,-273.219506718 -504.887315827,-273.435872902 -506.315238678,-273.549932088 M -510.575165257,-276.641784177 C -510.10679309,-273.693882706 -508.107953843,-273.698175725 -506.315238678,-273.549932088 M -502.978397182,-228.828260327 L -510.575165257,-276.641784177 M -503.284337372,-271.350105785 L -495.687569298,-223.536581936" fill="none" stroke="red" stroke-width="1"/>
	<path d="M -478.691157906,-172.803536905 C -480.473470903,-172.5607213 -482.424051835,-172.12442105 -483.51861055,-174.9012669 M -475.25646666,-171.311019964 C -475.950577065,-173.071946601 -477.272389346,-173.000866743 -478.691157906,-172.803536905 M -493.009675083,-216.350105102 C -493.703785488,-218.111031739 -495.025597769,-218.039951881 -496.444366329,-217.842622043 M -501.271818973,-219.940352039 C -500.177260258,-217.163506188 -498.226679325,-217.599806439 -496.444366329,-217.842622043 M -483.51861055,-174.9012669 L -501.271818973,-219.940352039 M -493.009675083,-216.350105102 L -475.25646666,-171.311019964" fill="none" stroke="red" stroke-width="1"/>
	<path d="M -447.715309187,-125.432031848 C -449.40342266,-124.810663169 -451.214139029,-123.964075593 -452.881665743,-126.439739467 M -444.039490708,-124.715056501 C -445.096946673,-126.28498969 -446.372397415,-125.930605092 -447.715309187,-125.432031848 M -471.085960571,-164.869116902 C -472.143416535,-166.439050091 -473.418867277,-166.084665493 -474.761779049,-165.586092249 M -479.928135605,-166.593799868 C -478.260608892,-164.118135994 -476.449892523,-164.96472357 -474.761779049,-165.586092249 M -452.881665743,-126.439739467 L -479.928135605,-166.593799868 M -471.085960571,-164.869116902 L -444.039490708,-124.715056501" fill="none" stroke="red" stroke-width="1"/>
	<path d="M -407.311144813,-85.7925069019 C -408.827088149,-84.824100948 -410.414571126,-83.6094461644 -412.573507368,-85.6706930958 M -403.567018887,-85.8791763826 C -404.936100407,-87.186308583 -406.106109991,-86.567052965 -407.311144813,-85.7925069019 M -438.583911608,-119.311596124 C -439.952993127,-120.618728324 -441.123002712,-119.999472706 -442.328037534,-119.224926643 M -447.590400089,-119.103112837 C -445.431463846,-117.041865905 -443.84398087,-118.256520689 -442.328037534,-119.224926643 M -412.573507368,-85.6706930958 L -447.590400089,-119.103112837 M -438.583911608,-119.311596124 L -403.567018887,-85.8791763826" fill="none" stroke="red" stroke-width="1"/>
	<path d="M -359.350500195,-55.7327060102 C -360.623685637,-54.4618673332 -361.913970484,-52.9351638141 -364.464574822,-54.4858222578 M -355.711879861,-56.6198531298 C -357.329336271,-57.6031975088 -358.339454151,-56.7475477824 -359.350500195,-55.7327060102 M -397.081438027,-81.7707766681 C -398.698894436,-82.754121047 -399.709012317,-81.8984713207 -400.720058361,-80.8836295484 M -405.834132988,-79.6367457961 C -403.28352865,-78.0860873524 -401.993243803,-79.6127908715 -400.720058361,-80.8836295484 M -364.464574822,-54.4858222578 L -405.834132988,-79.6367457961 M -397.081438027,-81.7707766681 L -355.711879861,-56.6198531298" fill="none" stroke="red" stroke-width="1"/>
	<path d="M -306.039296374,-36.7339706266 C -307.007991241,-35.218263113 -307.938135204,-33.4490460754 -310.763272676,-34.4123296965 M -302.67822766,-38.3857982811 C -304.469778252,-38.9966610652 -305.271270519,-37.9431308073 -306.039296374,-36.7339706266 M -348.500579343,-54.0097887209 C -350.292129935,-54.6206515051 -351.093622202,-53.5671212472 -351.861648057,-52.3579610665 M -356.585624359,-50.0363201363 C -353.760486887,-49.0730365152 -352.830342924,-50.8422535529 -351.861648057,-52.3579610665 M -310.763272676,-34.4123296965 L -356.585624359,-50.0363201363 M -348.500579343,-54.0097887209 L -302.67822766,-38.3857982811" fill="none" stroke="red" stroke-width="1"/>
	<path d="M -249.879305142,-29.689396716 C -250.498080111,-28.0003349676 -251.024502374,-26.0720542552 -253.990985306,-26.4029578608 M -246.95387989,-32.0276698379 C -248.835064189,-32.2375111488 -249.390316971,-31.0358249331 -249.879305142,-29.689396716 M -295.068785983,-37.3947649044 C -296.949970282,-37.6046062152 -297.505223064,-36.4029199995 -297.994211235,-35.0564917824 M -302.105891399,-31.7700529272 C -299.139408467,-31.4391493216 -298.612986205,-33.367430034 -297.994211235,-35.0564917824 M -253.990985306,-26.4029578608 L -302.105891399,-31.7700529272 M -295.068785983,-37.3947649044 L -246.95387989,-32.0276698379" fill="none" stroke="red" stroke-width="1"/>
</svg>
