<?xml version="1.0" ?>
<svg baseProfile="full" height="600px" version="1.1" viewBox="-31.4723205281 -31.4751617262 662.936054459 662.941982419" width="600px" xmlns="http://www.w3.org/2000/svg" xmlns:ev="http://www.w3.org/2001/xml-events" xmlns:xlink="http://www.w3.org/1999/xlink">
	<defs/>
	<path d="M 300.0,174.0 L 305.986191538,174.138956765 L 311.924455403,174.553812315 L 317.807072026,175.241532518 L 323.626325776,176.199067992 L 329.374505421,177.423355021 L 335.043904349,178.911316343 L 340.626820627,180.659861789 L 346.115556938,182.665888727 L 351.502420456,184.926282302 L 349.460193037,189.490195883 M 344.28955768,187.320534439 L 349.460193037,189.490195883 M 339.020996592,185.394978384 L 344.28955768,187.320534439 M 333.661673026,183.716463226 L 339.020996592,185.394978384 M 328.218743493,182.287942811 L 333.661673026,183.716463226 M 322.699357583,181.112389676 L 328.218743493,182.287942811 M 317.11065787,180.192795723 L 322.699357583,181.112389676 M 311.45977999,179.532173166 L 317.11065787,180.192795723 M 305.753852988,179.133555728 L 311.45977999,179.532173166 M 300.0,179.0 L 305.753852988,179.133555728 M 300.0,179.0 L 300.0,174.0" fill="none" stroke="red" stroke-width="2.551991658967"/>
	<path d="M 363.034600543,190.823939506 L 368.009424686,193.860105129 L 372.851801959,197.134239228 L 377.55421364,200.643222373 L 382.109146954,204.383921278 L 386.509096076,208.35318839 L 390.742317706,212.543530801 L 394.761494995,216.908342167 L 398.552799171,221.429789577 L 402.113079493,226.100368899 L 398.067179532,229.038173097 M 394.647835509,224.552490138 L 398.067179532,229.038173097 M 391.005712535,220.208963035 L 394.647835509,224.552490138 M 387.143543594,216.014672528 L 391.005712535,220.208963035 M 383.074849707,211.987187822 L 387.143543594,216.014672528 M 378.847086251,208.173243113 L 383.074849707,211.987187822 M 374.471646516,204.57994435 L 378.847086251,208.173243113 M 369.955608708,201.210029294 L 374.471646516,204.57994435 M 365.306040607,198.066257114 L 369.955608708,201.210029294 M 360.53000107,195.151407759 L 365.306040607,198.066257114 M 360.53000107,195.151407759 L 363.034600543,190.823939506" fill="none" stroke="red" stroke-width="2.551991658967"/>
	<path d="M 409.176060494,236.965399457 L 411.99609748,242.113315968 L 414.567357633,247.380757156 L 416.886673259,252.759977095 L 418.950889198,258.243225454 L 420.756862627,263.822747488 L 422.301463055,269.490783933 L 423.581572524,275.239570884 L 424.594086021,281.061339712 L 425.335912082,286.94831709 L 420.361884271,287.457284027 M 419.649321722,281.802491538 L 420.361884271,287.457284027 M 418.67696729,276.211603548 L 419.649321722,281.802491538 M 417.447853718,270.691815326 L 418.67696729,276.211603548 M 415.964993421,265.250329188 L 417.447853718,270.691815326 M 414.231379398,259.894354535 L 415.964993421,265.250329188 M 412.249985849,254.631107732 L 414.231379398,259.894354535 M 410.023768477,249.467811919 L 412.249985849,254.631107732 M 407.555664476,244.411696862 L 410.023768477,249.467811919 M 404.848592241,239.46999893 L 407.555664476,244.411696862 M 404.848592241,239.46999893 L 409.176060494,236.965399457" fill="none" stroke="red" stroke-width="2.551991658967"/>
	<path d="M 425.999999998,300.000769492 L 425.861011254,305.986879001 L 425.446131141,311.925061174 L 424.758393678,317.80759674 L 423.800848129,323.626770366 L 422.576558095,329.374871114 L 421.088600719,335.044192669 L 419.340066054,340.627033396 L 417.334056613,346.115696273 L 415.073687129,351.502488769 L 410.509774776,349.460258609 M 412.679413094,344.289691423 L 410.509774776,349.460258609 M 414.604952352,339.021200832 L 412.679413094,344.289691423 M 416.283457154,333.661949813 L 414.604952352,339.021200832 M 417.71197377,328.219094602 L 416.283457154,333.661949813 M 418.887529776,322.699784514 L 417.71197377,328.219094602 M 419.807133389,317.111161851 L 418.887529776,322.699784514 M 420.467772511,311.460361974 L 419.807133389,317.111161851 M 420.866413538,305.754513656 L 420.467772511,311.460361974 M 420.999999998,300.000739758 L 420.866413538,305.754513656 M 420.999999998,300.000739758 L 425.999999998,300.000769492" fill="none" stroke="red" stroke-width="2.551991658967"/>
	<path d="M 409.176060494,363.034600543 L 406.139894871,368.009424686 L 402.865760772,372.851801959 L 399.356777627,377.55421364 L 395.616078722,382.109146954 L 391.64681161,386.509096076 L 387.456469199,390.742317706 L 383.091657833,394.761494995 L 378.570210423,398.552799171 L 373.899631101,402.113079493 L 370.961826903,398.067179532 M 375.447509862,394.647835509 L 370.961826903,398.067179532 M 379.791036965,391.005712535 L 375.447509862,394.647835509 M 383.985327472,387.143543594 L 379.791036965,391.005712535 M 388.012812178,383.074849707 L 383.985327472,387.143543594 M 391.826756887,378.847086251 L 388.012812178,383.074849707 M 395.42005565,374.471646516 L 391.826756887,378.847086251 M 398.789970706,369.955608708 L 395.42005565,374.471646516 M 401.933742886,365.306040607 L 398.789970706,369.955608708 M 404.848592241,360.53000107 L 401.933742886,365.306040607 M 404.848592241,360.53000107 L 409.176060494,363.034600543" fill="none" stroke="red" stroke-width="2.551991658967"/>
	<path d="M 363.034600543,409.176060494 L 357.886684032,411.99609748 L 352.619242844,414.567357633 L 347.240022905,416.886673259 L 341.756774546,418.950889198 L 336.177252512,420.756862627 L 330.509216067,422.301463055 L 324.760429116,423.581572524 L 318.938660288,424.594086021 L 313.05168291,425.335912082 L 312.542715973,420.361884271 M 318.197508462,419.649321722 L 312.542715973,420.361884271 M 323.788396452,418.67696729 L 318.197508462,419.649321722 M 329.308184674,417.447853718 L 323.788396452,418.67696729 M 334.749670812,415.964993421 L 329.308184674,417.447853718 M 340.105645465,414.231379398 L 334.749670812,415.964993421 M 345.368892268,412.249985849 L 340.105645465,414.231379398 M 350.532188081,410.023768477 L 345.368892268,412.249985849 M 355.588303138,407.555664476 L 350.532188081,410.023768477 M 360.53000107,404.848592241 L 355.588303138,407.555664476 M 360.53000107,404.848592241 L 363.034600543,409.176060494" fill="none" stroke="red" stroke-width="2.551991658967"/>
	<path d="M 300.000769492,425.999999998 L 294.014495925,425.861075213 L 288.076150369,425.446244225 L 282.19345269,424.758541284 L 276.374118813,423.801015885 L 270.625860272,422.576731862 L 264.956383972,421.088766594 L 259.373392142,419.340210368 L 253.884582397,417.334165934 L 248.497647857,415.073748266 L 250.539872534,410.509833459 M 255.710576063,412.679518027 L 250.539872534,410.509833459 M 260.979207648,414.60509088 L 255.710576063,412.679518027 M 266.33860376,416.283616393 L 260.979207648,414.60509088 M 271.781607615,417.712140607 L 266.33860376,416.283616393 M 277.301069349,418.88769087 L 271.781607615,417.712140607 M 282.889846112,419.807275163 L 277.301069349,418.88769087 M 288.540801995,420.467881154 L 282.889846112,419.807275163 M 294.246807681,420.866475004 L 288.540801995,420.467881154 M 300.000739758,420.999999998 L 294.246807681,420.866475004 M 300.000739758,420.999999998 L 300.000769492,425.999999998" fill="none" stroke="red" stroke-width="2.551991658967"/>
	<path d="M 236.965399457,409.176060494 L 231.990575314,406.139894871 L 227.148198041,402.865760772 L 222.44578636,399.356777627 L 217.890853046,395.616078722 L 213.490903924,391.64681161 L 209.257682294,387.456469199 L 205.238505005,383.091657833 L 201.447200829,378.570210423 L 197.886920507,373.899631101 L 201.932820468,370.961826903 M 205.352164491,375.447509862 L 201.932820468,370.961826903 M 208.994287465,379.791036965 L 205.352164491,375.447509862 M 212.856456406,383.985327472 L 208.994287465,379.791036965 M 216.925150293,388.012812178 L 212.856456406,383.985327472 M 221.152913749,391.826756887 L 216.925150293,388.012812178 M 225.528353484,395.42005565 L 221.152913749,391.826756887 M 230.044391292,398.789970706 L 225.528353484,395.42005565 M 234.693959393,401.933742886 L 230.044391292,398.789970706 M 239.46999893,404.848592241 L 234.693959393,401.933742886 M 239.46999893,404.848592241 L 236.965399457,409.176060494" fill="none" stroke="red" stroke-width="2.551991658967"/>
	<path d="M 190.823939506,363.034600543 L 188.00390252,357.886684032 L 185.432642367,352.619242844 L 183.113326741,347.240022905 L 181.049110802,341.756774546 L 179.243137373,336.177252512 L 177.698536945,330.509216067 L 176.418427476,324.760429116 L 175.405913979,318.938660288 L 174.664087918,313.05168291 L 179.638115729,312.542715973 M 180.350678278,318.197508462 L 179.638115729,312.542715973 M 181.32303271,323.788396452 L 180.350678278,318.197508462 M 182.552146282,329.308184674 L 181.32303271,323.788396452 M 184.035006579,334.749670812 L 182.552146282,329.308184674 M 185.768620602,340.105645465 L 184.035006579,334.749670812 M 187.750014151,345.368892268 L 185.768620602,340.105645465 M 189.976231523,350.532188081 L 187.750014151,345.368892268 M 192.444335524,355.588303138 L 189.976231523,350.532188081 M 195.151407759,360.53000107 L 192.444335524,355.588303138 M 195.151407759,360.53000107 L 190.823939506,363.034600543" fill="none" stroke="red" stroke-width="2.551991658967"/>
	<path d="M 174.000000002,300.000769492 L 174.138924787,294.014495925 L 174.553755775,288.076150369 L 175.241458716,282.19345269 L 176.198984115,276.374118813 L 177.423268138,270.625860272 L 178.911233406,264.956383972 L 180.659789632,259.373392142 L 182.665834066,253.884582397 L 184.926251734,248.497647857 L 189.490166541,250.539872534 M 187.320481973,255.710576063 L 189.490166541,250.539872534 M 185.39490912,260.979207648 L 187.320481973,255.710576063 M 183.716383607,266.33860376 L 185.39490912,260.979207648 M 182.287859393,271.781607615 L 183.716383607,266.33860376 M 181.11230913,277.301069349 L 182.287859393,271.781607615 M 180.192724837,282.889846112 L 181.11230913,277.301069349 M 179.532118846,288.540801995 L 180.192724837,282.889846112 M 179.133524996,294.246807681 L 179.532118846,288.540801995 M 179.000000002,300.000739758 L 179.133524996,294.246807681 M 179.000000002,300.000739758 L 174.000000002,300.000769492" fill="none" stroke="red" stroke-width="2.551991658967"/>
	<path d="M 190.823939506,236.965399457 L 193.860105129,231.990575314 L 197.134239228,227.148198041 L 200.643222373,222.44578636 L 204.383921278,217.890853046 L 208.35318839,213.490903924 L 212.543530801,209.257682294 L 216.908342167,205.238505005 L 221.429789577,201.447200829 L 226.100368899,197.886920507 L 229.038173097,201.932820468 M 224.552490138,205.352164491 L 229.038173097,201.932820468 M 220.208963035,208.994287465 L 224.552490138,205.352164491 M 216.014672528,212.856456406 L 220.208963035,208.994287465 M 211.987187822,216.925150293 L 216.014672528,212.856456406 M 208.173243113,221.152913749 L 211.987187822,216.925150293 M 204.57994435,225.528353484 L 208.173243113,221.152913749 M 201.210029294,230.044391292 L 204.57994435,225.528353484 M 198.066257114,234.693959393 L 201.210029294,230.044391292 M 195.151407759,239.46999893 L 198.066257114,234.693959393 M 195.151407759,239.46999893 L 190.823939506,236.965399457" fill="none" stroke="red" stroke-width="2.551991658967"/>
	<path d="M 236.965399457,190.823939506 L 242.113315968,188.00390252 L 247.380757156,185.432642367 L 252.759977095,183.113326741 L 258.243225454,181.049110802 L 263.822747488,179.243137373 L 269.490783933,177.698536945 L 275.239570884,176.418427476 L 281.061339712,175.405913979 L 286.94831709,174.664087918 L 287.457284027,179.638115729 M 281.802491538,180.350678278 L 287.457284027,179.638115729 M 276.211603548,181.32303271 L 281.802491538,180.350678278 M 270.691815326,182.552146282 L 276.211603548,181.32303271 M 265.250329188,184.035006579 L 270.691815326,182.552146282 M 259.894354535,185.768620602 L 265.250329188,184.035006579 M 254.631107732,187.750014151 L 259.894354535,185.768620602 M 249.467811919,189.976231523 L 254.631107732,187.750014151 M 244.411696862,192.444335524 L 249.467811919,189.976231523 M 239.46999893,195.151407759 L 244.411696862,192.444335524 M 239.46999893,195.151407759 L 236.965399457,190.823939506" fill="none" stroke="red" stroke-width="2.551991658967"/>
	<path d="M 300.0,99.0 L 305.673672204,99.0780959958 L 311.320229116,99.311989131 L 316.93855659,99.7010820275 L 322.527538859,100.244770321 L 328.086059323,100.942442505 L 333.613001357,101.793479871 L 339.107249121,102.79725655 L 344.567688359,103.953139646 L 349.993207177,105.260489474 L 348.754456185,110.104609206 M 343.464148907,108.829839419 L 348.754456185,110.104609206 M 338.140079862,107.702823145 L 343.464148907,108.829839419 M 332.783130362,106.724130349 L 338.140079862,107.702823145 M 327.394178177,105.894341179 L 332.783130362,106.724130349 M 321.9740987,105.214046324 L 327.394178177,105.894341179 M 316.523766146,104.683847212 L 321.9740987,105.214046324 M 311.044054771,104.304356078 L 316.523766146,104.683847212 M 305.535840079,104.076195865 L 311.044054771,104.304356078 M 300.0,104.0 L 305.535840079,104.076195865 M 300.0,104.0 L 300.0,99.0" fill="none" stroke="red" stroke-width="2.551991658967"/>
	<path d="M 362.145195826,108.777691202 L 367.451321266,110.575814993 L 372.717791922,112.522739869 L 377.943517525,114.61779656 L 383.112813326,116.872810534 L 388.199452159,119.265080538 L 393.207325603,121.794396266 L 398.135001012,124.459356299 L 402.981048763,127.258555257 L 407.744042573,130.190584111 L 405.063671931,134.411438671 M 400.419754216,131.552710616 L 405.063671931,134.411438671 M 395.695017921,128.823583896 L 400.419754216,131.552710616 M 390.890735191,126.22535653 L 395.695017921,128.823583896 M 386.008173155,123.759332014 L 390.890735191,126.22535653 M 381.048594413,121.426819787 L 386.008173155,123.759332014 M 376.020325559,119.233133239 L 381.048594413,121.426819787 M 370.920337915,117.188483014 L 376.020325559,119.233133239 M 365.781815859,115.288855592 L 370.920337915,117.188483014 M 360.605676477,113.534778565 L 365.781815859,115.288855592 M 360.605676477,113.534778565 L 362.145195826,108.777691202" fill="none" stroke="red" stroke-width="2.551991658967"/>
	<path d="M 418.213015553,137.311982859 L 422.680857782,140.656792489 L 427.060180804,144.127586452 L 431.349592928,147.722956052 L 435.547706779,151.441491279 L 439.653139308,155.281781181 L 443.666519496,159.25280819 L 447.556530175,163.333501214 L 451.319754965,167.507209025 L 454.955450564,171.77252904 L 451.105341232,174.96261652 M 447.560098418,170.803416337 L 451.105341232,174.96261652 M 443.889961351,166.73295309 L 447.560098418,170.803416337 M 440.095504041,162.752500836 L 443.889961351,166.73295309 M 436.188442227,158.886760257 L 440.095504041,162.752500836 M 432.181857308,155.138930574 L 436.188442227,158.886760257 M 428.085625941,151.510636016 L 432.181857308,155.138930574 M 423.901052507,148.00313911 L 428.085625941,151.510636016 M 419.629434898,144.617703796 L 423.901052507,148.00313911 M 415.272064531,141.355595982 L 419.629434898,144.617703796 M 415.272064531,141.355595982 L 418.213015553,137.311982859" fill="none" stroke="red" stroke-width="2.551991658967"/>
	<path d="M 462.720361466,181.77238242 L 465.947728216,186.346712886 L 469.043318557,191.007343865 L 472.006402113,195.752832671 L 474.836253947,200.581733914 L 477.532154788,205.492600066 L 480.093391187,210.483982047 L 482.51925561,215.554429813 L 484.809046459,220.70249294 L 486.961277799,225.903319492 L 482.315338478,227.751358406 M 480.212931308,222.671179181 L 482.315338478,227.751358406 M 477.979362209,217.649511649 L 480.212931308,222.671179181 M 475.613478541,212.704428552 L 477.979362209,217.649511649 M 473.115938538,207.837175514 L 475.613478541,212.704428552 M 470.48739153,203.04899873 L 473.115938538,207.837175514 M 467.728477973,198.341145839 L 470.48739153,203.04899873 M 464.83982959,193.714866811 L 467.728477973,198.341145839 M 461.822069605,189.171414821 L 464.83982959,193.714866811 M 458.675813087,184.712047098 L 461.822069605,189.171414821 M 458.675813087,184.712047098 L 462.720361466,181.77238242" fill="none" stroke="red" stroke-width="2.551991658967"/>
	<path d="M 491.269448557,237.838186725 L 492.923170661,243.184866904 L 494.422993344,248.572141176 L 495.768900798,253.998283891 L 496.960883556,259.461569375 L 497.99893842,264.960272561 L 498.883068319,270.492669598 L 499.613282106,276.057038426 L 500.189594285,281.651659311 L 500.612024698,287.274815329 L 495.621390279,287.580704365 M 495.209291758,282.095040347 L 495.621390279,287.580704365 M 494.647200957,276.638448801 L 495.209291758,282.095040347 M 493.935147637,271.212447985 L 494.647200957,276.638448801 M 493.073153559,265.818551945 L 493.935147637,271.212447985 M 492.061231997,260.458271236 L 493.073153559,265.818551945 M 490.899387349,255.133113731 L 492.061231997,260.458271236 M 489.587614815,249.844585472 L 490.899387349,255.133113731 M 488.125900196,244.594191596 L 489.587614815,249.844585472 M 486.514219778,239.383437273 L 488.125900196,244.594191596 M 486.514219778,239.383437273 L 491.269448557,237.838186725" fill="none" stroke="red" stroke-width="2.551991658967"/>
	<path d="M 500.999999765,299.990054572 L 500.922176837,305.663769989 L 500.688555727,311.310375459 L 500.299733796,316.92875344 L 499.756315396,322.517788166 L 499.058912022,328.07636304 L 498.208142369,333.603361435 L 497.204632294,339.097667508 L 496.049014681,344.558167002 L 494.741929203,349.983748016 L 489.897749288,348.745232393 M 491.172261148,343.454865147 L 489.897749288,348.745232393 M 492.2990185,338.130737677 L 491.172261148,343.454865147 M 493.277451361,332.773731288 L 492.2990185,338.130737677 M 494.106979562,327.384723745 L 493.277451361,332.773731288 M 494.787012399,321.964590439 L 494.106979562,327.384723745 M 495.316948423,316.514205584 L 494.787012399,321.964590439 M 495.696175381,311.034443436 L 495.316948423,316.514205584 M 495.92407031,305.526179502 L 495.696175381,311.034443436 M 495.999999771,299.990290546 L 495.92407031,305.526179502 M 495.999999771,299.990290546 L 500.999999765,299.990054572" fill="none" stroke="red" stroke-width="2.551991658967"/>
	<path d="M 491.225321949,362.135884479 L 489.427407877,367.442222371 L 487.480683461,372.7089052 L 485.385818019,377.934842596 L 483.130998046,383.104410453 L 480.738886795,388.191314803 L 478.209720095,393.199451781 L 475.544899472,398.127388621 L 472.745830414,402.973695579 L 469.813922061,407.736946249 L 465.592954957,405.056752841 M 468.451565322,400.412585014 L 465.592954957,405.056752841 M 471.180565306,395.687596154 L 468.451565322,400.412585014 M 473.778656774,390.883058498 L 471.180565306,395.687596154 M 476.244536115,386.000239276 L 473.778656774,390.883058498 M 478.576893773,381.040401181 L 476.244536115,386.000239276 M 480.770394825,376.011858263 L 478.576893773,381.040401181 M 482.814857529,370.911666103 L 480.770394825,376.011858263 M 484.714288635,365.772938991 L 482.814857529,370.911666103 M 486.4681605,360.596594075 L 484.714288635,365.772938991 M 486.4681605,360.596594075 L 491.225321949,362.135884479" fill="none" stroke="red" stroke-width="2.551991658967"/>
	<path d="M 462.69356938,418.205381216 L 459.348974182,422.673371972 L 455.878392272,427.052845883 L 452.283232344,431.34241125 L 448.564904408,435.540680691 L 444.724819411,439.646271151 L 440.754017609,443.659829714 L 436.673483243,447.550054245 L 432.499931724,451.313494152 L 428.234765625,454.949406127 L 425.044496211,451.099447548 M 429.203547229,447.553992954 L 425.044496211,451.099447548 M 433.273859164,443.883645086 L 429.203547229,447.553992954 M 437.254157947,440.088977946 L 433.273859164,443.883645086 M 441.119682083,436.181738737 L 437.254157947,440.088977946 M 444.867310492,432.175001082 L 441.119682083,436.181738737 M 448.495401644,428.078619194 L 444.867310492,432.175001082 M 452.00269301,423.893897445 L 448.495401644,428.078619194 M 455.387920648,419.622133714 L 452.00269301,423.893897445 M 458.649818647,415.264619408 L 455.387920648,419.622133714 M 458.649818647,415.264619408 L 462.69356938,418.205381216" fill="none" stroke="red" stroke-width="2.551991658967"/>
	<path d="M 418.234297881,462.715505867 L 413.661557344,465.942065558 L 409.00256834,469.036933559 L 404.258772178,471.999380181 L 399.431612874,474.828681161 L 394.522536573,477.524117896 L 389.532990979,480.084977598 L 384.464424756,482.510553385 L 379.31828695,484.800144304 L 374.09656636,486.940425634 L 372.265812269,482.287648027 M 377.349092489,480.204246875 L 372.265812269,482.287648027 M 382.368878276,477.970874436 L 377.349092489,480.204246875 M 387.312123511,475.605273624 L 382.368878276,477.970874436 M 392.177583749,473.108102016 L 387.312123511,475.605273624 M 396.964013978,470.480008296 L 392.177583749,473.108102016 M 401.670167735,467.721632288 L 396.964013978,470.480008296 M 406.294796232,464.833605091 L 401.670167735,467.721632288 M 410.836647475,461.81654932 L 406.294796232,464.833605091 M 415.294465419,458.671079444 L 410.836647475,461.81654932 M 415.294465419,458.671079444 L 418.234297881,462.715505867" fill="none" stroke="red" stroke-width="2.551991658967"/>
	<path d="M 362.151015358,491.220425346 L 356.798984088,492.871414644 L 351.409391675,494.371863768 L 345.983348068,495.721115416 L 340.521967188,496.918518277 L 335.026366256,497.963427454 L 329.497665064,498.855204817 L 323.936985207,499.593219258 L 318.345449278,500.176846857 L 312.724180048,500.60547095 L 312.413449833,495.615135617 M 317.895820315,495.197104515 L 312.413449833,495.615135617 M 323.348484745,494.627973321 L 317.895820315,495.197104515 M 328.770564225,493.908354873 L 323.348484745,494.627973321 M 334.161179585,493.038851125 L 328.770564225,493.908354873 M 339.51945016,492.020053251 L 334.161179585,493.038851125 M 344.844492584,490.852541889 L 339.51945016,492.020053251 M 350.135419629,489.536887529 L 344.844492584,490.852541889 M 355.391339119,488.073651036 L 350.135419629,489.536887529 M 360.611352921,486.463384294 L 355.391339119,488.073651036 M 360.611352921,486.463384294 L 362.151015358,491.220425346" fill="none" stroke="red" stroke-width="2.551991658967"/>
	<path d="M 300.006217033,500.999999907 L 294.332639587,500.922077967 L 288.686174974,500.688365038 L 283.067937298,500.299458451 L 277.47904225,499.755962523 L 271.920606356,499.058488712 L 266.393746169,498.207655677 L 260.899577457,497.204089238 L 255.439214405,496.04842224 L 250.013768838,494.741294318 L 251.252346248,489.8971302 M 256.542581605,491.171683491 L 251.252346248,489.8971302 M 261.866576132,492.298489014 L 256.542581605,491.171683491 M 267.223448581,493.276976828 L 261.866576132,492.298489014 M 272.612321242,494.106566811 L 267.223448581,493.276976828 M 278.032318782,494.7866683 L 272.612321242,494.106566811 M 283.482567044,495.316679891 L 278.032318782,494.7866683 M 288.96219183,495.695989381 L 283.482567044,495.316679891 M 294.470317689,495.923973852 L 288.96219183,495.695989381 M 300.006066714,495.999999909 L 294.470317689,495.923973852 M 300.006066714,495.999999909 L 300.006217033,500.999999907" fill="none" stroke="red" stroke-width="2.551991658967"/>
	<path d="M 237.860623752,491.224192071 L 232.554435192,489.426224027 L 227.287900531,487.479453024 L 222.062110058,485.384548335 L 216.892708615,483.129692324 L 211.805966234,480.737561227 L 206.797988311,478.208381848 L 201.870207512,475.543555617 L 197.024053477,472.744487925 L 192.26095251,469.812587815 L 194.941198398,465.591654035 M 199.585220362,468.450256423 L 194.941198398,465.591654035 M 204.310060175,471.179255102 L 199.585220362,468.450256423 M 209.114445684,473.777352031 L 204.310060175,471.179255102 M 213.997109749,476.243243693 L 209.114445684,473.777352031 M 218.956789762,478.575620627 L 213.997109749,476.243243693 M 223.98516733,480.769155531 L 218.956789762,478.575620627 M 229.085216876,482.813656848 L 223.98516733,480.769155531 M 234.223800133,484.713133672 L 229.085216876,482.813656848 M 239.400000011,486.467058403 L 234.223800133,484.713133672 M 239.400000011,486.467058403 L 237.860623752,491.224192071" fill="none" stroke="red" stroke-width="2.551991658967"/>
	<path d="M 181.792710177,462.692181355 L 177.324569388,459.34738837 L 172.944953584,455.876598668 L 168.655254638,452.281221121 L 164.456860106,448.562665918 L 160.351153215,444.722344188 L 156.33749429,440.75128728 L 152.447193406,436.670514844 L 148.683688411,432.49671839 L 145.047722706,428.231300675 L 148.897752894,425.041117679 M 152.443259518,429.200413627 L 148.897752894,425.041117679 M 156.113670425,433.270963951 L 152.443259518,429.200413627 M 159.908411534,437.251494425 L 156.113670425,433.270963951 M 163.815747382,441.117266205 L 159.908411534,437.251494425 M 167.822599168,444.86512612 L 163.815747382,441.117266205 M 171.919103548,448.49343941 L 167.822599168,444.86512612 M 176.103955982,452.000943387 L 171.919103548,448.49343941 M 180.375858419,455.386373948 L 176.103955982,452.000943387 M 184.733519288,458.648465023 L 180.375858419,455.386373948 M 184.733519288,458.648465023 L 181.792710177,462.692181355" fill="none" stroke="red" stroke-width="2.551991658967"/>
	<path d="M 137.282413127,418.231434918 L 134.055998191,413.658729578 L 130.961270247,408.99978002 L 127.99895894,404.256027475 L 125.169788487,399.428915872 L 122.474477446,394.519891275 L 119.913738561,389.530401301 L 117.488278668,384.461894532 L 115.198798676,379.315819928 L 113.058633661,374.094175559 L 117.711433958,372.263479135 M 119.794721957,377.346685806 L 117.711433958,372.263479135 M 122.027986399,382.366410407 L 119.794721957,377.346685806 M 124.393474377,387.309598063 L 122.027986399,382.366410407 M 126.890528347,392.175004402 L 124.393474377,387.309598063 M 129.518499658,396.961384484 L 126.890528347,392.175004402 M 132.27674852,401.667491922 L 129.518499658,396.961384484 M 135.164643865,406.292078002 L 132.27674852,401.667491922 M 138.181563111,410.833890805 L 135.164643865,406.292078002 M 141.326891818,415.291674363 L 138.181563111,410.833890805 M 141.326891818,415.291674363 L 137.282413127,418.231434918" fill="none" stroke="red" stroke-width="2.551991658967"/>
	<path d="M 108.778444561,362.147523645 L 107.127553613,356.795467419 L 105.627203272,351.405850775 L 104.278050835,345.979783667 L 103.080747609,340.518380016 L 102.035938486,335.022757044 L 101.144261594,329.494034547 L 100.406348035,323.93333412 L 99.8228217232,318.341778356 L 99.3942993192,312.720490026 L 104.384640311,312.40985071 M 104.802572278,317.892240354 L 104.384640311,312.40985071 M 105.37160474,323.344924522 L 104.802572278,317.892240354 M 106.091124855,328.767024315 L 105.37160474,323.344924522 M 106.96053066,334.157660564 L 106.091124855,328.767024315 M 107.979230975,339.515952605 L 106.96053066,334.157660564 M 109.146645154,344.841017075 L 107.979230975,339.515952605 M 110.462202702,350.131966749 L 109.146645154,344.841017075 M 111.925342747,355.387909453 L 110.462202702,350.131966749 M 113.5355134,360.60794706 L 111.925342747,355.387909453 M 113.5355134,360.60794706 L 108.778444561,362.147523645" fill="none" stroke="red" stroke-width="2.551991658967"/>
	<path d="M 99.000000015,300.002486817 L 99.0780277522,294.328803005 L 99.3118528885,288.682233991 L 99.700878049,283.063893929 L 100.244498872,277.474898584 L 100.942103855,271.916364555 L 101.793074292,266.389408468 L 102.796784316,260.895146164 L 103.952601037,255.434691898 L 105.25988477,250.009157567 L 110.104019549,251.247849718 M 108.829314251,256.538171953 L 110.104019549,251.247849718 M 107.702362713,261.862255568 L 108.829314251,256.538171953 M 106.723734903,267.219219255 L 107.702362713,261.862255568 M 105.894010976,272.608185243 L 106.723734903,267.219219255 M 105.213781624,278.028278141 L 105.894010976,272.608185243 M 104.683648281,283.478623732 L 105.213781624,278.028278141 M 104.304223186,288.958347763 L 104.683648281,283.478623732 M 104.076129287,294.466574728 L 104.304223186,288.958347763 M 104.000000015,300.002426689 L 104.076129287,294.466574728 M 104.000000015,300.002426689 L 99.000000015,300.002486817" fill="none" stroke="red" stroke-width="2.551991658967"/>
	<path d="M 108.776937872,237.857132 L 110.574959882,232.551092771 L 112.521777469,227.284706277 L 114.616721399,222.059062728 L 116.871613442,216.889827708 L 119.263764381,211.803247294 L 121.792956435,206.795428425 L 124.45778827,201.867803664 L 127.256854593,197.021802551 L 130.188746456,192.258851287 L 134.409646913,194.939149654 M 131.551052504,199.583025756 L 134.409646913,194.939149654 M 128.822055133,204.307716522 L 131.551052504,199.583025756 M 126.223952746,209.111949888 L 128.822055133,204.307716522 M 123.758048767,213.994458797 L 126.223952746,209.111949888 M 121.425652562,218.95398073 L 123.758048767,213.994458797 M 119.232083812,223.982192936 L 121.425652562,218.95398073 M 117.187543887,229.08209987 L 119.232083812,223.982192936 M 115.288021348,234.220539272 L 117.187543887,229.08209987 M 113.534043757,239.396594113 L 115.288021348,234.220539272 M 113.534043757,239.396594113 L 108.776937872,237.857132" fill="none" stroke="red" stroke-width="2.551991658967"/>
	<path d="M 137.309206694,181.790801584 L 140.654053288,177.322697929 L 144.124896007,172.943119849 L 147.720325973,168.653459215 L 151.438933001,164.455103582 L 155.27930596,160.349436176 L 159.250419171,156.335821846 L 163.331231273,152.445574428 L 167.505066802,148.682123215 L 171.770522998,145.046211606 L 174.96066051,148.896279482 M 170.801327269,152.441733159 L 174.96066051,148.896279482 M 166.730739116,156.112091363 L 170.801327269,152.441733159 M 162.750170273,159.906780013 L 166.730739116,156.112091363 M 158.88434438,163.814071509 L 162.750170273,159.906780013 M 155.136434145,167.82088511 L 158.88434438,163.814071509 M 151.50807,171.917351858 L 155.136434145,167.82088511 M 148.000514636,176.102167212 L 151.50807,171.917351858 M 144.615032154,180.374033117 L 148.000514636,176.102167212 M 141.352888623,184.731658 L 144.615032154,180.374033117 M 141.352888623,184.731658 L 137.309206694,181.790801584" fill="none" stroke="red" stroke-width="2.551991658967"/>
	<path d="M 181.770473743,137.281025819 L 186.343222827,134.054661365 L 191.002215785,130.959984619 L 195.746011378,127.997725226 L 200.57316567,125.168607402 L 205.482232589,122.473349709 L 210.47176451,119.912664889 L 215.540312846,117.48725978 L 220.686428629,115.197835292 L 225.908104854,113.057736423 L 227.738746273,117.710558362 M 222.655507757,119.793782136 L 227.738746273,117.710558362 M 217.635742573,122.02699262 L 222.655507757,119.793782136 M 212.692514032,124.392427334 L 217.635742573,122.02699262 M 207.827066511,126.889428725 L 212.692514032,124.392427334 M 203.040644955,129.517348137 L 207.827066511,126.889428725 M 198.334495757,132.275545771 L 203.040644955,129.517348137 M 193.709867635,135.163390554 L 198.334495757,132.275545771 M 189.168012512,138.180259897 L 193.709867635,135.163390554 M 184.71018636,141.325539354 L 189.168012512,138.180259897 M 184.71018636,141.325539354 L 181.770473743,137.281025819" fill="none" stroke="red" stroke-width="2.551991658967"/>
	<path d="M 237.854804174,108.777691202 L 243.206994259,107.126831432 L 248.596745894,105.626519143 L 254.022949051,104.277411671 L 259.484489733,103.080160364 L 264.980250643,102.035410154 L 270.509111912,101.143799204 L 276.069951869,100.405958655 L 281.66164785,99.8225124581 L 287.283077007,99.3940773097 L 287.593628453,104.384423771 M 282.111100954,104.802270676 L 287.593628453,104.384423771 M 276.65827969,105.37122505 L 282.111100954,104.802270676 M 271.236043618,106.090674005 L 276.65827969,105.37122505 M 265.845271964,106.96001553 L 271.236043618,106.090674005 M 260.486845448,107.978658401 L 265.845271964,106.96001553 M 255.161647491,109.14602193 L 260.486845448,107.978658401 M 249.870565373,110.461535579 L 255.161647491,109.14602193 M 244.614491322,111.924638433 L 249.870565373,110.461535579 M 239.394323523,113.534778565 L 244.614491322,111.924638433 M 239.394323523,113.534778565 L 237.854804174,108.777691202" fill="none" stroke="red" stroke-width="2.551991658967"/>
	<path d="M 300.0,24.0 L 305.772449166,24.058175263 L 311.526601223,24.2326538335 L 317.261594917,24.5233638145 L 322.976567995,24.9302318127 L 328.670657308,25.453182857 L 334.342998914,26.0921403242 L 339.992728196,26.8470258722 L 345.618979982,27.7177593835 L 351.220888676,28.7042589188 L 350.302561016,33.6192028971 M 344.803033079,32.6507331978 L 350.302561016,33.6192028971 M 339.279277923,31.7958629789 L 344.803033079,32.6507331978 M 333.732072532,31.0546768687 L 339.279277923,31.7958629789 M 328.162194523,30.4272622288 L 333.732072532,31.0546768687 M 322.570422347,29.9137090838 L 328.162194523,30.4272622288 M 316.957535466,29.5141100363 L 322.570422347,29.9137090838 M 311.324314533,29.2285601672 L 316.957535466,29.5141100363 M 305.671541546,29.0571569245 L 311.324314533,29.2285601672 M 300.0,29.0 L 305.671541546,29.0571569245 M 300.0,29.0 L 300.0,24.0" fill="none" stroke="red" stroke-width="2.551991658967"/>
	<path d="M 363.681112232,31.3347903839 L 369.212527874,32.6995853404 L 374.715779463,34.1803803439 L 380.189994673,35.7770828639 L 385.634301645,37.4895985004 L 391.047829123,39.3178310242 L 396.429706601,41.2616824295 L 401.779064447,43.321052998 L 407.095034036,45.4958413739 L 412.36733472,47.7827841881 L 410.330149768,52.3489507941 M 405.153780744,50.1036104281 L 410.330149768,52.3489507941 M 399.934157252,47.9682368164 L 405.153780744,50.1036104281 M 394.682154395,45.9463447745 L 399.934157252,47.9682368164 M 389.398560891,44.0379914341 L 394.682154395,45.9463447745 M 384.084163948,42.2432363833 L 389.398560891,44.0379914341 M 378.739749458,40.5621417786 L 384.084163948,42.2432363833 M 373.366102194,38.9947724417 L 378.739749458,40.5621417786 M 367.964006019,37.5411959379 L 373.366102194,38.9947724417 M 362.5342441,36.201482637 L 367.964006019,37.5411959379 M 362.5342441,36.201482637 L 363.681112232,31.3347903839" fill="none" stroke="red" stroke-width="2.551991658967"/>
	<path d="M 423.9199016,53.2606275357 L 429.011118349,55.8874981394 L 434.041343873,58.6169090117 L 439.009798786,61.4481876653 L 443.91570458,64.380660282 L 448.758283717,67.4136517803 L 453.536759708,70.546485888 L 458.250357186,73.7784852216 L 462.898301974,77.1089713697 L 467.479821149,80.5372649811 L 464.443093741,84.5094541321 M 459.944171887,81.142966341 L 464.443093741,84.5094541321 M 455.380271939,77.8727019572 L 459.944171887,81.142966341 M 450.75211122,74.6992840768 L 455.380271939,77.8727019572 M 446.060405177,71.6233372062 L 450.75211122,74.6992840768 M 441.305867476,68.6454873933 L 446.060405177,71.6233372062 M 436.489210092,65.7663623534 L 441.305867476,68.6454873933 M 431.611143431,62.9865915871 L 436.489210092,65.7663623534 M 426.672376445,60.3068064908 L 431.611143431,62.9865915871 M 421.673616765,57.7276404567 L 426.672376445,60.3068064908 M 421.673616765,57.7276404567 L 423.9199016,53.2606275357" fill="none" stroke="red" stroke-width="2.551991658967"/>
	<path d="M 477.44972013,88.5280091112 L 481.779429049,92.2394430909 L 486.04049232,96.0444072442 L 490.23216108,99.9422338922 L 494.353687861,103.932255015 L 498.399893148,108.023162389 L 502.348692873,112.185590855 L 506.201940344,116.417710792 L 509.959240544,120.718767864 L 513.620199368,125.088006175 L 509.754779233,128.259524295 M 506.160034518,123.969311445 L 509.754779233,128.259524295 M 502.470416104,119.745732253 L 506.160034518,123.969311445 M 498.686250296,115.589487794 L 502.470416104,119.745732253 M 494.807862026,111.501281482 L 498.686250296,115.589487794 M 490.840121793,107.489621103 L 494.807862026,111.501281482 M 486.790639291,103.569344006 L 490.840121793,107.489621103 M 482.672705961,99.7400824242 L 486.790639291,103.569344006 M 478.487035921,96.0024402331 L 482.672705961,99.7400824242 M 474.234341199,92.3570218202 L 478.487035921,96.0024402331 M 474.234341199,92.3570218202 L 477.44972013,88.5280091112" fill="none" stroke="red" stroke-width="2.551991658967"/>
	<path d="M 521.472452064,135.123084703 L 524.843317478,139.742882341 L 528.114697398,144.428616747 L 531.28619547,149.17950779 L 534.357416925,153.994774324 L 537.327968646,158.873634312 L 540.19745923,163.815304953 L 542.965499035,168.819002819 L 545.631700218,173.883943988 L 548.195676761,179.009344181 L 543.701120992,181.199998979 M 541.183385205,176.167032585 L 543.701120992,181.199998979 M 538.565453964,171.193787732 L 541.183385205,176.167032585 M 535.847686598,166.280964713 L 538.565453964,171.193787732 M 533.030439698,161.429264359 L 535.847686598,166.280964713 M 530.114067159,156.639388239 L 533.030439698,161.429264359 M 527.098920231,151.912038864 L 530.114067159,156.639388239 M 523.985347597,147.247919892 L 527.098920231,151.912038864 M 520.773695457,142.647736314 L 523.985347597,147.247919892 M 517.464307638,138.112194648 L 520.773695457,142.647736314 M 517.464307638,138.112194648 L 521.472452064,135.123084703" fill="none" stroke="red" stroke-width="2.551991658967"/>
	<path d="M 553.534182184,190.631771987 L 555.760749779,195.937856477 L 557.871960703,201.279135243 L 559.867430999,206.65338052 L 561.747059895,212.059720103 L 563.510748307,217.497280849 L 565.158398912,222.965188808 L 566.689916201,228.462569362 L 568.105206529,233.988547366 L 569.404178148,239.54224729 L 564.52391415,240.629916042 M 563.248804056,235.178234307 L 564.52391415,240.629916042 M 561.859527687,229.753827202 L 563.248804056,235.178234307 M 560.356157305,224.357480281 L 561.859527687,229.753827202 M 558.738762325,218.989979674 L 560.356157305,224.357480281 M 557.007409371,213.6521123 L 558.738762325,218.989979674 M 555.162162341,208.344666083 L 557.007409371,213.6521123 M 553.203082495,203.068430156 L 555.162162341,208.344666083 M 551.13022856,197.824195058 L 553.203082495,203.068430156 M 548.944083714,192.614445948 L 551.13022856,197.824195058 M 548.944083714,192.614445948 L 553.534182184,190.631771987" fill="none" stroke="red" stroke-width="2.551991658967"/>
	<path d="M 571.887030559,252.054023593 L 572.803793768,257.657163925 L 573.605282189,263.284031836 L 574.291415513,268.933767996 L 574.862115209,274.605513573 L 575.317304473,280.298410352 L 575.656908168,286.011600858 L 575.880852752,291.74422846 L 575.989066202,297.495437474 L 575.981482104,303.258823371 L 570.981805492,303.201957077 M 570.989257008,297.539118411 L 570.981805492,303.201957077 M 570.882943124,291.888794553 L 570.989257008,297.539118411 M 570.662957891,286.25748831 L 570.882943124,291.888794553 M 570.329399363,280.645977054 L 570.662957891,286.25748831 M 569.882363315,275.05503674 L 570.329399363,280.645977054 M 569.321943133,269.48544205 L 569.882363315,275.05503674 M 568.648229701,263.937966564 L 569.321943133,269.48544205 M 567.861311313,258.413382931 L 568.648229701,263.937966564 M 566.961273593,252.912463056 L 567.861311313,258.413382931 M 566.961273593,252.912463056 L 571.887030559,252.054023593" fill="none" stroke="red" stroke-width="2.551991658967"/>
	<path d="M 575.547799943,316.050453801 L 575.163812937,321.791459785 L 574.662841814,327.511603425 L 574.044963726,333.210011034 L 573.310257558,338.885808214 L 572.458803984,344.538119979 L 571.490685522,350.166070885 L 570.40598657,355.768785168 L 569.204793433,361.345386886 L 567.887194338,366.89500006 L 563.034798509,365.68907522 M 564.328190396,360.241420029 L 563.034798509,365.68907522 M 565.507341651,354.767147529 L 564.328190396,360.241420029 M 566.572174699,349.267042916 L 565.507341651,354.767147529 M 567.522609082,343.741891435 L 566.572174699,349.267042916 M 568.358561479,338.192478603 L 567.522609082,343.741891435 M 569.079945751,332.619590417 L 568.358561479,338.192478603 M 569.686672994,327.024013558 L 569.079945751,332.619590417 M 570.178651619,321.406535591 L 569.686672994,327.024013558 M 570.555787437,315.767945145 L 570.178651619,321.406535591 M 570.555787437,315.767945145 L 575.547799943,316.050453801" fill="none" stroke="red" stroke-width="2.551991658967"/>
	<path d="M 564.521083505,379.199424834 L 562.831466262,384.643310148 L 561.026366032,390.056641434 L 559.105880181,395.438550875 L 557.070107795,400.788171504 L 554.919149602,406.104637332 L 552.654851492,411.381259986 L 550.285838145,416.600381625 L 547.813309225,421.760764973 L 545.237927563,426.861636145 L 540.798172577,424.561945804 M 543.326816777,419.553643428 L 540.798172577,424.561945804 M 545.754566774,414.486716618 L 543.326816777,419.553643428 M 548.080789914,409.361863868 L 545.754566774,414.486716618 M 550.303873346,404.181300366 L 548.080789914,409.361863868 M 552.415816332,398.961269487 L 550.303873346,404.181300366 M 554.414514035,393.709075902 L 552.415816332,398.961269487 M 556.299909066,388.425505466 L 554.414514035,393.709075902 M 558.071941566,383.111342567 L 556.299909066,388.425505466 M 559.730549103,377.767370316 L 558.071941566,383.111342567 M 559.730549103,377.767370316 L 564.521083505,379.199424834" fill="none" stroke="red" stroke-width="2.551991658967"/>
	<path d="M 539.108774105,438.051197491 L 536.198725385,442.964587891 L 533.188219872,447.814924687 L 530.077931662,452.601433422 L 526.868535971,457.32334074 L 523.560709059,461.979874461 L 520.155128137,466.570263639 L 516.652471281,471.093738614 L 513.053417337,475.549531058 L 509.358645831,479.936874012 L 505.567264113,476.677207669 M 509.196177268,472.36806928 L 505.567264113,476.677207669 M 512.730786235,467.99206384 L 509.196177268,472.36806928 M 516.170472918,463.549912205 L 512.730786235,467.99206384 M 519.514618202,459.04233318 L 516.170472918,463.549912205 M 522.762601818,454.470043572 L 519.514618202,459.04233318 M 525.913802199,449.833758257 L 522.762601818,454.470043572 M 528.967596348,445.134190259 L 525.913802199,449.833758257 M 531.923359708,440.372050845 L 528.967596348,445.134190259 M 534.780466036,435.548049622 L 531.923359708,440.372050845 M 534.780466036,435.548049622 L 539.108774105,438.051197491" fill="none" stroke="red" stroke-width="2.551991658967"/>
	<path d="M 500.800250601,489.446659415 L 496.820495089,493.588697135 L 492.739800276,497.658325413 L 488.582987953,501.631674695 L 484.356099814,505.509207641 L 480.059893895,509.290526989 L 475.695129814,512.975236374 L 471.262568704,516.562940449 L 466.76297314,520.053244996 L 462.197107051,523.445757037 L 459.256856959,519.401634215 M 463.739505472,516.070953789 L 459.256856959,519.401634215 M 468.157261472,512.644131064 L 463.739505472,516.070953789 M 472.509426219,509.121498889 L 468.157261472,512.644131064 M 476.795298946,505.503388252 L 472.509426219,509.121498889 M 481.014176723,501.790128448 L 476.795298946,505.503388252 M 485.165354347,497.982047244 L 481.014176723,501.790128448 M 489.248124242,494.079471061 L 485.165354347,497.982047244 M 493.250006521,490.088466945 L 489.248124242,494.079471061 M 497.160112039,486.018920911 L 493.250006521,490.088466945 M 497.160112039,486.018920911 L 500.800250601,489.446659415" fill="none" stroke="red" stroke-width="2.551991658967"/>
	<path d="M 451.726556796,530.692356606 L 446.932682419,533.776816391 L 442.075308161,536.761065829 L 437.155212206,539.644715426 L 432.173173387,542.427377427 L 427.129971055,545.108665856 L 422.026384939,547.688196541 L 416.863195016,550.165587132 L 411.641181371,552.5404571 L 406.361120683,554.812113147 L 404.433142382,550.198773828 M 409.618030552,547.968055022 L 404.433142382,550.198773828 M 414.746677082,545.635647636 L 409.618030552,547.968055022 M 419.817083066,543.202777359 L 414.746677082,545.635647636 M 424.828552664,540.669806386 L 419.817083066,543.202777359 M 429.780389867,538.037094176 L 424.828552664,540.669806386 M 434.671898302,535.304997457 L 429.780389867,538.037094176 M 439.50238102,532.47387025 L 434.671898302,535.304997457 M 444.271140304,529.544063909 L 439.50238102,532.47387025 M 448.977477456,526.515927177 L 444.271140304,529.544063909 M 448.977477456,526.515927177 L 451.726556796,530.692356606" fill="none" stroke="red" stroke-width="2.551991658967"/>
	<path d="M 394.444987175,559.469980338 L 389.036254565,561.37625649 L 383.596021249,563.166232215 L 378.12516532,564.839809349 L 372.624565578,566.396891545 L 367.09510138,567.837384324 L 361.537652495,569.161195108 L 355.953098962,570.368233246 L 350.342320935,571.458410026 L 344.706198537,572.431638668 L 343.90690452,567.495939217 M 349.440068826,566.540489619 L 343.90690452,567.495939217 M 354.94808197,565.470280527 L 349.440068826,566.540489619 M 360.430154966,564.285392689 L 354.94808197,565.470280527 M 365.885498875,562.985903954 L 360.430154966,564.285392689 M 371.313324578,561.571889261 L 365.885498875,562.985903954 M 376.71284256,560.043420664 L 371.313324578,561.571889261 M 382.083262686,558.400567358 L 376.71284256,560.043420664 M 387.42379398,556.643395742 L 382.083262686,558.400567358 M 392.733644415,554.771969487 L 387.42379398,556.643395742 M 392.733644415,554.771969487 L 394.444987175,559.469980338" fill="none" stroke="red" stroke-width="2.551991658967"/>
	<path d="M 332.050363599,574.180381981 L 326.393802903,574.770089822 L 320.716025664,575.244764641 L 315.017884332,575.604331464 L 309.300230541,575.848716914 L 303.563915,575.977849134 L 297.812287146,575.991658967 L 292.071629283,575.890133958 L 286.349429621,575.67333873 L 280.646538633,575.341344788 L 280.987890632,570.353010516 M 286.589326006,570.679097074 L 280.987890632,570.353010516 M 292.210431182,570.892060926 L 286.589326006,570.679097074 M 297.85043338,570.991804483 L 292.210431182,570.892060926 M 303.501711373,570.978236078 L 297.85043338,570.991804483 M 309.137259237,570.851373584 L 303.501711373,570.978236078 M 314.753724904,570.61131436 L 309.137259237,570.851373584 M 320.350335948,570.258155469 L 314.753724904,570.61131436 M 325.926321324,569.791991694 L 320.350335948,570.258155469 M 331.480911218,569.212915425 L 325.926321324,569.791991694 M 331.480911218,569.212915425 L 332.050363599,574.180381981" fill="none" stroke="red" stroke-width="2.551991658967"/>
	<path d="M 267.949636401,574.180381981 L 262.259996147,573.468237621 L 256.593739756,572.638951604 L 250.951746842,571.69260647 L 245.33489737,570.629286649 L 239.744071513,569.449078482 L 234.180149509,568.152070245 L 228.644011513,566.738352152 L 223.136537447,565.208016347 L 217.658606855,563.561156884 L 219.148345146,558.788245841 M 224.525680693,560.404863108 L 219.148345146,558.788245841 M 229.931934116,561.907073298 L 224.525680693,560.404863108 M 235.366315371,563.294806555 L 229.931934116,561.907073298 M 240.828034984,564.567990161 L 235.366315371,563.294806555 M 246.316303831,565.7265485 L 240.828034984,564.567990161 M 251.830332909,566.770403049 L 246.316303831,565.7265485 M 257.369333122,567.699472387 L 251.830332909,566.770403049 M 262.932515059,568.51367222 L 257.369333122,567.699472387 M 268.519088782,569.212915425 L 262.932515059,568.51367222 M 268.519088782,569.212915425 L 267.949636401,574.180381981" fill="none" stroke="red" stroke-width="2.551991658967"/>
	<path d="M 205.555012825,559.469980338 L 200.197603123,557.454856736 L 194.873209938,555.324453139 L 189.585800053,553.079598618 L 184.354247432,550.728925726 L 179.18132922,548.27454774 L 174.067820169,545.717127876 L 169.014494411,543.057330802 L 164.022125353,540.295822599 L 159.09148559,537.433270695 L 161.646618969,533.13544643 M 166.487552734,535.945918252 L 161.646618969,533.13544643 M 171.389124303,538.657202069 L 166.487552734,535.945918252 M 176.350631419,541.268670525 L 171.389124303,538.657202069 M 181.371373049,543.779694236 L 176.350631419,541.268670525 M 186.450649241,546.189641701 L 181.371373049,543.779694236 M 191.587760978,548.497879241 L 186.450649241,546.189641701 M 196.778842038,550.701838478 L 191.587760978,548.497879241 M 202.006579619,552.793568927 L 196.778842038,550.701838478 M 207.266355585,554.771969487 L 202.006579619,552.793568927 M 207.266355585,554.771969487 L 205.555012825,559.469980338" fill="none" stroke="red" stroke-width="2.551991658967"/>
	<path d="M 148.285861285,530.665201566 L 143.565709918,527.48377653 L 138.910402149,524.20437221 L 134.320702367,520.827659675 L 129.797373699,517.354310865 L 125.341177962,513.7849985 L 120.952875627,510.120395988 L 116.633225792,506.361177329 L 112.382986154,502.508017023 L 108.202913001,498.561589976 L 111.671845329,494.96068613 M 115.778557357,498.837854056 L 111.671845329,494.96068613 M 119.953753381,502.622983042 L 115.778557357,498.837854056 M 124.196713032,506.315462494 L 119.953753381,502.622983042 M 128.506718057,509.914681213 L 124.196713032,506.315462494 M 132.883052298,513.420027248 L 128.506718057,509.914681213 M 137.325001664,516.830887761 L 132.883052298,513.420027248 M 141.831854079,520.146648881 L 137.325001664,516.830887761 M 146.402899433,523.366695568 L 141.831854079,520.146648881 M 151.037429508,526.490411474 L 146.402899433,523.366695568 M 151.037429508,526.490411474 L 148.285861285,530.665201566" fill="none" stroke="red" stroke-width="2.551991658967"/>
	<path d="M 99.1870523658,489.453560237 L 95.2755887848,485.225779689 L 91.4609564236,480.928021304 L 87.7435561699,476.561052679 L 84.1237879035,472.125642961 L 80.6020503791,467.622562776 L 77.1787411157,463.052584141 L 73.854256293,458.41648037 L 70.6289906555,453.715025963 L 67.5033374262,448.948996504 L 71.7127179723,446.250642298 M 74.7812859745,450.929627682 L 71.7127179723,446.250642298 M 77.9476522346,455.545224605 L 74.7812859745,450.929627682 M 81.2114741976,460.09673166 L 77.9476522346,455.545224605 M 84.5724115911,464.583445824 L 81.2114741976,460.09673166 M 88.030126295,469.004662286 L 84.5724115911,464.583445824 M 91.5842821985,473.359674292 L 88.030126295,469.004662286 M 95.2345450445,477.647773003 L 91.5842821985,473.359674292 M 98.9805822631,481.868247362 L 95.2345450445,477.647773003 M 102.822062797,486.020383986 L 98.9805822631,481.868247362 M 102.822062797,486.020383986 L 99.1870523658,489.453560237" fill="none" stroke="red" stroke-width="2.551991658967"/>
	<path d="M 60.8742669494,438.058186184 L 58.0760908432,433.092769321 L 55.3790001281,428.066177363 L 52.7833780718,422.979187471 L 50.2896061316,417.832577077 L 47.8980639491,412.627123745 L 45.6089971273,407.363226545 L 43.4302765752,402.053760354 L 41.3667612542,396.71092124 L 39.41855233,391.335575433 L 44.1368707829,389.681044993 M 46.0495078886,394.958242159 L 44.1368707829,389.681044993 M 48.0754767003,400.203864195 L 46.0495078886,394.958242159 M 50.2147203643,405.417124424 L 48.0754767003,400.203864195 M 52.4626428183,410.586383745 L 50.2147203643,405.417124424 M 54.8113815887,415.698672975 L 52.4626428183,410.586383745 M 57.2602998747,420.752716908 L 54.8113815887,415.698672975 M 59.8090371554,425.747821925 L 57.2602998747,420.752716908 M 62.4572356335,430.683294207 L 59.8090371554,425.747821925 M 65.2045402274,435.558439529 L 62.4572356335,430.683294207 M 65.2045402274,435.558439529 L 60.8742669494,438.058186184" fill="none" stroke="red" stroke-width="2.551991658967"/>
	<path d="M 35.4789164946,379.199424834 L 33.8998953107,373.707816828 L 32.4373083429,368.187205595 L 31.0912483814,362.638469288 L 29.8618062983,357.062486354 L 28.749071034,351.460135387 L 27.7531295974,345.832294981 L 26.8740670774,340.179843582 L 26.1119666678,334.503659345 L 25.4669097039,328.804619999 L 30.4407417256,328.293743282 M 31.074144189,333.88982366 L 30.4407417256,328.293743282 M 31.8224124297,339.462990547 L 31.074144189,333.88982366 M 32.6854579042,345.012455074 L 31.8224124297,339.462990547 M 33.6631948573,350.537429015 L 32.6854579042,345.012455074 M 34.7555403764,356.037124577 L 33.6631948573,350.537429015 M 35.9624144285,361.51075419 L 34.7555403764,356.037124577 M 37.2837398784,366.957530283 L 35.9624144285,361.51075419 M 38.719442488,372.376665069 L 37.2837398784,366.957530283 M 40.2694508966,377.767370316 L 38.719442488,372.376665069 M 40.2694508966,377.767370316 L 35.4789164946,379.199424834" fill="none" stroke="red" stroke-width="2.551991658967"/>
	<path d="M 24.4522000571,316.050453801 L 24.186800697,310.331688658 L 24.0368261941,304.594078462 L 24.0023472014,298.839178551 L 24.0833938132,293.090726307 L 24.2799077354,287.3606105 L 24.5918175492,281.649683467 L 25.0190503445,275.958798515 L 25.561531641,270.288809813 L 26.2191853166,264.640572294 L 31.179420486,265.269910887 M 30.533657811,270.816030213 L 31.179420486,265.269910887 M 30.0009352968,276.384030595 L 30.533657811,270.816030213 M 29.5813441013,281.973141017 L 30.0009352968,276.384030595 M 29.2749778452,287.582589323 L 29.5813441013,281.973141017 M 29.0819325049,293.211602059 L 29.2749778452,287.582589323 M 29.002306293,298.859404323 L 29.0819325049,293.211602059 M 29.03618227,304.513836163 L 29.002306293,298.859404323 M 29.1835172936,310.150516768 L 29.03618227,304.513836163 M 29.4442125631,315.767945145 L 29.1835172936,310.150516768 M 29.4442125631,315.767945145 L 24.4522000571,316.050453801" fill="none" stroke="red" stroke-width="2.551991658967"/>
	<path d="M 28.1129694411,252.054023593 L 29.1526605824,246.435969342 L 30.3090994368,240.843730957 L 31.5821982876,235.278186895 L 32.9718674849,229.740215558 L 34.4780154517,224.230695145 L 36.1005487013,218.750503508 L 37.8393718682,213.300517999 L 39.6943877515,207.881615334 L 41.6654973702,202.49467145 L 46.3427996054,204.261828432 M 44.4076632094,209.550457585 L 46.3427996054,204.261828432 M 42.586598976,214.870178722 L 44.4076632094,209.550457585 M 40.8796689429,220.220200659 L 42.586598976,214.870178722 M 39.2869378176,225.599733377 L 40.8796689429,220.220200659 M 37.808473061,231.007987817 L 39.2869378176,225.599733377 M 36.444344952,236.444175666 L 37.808473061,231.007987817 M 35.1946266338,241.907509133 L 36.444344952,236.444175666 M 34.0593941409,247.397200732 L 35.1946266338,241.907509133 M 33.038726407,252.912463056 L 34.0593941409,247.397200732 M 33.038726407,252.912463056 L 28.1129694411,252.054023593" fill="none" stroke="red" stroke-width="2.551991658967"/>
	<path d="M 46.4660032128,190.631594194 L 48.8000552733,185.379621734 L 51.2382963544,180.186330199 L 53.7800601437,175.052498412 L 56.4246788547,169.978904591 L 59.1714832733,164.966326244 L 62.0198028115,160.015540078 L 64.9689655694,155.127321903 L 68.0182984027,150.30244655 L 71.1671269968,145.541687792 L 75.3086664396,148.343053717 M 72.2169979285,153.017390803 L 75.3086664396,148.343053717 M 69.2230931841,157.754563467 L 72.2169979285,153.017390803 M 66.3275775618,162.553861708 L 69.2230931841,157.754563467 M 63.5310781724,167.414577113 L 66.3275775618,162.553861708 M 60.8342239928,172.336002738 L 63.5310781724,167.414577113 M 58.2376459686,177.317432984 L 60.8342239928,172.336002738 M 55.7419771058,182.358163454 L 58.2376459686,177.317432984 M 53.3478525517,187.457490814 L 55.7419771058,182.358163454 M 51.0559096648,192.614712638 L 53.3478525517,187.457490814 M 51.0559096648,192.614712638 L 46.4660032128,190.631594194" fill="none" stroke="red" stroke-width="2.551991658967"/>
	<path d="M 78.5590915445,135.139678787 L 82.0048539636,130.617600958 L 85.5461392218,126.162124292 L 89.182279945,121.774002829 L 92.9126081552,117.453989254 L 96.7364553639,113.202834874 L 100.653152665,109.021289604 L 104.662030826,104.910101956 L 108.771490032,100.878187109 L 112.949026447,96.9444089306 L 116.339265117,100.619498285 M 112.236297351,104.483060234 L 116.339265117,100.619498285 M 108.206690889,108.436486087 L 112.236297351,104.483060234 M 104.267802755,112.475895909 L 108.206690889,108.436486087 M 100.419926781,116.583964614 L 104.267802755,112.475895909 M 96.6636678146,120.759976464 L 100.419926781,116.583964614 M 92.9996311907,125.003217822 L 96.6636678146,120.759976464 M 89.4284228714,129.312977139 L 92.9996311907,125.003217822 M 85.9506495847,133.688544936 L 89.4284228714,129.312977139 M 82.5669189642,138.129213763 L 85.9506495847,133.688544936 M 82.5669189642,138.129213763 L 78.5590915445,135.139678787" fill="none" stroke="red" stroke-width="2.551991658967"/>
	<path d="M 122.534501725,88.5007196996 L 126.965624573,84.8529763339 L 131.464871715,81.3036111886 L 136.031466338,77.8530246551 L 140.664630301,74.5016157943 L 145.363584242,71.2497822377 L 150.127547686,68.0979200986 L 154.955739169,65.0464238922 L 159.847376357,62.0956864671 L 164.801676184,59.2460989475 L 167.249402128,63.6059885911 M 162.385263415,66.4037172564 L 167.249402128,63.6059885911 M 157.582816908,69.3006526764 L 162.385263415,66.4037172564 M 152.842765037,72.2964430216 L 157.582816908,69.3006526764 M 148.165811336,75.3907390493 L 152.842765037,72.2964430216 M 143.552660636,78.5831940167 L 148.165811336,75.3907390493 M 139.004019259,81.873463578 L 143.552660636,78.5831940167 M 134.520595191,85.2612056651 L 139.004019259,81.873463578 M 130.103098254,88.7460803533 L 134.520595191,85.2612056651 M 125.752240258,92.3277497144 L 130.103098254,88.7460803533 M 125.752240258,92.3277497144 L 122.534501725,88.5007196996" fill="none" stroke="red" stroke-width="2.551991658967"/>
	<path d="M 176.078345898,53.2543225795 L 181.215831943,50.7408798014 L 186.41234538,48.3296686699 L 191.667107814,46.0210677467 L 196.972181052,43.8203353508 L 202.31085437,41.735021522 L 207.682215561,39.765076556 L 213.085396649,37.9106003987 L 218.519528753,36.171691304 L 223.983742214,34.5484457669 L 225.357318433,39.356073911 M 219.993465803,40.949505613 L 225.357318433,39.356073911 M 214.658999225,42.6565223256 L 219.993465803,40.949505613 M 209.354702424,44.47705997 L 214.658999225,42.6565223256 M 204.081360293,46.4110571054 L 209.354702424,44.47705997 M 198.839759083,48.4584548294 L 204.081360293,46.4110571054 M 193.631378893,50.6190715667 L 198.839759083,48.4584548294 M 188.470239058,52.8865397026 L 193.631378893,50.6190715667 M 183.366818757,55.2545541057 L 188.470239058,52.8865397026 M 178.321812319,57.7227516569 L 183.366818757,55.2545541057 M 178.321812319,57.7227516569 L 176.078345898,53.2543225795" fill="none" stroke="red" stroke-width="2.551991658967"/>
	<path d="M 236.318887768,31.3347903839 L 241.873924014,30.0868705054 L 247.455344629,28.9549769439 L 253.062278495,27.9391963337 L 258.693854611,27.0396134077 L 264.349202233,26.2563110196 L 270.027451016,25.5893701774 L 275.727731142,25.0388700877 L 281.449173448,24.6048882116 L 287.190909541,24.2875003285 L 287.415893818,29.2824359713 M 281.776206158,29.5941817093 L 287.415893818,29.2824359713 M 276.157108474,30.0203994821 L 281.776206158,29.5941817093 M 270.559385702,30.5609942067 L 276.157108474,30.0203994821 M 264.98382162,31.2158733222 L 270.559385702,30.5609942067 M 259.431199024,31.9849468865 L 264.98382162,31.2158733222 M 253.902299917,32.8681276591 L 259.431199024,31.9849468865 M 248.39790571,33.8653311682 L 253.902299917,32.8681276591 M 242.918797423,34.9764757612 L 248.39790571,33.8653311682 M 237.4657559,36.201482637 L 242.918797423,34.9764757612 M 237.4657559,36.201482637 L 236.318887768,31.3347903839" fill="none" stroke="red" stroke-width="2.551991658967"/>
	<path d="M 300.0,136.5 L 305.79972049,136.600457873 L 311.565862263,136.900750755 L 317.294322341,137.39925358 L 322.980998725,138.094336165 L 328.621790569,138.984363416 L 334.212598321,140.067695522 L 339.749323819,141.342688138 L 345.227870363,142.807692548 L 350.644142749,144.461055796 L 349.100897606,149.216935781 M 343.851930279,147.614644688 L 349.100897606,149.216935781 M 338.542289077,146.194807998 L 343.851930279,147.614644688 M 333.17583519,144.959026855 L 338.542289077,146.194807998 M 327.756427557,143.908908762 L 333.17583519,144.959026855 M 322.287922931,143.046067776 L 327.756427557,143.908908762 M 316.774175976,142.372124758 L 322.287922931,143.046067776 M 311.219039419,141.888707642 L 316.774175976,142.372124758 M 305.62636425,141.59745173 L 311.219039419,141.888707642 M 300.0,141.5 L 305.62636425,141.59745173 M 300.0,141.5 L 300.0,136.5" fill="none" stroke="red" stroke-width="2.551991658967"/>
	<path d="M 362.600922835,148.869112421 L 367.800923137,151.130526982 L 372.92078032,153.574253867 L 377.956372262,156.19860455 L 382.903578486,159.001886409 L 387.75828024,161.982402659 L 392.516360595,165.13845228 L 397.173704592,168.46832994 L 401.726199417,171.970325911 L 406.169734622,175.642726005 L 402.917696263,179.440652612 M 398.608808483,175.879529635 L 402.917696263,179.440652612 M 394.194942054,172.484170292 L 398.608808483,175.879529635 M 389.680021073,169.256118866 L 394.194942054,172.484170292 M 385.067966092,166.196926331 L 389.680021073,169.256118866 M 380.36269444,163.30815025 L 385.067966092,166.196926331 M 375.568120499,160.591354659 L 380.36269444,163.30815025 M 370.688155907,158.048109947 L 375.568120499,160.591354659 M 365.726709722,155.679992742 L 370.688155907,158.048109947 M 360.687688532,153.488585822 L 365.726709722,155.679992742 M 360.687688532,153.488585822 L 362.600922835,148.869112421" fill="none" stroke="red" stroke-width="2.551991658967"/>
	<path d="M 415.613507052,184.385079931 L 419.644996312,188.558724029 L 423.510969575,192.849692136 L 427.20971911,197.253919327 L 430.739541659,201.767337726 L 434.098738428,206.385876806 L 437.285615036,211.105463651 L 440.298481459,215.922023177 L 443.135651951,220.831478321 L 445.795444965,225.829750186 L 441.341078707,228.101010021 M 438.763456767,223.257155397 L 441.341078707,228.101010021 M 436.013773655,218.499091091 L 438.763456767,223.257155397 M 433.093583215,213.830691937 L 436.013773655,218.499091091 M 430.004432991,209.255835515 L 433.093583215,213.830691937 M 426.747864109,204.778402377 L 430.004432991,209.255835515 M 423.325411165,200.402276326 L 426.747864109,204.778402377 M 419.73860213,196.131344747 L 423.325411165,200.402276326 M 415.988958284,191.969499004 L 419.73860213,196.131344747 M 412.077994194,187.920634885 L 415.988958284,191.969499004 M 412.077994194,187.920634885 L 415.613507052,184.385079931" fill="none" stroke="red" stroke-width="2.551991658967"/>
	<path d="M 451.130887579,237.399077165 L 453.208916984,242.676733994 L 455.101154191,248.02632797 L 456.805921265,253.443728424 L 458.321544357,258.924803134 L 459.646353779,264.465418334 L 460.778684105,270.061438734 L 461.7168743,275.708727555 L 462.459267882,281.40314659 L 463.004213099,287.140556297 L 458.019125656,287.526436045 M 457.490691137,281.962829644 L 458.019125656,287.526436045 M 456.770899838,276.441760037 L 457.490691137,281.962829644 M 455.861393504,270.967117012 L 456.770899838,276.441760037 M 454.763806779,265.54279236 L 455.861393504,270.967117012 M 453.479767483,260.172680014 L 454.763806779,265.54279236 M 452.010896846,254.860676139 L 453.479767483,260.172680014 M 450.358809706,249.61067919 L 452.010896846,254.860676139 M 448.525114662,244.426589934 L 450.358809706,249.61067919 M 446.511414178,239.312311468 L 448.525114662,244.426589934 M 446.511414178,239.312311468 L 451.130887579,237.399077165" fill="none" stroke="red" stroke-width="2.551991658967"/>
	<path d="M 463.5,300.0 L 463.399542127,305.79972049 L 463.099249245,311.565862263 L 462.60074642,317.294322341 L 461.905663835,322.980998725 L 461.015636584,328.621790569 L 459.932304478,334.212598321 L 458.657311862,339.749323819 L 457.192307452,345.227870363 L 455.538944204,350.644142749 L 450.783064219,349.100897606 M 452.385355312,343.851930279 L 450.783064219,349.100897606 M 453.805192002,338.542289077 L 452.385355312,343.851930279 M 455.040973145,333.17583519 L 453.805192002,338.542289077 M 456.091091238,327.756427557 L 455.040973145,333.17583519 M 456.953932224,322.287922931 L 456.091091238,327.756427557 M 457.627875242,316.774175976 L 456.953932224,322.287922931 M 458.111292358,311.219039419 L 457.627875242,316.774175976 M 458.40254827,305.62636425 L 458.111292358,311.219039419 M 458.5,300.0 L 458.40254827,305.62636425 M 458.5,300.0 L 463.5,300.0" fill="none" stroke="red" stroke-width="2.551991658967"/>
	<path d="M 451.130887579,362.600922835 L 448.869473018,367.800923137 L 446.425746133,372.92078032 L 443.80139545,377.956372262 L 440.998113591,382.903578486 L 438.017597341,387.75828024 L 434.86154772,392.516360595 L 431.53167006,397.173704592 L 428.029674089,401.726199417 L 424.357273995,406.169734622 L 420.559347388,402.917696263 M 424.120470365,398.608808483 L 420.559347388,402.917696263 M 427.515829708,394.194942054 L 424.120470365,398.608808483 M 430.743881134,389.680021073 L 427.515829708,394.194942054 M 433.803073669,385.067966092 L 430.743881134,389.680021073 M 436.69184975,380.36269444 L 433.803073669,385.067966092 M 439.408645341,375.568120499 L 436.69184975,380.36269444 M 441.951890053,370.688155907 L 439.408645341,375.568120499 M 444.320007258,365.726709722 L 441.951890053,370.688155907 M 446.511414178,360.687688532 L 444.320007258,365.726709722 M 446.511414178,360.687688532 L 451.130887579,362.600922835" fill="none" stroke="red" stroke-width="2.551991658967"/>
	<path d="M 415.613507052,415.614920069 L 411.439967358,419.646217125 L 407.149112971,423.512009025 L 402.745008398,427.210588216 L 398.231721097,430.740251617 L 393.613321176,434.099300609 L 388.893881131,437.286040989 L 384.077475627,440.298782906 L 379.168181307,443.135840788 L 374.170076647,445.795533262 L 371.898822165,441.341164274 M 376.742514738,438.763639775 L 371.898822165,441.341164274 M 381.50042315,436.014065817 L 376.742514738,438.763639775 M 386.168672971,433.093996084 L 381.50042315,436.014065817 M 390.743387019,430.004977963 L 386.168672971,433.093996084 M 395.220685141,426.748552421 L 390.743387019,430.004977963 M 399.596683938,423.326253898 L 395.220685141,426.748552421 M 403.867496424,419.739610208 L 399.596683938,423.326253898 M 408.029231637,415.990142475 L 403.867496424,419.739610208 M 412.077994194,412.079365115 L 408.029231637,415.990142475 M 412.077994194,412.079365115 L 415.613507052,415.614920069" fill="none" stroke="red" stroke-width="2.551991658967"/>
	<path d="M 362.600922835,451.130887579 L 357.323266006,453.208916984 L 351.97367203,455.101154191 L 346.556271576,456.805921265 L 341.075196866,458.321544357 L 335.534581666,459.646353779 L 329.938561266,460.778684105 L 324.291272445,461.7168743 L 318.59685341,462.459267882 L 312.859443703,463.004213099 L 312.473563955,458.019125656 M 318.037170356,457.490691137 L 312.473563955,458.019125656 M 323.558239963,456.770899838 L 318.037170356,457.490691137 M 329.032882988,455.861393504 L 323.558239963,456.770899838 M 334.45720764,454.763806779 L 329.032882988,455.861393504 M 339.827319986,453.479767483 L 334.45720764,454.763806779 M 345.139323861,452.010896846 L 339.827319986,453.479767483 M 350.38932081,450.358809706 L 345.139323861,452.010896846 M 355.573410066,448.525114662 L 350.38932081,450.358809706 M 360.687688532,446.511414178 L 355.573410066,448.525114662 M 360.687688532,446.511414178 L 362.600922835,451.130887579" fill="none" stroke="red" stroke-width="2.551991658967"/>
	<path d="M 300.000998376,463.499999997 L 294.201173177,463.399573128 L 288.434927214,463.099304138 L 282.706363676,462.600818174 L 277.019584775,461.905745504 L 271.378691566,461.015721306 L 265.787783814,459.932385474 L 260.25095989,458.657382438 L 254.772316708,457.192361 L 249.355949683,455.538974197 L 250.899191968,450.783093285 M 256.14825102,452.385407206 L 250.899191968,450.783093285 M 261.457985896,453.805260405 L 256.14825102,452.385407206 M 266.82453521,455.041051654 L 261.457985896,453.805260405 M 272.244039822,456.091173368 L 266.82453521,455.041051654 M 277.712642784,456.954011404 L 272.244039822,456.091173368 M 283.22648923,457.627944819 L 277.712642784,456.954011404 M 288.781726237,458.111345593 L 283.22648923,457.627944819 M 294.374502615,458.402578341 L 288.781726237,458.111345593 M 300.000968637,458.499999997 L 294.374502615,458.402578341 M 300.000968637,458.499999997 L 300.000998376,463.499999997" fill="none" stroke="red" stroke-width="2.551991658967"/>
	<path d="M 237.399077165,451.130887579 L 232.199076863,448.869473018 L 227.07921968,446.425746133 L 222.043627738,443.80139545 L 217.096421514,440.998113591 L 212.24171976,438.017597341 L 207.483639405,434.86154772 L 202.826295408,431.53167006 L 198.273800583,428.029674089 L 193.830265378,424.357273995 L 197.082303737,420.559347388 M 201.391191517,424.120470365 L 197.082303737,420.559347388 M 205.805057946,427.515829708 L 201.391191517,424.120470365 M 210.319978927,430.743881134 L 205.805057946,427.515829708 M 214.932033908,433.803073669 L 210.319978927,430.743881134 M 219.63730556,436.69184975 L 214.932033908,433.803073669 M 224.431879501,439.408645341 L 219.63730556,436.69184975 M 229.311844093,441.951890053 L 224.431879501,439.408645341 M 234.273290278,444.320007258 L 229.311844093,441.951890053 M 239.312311468,446.511414178 L 234.273290278,444.320007258 M 239.312311468,446.511414178 L 237.399077165,451.130887579" fill="none" stroke="red" stroke-width="2.551991658967"/>
	<path d="M 184.386492948,415.614920069 L 180.355003688,411.441275971 L 176.489030425,407.150307864 L 172.79028089,402.746080673 L 169.260458341,398.232662274 L 165.901261572,393.614123194 L 162.714384964,388.894536349 L 159.701518541,384.077976823 L 156.864348049,379.168521679 L 154.204555035,374.170249814 L 158.658921293,371.898989979 M 161.236543233,376.742844603 L 158.658921293,371.898989979 M 163.986226345,381.500908909 L 161.236543233,376.742844603 M 166.906416785,386.169308063 L 163.986226345,381.500908909 M 169.995567009,390.744164485 L 166.906416785,386.169308063 M 173.252135891,395.221597623 L 169.995567009,390.744164485 M 176.674588835,399.597723674 L 173.252135891,395.221597623 M 180.26139787,403.868655253 L 176.674588835,399.597723674 M 184.011041716,408.030500996 L 180.26139787,403.868655253 M 187.922005806,412.079365115 L 184.011041716,408.030500996 M 187.922005806,412.079365115 L 184.386492948,415.614920069" fill="none" stroke="red" stroke-width="2.551991658967"/>
	<path d="M 148.869112421,362.600922835 L 146.791083016,357.323266006 L 144.898845809,351.97367203 L 143.194078735,346.556271576 L 141.678455643,341.075196866 L 140.353646221,335.534581666 L 139.221315895,329.938561266 L 138.2831257,324.291272445 L 137.540732118,318.59685341 L 136.995786901,312.859443703 L 141.980874344,312.473563955 M 142.509308863,318.037170356 L 141.980874344,312.473563955 M 143.229100162,323.558239963 L 142.509308863,318.037170356 M 144.138606496,329.032882988 L 143.229100162,323.558239963 M 145.236193221,334.45720764 L 144.138606496,329.032882988 M 146.520232517,339.827319986 L 145.236193221,334.45720764 M 147.989103154,345.139323861 L 146.520232517,339.827319986 M 149.641190294,350.38932081 L 147.989103154,345.139323861 M 151.474885338,355.573410066 L 149.641190294,350.38932081 M 153.488585822,360.687688532 L 151.474885338,355.573410066 M 153.488585822,360.687688532 L 148.869112421,362.600922835" fill="none" stroke="red" stroke-width="2.551991658967"/>
	<path d="M 136.500000003,300.000998376 L 136.600426872,294.201173177 L 136.900695862,288.434927214 L 137.399181826,282.706363676 L 138.094254496,277.019584775 L 138.984278694,271.378691566 L 140.067614526,265.787783814 L 141.342617562,260.25095989 L 142.807639,254.772316708 L 144.461025803,249.355949683 L 149.216906715,250.899191968 M 147.614592794,256.14825102 L 149.216906715,250.899191968 M 146.194739595,261.457985896 L 147.614592794,256.14825102 M 144.958948346,266.82453521 L 146.194739595,261.457985896 M 143.908826632,272.244039822 L 144.958948346,266.82453521 M 143.045988596,277.712642784 L 143.908826632,272.244039822 M 142.372055181,283.22648923 L 143.045988596,277.712642784 M 141.888654407,288.781726237 L 142.372055181,283.22648923 M 141.597421659,294.374502615 L 141.888654407,288.781726237 M 141.500000003,300.000968637 L 141.597421659,294.374502615 M 141.500000003,300.000968637 L 136.500000003,300.000998376" fill="none" stroke="red" stroke-width="2.551991658967"/>
	<path d="M 148.869112421,237.399077165 L 151.130526982,232.199076863 L 153.574253867,227.07921968 L 156.19860455,222.043627738 L 159.001886409,217.096421514 L 161.982402659,212.24171976 L 165.13845228,207.483639405 L 168.46832994,202.826295408 L 171.970325911,198.273800583 L 175.642726005,193.830265378 L 179.440652612,197.082303737 M 175.879529635,201.391191517 L 179.440652612,197.082303737 M 172.484170292,205.805057946 L 175.879529635,201.391191517 M 169.256118866,210.319978927 L 172.484170292,205.805057946 M 166.196926331,214.932033908 L 169.256118866,210.319978927 M 163.30815025,219.63730556 L 166.196926331,214.932033908 M 160.591354659,224.431879501 L 163.30815025,219.63730556 M 158.048109947,229.311844093 L 160.591354659,224.431879501 M 155.679992742,234.273290278 L 158.048109947,229.311844093 M 153.488585822,239.312311468 L 155.679992742,234.273290278 M 153.488585822,239.312311468 L 148.869112421,237.399077165" fill="none" stroke="red" stroke-width="2.551991658967"/>
	<path d="M 184.385079931,184.386492948 L 188.558724029,180.355003688 L 192.849692136,176.489030425 L 197.253919327,172.79028089 L 201.767337726,169.260458341 L 206.385876806,165.901261572 L 211.105463651,162.714384964 L 215.922023177,159.701518541 L 220.831478321,156.864348049 L 225.829750186,154.204555035 L 228.101010021,158.658921293 M 223.257155397,161.236543233 L 228.101010021,158.658921293 M 218.499091091,163.986226345 L 223.257155397,161.236543233 M 213.830691937,166.906416785 L 218.499091091,163.986226345 M 209.255835515,169.995567009 L 213.830691937,166.906416785 M 204.778402377,173.252135891 L 209.255835515,169.995567009 M 200.402276326,176.674588835 L 204.778402377,173.252135891 M 196.131344747,180.26139787 L 200.402276326,176.674588835 M 191.969499004,184.011041716 L 196.131344747,180.26139787 M 187.920634885,187.922005806 L 191.969499004,184.011041716 M 187.920634885,187.922005806 L 184.385079931,184.386492948" fill="none" stroke="red" stroke-width="2.551991658967"/>
	<path d="M 237.399077165,148.869112421 L 242.676733994,146.791083016 L 248.02632797,144.898845809 L 253.443728424,143.194078735 L 258.924803134,141.678455643 L 264.465418334,140.353646221 L 270.061438734,139.221315895 L 275.708727555,138.2831257 L 281.40314659,137.540732118 L 287.140556297,136.995786901 L 287.526436045,141.980874344 M 281.962829644,142.509308863 L 287.526436045,141.980874344 M 276.441760037,143.229100162 L 281.962829644,142.509308863 M 270.967117012,144.138606496 L 276.441760037,143.229100162 M 265.54279236,145.236193221 L 270.967117012,144.138606496 M 260.172680014,146.520232517 L 265.54279236,145.236193221 M 254.860676139,147.989103154 L 260.172680014,146.520232517 M 249.61067919,149.641190294 L 254.860676139,147.989103154 M 244.426589934,151.474885338 L 249.61067919,149.641190294 M 239.312311468,153.488585822 L 244.426589934,151.474885338 M 239.312311468,153.488585822 L 237.399077165,148.869112421" fill="none" stroke="red" stroke-width="2.551991658967"/>
	<path d="M 300.0,61.5 L 305.591658954,61.5641492779 L 311.16419599,61.756369173 L 316.716509155,62.0763159178 L 322.247495795,62.5236432064 L 327.756052753,63.0980021367 L 333.241076581,63.7990411703 L 338.70146375,64.6264061123 L 344.136110862,65.5797401096 L 349.543914867,66.6586836689 L 348.508613045,71.550324512 M 343.214944333,70.4941528136 L 348.508613045,71.550324512 M 337.894932052,69.5609280365 L 343.214944333,70.4941528136 M 332.549561904,68.750991034 L 337.894932052,69.5609280365 M 327.179819074,68.064686619 L 332.549561904,68.750991034 M 321.786688544,67.502363592 L 327.179819074,68.064686619 M 316.37115542,67.0643747384 L 321.786688544,67.502363592 M 310.934205249,66.751076798 L 316.37115542,67.0643747384 M 305.476824326,66.5628304047 L 310.934205249,66.751076798 M 300.0,66.5 L 305.476824326,66.5628304047 M 300.0,66.5 L 300.0,61.5" fill="none" stroke="red" stroke-width="2.551991658967"/>
	<path d="M 361.769909797,69.5870751664 L 367.083973617,71.0761214639 L 372.366456652,72.6893060135 L 377.616259745,74.4262560035 L 382.832285285,76.2865965078 L 388.013437355,78.269950625 L 393.160067952,80.3767663229 L 398.259186128,82.6065847575 L 403.29394168,84.949611608 L 408.263374883,87.4050471746 L 405.996200268,91.8614941076 M 401.131544345,89.4578305206 L 405.996200268,91.8614941076 M 396.202605238,87.1640484205 L 401.131544345,89.4578305206 M 391.210232309,84.9809102137 L 396.202605238,87.1640484205 M 386.172487893,82.9187036917 L 391.210232309,84.9809102137 M 381.098538345,80.9763855805 L 386.172487893,82.9187036917 M 375.990997655,79.1547360064 L 381.098538345,80.9763855805 M 370.850865298,77.4540707347 L 375.990997655,79.1547360064 M 365.679138209,75.8747084931 L 370.850865298,77.4540707347 M 360.476811004,74.4169711811 L 365.679138209,75.8747084931 M 360.476811004,74.4169711811 L 361.769909797,69.5870751664" fill="none" stroke="red" stroke-width="2.551991658967"/>
	<path d="M 419.331444808,93.4120390732 L 424.088651043,96.235461 L 428.776187091,99.1682397116 L 433.393094388,102.209559247 L 437.938416095,105.358601747 L 442.411197232,108.614547606 L 446.810484796,111.976575619 L 451.135327863,115.443863155 L 455.384777674,119.015586317 L 459.557887701,122.690920124 L 456.210235665,126.404843366 M 452.123634797,122.805698075 L 456.210235665,126.404843366 M 447.962745844,119.308410131 L 452.123634797,122.805698075 M 443.728450473,115.913714737 L 447.962745844,119.308410131 M 439.421626998,112.622348726 L 443.728450473,115.913714737 M 435.043150489,109.435050823 L 439.421626998,112.622348726 M 430.593892895,106.352561901 L 435.043150489,109.435050823 M 426.074723201,103.375625224 L 430.593892895,106.352561901 M 421.486507607,100.50498668 L 426.074723201,103.375625224 M 416.83010972,97.7413950042 L 421.486507607,100.50498668 M 416.83010972,97.7413950042 L 419.331444808,93.4120390732" fill="none" stroke="red" stroke-width="2.551991658967"/>
	<path d="M 468.715215061,131.386787942 L 472.616853348,135.378379104 L 476.417019368,139.448237995 L 480.114889586,143.595427024 L 483.709641154,147.819006283 L 487.20045208,152.118033582 L 490.586501411,156.491564493 L 493.866969401,160.938652415 L 497.041037682,165.458348655 L 500.10788943,170.049702523 L 495.917952465,172.778150475 M 492.915999702,168.283956848 L 495.917952465,172.778150475 M 489.80897504,163.859727862 L 492.915999702,168.283956848 M 486.597618138,159.506329862 L 489.80897504,163.859727862 M 483.282666343,155.224632191 L 486.597618138,159.506329862 M 479.864854934,151.015507328 L 483.282666343,155.224632191 M 476.344917378,146.87983101 L 479.864854934,151.015507328 M 472.723585587,142.818482334 L 476.344917378,146.87983101 M 469.001590185,138.83234382 L 472.723585587,142.818482334 M 465.179660769,134.922301462 L 469.001590185,138.83234382 M 465.179660769,134.922301462 L 468.715215061,131.386787942" fill="none" stroke="red" stroke-width="2.551991658967"/>
	<path d="M 506.689362174,180.77098053 L 509.398101152,185.588783231 L 511.996230415,190.474108555 L 514.482944505,195.425998526 L 516.857440303,200.443494107 L 519.118917099,205.525635385 L 521.261002912,210.662342046 L 523.278411951,215.832011705 L 525.172912676,221.035490685 L 526.944120949,226.272030405 L 522.18955444,227.819317486 M 520.455277735,222.691969049 L 522.18955444,227.819317486 M 518.600038242,217.596330113 L 520.455277735,222.691969049 M 516.624141193,212.533040684 L 518.600038242,217.596330113 M 514.527403915,207.505030919 L 516.624141193,212.533040684 M 512.313325543,202.529404231 L 514.527403915,207.505030919 M 509.988783711,197.617463506 L 512.313325543,202.529404231 M 507.554540127,192.77005877 L 509.988783711,197.617463506 M 505.011352881,187.988041367 L 507.554540127,192.77005877 M 502.359976556,183.272264233 L 505.011352881,187.988041367 M 502.359976556,183.272264233 L 506.689362174,180.77098053" fill="none" stroke="red" stroke-width="2.551991658967"/>
	<path d="M 530.519530419,238.331331244 L 531.885156966,243.677165766 L 533.125589457,249.052898873 L 534.240457341,254.457768728 L 535.229393416,259.891012336 L 536.092033927,265.351865872 L 536.828018635,270.839565 L 537.436990839,276.353345219 L 537.918597382,281.892442186 L 538.272488606,287.456092052 L 533.279234135,287.715726003 M 532.932697743,282.267681828 L 533.279234135,287.715726003 M 532.461157636,276.844348205 L 532.932697743,282.267681828 M 531.864973801,271.446348305 L 532.461157636,276.844348205 M 531.144500972,266.074304561 L 531.864973801,271.446348305 M 530.300088575,260.728839163 L 531.144500972,266.074304561 M 529.33208072,255.410574556 L 530.300088575,260.728839163 M 528.240816248,250.120133946 L 529.33208072,255.410574556 M 527.026628831,244.858141787 L 528.240816248,250.120133946 M 525.689847112,239.625224267 L 527.026628831,244.858141787 M 525.689847112,239.625224267 L 530.519530419,238.331331244" fill="none" stroke="red" stroke-width="2.551991658967"/>
	<path d="M 538.599999996,300.101476859 L 538.535893739,305.705232579 L 538.343867369,311.286259257 L 538.02426065,316.843800403 L 537.577416617,322.377098337 L 537.003681681,327.885394494 L 536.303405711,333.367929734 L 535.476942075,338.82394467 L 534.524647656,344.252679992 L 533.446882829,349.653376803 L 528.555307784,348.617764145 M 529.610254998,343.331406526 L 528.555307784,348.617764145 M 530.542402753,338.017519424 L 529.610254998,343.331406526 M 531.351413046,332.676721628 L 530.542402753,338.017519424 M 532.036942635,327.309631308 L 531.351413046,332.676721628 M 532.598643006,321.916866516 L 532.036942635,327.309631308 M 533.036160393,316.499045675 L 532.598643006,321.916866516 M 533.349135847,311.056788072 L 533.036160393,316.499045675 M 533.537205355,305.590714321 L 533.349135847,311.056788072 M 533.599999996,300.101446819 L 533.537205355,305.590714321 M 533.599999996,300.101446819 L 538.599999996,300.101476859" fill="none" stroke="red" stroke-width="2.551991658967"/>
	<path d="M 530.518780822,361.87146669 L 529.029593282,367.18210467 L 527.416174418,372.46137889 L 525.678902971,377.708534669 L 523.818160347,382.922819582 L 521.834330384,388.103483668 L 519.726974478,393.251234312 L 517.496367566,398.352643401 L 515.152453736,403.38963569 L 512.696033716,408.361250215 L 508.239563963,406.094120458 M 510.64419134,401.227329011 L 508.239563963,406.094120458 M 512.938841969,396.296199765 L 510.64419134,401.227329011 M 515.122752452,391.30158318 L 512.938841969,396.296199765 M 517.185703612,386.262215319 L 515.122752452,391.30158318 M 519.128627636,381.188379339 L 517.185703612,386.262215319 M 520.950738932,376.082353616 L 519.128627636,381.188379339 M 522.651731047,370.944777634 L 520.950738932,376.082353616 M 524.231293879,365.776287174 L 522.651731047,370.944777634 M 525.68911333,360.577514638 L 524.231293879,365.776287174 M 525.68911333,360.577514638 L 530.518780822,361.87146669" fill="none" stroke="red" stroke-width="2.551991658967"/>
	<path d="M 506.688661554,419.430232141 L 503.865267406,424.187455887 L 500.932516266,428.875009688 L 497.891224097,433.491934981 L 494.742208755,438.037274925 L 491.486289847,442.51007454 L 488.124288576,446.909380825 L 484.657027575,451.234242852 L 481.085330738,455.483711862 L 477.410023048,459.656841329 L 473.696080311,456.309210922 M 477.295199917,452.222591141 L 473.696080311,456.309210922 M 480.792461991,448.0616835 L 477.295199917,452.222591141 M 484.187131328,443.827369663 L 480.792461991,448.0616835 M 487.478471096,439.520527944 L 484.187131328,443.827369663 M 490.665742567,435.142033411 L 487.478471096,439.520527944 M 493.748204871,430.692758014 L 490.665742567,435.142033411 M 496.725114741,426.173570738 L 493.748204871,430.692758014 M 499.595726289,421.585337779 L 496.725114741,426.173570738 M 502.359290779,416.928922745 L 499.595726289,421.585337779 M 502.359290779,416.928922745 L 506.688661554,419.430232141" fill="none" stroke="red" stroke-width="2.551991658967"/>
	<path d="M 468.713712811,468.814714312 L 464.722182698,472.71631661 L 460.652386708,476.516449326 L 456.505262398,480.214288959 L 452.281749638,483.809012689 L 447.982790583,487.299798557 L 443.609329624,490.685825641 L 439.162313327,493.966274225 L 434.642690347,497.140325973 L 430.051411337,500.20716409 L 427.322939798,496.017242485 M 431.817060184,493.015303042 L 427.322939798,496.017242485 M 436.241217506,489.90829453 L 431.817060184,493.015303042 M 440.594545448,486.696956582 L 436.241217506,489.90829453 M 444.876174702,483.382026516 L 440.594545448,486.696956582 M 449.085232822,479.964239582 L 444.876174702,483.382026516 M 453.220844101,476.444329218 L 449.085232822,479.964239582 M 457.282129477,472.823027309 L 453.220844101,476.444329218 M 461.268206463,469.101064451 L 457.282129477,472.823027309 M 465.178189098,465.279170213 L 461.268206463,469.101064451 M 465.178189098,465.279170213 L 468.713712811,468.814714312" fill="none" stroke="red" stroke-width="2.551991658967"/>
	<path d="M 419.330232141,506.788661554 L 414.512451161,509.497426017 L 409.62714744,512.095581175 L 404.67527895,514.582321571 L 399.657804726,516.956844088 L 394.575684677,519.218348018 L 389.438992682,521.360464424 L 384.269336671,523.377903444 L 379.065871207,525.272434477 L 373.829344869,527.043673387 L 372.282029032,522.289116236 M 377.409364528,520.554809479 L 372.282029032,522.289116236 M 382.504990413,518.699540238 L 377.409364528,520.554809479 M 387.568266685,516.723613742 L 382.504990413,518.699540238 M 392.596261535,514.626846735 L 387.568266685,516.723613742 M 397.571867325,512.412741849 L 392.596261535,514.626846735 M 402.483787052,510.088173903 L 397.571867325,512.412741849 M 407.331170691,507.653904603 L 402.483787052,510.088173903 M 412.1131669,505.110692034 L 407.331170691,507.653904603 M 416.828922745,502.459290779 L 412.1131669,505.110692034 M 416.828922745,502.459290779 L 419.330232141,506.788661554" fill="none" stroke="red" stroke-width="2.551991658967"/>
	<path d="M 361.770067724,530.619155625 L 356.424100458,531.984849178 L 351.048232856,533.225342192 L 345.643226818,534.340264085 L 340.209845396,535.329247626 L 334.748852479,536.191929033 L 329.261012458,536.927948034 L 323.747089898,537.536947903 L 318.207849201,538.018575452 L 312.644054276,538.372480997 L 312.384417294,533.379226684 M 317.832603485,533.03267627 L 312.384417294,533.379226684 M 323.256077795,532.561115599 L 317.832603485,533.03267627 M 328.654217003,531.964904686 L 323.256077795,532.561115599 M 334.026398627,531.244398292 L 328.654217003,531.964904686 M 339.372000429,530.399945869 L 334.026398627,531.244398292 M 344.690399913,529.431891555 L 339.372000429,530.399945869 M 349.980973826,528.340574217 L 344.690399913,529.431891555 M 355.243097663,527.126327551 L 349.980973826,528.340574217 M 360.476145186,525.789480225 L 355.243097663,527.126327551 M 360.476145186,525.789480225 L 361.770067724,530.619155625" fill="none" stroke="red" stroke-width="2.551991658967"/>
	<path d="M 300.00073843,538.699999999 L 294.396753245,538.635939226 L 288.815498626,538.443948124 L 283.257731154,538.124366499 L 277.724208597,537.677537424 L 272.215689611,537.103807352 L 266.732933424,536.403526191 L 261.276699515,535.57704735 L 255.847747282,534.624727754 L 250.446835713,533.546927822 L 251.482443872,528.655351824 M 256.769011704,529.710333401 L 251.482443872,528.655351824 M 262.083111142,530.642505802 L 256.769011704,529.710333401 M 267.424123326,531.451530985 L 262.083111142,530.642505802 M 272.79143001,532.137065664 L 267.424123326,531.451530985 M 278.184413071,532.698761285 L 272.79143001,532.137065664 M 283.60245401,533.136264039 L 278.184413071,532.698761285 M 289.04493347,533.449214933 L 283.60245401,533.136264039 M 294.51123076,533.637249908 L 289.04493347,533.449214933 M 300.000723409,533.699999999 L 294.51123076,533.637249908 M 300.000723409,533.699999999 L 300.00073843,538.699999999" fill="none" stroke="red" stroke-width="2.551991658967"/>
	<path d="M 238.229932276,530.619155625 L 232.919281265,529.129999333 L 227.639993876,527.516611387 L 222.392824789,525.779370532 L 217.178526434,523.918658171 L 211.997848774,521.934858145 L 206.850085569,519.827533375 L 201.748655358,517.596953586 L 196.711641819,515.253066465 L 191.740005919,512.796672742 L 194.007109157,508.340189497 M 198.873921602,510.74479117 L 194.007109157,508.340189497 M 203.805071747,513.039415695 L 198.873921602,510.74479117 M 208.799709132,515.223299675 L 203.805071747,513.039415695 M 213.83908975,517.286220531 L 208.799709132,515.223299675 M 218.912938822,519.229115158 L 213.83908975,517.286220531 M 224.018977529,521.051196755 L 218.912938822,519.229115158 M 229.156566389,522.752158868 L 224.018977529,521.051196755 M 234.325069618,524.331691391 L 229.156566389,522.752158868 M 239.523854814,525.789480225 L 234.325069618,524.331691391 M 239.523854814,525.789480225 L 238.229932276,530.619155625" fill="none" stroke="red" stroke-width="2.551991658967"/>
	<path d="M 180.67098053,506.789362174 L 175.913739273,503.965995804 L 171.226167719,501.033272238 L 166.609224432,497.992007434 L 162.06386625,494.84301925 L 157.591048156,491.587127293 L 153.191723152,488.225152765 L 148.866842164,484.757918298 L 144.617353954,481.186247787 L 140.444205048,477.510966214 L 143.791813826,473.797003981 M 147.87845252,477.396097903 L 143.791813826,473.797003981 M 152.039378849,480.893334106 L 147.87845252,477.396097903 M 156.273711153,484.287977386 L 152.039378849,480.893334106 M 160.580571116,487.57929091 L 156.273711153,484.287977386 M 164.959083671,490.766535951 L 160.580571116,487.57929091 M 169.408376871,493.848971636 L 164.959083671,490.766535951 M 173.927581731,496.8258547 L 169.408376871,493.848971636 M 178.515832054,499.696439251 L 173.927581731,496.8258547 M 183.172264233,502.459976556 L 178.515832054,499.696439251 M 183.172264233,502.459976556 L 180.67098053,506.789362174" fill="none" stroke="red" stroke-width="2.551991658967"/>
	<path d="M 131.286287189,468.814714312 L 127.384561693,464.823102006 L 123.584310733,460.753219643 L 119.886357874,456.60600485 L 116.291525998,452.382397569 L 112.800637127,448.083340025 L 109.414512246,443.709776682 L 106.133971132,439.262654176 L 102.959832185,434.742921235 L 99.8929122618,430.151528586 L 104.08283225,427.423054564 M 107.084851772,431.917286191 L 104.08283225,427.423054564 M 110.191945651,436.341551164 L 107.084851772,431.917286191 M 113.403374197,440.694983102 L 110.191945651,436.341551164 M 116.718400037,444.976712629 L 113.403374197,440.694983102 M 120.136287866,449.185867234 L 116.718400037,444.976712629 M 123.656304189,453.321571142 L 120.136287866,449.185867234 M 127.277717065,457.382945224 L 123.656304189,453.321571142 M 130.999795844,461.369106923 L 127.277717065,457.382945224 M 134.821810902,465.279170213 L 130.999795844,461.369106923 M 134.821810902,465.279170213 L 131.286287189,468.814714312" fill="none" stroke="red" stroke-width="2.551991658967"/>
	<path d="M 93.3120390732,419.431444808 L 90.603249125,414.613685549 L 88.0050680727,409.728403431 L 85.5183013702,404.776556422 L 83.1437521345,399.759103554 L 80.8822210714,394.677004734 L 78.7400740726,389.540327408 L 76.7226050717,384.370685045 L 74.8280437297,379.167233096 L 73.0567741837,373.93072014 L 77.8113219765,372.383375548 M 79.5456587851,377.510698102 L 77.8113219765,372.383375548 M 81.4009577742,382.606310937 L 79.5456587851,377.510698102 M 83.3769137161,387.669574052 L 81.4009577742,382.606310937 M 85.4737104517,392.697553984 L 83.3769137161,387.669574052 M 87.6878418525,397.673138877 L 85.4737104517,392.697553984 M 90.0124359116,402.585037606 L 87.6878418525,397.673138877 M 92.4467309282,407.432400148 L 90.0124359116,402.585037606 M 94.9899688186,412.214375163 L 92.4467309282,407.432400148 M 97.6413950042,416.93010972 L 94.9899688186,412.214375163 M 97.6413950042,416.93010972 L 93.3120390732,419.431444808" fill="none" stroke="red" stroke-width="2.551991658967"/>
	<path d="M 69.481219178,361.87146669 L 68.1154928174,356.52550737 L 66.8749668979,351.149647515 L 65.7600120022,345.744649024 L 64.7709953626,340.311274949 L 63.908280763,334.850289177 L 63.1722284746,329.362456102 L 62.5631952253,323.848540286 L 62.0815342031,318.309306133 L 61.7275950938,312.745517552 L 66.7208478312,312.485850263 M 67.0674310996,317.934030051 L 66.7208478312,312.485850263 M 67.5390245301,323.357497794 L 67.0674310996,317.934030051 M 68.1352681089,328.755630272 L 67.5390245301,323.357497794 M 68.8558070758,334.127805002 L 68.1352681089,328.755630272 M 69.7002919803,339.473399747 L 68.8558070758,334.127805002 M 70.6683786869,344.79179201 L 69.7002919803,339.473399747 M 71.7597283292,350.082358539 L 70.6683786869,344.79179201 M 72.9740072131,355.344474828 L 71.7597283292,350.082358539 M 74.3108866705,360.577514638 L 72.9740072131,355.344474828 M 74.3108866705,360.577514638 L 69.481219178,361.87146669" fill="none" stroke="red" stroke-width="2.551991658967"/>
	<path d="M 61.4000000044,300.101476859 L 61.4640422473,294.497562285 L 61.6560115027,288.916377569 L 61.9755679799,283.358679262 L 62.4223686189,277.825225103 L 62.9960669817,272.316773717 L 63.6963131748,266.834084303 L 64.5227538026,261.37791631 L 65.4750319556,255.949029105 L 66.552787231,250.548181647 L 71.4443692614,251.583761311 M 70.3894313957,256.870266395 L 71.4443692614,251.583761311 M 69.4572995542,262.184302214 L 70.3894313957,256.870266395 M 68.6483117687,267.525249932 L 69.4572995542,262.184302214 M 67.9628113109,272.892491329 L 68.6483117687,267.525249932 M 67.401146724,278.285408305 L 67.9628113109,272.892491329 M 66.9636718035,283.703382387 L 67.401146724,278.285408305 M 66.6507455287,289.145794241 L 66.9636718035,283.703382387 M 66.4627319455,294.612023201 L 66.6507455287,289.145794241 M 66.4000000043,300.101446819 L 66.4627319455,294.612023201 M 66.4000000043,300.101446819 L 61.4000000044,300.101476859" fill="none" stroke="red" stroke-width="2.551991658967"/>
	<path d="M 69.4804695811,238.331331244 L 70.9695946257,233.020667203 L 72.5829516518,227.741366643 L 74.3201619161,222.494184249 L 76.1808440131,217.279872452 L 78.1646141025,212.099181219 L 80.2719077358,206.951405454 L 82.5024604008,201.84995412 L 84.846320813,196.812919332 L 87.3026882392,191.841262058 L 91.7591849754,194.108338775 M 89.3546090084,198.975172219 L 91.7591849754,194.108338775 M 87.0600105857,203.906343264 L 89.3546090084,198.975172219 M 84.876153109,208.901001449 L 87.0600105857,203.906343264 M 82.8132625584,213.940394822 L 84.876153109,208.901001449 M 80.870397328,219.014256985 L 82.8132625584,213.940394822 M 79.0483454303,224.120308677 L 80.870397328,219.014256985 M 77.3474133204,229.257910414 L 79.0483454303,224.120308677 M 75.767911106,234.426426412 L 77.3474133204,229.257910414 M 74.3101528879,239.625224267 L 75.767911106,234.426426412 M 74.3101528879,239.625224267 L 69.4804695811,238.331331244" fill="none" stroke="red" stroke-width="2.551991658967"/>
	<path d="M 93.3106378259,180.77098053 L 96.1340041956,176.013739273 L 99.0667277625,171.326167719 L 102.107992566,166.709224432 L 105.25698075,162.16386625 L 108.512872707,157.691048156 L 111.874847235,153.291723152 L 115.342081702,148.966842164 L 118.913752213,144.717353954 L 122.589033786,140.544205048 L 126.302996019,143.891813826 M 122.703902097,147.97845252 L 126.302996019,143.891813826 M 119.206665894,152.139378849 L 122.703902097,147.97845252 M 115.812022614,156.373711153 L 119.206665894,152.139378849 M 112.52070909,160.680571116 L 115.812022614,156.373711153 M 109.333464049,165.059083671 L 112.52070909,160.680571116 M 106.251028364,169.508376871 L 109.333464049,165.059083671 M 103.2741453,174.027581731 L 106.251028364,169.508376871 M 100.403560749,178.615832054 L 103.2741453,174.027581731 M 97.6400234444,183.272264233 L 100.403560749,178.615832054 M 97.6400234444,183.272264233 L 93.3106378259,180.77098053" fill="none" stroke="red" stroke-width="2.551991658967"/>
	<path d="M 131.284784939,131.386787942 L 135.276336196,127.485098436 L 139.346155657,123.68488078 L 143.493305732,119.986958508 L 147.716846514,116.39215447 L 152.015835813,112.901290656 L 156.389329204,109.515188022 L 160.836380087,106.234666315 L 165.356039768,103.060543901 L 169.947357559,99.9936376084 L 172.675855168,104.183542237 M 168.181696781,107.18554844 L 172.675855168,104.183542237 M 163.757503473,110.292626167 L 168.181696781,107.18554844 M 159.404141593,113.504035759 L 163.757503473,110.292626167 M 155.122480482,116.819039871 L 159.404141593,113.504035759 M 150.913392621,120.236903224 L 155.122480482,116.819039871 M 146.777753751,123.756892354 L 150.913392621,120.236903224 M 142.716442969,127.378275348 L 146.777753751,123.756892354 M 138.730342797,131.100321583 L 142.716442969,127.378275348 M 134.820339231,134.922301462 L 138.730342797,131.100321583 M 134.820339231,134.922301462 L 131.284784939,131.386787942" fill="none" stroke="red" stroke-width="2.551991658967"/>
	<path d="M 180.668555192,93.4120390732 L 185.484874324,90.7040368067 L 190.36867652,88.1065775424 L 195.319004664,85.620466018 L 200.33490058,83.2465046376 L 205.415405215,80.9854933966 L 210.551145892,78.8436888019 L 215.721566603,76.82648458 L 220.927154318,74.9321492687 L 226.166814142,73.1610601116 L 227.713089993,77.9159555881 M 222.582762835,79.6500895436 L 227.713089993,77.9159555881 M 217.485294981,81.5050807593 L 222.582762835,79.6500895436 M 212.421686169,83.4806144074 L 217.485294981,81.5050807593 M 207.395014704,85.576914339 L 212.421686169,83.4806144074 M 202.420991176,87.7905365508 L 207.395014704,85.576914339 M 197.510617016,90.114554947 L 202.420991176,87.7905365508 M 192.664741493,92.5482085086 L 197.510617016,90.114554947 M 187.88421519,95.0907398295 L 192.664741493,92.5482085086 M 183.16989028,97.7413950042 L 187.88421519,95.0907398295 M 183.16989028,97.7413950042 L 180.668555192,93.4120390732" fill="none" stroke="red" stroke-width="2.551991658967"/>
	<path d="M 238.230090203,69.5870751664 L 243.582133458,68.2207157675 L 248.963635941,66.9795836351 L 254.373490252,65.8640460676 L 259.810588166,64.8744678184 L 265.27382084,64.0112110341 L 270.762079021,63.2746352103 L 276.274253268,62.665097169 L 281.80923416,62.1829510538 L 287.365912516,61.8285483458 L 287.626386702,66.8217590562 M 282.185313014,67.1687874626 L 287.626386702,66.8217590562 M 276.765996322,67.6408572887 L 282.185313014,67.1687874626 M 271.369427319,68.2376109352 L 276.765996322,67.6408572887 M 265.996596336,68.9586947967 L 271.369427319,68.2376109352 M 260.648493673,69.803759285 L 265.996596336,68.9586947967 M 255.326109916,70.7724588229 L 260.648493673,69.803759285 M 250.030436261,71.8644518091 L 255.326109916,70.7724588229 M 244.762464833,73.0794005529 L 250.030436261,71.8644518091 M 239.523188996,74.4169711811 L 244.762464833,73.0794005529 M 239.523188996,74.4169711811 L 238.230090203,69.5870751664" fill="none" stroke="red" stroke-width="2.551991658967"/>
</svg>
